<?xml version="1.0" encoding="UTF-8" standalone="no"?>
<svg
   version="1.1"
   id="Ebene_1"
   x="0"
   y="0"
   viewBox="0 0 128 128"
   xml:space="preserve"
   sodipodi:docname="F_ico.svg"
   inkscape:version="1.4.3 (0d15f75, 2025-12-25)"
   width="128"
   height="128"
   xmlns:inkscape="http://www.inkscape.org/namespaces/inkscape"
   xmlns:sodipodi="http://sodipodi.sourceforge.net/DTD/sodipodi-0.dtd"
   xmlns="http://www.w3.org/2000/svg"
   xmlns:svg="http://www.w3.org/2000/svg"><defs
     id="defs1"><rect
       x="-239.33421"
       y="36.158405"
       width="137.17236"
       height="119.95408"
       id="rect31" /><rect
       x="-326.23102"
       y="171.84029"
       width="79.661064"
       height="131.25108"
       id="rect3" /><rect
       x="-54.624729"
       y="226.08568"
       width="751.09003"
       height="626.66705"
       id="rect1" /><rect
       x="-54.624729"
       y="226.08568"
       width="751.09003"
       height="626.66705"
       id="rect2" /><rect
       x="-326.23102"
       y="171.84029"
       width="79.661064"
       height="131.25108"
       id="rect4" /></defs><sodipodi:namedview
     id="namedview1"
     pagecolor="#ffffff"
     bordercolor="#000000"
     borderopacity="0.25"
     inkscape:showpageshadow="2"
     inkscape:pageopacity="0.0"
     inkscape:pagecheckerboard="0"
     inkscape:deskcolor="#d1d1d1"
     inkscape:zoom="1.7423334"
     inkscape:cx="48.498181"
     inkscape:cy="48.785152"
     inkscape:window-width="1920"
     inkscape:window-height="1122"
     inkscape:window-x="-8"
     inkscape:window-y="-8"
     inkscape:window-maximized="1"
     inkscape:current-layer="Ebene_1"
     inkscape:export-bgcolor="#ffffffff"><inkscape:page
       x="0"
       y="0"
       width="128"
       height="128"
       id="page2"
       margin="0"
       bleed="0" /></sodipodi:namedview><style
     type="text/css"
     id="style1">.st0{fill:#fff}</style><g
     inkscape:groupmode="layer"
     id="layer1"
     inkscape:label="dinish"
     transform="translate(-718.81751,-323.3233)" /><g
     inkscape:groupmode="layer"
     id="layer3"
     inkscape:label="Layer 1"
     transform="translate(-718.81751,-323.3233)"
     style="display:inline" /><g
     inkscape:groupmode="layer"
     id="layer4"
     inkscape:label="Layer 2"
     transform="translate(-718.81751,-323.3233)"
     style="display:none"><path
       style="font-weight:bold;font-size:32px;font-family:DINish;-inkscape-font-specification:'DINish, Bold';letter-spacing:0.2px;white-space:pre;opacity:0.5;fill:#000080;stroke-width:11.0001;stroke-linejoin:bevel"
       d="m 673.85937,-179.16321 9.91835,-8.79935 -28.74454,-32.39997 47.84657,15.45306 9.84488,-8.73416 -46.08253,-51.94281 -9.84488,8.73417 28.8749,32.5469 -47.97692,-15.6 -9.91836,8.79935 z"
       id="path10"
       transform="translate(-9.907096,323.3233)" /><path
       style="font-weight:bold;font-size:32px;font-family:DINish;-inkscape-font-specification:'DINish, Bold';letter-spacing:0.2px;white-space:pre;opacity:0.5;fill:#000080;stroke-width:11.0001;stroke-linejoin:bevel"
       d="m 603.97674,-138.26757 40.72124,-21.53074 -5.3712,-10.1586 -28.9998,15.3332 -8.30929,-15.71546 25.00581,-13.22144 -5.3712,-10.15861 -25.00582,13.22144 -8.03386,-15.19449 28.99979,-15.33319 -5.37121,-10.15861 -40.72124,21.53074 z"
       id="path9"
       transform="translate(-9.907096,323.3233)" /><path
       style="font-weight:bold;font-size:32px;font-family:DINish;-inkscape-font-specification:'DINish, Bold';letter-spacing:0.2px;white-space:pre;opacity:0.5;fill:#000080;stroke-width:11.0001;stroke-linejoin:bevel"
       d="m 510.39312,-134.00921 h 27.89311 c 13.35726,0 21.31269,-7.36614 21.31269,-19.93768 0,-7.46435 -3.33931,-13.06262 -9.62508,-15.81264 5.50005,-2.75003 8.74115,-8.25008 8.74115,-14.33942 0,-12.37511 -7.95543,-19.34839 -21.50913,-19.34839 h -26.81274 z m 13.25905,-11.49118 v -18.07159 h 13.35726 c 6.28577,0 9.42866,3.2411 9.42866,8.74115 0,5.89291 -3.14289,9.33044 -9.42866,9.33044 z m 0,-29.56276 v -16.89301 h 12.57154 c 6.08934,0 9.23223,2.94645 9.23223,8.64293 0,5.30362 -3.14289,8.25008 -9.23223,8.25008 z"
       id="path8"
       transform="translate(-9.907096,323.3233)" /><path
       style="font-weight:bold;font-size:32px;font-family:DINish;-inkscape-font-specification:'DINish, Bold';letter-spacing:0.2px;white-space:pre;opacity:0.5;fill:#000080;stroke-width:11.0001;stroke-linejoin:bevel"
       d="m 422.42037,-177.26034 12.479,6.00425 9.63957,-10.29389 21.50636,10.34776 -2.02827,13.95606 12.56751,6.04685 7.89205,-73.26043 -9.73539,-4.68417 z m 30.07403,-12.66904 19.0629,-20.36487 -3.92878,27.64663 z"
       id="path7"
       transform="translate(-9.907096,323.3233)" /><path
       style="font-weight:bold;font-size:32px;font-family:DINish;-inkscape-font-specification:'DINish, Bold';letter-spacing:0.2px;white-space:pre;opacity:0.5;fill:#000080;stroke-width:11.0001;stroke-linejoin:bevel"
       d="m 363.95712,-227.8895 10.78299,7.71553 16.40265,-22.92384 7.9874,5.7152 -5.69953,30.58223 12.38048,8.85857 5.24509,-33.32275 c 8.10448,2.17595 15.528,-0.60377 20.78599,-7.95218 7.42978,-10.38362 5.03018,-21.8828 -5.99244,-29.76979 l -21.48611,-15.3739 z m 33.52952,-24.07433 10.9732,-15.33581 10.144,7.25831 c 4.95219,3.54343 5.85006,8.53352 2.53524,13.16622 -3.54343,4.95219 -8.55625,5.71302 -13.50844,2.16959 z"
       id="path6"
       transform="translate(-9.907096,323.3233)" /><path
       style="font-weight:bold;font-size:32px;font-family:DINish;-inkscape-font-specification:'DINish, Bold';letter-spacing:0.2px;white-space:pre;opacity:0.5;fill:#000080;stroke-width:11.0001;stroke-linejoin:bevel"
       d="m 306.21737,-247.30432 c 14.87617,7.58125 26.32786,3.49626 34.39967,-12.34248 l 5.39606,-10.58833 -22.40176,-11.41648 -4.95011,9.71326 10.93836,5.57445 -1.47165,2.88773 c -3.83523,7.52559 -8.85849,9.59544 -16.03405,5.9386 -7.7006,-3.92441 -9.10489,-9.82106 -3.9318,-19.97186 l 6.82313,-13.38855 c 5.44067,-10.67584 10.8636,-13.31363 18.38919,-9.47841 6.65053,3.38927 8.36024,9.5518 5.50612,15.15224 l -0.31216,0.61255 11.72591,5.97581 0.31217,-0.61255 c 6.42177,-12.60099 1.59381,-24.54154 -11.88225,-31.40927 -15.13868,-7.71504 -26.85626,-3.32462 -35.24024,13.12668 l -7.22449,14.17611 c -8.38397,16.45129 -5.00577,28.42465 9.9579,36.0505 z"
       id="path5"
       transform="translate(-9.907096,323.3233)" /><path
       style="font-weight:bold;font-size:32px;font-family:DINish;-inkscape-font-specification:'DINish, Bold';letter-spacing:0.2px;white-space:pre;opacity:0.5;fill:#000080;stroke-width:11.0001;stroke-linejoin:bevel"
       d="m 231.65786,-251.8237 13.3545,-0.27194 -1.17976,-57.93494 17.67507,-0.35993 -0.23395,-11.48879 -48.70462,0.99179 0.23395,11.4888 17.67506,-0.35993 z"
       id="path4"
       transform="translate(-9.907096,323.3233)" /><path
       style="font-weight:bold;font-size:32px;font-family:DINish;-inkscape-font-specification:'DINish, Bold';letter-spacing:0.2px;white-space:pre;opacity:0.5;fill:#000080;stroke-width:11.0001;stroke-linejoin:bevel"
       d="m 172.34219,-236.11478 c 13.34786,-4.67533 20.35762,-17.64126 15.8771,-30.43296 l -15.3896,-43.93671 -12.51362,4.38311 15.22726,43.47324 c 2.5974,7.41548 -0.14053,13.26558 -6.99984,15.66818 -6.85932,2.40259 -12.4638,-0.52543 -15.0612,-7.94091 l -15.22727,-43.47324 -12.51362,4.38311 15.3896,43.93671 c 4.48052,12.7917 17.86333,18.61479 31.21119,13.93947 z"
       id="path3"
       transform="translate(-9.907096,323.3233)" /><path
       style="font-weight:bold;font-size:32px;font-family:DINish;-inkscape-font-specification:'DINish, Bold';letter-spacing:0.2px;white-space:pre;opacity:0.5;fill:#000080;stroke-width:11.0001;stroke-linejoin:bevel"
       d="m 96.468587,-192.41049 35.926513,-24.71646 -6.51312,-9.46712 -25.00291,17.20131 -32.843937,-47.74017 -10.923601,7.51513 z"
       id="path2"
       transform="translate(-9.907096,323.3233)" /><path
       style="font-weight:bold;font-size:32px;font-family:DINish;-inkscape-font-specification:'DINish, Bold';letter-spacing:0.2px;white-space:pre;opacity:0.5;fill:#000080;stroke-width:11.0001;stroke-linejoin:bevel"
       d="m 50.002609,-143.73046 9.200016,-9.54789 -21.005336,-20.24003 19.69485,-20.43954 -8.274835,-7.97335 -19.69485,20.43954 -12.44761,-11.99409 22.761522,-23.62217 -8.274827,-7.97335 L 0,-191.91129 Z"
       id="text1"
       transform="translate(-9.907096,323.3233)" /><text
       xml:space="preserve"
       id="text2"
       style="font-weight:bold;font-size:32px;font-family:DINish;-inkscape-font-specification:'DINish, Bold';letter-spacing:0.2px;writing-mode:lr-tb;direction:ltr;white-space:pre;shape-inside:url(#rect2);display:inline;opacity:0.5;fill:#000080;stroke-width:3.5;stroke-linejoin:bevel"
       transform="matrix(3.1428855,0,0,3.1428855,-436.97618,-917.6666)"><tspan
         x="-54.625"
         y="255.97192"
         id="tspan1">FLUTGRABEN</tspan></text><path
       style="font-weight:bold;font-size:32px;font-family:DINish;-inkscape-font-specification:'DINish, Bold';letter-spacing:0.2px;white-space:pre;opacity:0.5;fill:#000080;stroke-width:11.0001;stroke-linejoin:bevel"
       d="m -75.662957,-329.1139 h 13.259048 v -43.31289 l 25.535945,43.31289 h 13.160833 v -69.43813 h -13.160833 v 43.50933 l -25.535945,-43.50933 h -13.259048 z"
       id="path11"
       transform="translate(-9.907096,323.3233)" /><path
       style="font-weight:bold;font-size:32px;font-family:DINish;-inkscape-font-specification:'DINish, Bold';letter-spacing:0.2px;white-space:pre;opacity:0.5;fill:#000080;stroke-width:11.0001;stroke-linejoin:bevel"
       d="m -132.17594,-329.1139 h 46.06292 v -11.49117 h -32.80388 v -17.77695 h 28.285986 V -369.8732 H -118.9169 v -17.18765 h 32.80388 v -11.49118 h -46.06292 z"
       id="path12"
       transform="translate(-9.907096,323.3233)" /><path
       style="font-weight:bold;font-size:32px;font-family:DINish;-inkscape-font-specification:'DINish, Bold';letter-spacing:0.2px;white-space:pre;opacity:0.5;fill:#000080;stroke-width:11.0001;stroke-linejoin:bevel"
       d="m -192.91222,-329.1139 h 27.89311 c 13.35726,0 21.31269,-7.36614 21.31269,-19.93768 0,-7.46435 -3.33931,-13.06262 -9.62508,-15.81264 5.50005,-2.75003 8.74115,-8.25008 8.74115,-14.33942 0,-12.37511 -7.95543,-19.34839 -21.50913,-19.34839 h -26.81274 z m 13.25905,-11.49117 v -18.0716 h 13.35726 c 6.28577,0 9.42866,3.2411 9.42866,8.74115 0,5.89291 -3.14289,9.33045 -9.42866,9.33045 z m 0,-29.56277 v -16.89301 h 12.57154 c 6.08934,0 9.23223,2.94645 9.23223,8.64293 0,5.30362 -3.14289,8.25008 -9.23223,8.25008 z"
       id="path13"
       transform="translate(-9.907096,323.3233)" /><path
       style="font-weight:bold;font-size:32px;font-family:DINish;-inkscape-font-specification:'DINish, Bold';letter-spacing:0.2px;white-space:pre;opacity:0.5;fill:#000080;stroke-width:11.0001;stroke-linejoin:bevel"
       d="m -259.93427,-329.1139 h 13.84834 l 4.22325,-13.45548 h 23.86629 l 4.22325,13.45548 h 13.94656 l -24.65201,-69.43813 h -10.80367 z m 21.60734,-24.45558 8.34829,-26.61631 8.4465,26.61631 z"
       id="path14"
       transform="translate(-9.907096,323.3233)" /><path
       style="font-weight:bold;font-size:32px;font-family:DINish;-inkscape-font-specification:'DINish, Bold';letter-spacing:0.2px;white-space:pre;opacity:0.5;fill:#000080;stroke-width:11.0001;stroke-linejoin:bevel"
       d="m -315.3669,-329.1139 h 13.25905 v -28.18775 h 9.82151 l 13.16084,28.18775 h 15.22335 l -15.12514,-30.15206 c 7.85722,-2.94645 12.2769,-9.52687 12.2769,-18.56266 0,-12.76798 -8.64294,-20.72341 -22.19663,-20.72341 h -26.41988 z m 13.25905,-39.08964 v -18.85731 h 12.47332 c 6.08934,0 9.72331,3.53575 9.72331,9.23223 0,6.08934 -3.63397,9.62508 -9.72331,9.62508 z"
       id="path15"
       transform="translate(-9.907096,323.3233)" /><path
       style="font-weight:bold;font-size:32px;font-family:DINish;-inkscape-font-specification:'DINish, Bold';letter-spacing:0.2px;white-space:pre;opacity:0.5;fill:#000080;stroke-width:11.0001;stroke-linejoin:bevel"
       d="m -351.94222,-328.32818 c 16.69658,0 25.04487,-8.83936 25.04487,-26.61631 v -11.88404 h -25.14309 v 10.90189 h 12.2769 v 3.2411 c 0,8.4465 -3.53575,12.57154 -11.58939,12.57154 -8.64294,0 -12.57154,-4.61611 -12.57154,-16.00907 v -15.02692 c 0,-11.98225 3.63396,-16.7948 12.08046,-16.7948 7.46436,0 11.78582,4.71433 11.78582,11.0001 v 0.68751 h 13.16084 v -0.68751 c 0,-14.14298 -9.72331,-22.58949 -24.84844,-22.58949 -16.99123,0 -25.43773,9.23223 -25.43773,27.69668 v 15.91086 c 0,18.46445 8.4465,27.59846 25.2413,27.59846 z"
       id="path16"
       transform="translate(-9.907096,323.3233)" /><path
       style="font-weight:bold;font-size:32px;font-family:DINish;-inkscape-font-specification:'DINish, Bold';letter-spacing:0.2px;white-space:pre;opacity:0.5;fill:#000080;stroke-width:11.0001;stroke-linejoin:bevel"
       d="m -412.38385,-329.1139 h 13.35726 v -57.94695 h 17.67873 v -11.49118 h -48.71472 v 11.49118 h 17.67873 z"
       id="path17"
       transform="translate(-9.907096,323.3233)" /><path
       style="font-weight:bold;font-size:32px;font-family:DINish;-inkscape-font-specification:'DINish, Bold';letter-spacing:0.2px;white-space:pre;opacity:0.5;fill:#000080;stroke-width:11.0001;stroke-linejoin:bevel"
       d="m -463.20037,-328.52461 c 14.14298,0 25.04487,-9.91973 25.04487,-23.47343 v -46.55399 h -13.25905 v 46.06292 c 0,7.85721 -4.5179,12.47333 -11.78582,12.47333 -7.26792,0 -11.58939,-4.61612 -11.58939,-12.47333 v -46.06292 h -13.25905 v 46.55399 c 0,13.5537 10.70545,23.47343 24.84844,23.47343 z"
       id="path18"
       transform="translate(-9.907096,323.3233)" /><path
       style="font-weight:bold;font-size:32px;font-family:DINish;-inkscape-font-specification:'DINish, Bold';letter-spacing:0.2px;white-space:pre;opacity:0.5;fill:#000080;stroke-width:11.0001;stroke-linejoin:bevel"
       d="m -535.13317,-329.1139 h 43.60754 v -11.49117 h -30.34849 v -57.94696 h -13.25905 z"
       id="path19"
       transform="translate(-9.907096,323.3233)" /><path
       style="font-weight:bold;font-size:32px;font-family:DINish;-inkscape-font-specification:'DINish, Bold';letter-spacing:0.2px;white-space:pre;display:inline;opacity:0.5;fill:#000080;stroke-width:11.0001;stroke-linejoin:bevel"
       d="m -591.64618,-329.1139 h 13.25905 v -29.16991 h 28.38418 v -11.49117 h -28.38418 v -17.28587 h 32.80387 v -11.49118 h -46.06292 z"
       id="path20"
       transform="translate(-9.907096,323.3233)" /></g><path
     d="M 95.6885,128 110.26476,113.11497 76.76564,80.310735 c 0,0 5.16647,0.560603 10.48236,-4.854343 5.31587,-5.414958 2.39013,-15.871847 8.4539,-21.89862 6.06574,-6.024842 12.26762,-5.111902 12.26762,-5.111902 L 96.74299,37.452225 c 0,0 -8.32569,-2.466291 -14.04361,3.372752 -5.67894,5.799241 -3.33341,16.432217 -8.57259,21.782381 -5.23919,5.350163 -10.52358,4.813983 -10.52358,4.813983 L 45.21178,49.41141 81.22758,12.632689 68.3273,-8.8778012e-7 17.73523,51.663749 Z"
     id="use1"
     style="font-weight:bold;font-size:8px;font-family:DINish;-inkscape-font-specification:'DINish Bold';letter-spacing:0.2px;white-space:pre;fill:#c17d4c;fill-opacity:1;stroke-width:69.1359;stroke-linejoin:bevel"
     aria-label="F"
     sodipodi:nodetypes="ccczzccszcccccc" /></svg>
