<?xml version="1.0" encoding="UTF-8" standalone="no"?>
<!-- Created with Inkscape (http://www.inkscape.org/) -->

<svg
   version="1.1"
   id="svg1"
   width="2203.51"
   height="3396.821"
   viewBox="0 0 2203.51 3396.821"
   sodipodi:docname="bonhomme3.svg"
   inkscape:version="1.4.3 (0d15f75, 2025-12-25)"
   xmlns:inkscape="http://www.inkscape.org/namespaces/inkscape"
   xmlns:sodipodi="http://sodipodi.sourceforge.net/DTD/sodipodi-0.dtd"
   xmlns="http://www.w3.org/2000/svg"
   xmlns:svg="http://www.w3.org/2000/svg">
  <defs
     id="defs1" />
  <sodipodi:namedview
     id="namedview1"
     pagecolor="#ffffff"
     bordercolor="#000000"
     borderopacity="0.25"
     inkscape:showpageshadow="2"
     inkscape:pageopacity="0.0"
     inkscape:pagecheckerboard="0"
     inkscape:deskcolor="#d1d1d1"
     inkscape:zoom="0.16139706"
     inkscape:cx="789.97722"
     inkscape:cy="873.62187"
     inkscape:window-width="1920"
     inkscape:window-height="1122"
     inkscape:window-x="-8"
     inkscape:window-y="-8"
     inkscape:window-maximized="1"
     inkscape:current-layer="g1" />
  <g
     inkscape:groupmode="layer"
     inkscape:label="Image"
     id="g1"
     transform="translate(-1252.5916,-1844.4659)">
    <path
       style="fill:#000000"
       d="m 2338.3333,5239.2374 c -2.0166,-1.0941 -3.6666,-2.8108 -3.6666,-3.8149 0,-1.0042 -2.1,-3.0648 -4.6667,-4.5792 -4.2248,-2.4926 -4.6667,-3.3168 -4.6667,-8.7031 0,-3.7013 -0.8144,-6.7642 -2.1552,-8.1049 -1.1853,-1.1854 -2.7062,-4.6079 -3.3798,-7.6056 -1.4344,-6.384 0.8305,-10.0113 6.6736,-10.6878 3.4101,-0.3949 3.5545,-0.7652 4.3192,-11.0752 0.4938,-6.6583 2.3727,-15.3089 5,-23.0199 2.3149,-6.7942 4.2089,-13.8304 4.2089,-15.6359 0,-1.9853 1.253,-4.1038 3.1704,-5.3601 2.0612,-1.3505 3.4577,-3.8746 3.9918,-7.2145 1.2189,-7.6223 12.6633,-35.5758 17.5196,-42.7921 5.35,-7.9501 6.0269,-9.6755 7.3143,-18.6442 1.2012,-8.368 7.4358,-24.1413 10.1714,-25.7329 1.0079,-0.5865 1.8325,-2.592 1.8325,-4.4569 0,-3.6655 6.632,-23.5682 8.0598,-24.1873 0.4783,-0.2075 3.8077,-6.2075 7.3985,-13.3334 3.5909,-7.1259 7.5026,-13.8562 8.6926,-14.9562 1.1901,-1.1 3.2015,-6.6008 4.4698,-12.224 1.5743,-6.9795 4.3805,-13.7487 8.8427,-21.3303 3.5951,-6.1084 6.5366,-12.0646 6.5366,-13.236 0,-1.1713 1.2,-3.2157 2.6667,-4.543 1.4666,-1.3273 2.6666,-3.8757 2.6666,-5.663 0,-1.7874 1.2,-4.7753 2.6667,-6.6398 1.4667,-1.8646 2.6667,-5.0603 2.6667,-7.1016 0,-2.7772 1.1327,-4.4115 4.5001,-6.4927 3.579,-2.2119 5.3905,-5.0318 8.8496,-13.7754 2.3922,-6.0468 5.7362,-13.3942 7.431,-16.3275 1.6948,-2.9333 3.4923,-8.0333 3.9944,-11.3333 0.502,-3.3 1.8041,-7.0259 2.8935,-8.2796 1.2613,-1.4516 1.6704,-3.5162 1.1264,-5.6838 -0.5447,-2.1703 0.1784,-5.8052 1.9951,-10.0282 2.0105,-4.6734 2.5977,-7.9665 1.9942,-11.1833 -0.8315,-4.4326 -0.7387,-4.5538 3.3365,-4.3589 3.7729,0.1804 4.3659,-0.3325 5.9344,-5.1329 0.9584,-2.9333 4.4841,-10.7333 7.8348,-17.3333 3.3508,-6.6 6.0963,-13.1195 6.1011,-14.4877 0.01,-2.2435 1.8823,-8.9853 5.6101,-20.179 0.7327,-2.2 1.6523,-12.1 2.0437,-22 0.6826,-17.266 0.9082,-18.4078 5.5333,-28 4.6244,-9.5906 4.8186,-10.5732 4.7453,-24 -0.042,-7.7 -1.0967,-26 -2.3436,-40.6667 -1.2469,-14.6666 -2.8283,-41.1021 -3.5142,-58.7454 -0.9907,-25.4832 -1.8457,-34.4652 -4.1583,-43.6859 -2.7914,-11.1295 -3.1615,-11.7762 -8.9921,-15.7112 l -6.0809,-4.1039 -18.0839,0.8965 c -9.9461,0.4931 -20.1839,1.4586 -22.7505,2.1456 -2.5667,0.687 -10.3667,1.6328 -17.3334,2.1018 -7.2573,0.4885 -13.9096,1.6583 -15.5772,2.739 -2.2905,1.4845 -3.5292,1.5553 -5.814,0.3326 -1.9642,-1.0513 -6.4137,-1.2608 -13.7561,-0.6478 -18.2247,1.5216 -29.5991,4.4611 -43.9315,11.3533 -8.9871,4.3217 -17.4252,7.2708 -24.9212,8.7098 -6.2333,1.1966 -15.5333,3.572 -20.6666,5.2786 -12.231,4.0663 -31.2028,8.2493 -41.8085,9.2182 -4.6613,0.4258 -10.6613,1.9517 -13.3333,3.3907 -2.672,1.4391 -8.1582,2.8665 -12.1916,3.172 -6.9859,0.5292 -15.7296,2.9544 -24.8363,6.8888 -3.753,1.6214 -15.908,3.2633 -53.3788,7.2104 -6.7184,0.7077 -13.4239,2.0416 -14.9013,2.9642 -2.0256,1.2651 -3.4829,1.3143 -5.9277,0.2004 -2.0597,-0.9384 -8.0869,-1.21 -16.5305,-0.7447 -23.0505,1.2701 -27.9022,-2.143 -26.3448,-18.5333 1.054,-11.092 2.0236,-12.9615 6.2985,-12.1443 1.9235,0.3677 3.9421,-0.4302 5.5315,-2.1865 1.3765,-1.5211 3.2167,-2.7655 4.0894,-2.7655 0.8727,0 2.6419,-1.166 3.9316,-2.5911 1.2897,-1.4251 4.2327,-2.9943 6.54,-3.4872 5.8484,-1.2492 35.8753,-10.8143 45.5284,-14.5031 19.6753,-7.5186 22.3728,-8.3091 44,-12.8931 21.6313,-4.5849 24.8066,-5.1731 36,-6.669 22.3711,-2.9896 29.9861,-3.7443 51.3334,-5.0878 12.1,-0.7616 25.6,-1.9926 30,-2.7356 4.4,-0.7431 10.8121,-1.3545 14.2491,-1.3587 8.1342,-0.01 52.0958,-11.2683 56.2113,-14.3954 0.8468,-0.6433 5.4396,-2.3893 10.2062,-3.8798 4.7667,-1.4905 15.5667,-4.8805 24,-7.5332 8.4334,-2.6527 21.907,-6.7256 29.9414,-9.051 8.0345,-2.3253 17.4526,-5.7035 20.9291,-7.5072 l 6.321,-3.2795 -0.1084,-11.5142 c -0.06,-6.3328 0.2857,-13.3141 0.7674,-15.5141 0.4817,-2.2 0.3621,-7.7473 -0.2658,-12.3272 -1.202,-8.7675 -0.3791,-10.7067 5.4153,-12.7617 3.8028,-1.3486 2.6716,-3.3935 -2.4037,-4.3457 -4.255,-0.7982 -4.666,-1.2454 -4.0381,-4.3937 1.1403,-5.7172 2.0419,-24.757 2.2319,-47.1335 0.1365,-16.0778 0.6089,-21.3194 2.0273,-22.4966 2.1395,-1.7757 2.4751,-7.3308 0.516,-8.5416 -1.8242,-1.1274 -1.6487,-45.3159 0.2304,-58 0.8148,-5.5 1.4296,-11.65 1.3662,-13.6667 -0.1997,-6.3586 -0.1793,-6.8527 0.573,-13.8678 0.7185,-6.6997 0.6439,-6.8868 -3.0499,-7.649 -5.5726,-1.1499 -43.4325,-3.6149 -44.1715,-2.8759 -0.3477,0.3477 -1.9033,-0.096 -3.4569,-0.9872 -1.5536,-0.8906 -4.3247,-1.7493 -6.158,-1.9081 -6.3843,-0.5531 -22.0138,-3.0247 -24,-3.7953 -4.3801,-1.6993 -52.7271,-4.1867 -59.5109,-3.0617 -2.8608,0.4745 -6.3428,0.2257 -7.8224,-0.5589 -1.4667,-0.7777 -11.3798,-1.7924 -22.0291,-2.255 -10.6493,-0.4625 -20.1645,-1.3367 -21.1448,-1.9426 -0.9803,-0.6058 -9.3672,-1.5792 -18.6376,-2.1631 -9.2704,-0.5838 -23.7552,-2.0382 -32.1885,-3.232 -8.4334,-1.1938 -20.1334,-2.4821 -26,-2.863 -5.8667,-0.3808 -13.6667,-0.9073 -17.3334,-1.1699 -12.9964,-0.931 -30.8639,-1.9922 -45.7883,-2.7193 -8.3168,-0.4052 -17.3168,-1.5713 -20,-2.5912 -3.1533,-1.1988 -15.958,-2.3615 -36.2117,-3.2882 -31.1286,-1.4243 -47.7814,-3.8245 -58.6916,-8.4594 -5.2632,-2.2359 -13.8241,-4.6086 -22.6417,-6.2753 -3.3,-0.6237 -13.2,-3.2863 -22,-5.9168 -14.129,-4.2234 -21.7344,-6.0024 -42.6667,-9.9804 -2.9333,-0.5574 -7.6662,-2.0135 -10.5175,-3.2356 -3.0383,-1.3023 -9.9371,-2.42 -16.6666,-2.7001 -9.7324,-0.4051 -12.6468,-1.102 -19.1213,-4.5719 -4.2014,-2.2516 -10.5014,-4.4491 -14,-4.8833 -3.4987,-0.4341 -9.3612,-2.1712 -13.0279,-3.8602 -6.5055,-2.9965 -11.5631,-4.9616 -19,-7.3823 -2.0167,-0.6564 -6.6667,-2.2208 -10.3333,-3.4765 -3.6667,-1.2556 -10.8179,-3.4172 -15.8916,-4.8034 -5.0737,-1.3862 -10.1737,-3.344 -11.3333,-4.3506 -2.2664,-1.9673 -15.9735,-8.0889 -21.4418,-9.576 -1.8333,-0.4986 -4.5333,-1.949 -6,-3.2232 -4.1929,-3.6426 -34.9215,-20.0413 -37.5953,-20.0631 -1.3226,-0.011 -3.6733,-0.7608 -5.2239,-1.6667 -1.5506,-0.9058 -5.4506,-3.0763 -8.6667,-4.8232 -3.2161,-1.7469 -8.0657,-5.0469 -10.777,-7.3333 -9.6209,-8.1134 -13.2086,-10.4376 -19.8704,-12.8726 -3.7078,-1.3552 -7.4911,-3.0862 -8.4075,-3.8468 -0.9163,-0.7605 -5.7656,-3.4821 -10.7762,-6.0481 -5.0106,-2.5659 -12.4325,-7.2283 -16.4933,-10.3608 -8.3049,-6.4065 -24.5952,-21.0878 -25.3514,-22.8474 -0.2723,-0.6336 -4.1053,-5.1336 -8.5178,-10 -4.4124,-4.8665 -8.9897,-10.3481 -10.1716,-12.1815 -1.1819,-1.8333 -3.7285,-4.8943 -5.6591,-6.8021 -1.9306,-1.9078 -4.4838,-5.5204 -5.6737,-8.028 -1.1899,-2.5075 -5.2053,-8.3184 -8.923,-12.9132 -11.8097,-14.5953 -19.9317,-29.9933 -26.5093,-50.2567 -4.1433,-12.7645 -13.3644,-33.7872 -16.6677,-38 -0.8625,-1.1 -2.6644,-5.6 -4.004,-10 -1.3397,-4.4 -3.968,-11 -5.8407,-14.6666 -1.8727,-3.6667 -3.8404,-9.8703 -4.3726,-13.7858 -0.5323,-3.9155 -2.0469,-8.3115 -3.3657,-9.7689 -2.2334,-2.4678 -3.2531,-9.2078 -3.2952,-21.7787 -0.022,-6.6235 1.5492,-14.4186 3.795,-18.8259 2.4967,-4.8997 1.5393,-8.5074 -2.2577,-8.5074 -2.7321,0 -3.7576,-3.1943 -1.4778,-4.6033 0.6769,-0.4183 1.6342,-2.5974 2.1273,-4.8423 0.5429,-2.472 2.4218,-5.0093 4.7644,-6.4339 4.0149,-2.4416 3.8744,-4.1205 -0.3447,-4.1205 -3.2314,0 -3.1973,-5.7571 0.1739,-29.3333 l 2.5737,-18 -2.7866,-2.1495 c -2.2086,-1.7037 -2.5835,-2.9481 -1.8075,-6 1.3184,-5.1848 3.1403,-20.4593 4.7535,-39.8505 0.7472,-8.9812 2.3117,-18.3396 3.5666,-21.3334 1.2295,-2.9333 2.6096,-10.2574 3.0668,-16.2758 0.5689,-7.4894 1.544,-11.7302 3.0899,-13.4383 1.4535,-1.6062 2.2586,-4.7472 2.2586,-8.8118 0,-3.4738 0.6166,-7.468 1.3701,-8.876 2.3935,-4.4724 3.8342,-15.0146 2.4144,-17.6675 -0.9717,-1.8156 -0.5743,-4.0449 1.5121,-8.4836 2.2127,-4.7073 2.4882,-6.4331 1.2627,-7.9097 -1.1711,-1.4111 -1.1997,-3.3192 -0.1131,-7.5463 0.7998,-3.1117 1.8498,-8.3576 2.3333,-11.6576 0.4835,-3.3 2.0059,-7.5927 3.3831,-9.5392 1.637,-2.3136 2.5041,-5.8274 2.5041,-10.1473 0,-4.8751 0.8869,-7.9149 3.3817,-11.5914 2.3615,-3.4798 3.0972,-5.8489 2.4384,-7.8527 -1.3792,-4.1949 -0.6814,-10.3738 1.5574,-13.7906 1.0757,-1.6418 1.9558,-4.1419 1.9558,-5.5559 0,-1.414 0.9732,-2.9444 2.1626,-3.4008 1.6077,-0.617 1.9565,-1.86 1.3595,-4.8449 -0.9883,-4.9419 1.8987,-16.5012 5.664,-22.6777 3.4362,-5.6367 3.8122,-13.2662 0.6537,-13.2662 -3.3469,0 -1.9332,-14.7484 1.9123,-19.9497 3.3825,-4.5752 3.7773,-8.0503 0.9146,-8.0503 -3.0284,0 -2.6135,-7.5778 0.5064,-9.2475 1.9564,-1.0471 2.7109,-3.5247 3.4388,-11.2916 0.8136,-8.6824 0.5965,-10.4288 -1.7033,-13.7056 -2.3963,-3.4143 -2.5339,-4.9055 -1.5153,-16.422 1.462,-16.531 4.6975,-38.4529 6.297,-42.6666 0.696,-1.8334 2.0083,-8.4334 2.9162,-14.6667 2.455,-16.8546 3.7132,-20.7993 7.4058,-23.2188 2.3337,-1.529 3.3606,-3.4552 3.454,-6.4786 0.073,-2.3664 0.5743,-5.8026 1.1138,-7.6359 0.5529,-1.8789 0.2313,-5.9044 -0.7371,-9.2258 -1.4238,-4.8838 -1.3863,-8.4065 0.2196,-20.5819 1.0656,-8.0792 1.9374,-16.4889 1.9374,-18.6883 0,-2.2541 1.2481,-5.3274 2.8606,-7.0438 2.6372,-2.8071 2.8902,-4.6882 3.2395,-24.0859 0.5375,-29.8515 4.6249,-66.0888 7.8573,-69.6606 2.154,-2.3801 2.2791,-3.3997 0.9483,-7.7278 -1.7735,-5.7677 -1.1997,-26.4664 0.9555,-34.4703 0.7983,-2.9648 1.7362,-9.6959 2.0842,-14.958 0.348,-5.2621 1.2989,-10.8121 2.113,-12.3334 0.8142,-1.5213 1.1694,-3.5761 0.7895,-4.5662 -0.38,-0.9902 -0.103,-5.8933 0.6154,-10.8959 0.7185,-5.0025 1.9065,-13.2955 2.6401,-18.4288 0.7335,-5.1333 2.4649,-14.1333 3.8475,-20 1.3826,-5.8667 3.2491,-15.3637 4.1479,-21.1046 1.5533,-9.9211 3.0563,-13.1283 6.8774,-14.6748 1.2914,-0.5227 1.2183,-1.0179 -0.3095,-2.0974 -1.1,-0.7773 -2.5657,-1.6115 -3.2572,-1.8539 -1.5012,-0.5263 1.4719,-52.686 3.4449,-60.4365 4.0298,-15.8306 9.1195,-53.2303 9.1406,-67.1661 0.01,-6.2334 0.4061,-18.0834 0.8815,-26.3334 l 0.8643,-15 h 3.8941 c 5.2275,0 4.6591,-4.4762 -0.6463,-5.0885 -4.2997,-0.4963 -4.5236,-2.2874 -1.7807,-14.2448 1.0093,-4.4 2.2277,-11.6 2.7076,-16 0.8953,-8.208 6.0847,-41.814 9.5739,-62 1.0775,-6.2333 2.8589,-18.5333 3.9587,-27.3333 1.0999,-8.8 3.2455,-18.9775 4.7681,-22.6166 2.1996,-5.2573 2.6352,-8.4767 2.1204,-15.6721 -1.0224,-14.2886 3.1222,-46.8333 6.4296,-50.4879 1.7614,-1.9463 1.91,-3.7133 0.8829,-10.499 -0.714,-4.7174 -0.7534,-11.0902 -0.093,-15.1083 0.6277,-3.8222 1.734,-14.4495 2.4583,-23.6161 1.625,-20.5657 7.5356,-61.1824 9.1951,-63.1881 0.673,-0.8132 2.2254,-5.6786 3.4498,-10.8119 1.2244,-5.1334 2.8441,-11.1334 3.5993,-13.3334 0.7551,-2.2 1.5413,-7.9 1.7469,-12.6666 0.2057,-4.7667 1.0576,-10.4055 1.8931,-12.5307 1.4494,-3.6865 1.6051,-3.7477 3.3874,-1.3334 1.4376,1.9474 2.2358,2.1685 3.4628,0.9593 1.2338,-1.2159 0.8581,-2.2718 -1.6601,-4.6667 -3.0325,-2.8839 -3.2436,-3.9599 -3.0917,-15.7619 0.2916,-22.6601 7.3017,-72.0963 11.4386,-80.6666 0.708,-1.4667 1.7528,-5.3667 2.3218,-8.6667 l 1.0346,-6 6.8619,0.1778 c 4.4058,0.1142 8.4962,1.1879 11.4282,3 2.5115,1.5522 5.4847,2.8222 6.6071,2.8222 1.5466,0 2.2656,2.2401 2.97,9.2545 0.5112,5.09 0.6149,9.7634 0.2305,10.3853 -0.3844,0.6219 -1.361,8.6074 -2.1702,17.7455 -0.8093,9.1381 -2.6032,22.6147 -3.9866,29.948 -1.3833,7.3334 -2.8877,15.4334 -3.343,18 -0.4553,2.5667 -1.3928,12.4538 -2.0832,21.9714 -1.0126,13.9594 -1.7757,18.0085 -3.9474,20.946 -3.667,4.9598 -3.441,6.87 0.7185,6.0748 2.6698,-0.5103 3.2393,-0.2052 2.6215,1.4047 -2.311,6.0225 -5.2324,22.3432 -7.4469,41.6031 -0.7167,6.2334 -2.0416,15.5334 -2.9442,20.6667 -0.9026,5.1333 -1.5208,10.2333 -1.3738,11.3333 0.147,1.1 -0.324,4.2421 -1.0467,6.9825 -1.4581,5.5292 -3.9974,29.737 -3.8829,37.0175 0.04,2.5667 -0.4972,7.3667 -1.1946,10.6667 -0.6975,3.3 -2.0011,13.2 -2.8971,22 -0.896,8.8 -2.1429,16.57 -2.7709,17.2667 -0.628,0.6966 -1.1418,5.038 -1.1418,9.6475 0,4.6095 -0.5724,10.9395 -1.272,14.0667 -0.6996,3.1272 -1.9436,12.8858 -2.7644,21.6858 -0.8209,8.8 -2.05,18.5454 -2.7314,21.6565 -1.9563,8.9317 -4.3053,24.4536 -4.693,31.0101 -0.6616,11.1875 -4.2383,35.313 -5.8313,39.3334 -1.4262,3.5992 -2.3144,9.784 -5.1698,36 -0.8482,7.7873 -0.9775,8.0013 -4.8625,8.0485 -5.2105,0.063 -5.9668,3.6018 -1.2311,5.7595 3.2909,1.4994 3.4783,2.0246 2.5829,7.2377 -0.531,3.0915 -1.1751,19.2555 -1.4312,35.92 -0.2711,17.6427 -1.0499,31.3906 -1.8642,32.9123 -0.7693,1.4373 -1.3986,6.5781 -1.3986,11.4239 0,4.8457 -0.918,13.2546 -2.0399,18.6862 -1.122,5.4317 -2.2053,14.2749 -2.4075,19.6517 -0.2021,5.3768 -0.9342,10.6574 -1.6268,11.7347 -0.6925,1.0774 -1.2666,7.3385 -1.2757,13.9136 l -0.016,11.9549 -4.3168,1.238 c -4.6741,1.3405 -5.7365,4.4299 -1.9835,5.7678 4.7529,1.6943 5.1325,2.7865 4.177,12.0189 -1.6581,16.0222 -5.1566,39.6131 -6.4852,43.7323 -0.7097,2.2 -2.1787,9.5637 -3.2645,16.3638 -1.0859,6.8001 -2.3299,12.9392 -2.7645,13.6424 -0.4346,0.7032 -1.6834,9.5395 -2.7752,19.6362 -1.0917,10.0966 -2.8064,21.0576 -3.8104,24.3576 -1.0039,3.3 -1.8366,10.0173 -1.8505,14.9274 -0.014,4.91 -1.2105,13.31 -2.6594,18.6666 -2.1638,7.9999 -2.4544,11.7136 -1.6271,20.7937 0.6536,7.1733 0.3808,16.3016 -0.777,26 -0.9813,8.2201 -2.146,19.4456 -2.5882,24.9456 -0.4422,5.5 -1.5746,12.1 -2.5165,14.6667 -0.9418,2.5666 -2.1106,10.3666 -2.5972,17.3333 -1.4723,21.0789 -4.8032,48.4609 -6.3255,52 -0.7886,1.8333 -1.944,6.9333 -2.5675,11.3333 -1.9646,13.8623 -3.441,22.015 -8.3304,46 -5.6823,27.8748 -6.011,30.449 -7.4841,58.6051 -0.7663,14.6466 -0.6897,23.0669 0.2305,25.3334 1.851,4.5592 1.3781,10.6431 -1.124,14.4618 -1.5748,2.4035 -1.8454,5.0545 -1.1646,11.4113 0.7614,7.1097 0.4736,8.9808 -2.0355,13.2333 -2.4945,4.2279 -2.7889,6.1018 -2.0114,12.8013 0.6998,6.0293 0.4046,8.8276 -1.2736,12.0728 -1.2015,2.3234 -2.5416,7.2399 -2.9781,10.9255 -0.4441,3.7497 -2.2034,8.7784 -3.9943,11.4175 -2.96,4.3618 -3.0392,4.8948 -1.054,7.0885 1.994,2.2033 1.8435,2.7173 -2.1159,7.2269 -3.7447,4.265 -4.3409,6.0236 -4.9063,14.4721 -0.4039,6.0364 -1.5686,11.1509 -3.1281,13.7363 -1.3664,2.2654 -2.9694,6.4654 -3.5621,9.3333 -0.9066,4.387 -1.8095,5.4536 -5.6903,6.7226 -6.0247,1.97 -6.2218,5.3138 -0.2794,4.7397 3.2715,-0.316 4.3333,0.1086 4.3333,1.7329 0,2.7379 -3.3739,9.4291 -7.6015,15.0754 -2.8245,3.7722 -3.0905,4.9528 -1.8909,8.3937 1.1757,3.3727 1.0355,4.1148 -0.8892,4.7066 -4.6213,1.4207 -6.2952,2.8505 -6.7239,5.7434 -0.3128,2.1107 0.3791,3.175 2.4088,3.7058 2.0167,0.5274 2.5739,1.3743 1.9099,2.9027 -1.7422,4.01 -2.2488,18.7737 -0.708,20.6303 1.1069,1.3337 0.8401,3.7864 -1.0509,9.6578 -3.5108,10.9012 -6.2029,35.1375 -4.4588,40.1408 0.9788,2.8077 0.8906,4.7749 -0.3198,7.1361 -2.0865,4.0701 -3.7071,23.1249 -3.9473,46.4119 -0.1632,15.8276 -0.4661,18.0252 -2.7109,19.6666 -1.3899,1.0164 -3.5771,1.848 -4.8603,1.848 -4.2637,0 -4.1545,2.7736 0.1733,4.4031 3.9154,1.4743 4.1802,1.9551 3.4499,6.2635 -0.435,2.5667 -1.4394,15.5539 -2.2318,28.8606 -1.2851,21.5769 -1.1939,25.1103 0.8431,32.6666 1.2562,4.6601 2.591,10.2728 2.9663,12.4728 0.3752,2.2 1.7982,5.4309 3.1621,7.1798 1.3882,1.78 2.4799,5.3312 2.4799,8.0667 0,2.6878 0.5346,5.4569 1.1881,6.1535 2.3588,2.5148 13.4786,25.0064 13.4786,27.2626 0,1.2711 1.2255,3.8692 2.7234,5.7734 1.4979,1.9043 3.6558,6.6352 4.7953,10.5132 1.1395,3.8779 3.1522,9.1508 4.4726,11.7175 1.3205,2.5667 3.8126,8.098 5.5381,12.2918 3.5994,8.7483 11.2489,19.8927 28.8875,42.0854 20.5827,25.8968 29.7032,35.2679 40.4761,41.5887 5.3755,3.1539 11.2736,6.8699 13.107,8.2577 1.8333,1.3878 8.4333,5.0241 14.6666,8.0807 6.2334,3.0565 13.4334,6.8422 16,8.4126 15.0493,9.2077 88.6074,47.4259 94.8,49.2548 3.6073,1.0654 29.7678,10.9613 33.8667,12.811 9.5301,4.3007 27.4136,9.0448 60,15.9168 2.9333,0.6186 7.7264,2.1321 10.6512,3.3633 2.9248,1.2312 11.9248,2.8022 20,3.4909 15.1009,1.2881 27.8277,4.163 31.3488,7.0817 1.1,0.9118 5.8586,2.3934 10.5746,3.2925 4.7161,0.899 11.3302,2.7207 14.6981,4.0482 3.3679,1.3275 10.264,2.8571 15.3246,3.399 5.0606,0.542 12.401,2.4503 16.3119,4.2408 5.5337,2.5334 10.7309,3.5202 23.4341,4.4493 20.2207,1.4791 63.5843,5.2523 76.99,6.6992 15.4695,1.6697 52.2023,5.0657 70.6667,6.5334 9.1667,0.7286 23.2667,2.2691 31.3333,3.4234 24.5429,3.5118 36.6964,4.7843 51.3334,5.3743 7.7,0.3104 20.9,1.1509 29.3333,1.8677 8.4333,0.7168 24.6333,1.667 36,2.1116 11.3667,0.4446 27.2667,1.7467 35.3333,2.8935 30.972,4.4034 42.5403,5.34 95.3334,7.7184 17.893,0.806 24.2455,0.4776 47.3333,-2.4472 23.1818,-2.9366 44.9062,-5.1144 69.3333,-6.9502 3.6667,-0.2755 30.8817,-1.1033 60.4778,-1.8394 29.596,-0.7361 55.696,-1.9313 58,-2.656 2.3039,-0.7247 16.5359,-1.2723 31.6268,-1.217 15.0908,0.055 32.4908,-0.564 38.6666,-1.3763 6.1759,-0.8124 22.0288,-2.3997 35.2288,-3.5274 13.2,-1.1277 27.9,-2.4219 32.6667,-2.8761 4.7667,-0.4542 25.7667,-0.9681 46.6667,-1.142 31.5891,-0.2629 40.4743,-0.7747 52.6666,-3.0336 8.0667,-1.4945 19.1667,-3.0862 24.6667,-3.5371 10.8203,-0.8871 23.801,-2.8365 33.3333,-5.006 3.3,-0.751 11.4,-2.1555 18,-3.121 18.5781,-2.7179 48.2729,-7.0897 59.3334,-8.7353 5.5,-0.8184 11.8,-2.2339 14,-3.1457 2.2,-0.9119 8.2,-2.4328 13.3333,-3.3799 19.1233,-3.5284 46.0983,-19.3608 67.537,-39.6395 6.999,-6.6202 9.7504,-8.3903 13.0419,-8.3903 4.8429,0 6.0774,-2.1003 4.1752,-7.1034 -1.2599,-3.3138 -1.1041,-3.5633 2.2249,-3.5633 2.664,0 5.8241,-2.3023 12.3532,-9 4.8254,-4.95 15.2067,-15.15 23.0695,-22.6667 11.6061,-11.0952 15.0457,-13.6666 18.2805,-13.6666 3.5227,0 3.9845,-0.4556 3.9845,-3.9308 0,-4.3402 10.0566,-17.5544 17.2672,-22.6888 2.2363,-1.5924 4.0661,-4.0939 4.0661,-5.5589 0,-3.5652 1.8698,-6.8538 9.3425,-16.4317 3.4571,-4.4311 8.7504,-13.1565 11.7629,-19.3898 3.0125,-6.2334 6.0083,-12.2334 6.6573,-13.3334 4.4983,-7.6235 8.2373,-18.9671 8.2373,-24.9904 0,-3.3636 0.6667,-4.7669 2.4915,-5.2441 2.7628,-0.7225 9.5085,-19.0054 9.5085,-25.7709 0,-5.1022 1.9592,-9.9713 7.2407,-17.9946 2.4136,-3.6666 4.8254,-9.0666 5.3595,-12 0.534,-2.9333 3.3504,-8.9333 6.2585,-13.3333 4.2353,-6.4081 5.1558,-8.8688 4.6262,-12.366 -0.8106,-5.3525 2.4445,-21.732 5.7567,-28.9673 3.8615,-8.4352 7.0386,-19.3745 7.9337,-27.3173 0.6712,-5.9551 1.3211,-7.3919 3.4914,-7.7185 1.4666,-0.2208 4.1273,-0.7172 5.9126,-1.1033 l 3.2459,-0.7019 -3.8927,-3.1039 c -3.8208,-3.0466 -3.8607,-3.2112 -2.1622,-8.9129 2.5801,-8.6608 5.4133,-23.8143 5.4929,-29.3788 0.052,-3.6547 0.9618,-5.6046 3.5719,-7.6577 2.8977,-2.2794 3.3585,-3.471 2.6711,-6.9081 -0.4569,-2.2844 0.079,-8.0775 1.1916,-12.8735 1.1122,-4.7959 2.2951,-13.2809 2.6285,-18.8554 0.3335,-5.5745 0.9582,-15.5354 1.3883,-22.1354 0.5246,-8.0506 0.1247,-15.6648 -1.2152,-23.1353 -1.3377,-7.4583 -1.5882,-12.211 -0.7587,-14.3929 0.8326,-2.1898 0.5533,-7.2282 -0.852,-15.3717 -1.1498,-6.6628 -1.6955,-13.686 -1.2126,-15.6072 1.0459,-4.1609 -3.9837,-38.2821 -6.9023,-46.8262 -1.1273,-3.3 -1.9571,-9.4216 -1.8441,-13.6036 0.1498,-5.5423 -0.7822,-10.0605 -3.438,-16.6667 -2.4546,-6.1057 -3.9224,-12.7613 -4.4983,-20.3964 -0.5636,-7.4727 -1.8945,-13.6043 -3.9069,-18 -2.2339,-4.8794 -3.1666,-9.705 -3.479,-18 -0.2998,-7.9609 -1.4741,-14.309 -3.9461,-21.3333 -1.9356,-5.5 -4.0206,-12.7 -4.6332,-16 -0.6127,-3.3 -2.6707,-9.0891 -4.5733,-12.8647 -2.3241,-4.612 -3.4517,-8.9874 -3.4363,-13.3333 0.065,-18.3196 -0.2345,-22.3855 -2.0283,-27.534 -1.0733,-3.0807 -1.9601,-6.8014 -1.9706,-8.268 -0.01,-1.4667 -1.1846,-6.2667 -2.6091,-10.6667 -4.7129,-14.5574 -6.7439,-22.8445 -6.7439,-27.5172 0,-2.5389 -0.7225,-5.3386 -1.6055,-6.2216 -0.883,-0.883 -1.4596,-3.7725 -1.2812,-6.4211 0.1784,-2.6486 -0.5991,-6.225 -1.7278,-7.9476 -2.6552,-4.0523 -2.6018,-8.998 0.1601,-14.8182 2.0547,-4.3299 2.056,-4.9268 0.019,-8.3756 -1.2065,-2.0424 -2.1465,-6.0351 -2.089,-8.8727 0.058,-2.8377 -0.4754,-8.1384 -1.1842,-11.7795 -0.8785,-4.5125 -0.838,-7.342 0.1271,-8.8874 1.014,-1.6237 0.9412,-4.097 -0.2563,-8.7132 -0.9197,-3.5452 -2.2121,-10.2204 -2.872,-14.8336 -0.6599,-4.6133 -1.5746,-8.9942 -2.0327,-9.7354 -0.458,-0.7412 -0.6756,-7.7667 -0.4835,-15.6122 0.1922,-7.8456 0.2912,-16.3647 0.2201,-18.9314 -0.2143,-7.729 -13.0399,-46.5164 -19.5336,-59.0738 -7.4677,-14.4409 -9.7868,-21.1272 -11.4879,-33.1214 -0.727,-5.1259 -2.5182,-11.946 -3.9804,-15.1558 -1.4622,-3.2098 -2.6586,-6.1751 -2.6586,-6.5896 0,-1.1876 -17.5066,-42.5724 -18.638,-44.0594 -0.5579,-0.7333 -1.7762,-3.7333 -2.7071,-6.6666 -1.9201,-6.0501 -11.5281,-25.0125 -17.2274,-34 -4.0225,-6.3434 -37.1381,-70.0553 -39.4518,-75.9024 -0.7467,-1.887 -3.1031,-6.131 -5.2365,-9.431 -2.1333,-3.3 -6.1473,-11.2222 -8.9199,-17.6049 -2.7727,-6.3827 -6.4601,-13.8827 -8.1943,-16.6667 -3.4843,-5.5936 -11.625,-22.0727 -11.625,-23.5324 0,-0.7859 -13.7869,-30.1461 -17.458,-37.1779 -0.6647,-1.2734 -1.2087,-2.9806 -1.2087,-3.7939 0,-2.6324 -14.6393,-23.5662 -18.037,-25.7925 -1.813,-1.1879 -3.2946,-2.896 -3.2926,-3.7957 0,-0.8998 -1.1679,-4.036 -2.5998,-6.9693 -12.1213,-24.8309 -18.0206,-36.3142 -19.5758,-38.105 -1.0055,-1.1577 -1.8281,-3.2742 -1.8281,-4.7033 0,-1.4291 -0.9186,-3.9098 -2.0413,-5.5128 -3.249,-4.6385 -8.6236,-20.002 -8.6441,-24.7093 -0.011,-2.4555 -2.2595,-8.4132 -5.2376,-13.8761 -2.8703,-5.2653 -6.7418,-13.7954 -8.6033,-18.9559 -1.8615,-5.1605 -4.8134,-11.6525 -6.5598,-14.4268 -1.7464,-2.7743 -5.1523,-10.4441 -7.5688,-17.0441 -2.4164,-6.6 -5.7537,-15 -7.4162,-18.6667 -2.1619,-4.7682 -3.4238,-11.2229 -4.4315,-22.6667 -1.3583,-15.426 -2.3755,-19.2301 -10.5719,-39.5371 -0.7852,-1.9454 -2.1082,-3.9578 -2.94,-4.4719 -0.8318,-0.514 -3.479,-5.2223 -5.8826,-10.4628 -2.4036,-5.2405 -7.6101,-14.4132 -11.5699,-20.3838 -3.9598,-5.9707 -8.2476,-12.5707 -9.5285,-14.6667 -1.2808,-2.0961 -4.1442,-6.211 -6.3631,-9.1443 -5.8892,-7.7854 -12.2721,-20.6353 -11.3908,-22.9318 0.8492,-2.213 -3.4477,-12.8753 -5.7662,-14.3082 -0.8164,-0.5046 -1.4844,-2.7863 -1.4844,-5.0705 0,-2.2841 -2.3632,-8.9987 -5.2516,-14.9213 -6.312,-12.9424 -13.9278,-33.3544 -16.2059,-43.4349 -0.9939,-4.398 -1.701,-17.9587 -1.7665,-33.8788 -0.1,-24.2137 0.096,-26.599 2.224,-27.1555 2.5382,-0.6636 3.1384,-3.6441 1,-4.9657 -0.7333,-0.4532 -1.3333,-1.9886 -1.3333,-3.412 0,-3.8426 11.2703,-3.7761 13.3333,0.079 1.5492,2.8947 5.2877,3.5123 7.5524,1.2476 1.9839,-1.9839 5.3486,1.6405 6.9681,7.506 0.7083,2.565 2.6209,5.7431 4.2503,7.0626 2.6384,2.1364 2.9625,3.6323 2.9625,13.6719 0,6.3569 -0.7135,12.6064 -1.6362,14.3304 -1.332,2.4889 -1.2452,4.0347 0.4667,8.3131 1.1566,2.8906 2.1029,6.6751 2.1029,8.41 0,5.0284 9.086,31.6806 11.8318,34.7066 1.3734,1.5135 4.7491,7.8518 7.5015,14.0851 2.7524,6.2333 6.0569,12.5333 7.3433,14 1.2864,1.4667 2.7668,5.648 3.2899,9.2919 1.294,9.0142 7.7771,21.1736 28.4581,53.3748 1.8839,2.9333 6.6555,11.9333 10.6034,20 3.948,8.0666 8.0399,16.3796 9.0933,18.4732 3.6915,7.3369 7.6521,24.3035 8.4489,36.1934 0.5503,8.2119 1.7447,14.0528 3.7837,18.5029 1.6386,3.5765 2.9794,7.6704 2.9794,9.0974 0,1.427 4.2,11.0329 9.3333,21.3463 5.1334,10.3135 9.3334,19.8023 9.3334,21.0863 0,1.284 2.1775,5.5002 4.8389,9.3692 3.3353,4.8487 5.7814,10.7993 7.8715,19.1496 4.7921,19.1447 11.13,35.6774 15.3922,40.1516 2.1149,2.2202 4.2394,6.1202 4.721,8.6667 0.4817,2.5465 1.5895,5.53 2.462,6.63 0.8724,1.1 3.7813,6.5 6.4642,12 2.6829,5.5 8.2489,14.2 12.369,19.3334 7.7259,9.6259 13.5914,20.0306 16.5364,29.3333 0.9287,2.9333 4.7611,11.3468 8.5166,18.6965 3.7555,7.3497 8.5155,17.071 10.5778,21.6029 2.0623,4.5318 5.2873,10.5056 7.1667,13.275 1.8794,2.7695 4.2471,7.3879 5.2616,10.2632 2.4867,7.0482 18.9487,40.9895 21.096,43.4957 0.9425,1.1 3.3983,5.9 5.4574,10.6667 2.059,4.7667 4.4809,9.5667 5.3818,10.6667 0.9009,1.1 5.9234,10.4 11.161,20.6666 11.5883,22.7148 14.9712,29.0582 16.7863,31.4765 2.3465,3.1261 6.9793,16.2061 7.8076,22.0437 0.4308,3.0361 3.1649,9.3361 6.0758,14 8.1452,13.0506 13.4195,22.8115 14.3082,26.4798 0.4442,1.8334 3.1073,8.7334 5.9181,15.3334 2.8109,6.6 6.2639,17.4 7.6736,24 2.7149,12.7117 3.9173,15.9933 12.4576,34 2.9563,6.2333 5.8744,12.5333 6.4845,14 3.9711,9.5463 10.6797,28.1893 13.1943,36.6666 1.6314,5.5 3.5032,11.7396 4.1597,13.8657 0.6564,2.1261 1.1935,11.13 1.1935,20.0088 0,8.8787 0.6531,18.2392 1.4514,20.801 0.7982,2.5618 1.3873,12.7579 1.3091,22.6579 -0.1306,16.5216 0.1241,18.5438 3.1005,24.6215 3.0155,6.1577 3.1022,6.8934 1.2365,10.5011 -1.6738,3.2369 -1.7881,6.1157 -0.6901,17.3785 0.7238,7.4244 2.2255,15.5989 3.337,18.1655 1.1115,2.5667 3.0391,10.3667 4.2835,17.3334 1.2445,6.9666 3.0478,14.7666 4.0074,17.3333 0.9597,2.5667 2.0394,8.4391 2.3995,13.0498 0.3601,4.6107 1.2306,9.1107 1.9345,10 0.7039,0.8893 1.6016,7.6169 1.9947,14.9502 0.3977,7.418 1.7058,15.9952 2.9484,19.3333 1.2284,3.3 3.3197,11.0134 4.6472,17.1408 1.3685,6.3162 3.7364,12.9298 5.4679,15.2717 2.382,3.2219 3.2813,6.7852 4.0864,16.1926 1.0532,12.3049 2.0756,17.1585 5.6671,26.9034 1.1166,3.0297 2.7308,10.8297 3.587,17.3334 0.8562,6.5036 2.3837,14.0869 3.3944,16.8518 1.0107,2.7648 1.8376,8.5853 1.8376,12.9344 0,9.5038 2.1536,20.3401 5.3075,26.7053 2.5894,5.226 3.9458,11.8145 4.6666,22.6666 0.2678,4.0334 1.1308,11.5334 1.9176,16.6667 2.3206,15.14 4.3974,51.7744 4.195,74 -0.1754,19.2607 -1.4259,28.8387 -5.4961,42.0947 -0.6915,2.252 -1.2573,5.9899 -1.2573,8.3063 0,2.3164 -0.982,6.6661 -2.1824,9.666 -1.8675,4.6676 -1.935,6.2038 -0.4675,10.6504 1.2276,3.7195 1.3091,5.685 0.2871,6.9165 -2.215,2.6689 -5.593,13.2565 -5.647,17.6994 -0.027,2.2 -1.2753,6.7 -2.7744,10 -1.4991,3.3 -2.9086,8.1 -3.1322,10.6667 -0.2235,2.5667 -1.0209,6.4667 -1.7718,8.6667 -4.9629,14.5394 -6.0059,18.0388 -7.1533,24 -3.6846,19.1423 -5.6296,26.013 -7.9613,28.1232 -2.0499,1.8552 -2.5305,4.16 -2.5305,12.1365 0,9.4666 -2.2991,16.8916 -7.0711,22.8365 -1.9429,2.4203 -7.5798,16.4446 -7.5982,18.9038 -0.01,1.1 -1.207,3.8 -2.664,6 -1.457,2.2 -2.6737,5.5 -2.7037,7.3333 -0.03,1.8333 -1.8931,8.4333 -4.1401,14.6667 -2.247,6.2333 -4.5789,14.5146 -5.182,18.4028 -0.603,3.8882 -1.6682,7.7882 -2.3671,8.6667 -0.6989,0.8784 -1.6807,4.4307 -2.1818,7.8939 -0.5728,3.9589 -2.602,8.6618 -5.4654,12.6666 -2.5049,3.5035 -5.4577,8.27 -6.5619,10.5922 -1.1042,2.3222 -3.7538,5.4656 -5.8879,6.9852 -2.1342,1.5197 -4.2782,4.3484 -4.7646,6.2862 -0.4863,1.9377 -3.553,6.7994 -6.8149,10.8036 -3.2618,4.0043 -5.9306,8.1346 -5.9306,9.1785 0,3.972 -8.5821,16.9577 -12.885,19.4964 -2.435,1.4367 -7.282,6.0124 -10.7711,10.1682 -3.4892,4.1558 -12.9439,13.7416 -21.0106,21.3018 -24.8294,23.2706 -27.5882,26.0617 -30.8625,31.2245 -1.744,2.75 -3.9134,5.019 -4.8209,5.0422 -2.666,0.068 -8.5515,5.9085 -11.5575,11.469 -1.5329,2.8355 -3.3375,6.0555 -4.0102,7.1555 -0.6727,1.1 -1.5476,3.05 -1.9442,4.3333 -0.4197,1.3584 -2.0342,2.3334 -3.8638,2.3334 -1.7285,0 -4.4893,1.4334 -6.1352,3.1853 -1.6459,1.752 -4.6971,3.5263 -6.7806,3.943 -2.78,0.556 -4.0073,1.7487 -4.6113,4.4813 -2.6402,11.9429 -27.619,26.7961 -50.0805,29.7793 -4.7666,0.6331 -13.4666,2.7296 -19.3333,4.659 -10.9146,3.5895 -22.8314,5.8754 -34.6667,6.6498 -3.6666,0.2399 -10.7164,1.0925 -15.6662,1.8947 -4.9497,0.8022 -10.4439,1.0961 -12.2091,0.653 -1.7653,-0.443 -4.4569,-0.138 -5.9814,0.6779 -3.0905,1.654 -10.0061,3.2039 -26.8099,6.0084 -6.2334,1.0404 -16.7334,2.8661 -23.3334,4.0571 -13.3052,2.4012 -16.5305,2.7267 -45.3333,4.5764 -23.3324,1.4983 -33.9283,2.564 -41.3704,4.1609 -2.9537,0.6338 -10.9106,0.7097 -17.6819,0.1687 -6.7714,-0.541 -13.2489,-0.4592 -14.3944,0.1819 -1.2716,0.7116 -3.6024,0.5361 -5.9847,-0.4507 -3.0762,-1.2742 -4.7542,-1.2632 -7.9292,0.052 -2.5783,1.068 -12.533,1.7912 -27.6667,2.0101 -13.0017,0.188 -32.4014,1.3027 -43.1105,2.477 -22.0863,2.422 -56.6981,4.4404 -93.8622,5.4737 -48.9783,1.3618 -93.5019,3.5439 -110,5.3912 -9.1667,1.0263 -23.2667,2.5113 -31.3333,3.2998 -8.0667,0.7886 -19.8347,2.012 -26.1511,2.7187 -6.3165,0.7067 -14.4165,1.3111 -18,1.3431 -3.5836,0.032 -10.1156,0.804 -14.5156,1.7155 l -8,1.6574 -0.9673,10.6178 c -0.532,5.8398 -1.29,26.2178 -1.6844,45.2844 -0.3944,19.0667 -1.0772,35.8667 -1.5174,37.3334 -1.2428,4.141 -3.2063,32.4425 -3.8852,56 -0.3382,11.7333 -0.9792,22.8333 -1.4246,24.6666 -1.0371,4.2697 -1.0605,62.0486 -0.026,63.7228 0.4284,0.6931 3.0899,1.6298 5.9145,2.0815 4.8703,0.7788 5.199,1.1427 6.3629,7.0461 0.675,3.4236 2.2439,6.8587 3.4863,7.6335 1.6097,1.0038 11.1908,0.7349 33.3334,-0.9357 72.2136,-5.4483 126.9352,-6.4133 239.7409,-4.2281 33.3516,0.6461 49.4541,0.44 58.5619,-0.7496 l 12.5619,-1.6408 2.9575,3.4383 c 4.263,4.9561 8.2964,15.9506 6.118,16.6767 -1.7707,0.5903 -3.2031,2.0442 -5.9705,6.0607 -1.0042,1.4573 -5.4123,3.3352 -10.9546,4.6666 -7.6213,1.831 -16.0464,2.2061 -47.2742,2.1052 -25.9868,-0.084 -39.8742,-0.6495 -43.9287,-1.7886 -5.3432,-1.5013 -6.1053,-1.4243 -7.7173,0.7802 -1.6284,2.2271 -3.6618,2.4068 -22.7171,2.0075 -11.5107,-0.2412 -21.252,-0.6384 -21.6473,-0.8827 -0.3953,-0.2443 -11.2047,0.093 -24.0208,0.75 -12.8162,0.6568 -34.1021,1.497 -47.3021,1.8672 -13.2,0.3702 -37.2,1.5883 -53.3333,2.707 -16.1334,1.1187 -39.2334,2.6558 -51.3334,3.4157 -12.1,0.76 -22.8136,1.6614 -23.8081,2.0032 -2.09,0.7184 -1.3334,4.8579 2.4159,13.2171 6.6858,14.9061 8.2293,29.5157 10.1256,95.8436 0.3323,11.6219 0.9339,21.6642 1.3368,22.3162 0.403,0.6521 1.2935,8.2433 1.9788,16.8693 0.6854,8.6261 1.8604,18.3838 2.6111,21.6838 2.3858,10.4869 3.6145,34.6309 1.8888,37.1153 -2.3332,3.3591 0.035,8.1348 4.474,9.0226 3.0589,0.6118 4.0288,1.7819 5.2275,6.3066 0.8095,3.0555 3.3572,10.6555 5.6615,16.8888 5.8073,15.709 10.7548,30.4629 10.7548,32.0719 0,1.815 15.9822,38.6241 22.7106,52.3055 2.9635,6.0258 7.4377,16.056 9.9427,22.2893 2.505,6.2333 8.1828,18.0858 12.6173,26.3389 4.4345,8.253 8.0627,15.7883 8.0627,16.7451 0,0.9567 2.0272,5.1059 4.5048,9.2204 2.4776,4.1145 5.4466,10.2452 6.5978,13.6238 1.1512,3.3786 3.3241,7.7078 4.8286,9.6205 1.5045,1.9127 2.7355,4.0252 2.7355,4.6944 0,0.6693 5.958,13.3384 13.24,28.1536 7.2819,14.8151 16.6036,34.8486 20.7147,44.5189 4.1111,9.6702 10.8643,23.4022 15.0072,30.5156 9.1799,15.762 12.4447,24.9717 10.8368,30.5688 -0.9112,3.1721 -0.6644,4.3442 1.1928,5.6628 5.4996,3.9049 7.8358,7.0732 10.1978,13.8302 1.3792,3.9455 7.7533,17.9737 14.1647,31.1737 6.4113,13.2 12.3441,26.153 13.1838,28.7846 0.8398,2.6315 1.3623,9.5315 1.1612,15.3333 -0.3584,10.3402 -0.4362,10.5569 -3.9348,10.9612 -1.963,0.2269 -4.2864,1.2769 -5.1632,2.3333 -2.2982,2.7691 -8.4556,2.3616 -11.2677,-0.7458 -1.3273,-1.4666 -3.7741,-2.6666 -5.4374,-2.6666 -1.6633,0 -4.7586,-1.7345 -6.8786,-3.8545 -2.1199,-2.1199 -5.0161,-4.0779 -6.4359,-4.3511 -1.992,-0.3832 -2.7757,-2.0146 -3.4323,-7.1455 -0.468,-3.6569 -2.6249,-11.4587 -4.7932,-17.3374 -2.1682,-5.8787 -4.3783,-13.0787 -4.9114,-16 -0.533,-2.9213 -2.7965,-8.5773 -5.03,-12.5688 -2.2336,-3.9915 -5.5347,-11.1915 -7.336,-16 -1.8012,-4.8085 -5.0308,-11.9993 -7.1767,-15.9795 -4.4949,-8.3369 -4.6677,-9.6881 -1.799,-14.0664 3.3847,-5.1657 2.0396,-9.2446 -3.3076,-10.0302 -3.8562,-0.5665 -4.8084,-1.4498 -6.337,-5.879 -0.9895,-2.8668 -3.3205,-7.2072 -5.1802,-9.6454 -1.8597,-2.4382 -4.28,-6.9803 -5.3784,-10.0935 -1.0985,-3.1133 -3.0953,-7.5217 -4.4375,-9.7965 -1.3421,-2.2748 -3.2038,-6.4872 -4.1371,-9.3608 -2.2655,-6.976 -21.3111,-47.226 -29.9449,-63.2841 -2.5804,-4.7993 -5.2275,-11.5944 -5.8824,-15.1002 -0.6875,-3.6799 -2.6004,-7.8818 -4.5254,-9.9407 -3.4227,-3.6607 -7.639,-11.0693 -7.639,-13.4227 0,-0.7271 -2.3454,-6.3069 -5.212,-12.3995 -10.9828,-23.3427 -22.788,-49.3314 -22.788,-50.1671 0,-0.4797 -1.4487,-3.8808 -3.2195,-7.558 -2.8131,-5.8418 -8.9183,-19.4223 -18.4058,-40.942 -2.0837,-4.7261 -2.5552,-7.7381 -1.9278,-12.315 0.7921,-5.7792 0.6625,-6.0977 -2.8082,-6.9024 -2.0013,-0.464 -4.9948,-1.6901 -6.6523,-2.7247 -2.1767,-1.3586 -3.7153,-1.5054 -5.5407,-0.5285 -2.1048,1.1264 -2.6812,3.5283 -3.4495,14.373 -0.8387,11.8374 -4.9396,32.2102 -8.5257,42.3538 -2.1959,6.2113 -10.3771,33.9063 -12.21,41.3333 -0.9049,3.6667 -2.657,8.4667 -3.8935,10.6667 -1.2366,2.2 -3.3339,7.6 -4.6606,12 -1.3267,4.4 -3.8284,11.375 -5.5593,15.5001 -1.7309,4.125 -3.1471,8.1253 -3.1471,8.8894 0,1.4991 -3.9005,10.0886 -7.997,17.6105 -1.3979,2.5667 -2.5704,5.996 -2.6056,7.6208 -0.035,1.6247 -2.1306,6.7247 -4.6564,11.3333 -2.5258,4.6086 -7.356,14.9792 -10.7338,23.0459 -3.3778,8.0667 -7.9945,18.5667 -10.2592,23.3333 -2.2648,4.7667 -5.5333,12.818 -7.2634,17.8919 -1.7301,5.0739 -3.9745,10.1739 -4.9876,11.3334 -2.7343,3.1292 -5.6425,9.2742 -9.9269,20.9751 -2.1078,5.7565 -5.397,12.7613 -7.3095,15.5664 -1.9124,2.805 -4.6533,8.205 -6.0908,12 -1.4375,3.7949 -5.6638,13.0711 -9.3917,20.6138 -3.7279,7.5426 -6.7781,14.0954 -6.7781,14.5617 0,0.4663 -1.0058,1.9592 -2.2352,3.3177 -3.3203,3.6688 -11.0981,22.2898 -11.0981,26.57 0,2.0451 -1.5,5.9286 -3.3333,8.6302 -1.8334,2.7016 -3.3334,6.2352 -3.3334,7.8526 0,1.6173 -1.2,4.0266 -2.6666,5.3539 -1.4667,1.3273 -2.6667,3.9316 -2.6667,5.7874 0,1.8557 -1.1528,4.6127 -2.5617,6.1267 -3.8684,4.1566 -13.4383,24.138 -13.4383,28.0583 0,2.1213 -0.8964,3.7173 -2.3333,4.1544 -1.2834,0.3904 -4.1334,1.5186 -6.3334,2.5071 -3.3664,1.5125 -12.7617,4.8197 -13.1989,4.646 -0.074,-0.029 -1.7844,-0.9485 -3.8011,-2.0425 z m -673,-2148.5707 c 0,-0.7334 -0.9354,-1.3334 -2.0787,-1.3334 -1.1432,0 -1.7078,0.6 -1.2546,1.3334 0.4532,0.7333 1.3886,1.3333 2.0787,1.3333 0.69,0 1.2546,-0.6 1.2546,-1.3333 z m 1016.4755,2141.2118 c -5.2286,-1.515 -6.5138,-4.604 -3.7012,-8.8965 1.7886,-2.7298 1.8811,-3.845 0.5285,-6.3724 -2.4965,-4.6647 -0.4812,-12.0355 4.9277,-18.0225 4.8458,-5.3637 7.9471,-6.3229 12.5239,-3.8735 4.0772,2.182 3.0881,7.2026 -2.7473,13.9448 -6.1634,7.1214 -7.6365,11.5014 -5.4684,16.2598 1.496,3.2833 0.8865,8.5391 -0.9619,8.2949 -0.5005,-0.066 -2.7961,-0.6667 -5.1013,-1.3346 z m -23.6021,-28.9835 c -2.7848,-3.0771 -2.9093,-10.3401 -0.1951,-11.3816 2.3408,-0.8983 8.852,1.3146 10.1772,3.4587 1.0954,1.7725 -1.0598,7.9069 -3.2722,9.3137 -2.5205,1.6026 -4.3427,1.2249 -6.7099,-1.3908 z m -34.7307,-23.6707 c -0.4451,-1.16 -0.8093,-3.56 -0.8093,-5.3333 0,-2.6799 0.6626,-3.2243 3.9244,-3.2243 4.521,0 8.1428,4.1214 7.106,8.0862 -0.8634,3.3017 -8.9912,3.6765 -10.2211,0.4714 z m -815.4081,-1772.286 c -3.3373,-3.5173 -8.3042,-8.0781 -11.0375,-10.1351 -4.8323,-3.6367 -4.9607,-3.9543 -4.6444,-11.4896 0.3756,-8.9482 2.712,-12.3706 10.1086,-14.8073 2.6613,-0.8767 6.3387,-2.6054 8.1721,-3.8416 11.5301,-7.7743 15.1795,-9.7432 22.1818,-11.9674 4.3,-1.3658 12.0182,-4.0767 17.1515,-6.0242 10.7242,-4.0686 8.1272,-3.4544 36.6667,-8.6712 12.1,-2.2118 25.3,-4.9887 29.3333,-6.171 4.0333,-1.1823 12.5163,-2.3209 18.8511,-2.5303 6.3347,-0.2094 12.6347,-0.9667 14,-1.6829 4.8832,-2.5617 11.4233,-3.3311 12.5682,-1.4786 0.8321,1.3463 1.8365,0.948 4.2929,-1.7025 2.0955,-2.2611 5.704,-3.9818 10.4139,-4.9659 12.6428,-2.6414 25.6736,-5.7564 32.5363,-7.7778 3.6643,-1.0792 11.8858,-2.4523 18.2701,-3.0512 11.995,-1.1252 19.0169,-2.3461 38.4008,-6.677 6.2334,-1.3926 19.4334,-3.1674 29.3334,-3.9439 9.9,-0.7765 20.4552,-1.6743 23.4561,-1.9952 4.8247,-0.516 5.7937,-0.127 8.3732,3.3621 1.6045,2.1701 3.5575,3.9456 4.3402,3.9456 0.7827,0 5.4265,-3.8649 10.3196,-8.5888 l 8.8964,-8.5888 13.9947,-0.292 c 9.1014,-0.19 15.0728,0.2849 17.0781,1.3581 3.8938,2.0839 6.875,0.9941 6.875,-2.5133 0,-1.4897 0.45,-2.7228 1,-2.7403 0.55,-0.017 3.2894,-0.5632 6.0876,-1.2127 4.4186,-1.0256 5.2127,-0.8427 6.039,1.3912 0.9109,2.4623 1.1474,2.4275 5.5434,-0.8158 2.5255,-1.8633 5.4495,-3.0587 6.4978,-2.6564 1.0482,0.4022 3.9777,0.048 6.5099,-0.7882 3.4882,-1.1511 5.3196,-1.1365 7.5563,0.061 2.4394,1.3054 3.7469,1.1168 7.5258,-1.0857 7.8783,-4.5918 13.2219,-4.8593 18.9823,-0.9501 3.736,2.5353 6.7555,3.4222 11.6504,3.4222 7.1635,0 8.5741,-1.8278 3.2742,-4.2426 -1.8334,-0.8353 -3.3334,-2.218 -3.3334,-3.0726 0,-2.5735 34.6944,-7.8168 61.3334,-9.2691 7.7,-0.4198 23,-1.3623 34,-2.0945 54.7919,-3.6471 89.9739,-5.3445 123.3333,-5.9507 20.1667,-0.3664 51.3823,-1.048 69.3681,-1.5147 29.1956,-0.7575 32.8939,-0.6165 34.4966,1.3146 2.439,2.9388 4.9292,2.7173 7.2865,-0.6482 2.2253,-3.1772 4.8488,-2.335 4.8488,1.5565 0,3.5439 2.1723,3.2487 4.7213,-0.6416 1.9912,-3.0389 2.3721,-3.1227 6.4487,-1.4194 3.2128,1.3424 8.7904,1.637 21.5813,1.1399 9.4868,-0.3686 27.7487,-0.039 40.582,0.7318 12.8334,0.7712 31.4334,1.6783 41.3334,2.0158 25.408,0.8661 67.1469,3.116 86,4.6356 8.8,0.7094 31.3,1.9299 50,2.7124 77.4188,3.2394 85.5901,4.1134 106.6666,11.4093 13.1244,4.5433 32.2611,8.7954 43.3616,9.6349 l 9.9347,0.7514 2.3519,5.1079 c 1.6199,3.5182 3.2212,5.1186 5.1452,5.1423 8.1132,0.1 9.8841,14.954 2.486,20.853 -6.0152,4.7964 -17.4461,5.2641 -32.8313,1.3434 -7.0869,-1.8059 -14.3633,-4.252 -16.1698,-5.4356 -9.1158,-5.973 -33.7984,-9.3101 -84.2783,-11.3948 -16.8666,-0.6965 -40.8666,-1.8598 -53.3333,-2.585 -81.1035,-4.718 -95.8144,-5.736 -117.3333,-8.119 -6.6,-0.7309 -18.3,-1.6042 -26,-1.9408 -67.5491,-2.9521 -92.4277,-3.6363 -108.5721,-2.9861 -10.3187,0.4156 -21.6909,0.2062 -25.2716,-0.4654 -4.7443,-0.8897 -7.9994,-0.7287 -12,0.5936 -3.9701,1.3122 -12.5019,1.7514 -30.823,1.5867 -13.9333,-0.1253 -27.4333,0.284 -30,0.9096 -2.5667,0.6255 -14.5667,1.6923 -26.6667,2.3705 -12.1,0.6782 -29.5,1.7985 -38.6666,2.4895 -9.1667,0.691 -27.7667,1.6577 -41.3334,2.1482 -13.5666,0.4905 -30.3666,1.4909 -37.3333,2.2231 -12.7655,1.3417 -17.5233,1.8069 -56.9963,5.5733 -22.4728,2.1443 -35.3486,4.1019 -38.0795,5.7897 -0.8735,0.5398 -4.8887,1.4221 -8.9228,1.9606 -4.0341,0.5386 -11.5345,1.9108 -16.6676,3.0495 -5.133,1.1387 -11.8535,2.0704 -14.9343,2.0704 -6.1711,0 -16.8197,1.9704 -25.0662,4.6382 -6.3974,2.0697 -36.7475,6.6202 -58,8.6962 -8.4333,0.8238 -19.5333,2.1683 -24.6666,2.9877 -5.1334,0.8195 -11.5101,1.548 -14.1706,1.6189 -2.6605,0.071 -5.6605,0.7739 -6.6667,1.5621 -1.8543,1.4526 -12.3489,3.9452 -24.4961,5.818 -3.6666,0.5654 -9.0481,2.0237 -11.9589,3.2408 -2.9107,1.2171 -9.8107,2.8265 -15.3333,3.5765 -5.5226,0.75 -13.6411,2.3409 -18.0411,3.5354 -5.2348,1.4211 -13.6241,2.1984 -24.2712,2.2489 -15.4245,0.073 -16.3406,0.2296 -17.6053,3.0053 -0.9071,1.991 -2.954,3.1818 -6.3955,3.7207 -2.7837,0.4359 -7.2309,1.3683 -9.8827,2.0719 -2.6517,0.7037 -6.3508,1.2794 -8.2202,1.2794 -1.8694,0 -11.3998,1.7327 -21.1787,3.8506 -9.7788,2.1178 -22.493,4.5197 -28.2536,5.3374 -5.7606,0.8178 -12.3606,2.3418 -14.6667,3.3866 -2.306,1.0448 -7.4928,2.2942 -11.5261,2.7764 -12.9282,1.5455 -27.19,5.6947 -29.5501,8.5971 -1.2192,1.4993 -2.6245,5.1394 -3.1229,8.0891 -0.7506,4.4432 -1.6669,5.6809 -5.3425,7.2167 -2.4401,1.0195 -5.1059,3.1044 -5.9241,4.6332 -2.2933,4.2852 -5.3784,3.3551 -11.9925,-3.6155 z M 2196,2864.0277 c -9.5355,-1.1879 -11.1106,-1.9116 -20.855,-9.5815 -11.7315,-9.2339 -15.8981,-21.1346 -14.2453,-40.6875 0.7439,-8.7999 1.3326,-10.5391 4.5326,-13.3903 2.0227,-1.8023 4.3826,-4.9787 5.2442,-7.0588 0.8616,-2.0801 3.7619,-5.2816 6.445,-7.1144 4.0768,-2.7847 6.5218,-3.3519 14.8785,-3.4517 5.5,-0.066 12.7551,-0.4628 16.1224,-0.8823 5.1945,-0.6472 6.6909,-0.2738 9.8736,2.4638 l 3.7513,3.2267 4.8531,-2.6583 4.8531,-2.6583 7.9399,5.0318 c 8.3512,5.2923 12.5713,9.4787 16.141,16.0118 1.7102,3.1302 1.9937,6.2408 1.3717,15.054 -0.7276,10.311 -1.2368,11.8351 -7.0923,21.2299 -9.7091,15.5776 -15.5874,20.0196 -31.4385,23.7567 -8.8796,2.0935 -10.7752,2.1535 -22.3753,0.7084 z m 343.3333,-0.01 c -9.9734,-0.6174 -13.4433,-1.4697 -20.5463,-5.0468 -4.7004,-2.3671 -10.5273,-4.3038 -12.9486,-4.3038 -3.9858,0 -4.5342,-0.49 -5.7966,-5.178 -0.7668,-2.848 -2.3829,-5.998 -3.5912,-7 -3.4032,-2.8223 -5.7839,-9.7608 -5.7839,-16.8565 v -6.4534 l 5.582,-1.2561 c 5.7066,-1.2841 7.7614,-3.5299 12.443,-13.5998 1.1107,-2.3891 5.0095,-7.6455 8.6639,-11.6808 3.6544,-4.0354 6.6444,-8.2306 6.6444,-9.3229 0,-1.3981 1.4479,-1.9859 4.8922,-1.9859 3.0223,0 7.7331,-1.6033 12.3249,-4.1947 4.2399,-2.3929 6.6388,-3.2382 5.5845,-1.9678 -2.5468,3.0686 -0.7145,4.4336 2.2952,1.7099 1.3456,-1.2177 3.5993,-2.2479 5.0082,-2.2893 1.4089,-0.041 4.6617,-0.8141 7.2283,-1.717 2.9817,-1.049 6.7174,-1.2762 10.3462,-0.6293 3.2143,0.573 7.1711,0.4454 9.116,-0.2941 2.643,-1.0049 4.8341,-0.6883 9.49,1.3712 3.3294,1.4728 7.8625,2.6778 10.0736,2.6778 5.0078,0 17.8215,10.511 20.4329,16.7609 1.1127,2.6632 3.0467,4.5775 5.1605,5.108 2.6885,0.6748 3.3808,1.676 3.3808,4.8894 0,5.904 -3.2091,11.3209 -13.5006,22.7886 -5.3388,5.949 -9.166,11.4136 -9.166,13.0877 0,6.1399 -6.1601,13.9449 -12.5294,15.8751 -4.7075,1.4265 -16.9631,4.8495 -26.804,7.4863 -9.384,2.5143 -14.3008,2.8693 -28,2.0213 z M 1636,2416.318 c -9.5919,-0.5574 -29.3507,-5.7815 -31.7966,-8.4069 -1.2304,-1.3207 -5.1595,-3.6539 -8.7313,-5.185 -3.5718,-1.531 -8.8246,-5.3207 -11.6729,-8.4216 -5.6747,-6.1778 -11.7942,-16.8504 -11.808,-20.5935 0,-1.3077 -1.2009,-4.1777 -2.6579,-6.3777 -3.1696,-4.7859 -3.3677,-7.7582 -0.6666,-10 2.0649,-1.7137 2.8269,-9.3333 0.9333,-9.3333 -0.5867,0 -1.7867,0.72 -2.6667,1.6 -3.064,3.064 -1.7523,-4.439 1.8509,-10.5875 1.898,-3.2387 3.248,-6.0593 3,-6.268 -0.248,-0.2087 -2.2509,-0.9644 -4.4509,-1.6795 -3.3349,-1.0839 -4.0363,-2.0563 -4.2184,-5.8492 -0.1202,-2.502 -0.2702,-5.3683 -0.3334,-6.3694 -0.089,-1.4075 -1.7022,-1.6287 -7.1148,-0.9753 -3.85,0.4648 -19.6,2.0266 -35,3.4706 -15.4,1.4441 -32.5,3.2395 -38,3.9899 -5.5,0.7504 -16.9,1.9421 -25.3334,2.6482 -8.4333,0.7062 -21.6333,2.5282 -29.3333,4.0489 -7.7,1.5208 -19.7,3.6617 -26.6667,4.7576 -23.308,3.6665 -28.5897,4.6643 -42.5387,8.0361 -7.6296,1.8442 -18.4296,3.9562 -24,4.6933 -5.5704,0.7371 -14.0279,1.8867 -18.7946,2.5546 -22.7105,3.1823 -29.4033,3.1085 -40.9575,-0.4518 -6.0266,-1.857 -12.7938,-4.684 -15.0383,-6.2822 -3.6476,-2.5973 -3.9864,-3.4086 -3.192,-7.6433 0.7353,-3.9194 0.3869,-5.1161 -2.0174,-6.9297 -2.6345,-1.9872 -2.7452,-2.5616 -1.1838,-6.1444 1.6434,-3.7711 2.0585,-3.9352 9.0557,-3.5806 4.0333,0.2044 9.4333,0.4272 12,0.4952 8.3452,0.221 25.692,-1.6029 40,-4.2058 23.4238,-4.2612 24.6108,-4.4493 26.302,-4.1659 0.8994,0.1507 3.174,-0.7341 5.0546,-1.9663 2.7183,-1.7811 4.08,-1.9394 6.6423,-0.7719 2.5722,1.1719 5.7244,0.7841 15.612,-1.9211 6.814,-1.8642 15.9489,-3.9981 20.2998,-4.7419 4.351,-0.7438 9.151,-2.1644 10.6667,-3.1569 2.4613,-1.6116 25.0971,-3.7252 35.8435,-3.3468 2.0649,0.073 5.3279,-1.1057 7.2512,-2.6185 3.0969,-2.4361 5.1077,-2.7168 17.5791,-2.454 9.2927,0.1959 15.1364,-0.2726 17.1819,-1.3775 2.0377,-1.1005 5.0074,-1.3422 8.6667,-0.7054 8.941,1.5562 22.4928,0.7424 27.5468,-1.654 3.1806,-1.5081 10.9375,-2.5826 24.5847,-3.4052 17.1564,-1.0343 20.9532,-1.6822 27.2151,-4.6446 5.7278,-2.7097 9.5773,-3.4945 18.082,-3.6862 20.7788,-0.4686 40.9204,-3.3547 48.5277,-6.9535 5.9568,-2.818 9.5808,-3.4585 22.2635,-3.935 8.3317,-0.3129 18.9432,-1.0626 23.5811,-1.6659 33.1769,-4.3155 61.306,-8.7508 66.1424,-10.4292 l 5.7098,-1.9814 -3.5591,-6.2066 c -7.6995,-13.4268 -7.7453,-13.5738 -6.0492,-19.4387 0.8643,-2.989 2.842,-10.5345 4.3948,-16.7679 3.143,-12.6173 2.6659,-11.5453 11.2755,-25.3333 3.4343,-5.5 9.5296,-16 13.5451,-23.3333 4.0155,-7.3334 11.3259,-18.7334 16.2454,-25.3334 4.9195,-6.6 10.386,-14.1 12.1479,-16.6666 3.0169,-4.395 13.9764,-15.8545 47.6001,-49.7714 7.8723,-7.9409 16.9363,-16.1628 20.1423,-18.2708 3.2059,-2.108 9.1173,-7.8193 13.1364,-12.6918 4.3492,-5.2727 10.5291,-10.8306 15.2658,-13.7292 4.3771,-2.6786 11.0657,-7.4095 14.8635,-10.5131 3.7979,-3.1036 10.3009,-7.4348 14.4511,-9.6249 4.1503,-2.1901 9.7202,-5.4575 12.3777,-7.2609 2.6574,-1.8033 6.5676,-3.6601 8.6893,-4.1261 2.1218,-0.466 4.7791,-2.2536 5.9053,-3.9723 1.148,-1.7521 4.9129,-4.0767 8.5693,-5.2912 3.587,-1.1914 11.7474,-5.4472 18.1344,-9.4573 6.3869,-4.01 12.3601,-7.291 13.2738,-7.291 2.3422,0 16.2488,-8.5401 21.6988,-13.3253 2.5108,-2.2044 5.3021,-4.0081 6.2031,-4.0081 0.9009,0 4.6835,-2.0509 8.4058,-4.5577 12.4638,-8.3936 43.6486,-23.0276 54.53,-25.5891 2.2,-0.5179 5.2,-1.7094 6.6666,-2.6476 1.4667,-0.9383 9.3343,-4.078 17.4835,-6.9772 8.1492,-2.8992 17.1492,-6.486 20,-7.9708 2.8508,-1.4848 14.1832,-5.5017 25.1832,-8.9264 11,-3.4247 22.1837,-7.0438 24.8527,-8.0425 9.3282,-3.4906 40.587,-12.4531 53.1473,-15.2384 6.9667,-1.5449 20.1667,-4.5802 29.3333,-6.7451 17.6014,-4.1569 51.6944,-9.6521 74,-11.9274 7.3334,-0.7481 21.1334,-2.3072 30.6667,-3.4647 13.0618,-1.586 22.7966,-1.8809 39.5025,-1.1965 16.1348,0.6609 23.3958,0.4646 26.6755,-0.7214 4.5144,-1.6324 10.0958,-1.278 62.4887,3.9688 6.9666,0.6976 14.7666,1.3612 17.3333,1.4745 13.1493,0.5807 50.1386,4.2683 60.6667,6.0482 14.8806,2.5156 28.7981,6.188 37.3611,9.8586 8.178,3.5055 24.1857,7.9881 28.5261,7.9881 1.8008,0 4.5129,1.1234 6.0268,2.4965 2.6633,2.4155 25.023,9.5035 29.9796,9.5035 1.3427,0 5.6659,1.4131 9.6071,3.1403 3.9413,1.7273 11.0659,4.4329 15.8326,6.0125 4.7667,1.5797 11.3011,4.9665 14.521,7.5263 3.2198,2.5598 6.6553,4.6542 7.6344,4.6542 0.9791,0 3.7446,1.1978 6.1457,2.6617 2.4011,1.4639 5.5656,2.7037 7.0322,2.7551 1.4667,0.052 6.3507,2.0037 10.8534,4.3384 7.2803,3.7748 13.6509,6.9308 24.48,12.1272 1.8333,0.8797 6.3333,3.1438 10,5.0313 3.6666,1.8875 12.3666,6.2447 19.3333,9.6827 20.3874,10.0609 23.5364,12.0258 34.1068,21.2816 5.5204,4.8337 10.5184,8.7887 11.1065,8.7887 1.3421,0 10.729,12.4849 15.4723,20.5786 1.9657,3.3543 5.0156,7.2327 6.7776,8.6186 1.7619,1.3859 3.2035,2.8514 3.2035,3.2566 0,0.4051 2.054,4.2412 4.5644,8.5246 2.5104,4.2834 6.9569,13.7656 9.8811,21.0715 2.9242,7.3059 7.3863,17.4834 9.9157,22.6167 10.7316,21.7791 15.5239,32.435 17.6895,39.3334 1.2662,4.0333 2.8147,7.9851 3.4412,8.7817 0.6265,0.7967 1.9713,3.8073 2.9884,6.6902 1.0172,2.8829 4.9252,10.6059 8.6845,17.1623 6.3837,11.1331 6.8352,12.5187 6.8352,20.9765 0,10.5756 -0.2461,10.4633 14,6.3893 5.1286,-1.4667 11.1811,-2.6667 13.45,-2.6667 2.2688,0 10.0708,-1.2539 17.3376,-2.7864 8.428,-1.7774 15.552,-2.5189 19.6735,-2.0477 5.642,0.6451 34.8474,-2.8861 60.8722,-7.3599 4.0333,-0.6933 10.3333,-1.455 14,-1.6926 3.6667,-0.2377 8.2815,-1.0822 10.2553,-1.8767 1.9737,-0.7946 8.2737,-1.8089 14,-2.254 5.7262,-0.4451 14.6114,-1.6305 19.7447,-2.6343 5.1333,-1.0037 17.7333,-2.8214 28,-4.0392 13.8544,-1.6434 20.343,-3.0489 25.1689,-5.4522 5.6099,-2.7936 6.7079,-2.9701 8,-1.2861 1.2226,1.5932 3.09,1.7283 10.1644,0.7352 4.7667,-0.6691 13.976,-1.838 20.4651,-2.5974 6.4892,-0.7595 12.2061,-1.6328 12.7044,-1.9407 0.4982,-0.308 5.9889,-1.2349 12.2015,-2.06 6.2126,-0.8251 14.7613,-2.6765 18.9971,-4.1142 5.0384,-1.7102 9.4184,-2.3448 12.6667,-1.835 2.7309,0.4286 9.4652,-0.1944 14.9652,-1.3843 18.965,-4.1031 63.8898,-8.3403 90.8246,-8.5665 l 16.8246,-0.1413 6.1754,6.1754 c 3.3965,3.3965 6.1754,7.0539 6.1754,8.1275 0,3.361 -5.3881,9.6971 -8.2463,9.6971 -2.1091,0 -2.5663,0.6312 -2.0068,2.7708 0.5083,1.9435 -0.686,4.3322 -3.9996,8 -2.5983,2.876 -5.4651,5.2292 -6.3705,5.2292 -0.9054,0 -4.4193,1.4744 -7.8087,3.2766 -5.2393,2.7857 -6.7779,3.062 -10.2715,1.8441 -6.4514,-2.249 -27.859,-0.839 -32.3512,2.1308 -3.0559,2.0202 -4.3187,2.1878 -7.0627,0.9376 -5.2287,-2.3823 -11.6242,-1.8032 -18.0978,1.6389 -3.2701,1.7387 -10.935,4.1723 -17.0332,5.4079 -10.7728,2.1829 -11.168,2.1732 -13.9196,-0.3399 -2.0085,-1.8343 -3.6076,-2.271 -5.4987,-1.5016 -1.4667,0.5966 -4.4344,1.127 -6.595,1.1785 -2.1606,0.052 -6.0606,1.5658 -8.6667,3.3649 -5.1332,3.5438 -11.4459,4.8819 -38.0717,8.0701 -9.5333,1.1415 -22.3864,2.9227 -28.5623,3.9581 -8.0989,1.3579 -11.9644,1.4891 -13.8673,0.4707 -1.8632,-0.9972 -5.4193,-0.9813 -12.1043,0.054 -5.2064,0.8063 -11.8661,1.7279 -14.7994,2.0479 -10.2823,1.1219 -24.0555,3.2004 -30,4.5271 -3.3,0.7366 -13.2,2.1304 -22,3.0974 -13.5596,1.49 -16.4726,2.2275 -19.0985,4.8354 -3.4796,3.4558 -3.2717,6.0911 0.5389,6.8294 1.404,0.2721 3.793,1.7721 5.3088,3.3334 1.5158,1.5613 3.9173,3.5045 5.3367,4.3182 2.2097,1.2668 2.6007,3.0878 2.7194,12.6667 0.076,6.1529 0.8263,12.8762 1.6667,14.9406 1.8699,4.5933 1.9674,14.6114 0.2039,20.9592 -0.7201,2.592 -3.2667,7.6411 -5.6592,11.2203 -2.3925,3.5792 -6.1601,9.4134 -8.3723,12.9649 -5.6986,9.1483 -19.0725,20.2951 -30.9145,25.7664 -11.7726,5.4393 -13.1977,5.5331 -30.601,2.0149 -7.2209,-1.4597 -15.5835,-2.6597 -18.5837,-2.6666 -7.9972,-0.018 -16.1928,-2.9 -25.0195,-8.7967 -4.2941,-2.8687 -9.1919,-6.0897 -10.8838,-7.1576 -1.692,-1.068 -5.3104,-5.7609 -8.041,-10.4287 l -4.9646,-8.4869 -0.1515,-18.238 c -0.1417,-17.0611 0.079,-18.7543 3.4145,-26.238 4,-8.9736 5.9143,-17.3398 4.2089,-18.3938 -0.6222,-0.3846 -3.8261,-0.11 -7.1197,0.6101 -3.2937,0.7202 -9.5885,1.5386 -13.9885,1.8189 -11.8597,0.7553 -16.0258,1.7436 -19.7715,4.6899 -2.0706,1.6288 -3.6996,2.1306 -4.214,1.2983 -1.2653,-2.0473 -6.9541,-1.6302 -11.7474,0.8612 -2.3469,1.2199 -8.8698,2.6268 -14.4953,3.1264 -8.2223,0.7302 -11.0242,1.5781 -14.2871,4.3236 -4.3202,3.6352 -11.7018,5.4464 -21.4847,5.2716 -3.3,-0.059 -9,0.7952 -12.6667,1.8981 -6.0869,1.831 -20.4792,4.7382 -41.3333,8.3492 -14.2082,2.4602 -41.7166,5.4798 -49.9206,5.4798 -4.3911,0 -13.8553,0.589 -21.0316,1.3089 -62.2933,6.2492 -83.6646,6.8253 -111.7145,3.0116 -28.3375,-3.8529 -29.9754,-4.1659 -34.9004,-6.6684 l -4.2338,-2.1513 2.5671,-3.2635 c 3.2663,-4.1525 3.2231,-4.8704 -0.3902,-6.4827 -2.729,-1.2178 -2.4975,-1.465 3,-3.2038 4.5496,-1.4389 6.062,-2.6238 6.4004,-5.0142 0.4046,-2.8577 0.085,-3.0515 -3.6666,-2.2274 -3.2063,0.7042 -4.1098,0.45 -4.1098,-1.1563 0,-3.2737 4.3539,-4.7766 17.6204,-6.0823 6.8088,-0.6701 21.0796,-2.1553 31.7129,-3.3003 20.45,-2.2021 52.2524,-3.8076 73.3334,-3.702 14.7293,0.074 47.1187,-3.8096 65.3333,-7.8332 6.9667,-1.5389 17.4667,-3.3136 23.3333,-3.9438 5.8667,-0.6301 14.8667,-2.3651 20,-3.8554 5.1334,-1.4904 14.4334,-3.0801 20.6667,-3.5327 6.2333,-0.4527 15.5333,-1.9334 20.6667,-3.2906 5.1333,-1.3571 13.2333,-3.1257 18,-3.9302 13.3881,-2.2594 26.9614,-5.5741 30.9338,-7.5543 1.9802,-0.9871 5.0926,-1.7948 6.9163,-1.7948 h 3.316 l -4.0508,-8.9338 c -2.228,-4.9136 -6.3903,-12.456 -9.2497,-16.7609 -2.8594,-4.305 -5.199,-8.0974 -5.199,-8.4276 0,-0.3302 -1.7435,-4.3378 -3.8745,-8.9057 -2.131,-4.5679 -5.2256,-11.9053 -6.8769,-16.3053 -2.7509,-7.3297 -7.3387,-17.3861 -21.2899,-46.6667 -2.7952,-5.8666 -6.3707,-13.9666 -7.9455,-18 -7.641,-19.5698 -34.8676,-50.8509 -52.6798,-60.5246 -2.2,-1.1948 -8.2,-4.84 -13.3334,-8.1005 -5.1333,-3.2605 -10.3098,-5.9537 -11.5034,-5.9849 -1.1935,-0.031 -2.917,-0.9566 -3.8299,-2.0566 -0.9129,-1.1 -2.2783,-2 -3.0341,-2 -0.7559,0 -5.3324,-1.8799 -10.1701,-4.1775 -4.8377,-2.2976 -13.2958,-6.2632 -18.7958,-8.8125 -5.5,-2.5492 -14.2,-6.613 -19.3333,-9.0306 -28.8758,-13.5994 -35.9368,-16.6384 -48.6667,-20.9456 -7.7,-2.6053 -20.9,-6.6944 -29.3333,-9.0869 -8.4334,-2.3925 -22.2334,-6.6917 -30.6667,-9.5538 -19.14,-6.4957 -33.9431,-10.0505 -46,-11.0465 -15.2602,-1.2605 -81.0715,-8.3115 -94.6667,-10.1425 -27.7519,-3.7376 -63.2472,-2.8167 -108.6666,2.8193 -5.5,0.6825 -16,1.8699 -23.3334,2.6388 -7.3333,0.7688 -16.3333,1.951 -20,2.6271 -3.6666,0.6762 -9.9666,1.5971 -14,2.0464 -22.8906,2.5504 -85.1848,17.8849 -120.6666,29.7035 -6.6,2.1984 -17.7,5.6614 -24.6667,7.6955 -6.9667,2.0342 -16.5667,5.3183 -21.3333,7.2982 -4.7667,1.9798 -16.1667,6.7521 -25.3334,10.605 -9.1666,3.853 -23.1331,9.6567 -31.0365,12.8972 -15.886,6.5135 -23.9586,10.6993 -32.9635,17.0926 -3.3,2.3429 -9.9583,6.4383 -14.7964,9.1008 -4.838,2.6625 -9.614,5.8261 -10.6133,7.0302 -0.9993,1.204 -4.9447,3.5725 -8.7676,5.2631 -3.8228,1.6907 -11.1515,5.5274 -16.2859,8.5261 -5.1345,2.9986 -9.9935,5.4521 -10.7979,5.4521 -1.6762,0 -31.0843,16.9156 -40.0722,23.0496 -3.3,2.2522 -10.4199,7.0775 -15.822,10.7229 -5.402,3.6455 -11.402,8.9334 -13.3333,11.7511 -1.9312,2.8176 -4.8404,5.4873 -6.4648,5.9325 -1.6243,0.4453 -8.0814,5.9998 -14.349,12.3434 -12.4201,12.5707 -15.1318,15.2691 -29.9506,29.8041 -21.9177,21.4978 -28.6791,28.6886 -32.9692,35.063 -2.4677,3.6667 -6.327,9.0667 -8.576,12 -2.2491,2.9334 -6.2206,9.2334 -8.8256,14 -5.7536,10.5283 -15.9894,26.2703 -17.8152,27.3987 -0.7318,0.4523 -4.3596,7.1811 -8.0618,14.9529 -3.7021,7.7718 -8.1363,15.9728 -9.8537,18.2243 -1.7173,2.2516 -4.4037,7.0931 -5.9697,10.7589 -1.566,3.6659 -4.3578,8.2494 -6.2042,10.1856 -1.8463,1.9363 -2.7899,3.8709 -2.0969,4.2991 0.6929,0.4283 9.5921,0.1327 19.776,-0.6569 10.1838,-0.7896 25.116,-1.5844 33.1827,-1.7662 9.8095,-0.2211 16.6507,-1.0773 20.6579,-2.5855 3.2952,-1.2402 13.1952,-2.8164 22,-3.5026 8.8048,-0.6863 18.1087,-1.9251 20.6754,-2.7531 2.5667,-0.8279 12.1667,-1.6857 21.3333,-1.9062 10.2998,-0.2477 19.4681,-1.2246 24,-2.5572 4.0334,-1.1861 11.2334,-2.7155 16,-3.3988 4.7667,-0.6832 12.4867,-2.506 17.1556,-4.0506 4.6689,-1.5445 9.1689,-2.5506 10,-2.2357 0.8311,0.3149 6.3111,-0.1959 12.1778,-1.135 5.9081,-0.9457 15.4251,-1.4027 21.3333,-1.0245 7.128,0.4564 13.9842,-0.024 20.6667,-1.4477 11.4295,-2.4352 40.0737,-2.9008 44.1529,-0.7176 1.8929,1.013 3.9911,0.9707 7.3835,-0.1489 4.18,-1.3795 5.1884,-1.2319 8.5474,1.2515 2.0945,1.5485 5.2721,2.8155 7.0613,2.8155 2.9071,0 3.305,0.6533 3.7416,6.1432 0.3886,4.8856 -0.032,6.5075 -2.0527,7.9231 -1.9911,1.3946 -2.3749,2.8048 -1.7731,6.5137 1.2751,7.8574 -1.6937,9.5671 -18.3943,10.593 -32.6359,2.0048 -51.4666,3.838 -56.9172,5.5409 -3.4378,1.074 -10.6378,1.9742 -16,2.0003 -11.2073,0.055 -23.0461,2.5566 -28.2589,5.9721 -2.9529,1.9348 -4.2069,2.082 -6.9784,0.8193 -1.8582,-0.8467 -3.8965,-1.2194 -4.5295,-0.8282 -1.2915,0.7982 -4.0365,1.1873 -28.6493,4.0612 -9.5333,1.1132 -20.6333,2.5745 -24.6667,3.2474 -4.0333,0.6729 -13.9333,1.8647 -22,2.6485 -8.0666,0.7838 -20.1816,2.0117 -26.9221,2.7287 -6.7405,0.7169 -20.5444,1.3035 -30.6754,1.3035 -10.1311,0 -20.5161,0.6624 -23.0779,1.4721 -2.5619,0.8096 -15.4579,2.5921 -28.6579,3.961 -45.8524,4.7551 -50.6739,5.2835 -51.9844,5.6966 -0.7248,0.2285 -1.3878,2.4678 -1.4733,4.9762 -0.086,2.5084 -0.6178,9.9608 -1.1829,16.5608 -0.962,11.2359 -0.8004,12.5378 2.5379,20.4468 2.9121,6.899 3.3996,9.5866 2.6609,14.6667 -1.068,7.3446 -3.7002,12.9785 -8.1765,17.5014 -1.7863,1.8048 -4.0211,5.1322 -4.9663,7.3942 -2.262,5.4139 -16.0702,20.2528 -21.2968,22.8865 -2.2652,1.1415 -5.6186,3.4214 -7.4519,5.0664 -4.7786,4.2878 -13.1501,8.356 -19.3334,9.3952 -12.6586,2.1275 -17.6891,2.6221 -23.3333,2.2941 z m 327.1612,-424.2792 c 0.7704,-0.7704 -0.1025,-1.8582 -2.2917,-2.8557 -4.9243,-2.2436 -11.3934,0.4424 -8.7465,3.6317 1.8079,2.1784 8.5584,1.7038 11.0382,-0.776 z"
       id="path1" />
  </g>
</svg>
