<?xml version="1.0" encoding="UTF-8" standalone="no"?>
<!-- Created with Inkscape (http://www.inkscape.org/) -->

<svg
   version="1.1"
   id="svg1"
   width="377.95276"
   height="413.43237"
   viewBox="0 0 377.95276 413.43238"
   sodipodi:docname="butterfly.svg"
   inkscape:version="1.4.3 (0d15f75, 2025-12-25)"
   xmlns:inkscape="http://www.inkscape.org/namespaces/inkscape"
   xmlns:sodipodi="http://sodipodi.sourceforge.net/DTD/sodipodi-0.dtd"
   xmlns="http://www.w3.org/2000/svg"
   xmlns:svg="http://www.w3.org/2000/svg">
  <defs
     id="defs1" />
  <sodipodi:namedview
     id="namedview1"
     pagecolor="#ffffff"
     bordercolor="#000000"
     borderopacity="0.25"
     inkscape:showpageshadow="2"
     inkscape:pageopacity="0.0"
     inkscape:pagecheckerboard="0"
     inkscape:deskcolor="#d1d1d1"
     inkscape:zoom="0.74322804"
     inkscape:cx="497.15562"
     inkscape:cy="539.53831"
     inkscape:window-width="1920"
     inkscape:window-height="1122"
     inkscape:window-x="-8"
     inkscape:window-y="-8"
     inkscape:window-maximized="1"
     inkscape:current-layer="g1" />
  <g
     inkscape:groupmode="layer"
     inkscape:label="Image"
     id="g1"
     transform="translate(-47.112861,-50.491155)">
    <path
       style="fill:#000000;stroke-width:0.392787"
       d="m 206.89947,463.71791 c -0.10736,-0.17381 -1.79342,-0.46459 -3.7468,-0.64614 -6.64701,-0.61785 -14.13029,-2.9959 -21.88167,-6.95371 -5.90038,-3.01267 -12.67997,-6.72286 -14.39284,-7.87656 -1.003,-0.67555 -2.12245,-1.22832 -2.48765,-1.22832 -0.3652,0 -0.664,-0.47134 -0.664,-1.04741 0,-0.7384 -0.34914,-1.04744 -1.18331,-1.04744 -0.65083,0 -1.47767,-0.47135 -1.83745,-1.04745 -0.35977,-0.57606 -0.97618,-1.0474 -1.3698,-1.0474 -0.60804,0 -1.37032,-2.09423 -1.37032,-3.76467 0,-0.27028 0.76401,-0.41757 1.69779,-0.32731 1.20963,0.11689 1.75409,0.46526 1.89359,1.21151 0.20633,1.10377 0.97798,1.81161 1.98954,1.82501 0.34886,0.005 0.48949,-0.43607 0.3317,-1.03943 -0.15064,-0.57607 -0.48209,-1.04741 -0.73654,-1.04741 -0.25445,0 -0.46263,-0.46687 -0.46263,-1.03747 0,-0.6732 -0.46534,-1.15424 -1.32529,-1.37008 -0.99211,-0.24899 -1.2481,-0.57583 -1.01824,-1.30005 0.23622,-0.74425 -0.12548,-1.14811 -1.56799,-1.75084 -2.31281,-0.96638 -3.61831,-0.5805 -3.208,0.94814 0.1633,0.60835 0.30012,1.28289 0.30405,1.49892 0.004,0.21603 0.36067,0.39279 0.79273,0.39279 0.85791,0 1.06334,0.81393 0.3212,1.27263 -0.25541,0.15782 -0.75561,-0.0639 -1.11156,-0.49283 -0.35595,-0.42889 -1.32534,-0.7798 -2.1542,-0.7798 -1.48495,0 -3.60189,-1.56102 -3.60189,-2.65599 0,-0.79881 -1.16372,-1.85757 -2.51208,-2.28551 -0.63976,-0.20307 -1.15393,-0.7965 -1.15393,-1.33182 0,-0.53109 -0.69395,-1.54951 -1.54211,-2.2632 -0.84816,-0.7137 -1.40802,-1.43167 -1.24412,-1.59558 0.16389,-0.16391 -0.32053,-1.03303 -1.07648,-1.93146 -0.75595,-0.89838 -1.37445,-2.17704 -1.37445,-2.84145 0,-0.76758 -0.3819,-1.3079 -1.04744,-1.48194 -0.59012,-0.15432 -1.04743,-0.71436 -1.04743,-1.28272 0,-0.91676 -0.25085,-0.97364 -2.74951,-0.62338 -1.51223,0.21198 -3.41295,0.64388 -4.22382,0.95977 -1.85368,0.72215 -1.75607,0.73519 -2.1483,-0.28695 -0.18585,-0.48433 0.0544,-1.28662 0.54886,-1.83301 0.83215,-0.91952 0.81509,-0.97169 -0.31776,-0.97169 -1.07588,0 -1.16697,-0.18583 -0.89938,-1.8348 0.2878,-1.77352 0.25074,-1.82352 -1.10984,-1.49729 l -1.40758,0.3375 1.30397,-1.51407 c 0.71718,-0.83275 1.54203,-1.7536 1.83301,-2.04636 2.3248,-2.33904 2.48826,-2.75271 1.69024,-4.27762 -1.05647,-2.01875 -1.6721,-3.44684 -3.45782,-8.02115 -0.84335,-2.16032 -2.34175,-5.93251 -3.32976,-8.38262 -0.98802,-2.45012 -2.44343,-6.39763 -3.23425,-8.77225 -0.79082,-2.37461 -1.68093,-4.31748 -1.97801,-4.31748 -0.31034,0 -0.43496,-0.71667 -0.29292,-1.68447 0.29841,-2.03322 -0.88888,-5.12384 -1.96838,-5.12384 -0.91035,0 -0.96671,-0.48433 -0.2697,-2.3176 0.33043,-0.86911 0.32775,-2.2123 -0.008,-3.83103 -1.3965,-6.73988 -2.12103,-13.82398 -1.97188,-19.28008 l 0.16139,-5.9044 -2.06888,-0.32976 c -1.13788,-0.18137 -2.31625,-0.52885 -2.61858,-0.77219 -0.30234,-0.24334 -2.30098,-0.5377 -4.44142,-0.65415 -2.40668,-0.13093 -3.97213,-0.45295 -4.10244,-0.84389 -0.1159,-0.34769 -1.08426,-0.63217 -2.151919,-0.63217 -1.067654,0 -3.345819,-0.35308 -5.062586,-0.78461 -4.130239,-1.03822 -14.957993,-4.96309 -15.952432,-5.7825 -0.432066,-0.35601 -2.298401,-1.4043 -4.147415,-2.32953 -7.343276,-3.67449 -16.611755,-11.38384 -19.841254,-16.50359 -0.726783,-1.15217 -1.664667,-2.34812 -2.084186,-2.65766 -0.419519,-0.30953 -0.793309,-1.48789 -0.830644,-2.61857 -0.06065,-1.83671 0.0577,-2.0425 1.110479,-1.93104 1.460544,0.15463 1.536892,-0.6816 0.130929,-1.43405 -0.742408,-0.39732 -1.047432,-1.09656 -1.047432,-2.40115 0,-2.4928 -1.250968,-4.73696 -2.866572,-5.14245 -1.211233,-0.304 -1.303313,-0.51365 -1.015676,-2.31243 0.225328,-1.40912 0.09452,-2.1622 -0.454746,-2.61805 -1.231399,-1.02197 -0.794098,-9.78242 0.563037,-11.27936 0.605419,-0.66778 1.142141,-2.2376 1.323934,-3.87229 0.168157,-1.51207 0.648876,-3.51528 1.068266,-4.45159 0.41939,-0.9363 0.877972,-2.29154 1.019073,-3.01165 0.269133,-1.37353 0.798986,-2.92965 2.764032,-8.1176 0.654615,-1.72827 1.32304,-4.28181 1.485389,-5.67455 0.162349,-1.39274 0.784426,-3.21933 1.382394,-4.0591 0.597969,-0.83977 1.483497,-2.764 1.967842,-4.27606 0.745867,-2.32851 1.201199,-2.90713 2.975491,-3.7812 1.547487,-0.76233 1.845339,-1.0822 1.139908,-1.22416 -0.601843,-0.12112 -0.843112,-0.48365 -0.652485,-0.98042 0.194472,-0.50678 -0.07994,-0.88824 -0.768535,-1.0683 -1.664663,-0.43533 -0.951101,-1.29271 1.882693,-2.26216 2.471048,-0.84536 5.97176,-2.48181 12.276896,-5.73899 2.149775,-1.11055 5.210639,-1.89727 12.066566,-3.10138 10.350922,-1.81795 9.929512,-1.76819 9.929512,-1.17256 0,0.24245 -0.965631,0.73013 -2.145851,1.08374 -3.089298,0.92557 -2.274704,1.15841 1.918923,0.54848 1.997099,-0.29045 4.151569,-0.52566 4.787709,-0.52266 0.63615,0.003 1.38697,-0.40353 1.66851,-0.90339 0.42675,-0.7577 1.21602,-0.89463 4.74608,-0.82339 2.32881,0.047 5.82008,0.33611 7.75838,0.64248 1.93831,0.30637 5.56046,0.67781 8.04924,0.82544 2.48877,0.14762 4.8455,0.39031 5.23716,0.5393 0.39166,0.149 2.59749,0.49582 4.90184,0.77073 2.30435,0.2749 5.48593,0.74133 7.07017,1.0365 1.58424,0.29518 4.21285,0.68857 5.84137,0.87421 l 2.96093,0.33752 2.5924,-2.42489 c 1.42582,-1.33368 2.87666,-2.42488 3.22408,-2.42488 1.21671,0 6.16478,-5.24671 7.52437,-7.97848 0.75487,-1.51673 2.15003,-3.61732 3.10036,-4.66796 0.95033,-1.05064 2.30044,-2.66125 3.00025,-3.57913 0.69981,-0.91789 2.58519,-2.50028 4.18973,-3.51643 1.60454,-1.01615 4.21354,-2.9451 5.79779,-4.28656 1.58424,-1.34145 3.94096,-3.12328 5.23716,-3.95962 1.2962,-0.83634 2.96142,-2.12806 3.7005,-2.87049 6.11344,-6.14116 15.49337,-11.90268 24.6164,-15.12035 2.46829,-0.87056 6.09489,-2.31153 8.0591,-3.20214 2.5316,-1.14788 4.36823,-1.61931 6.30868,-1.61931 1.93724,0 3.12358,-0.30379 4.05866,-1.03932 0.93398,-0.73468 2.06767,-1.02555 3.86757,-0.99231 1.40045,0.0258 2.88405,-0.0367 3.29689,-0.13903 0.42495,-0.10533 1.0851,0.49562 1.52155,1.38509 0.42401,0.86413 0.97001,1.6497 1.21332,1.74572 0.87319,0.34457 0.41757,2.06414 -0.89459,3.37629 -1.19112,1.19113 -1.23397,1.35743 -0.39278,1.52449 0.82987,0.16481 0.76982,0.3632 -0.49603,1.63869 -0.79213,0.79814 -1.44022,1.61893 -1.44022,1.82396 0,0.46764 -4.55573,3.24561 -5.32264,3.24561 -0.38101,0 -0.36337,0.24475 0.0539,0.74752 0.48149,0.58016 0.44691,1.25435 -0.15442,3.01136 -0.97806,2.85775 -0.45639,3.49214 2.10886,2.56453 1.62758,-0.58854 2.00877,-0.58143 2.4873,0.0464 1.10337,1.44763 3.57009,1.08112 5.66483,-0.84168 1.68338,-1.54521 1.91248,-2.02123 1.63661,-3.40057 -0.23591,-1.17954 -0.12641,-1.60386 0.41388,-1.60386 0.40405,0 1.15362,-0.48933 1.66571,-1.0874 0.62732,-0.73266 1.13514,-0.92671 1.55661,-0.59481 0.34405,0.27092 2.31783,0.62734 4.38618,0.79203 2.90761,0.23152 3.90221,0.12885 4.38478,-0.45262 0.4436,-0.5345 0.4541,-0.75206 0.0363,-0.75206 -0.32331,0 -0.58784,-0.35351 -0.58784,-0.78557 0,-0.43207 0.34746,-0.78558 0.77213,-0.78558 0.42466,0 1.15005,-0.73083 1.61196,-1.62407 l 0.83985,-1.62408 -2.08194,0.35174 c -2.09282,0.35358 -3.53653,-0.46076 -2.23879,-1.26281 0.3347,-0.20686 0.46991,-0.73741 0.30045,-1.17899 -0.45619,-1.18882 7.08393,-1.04361 8.46652,0.16305 1.07675,0.93974 14.34111,8.06797 17.89901,9.61888 1.2451,0.54275 2.54129,1.35573 2.88044,1.80663 0.33914,0.4509 1.2058,1.09889 1.92591,1.43997 0.72011,0.34108 3.58676,1.69045 6.37035,2.9986 2.78358,1.30815 6.11717,3.09121 7.40798,3.96237 1.2908,0.87115 2.57577,1.58391 2.85549,1.58391 0.27971,0 2.83793,-1.08579 5.68492,-2.41288 2.84699,-1.32709 6.13453,-2.85896 7.30564,-3.40415 2.80151,-1.30422 4.02366,-1.27467 2.3223,0.0562 -1.27642,0.99844 -1.28078,1.02444 -0.17376,1.03579 1.67209,0.0172 2.79234,-0.52593 2.79234,-1.35367 0,-0.40125 0.43956,-0.72955 0.97681,-0.72955 0.53724,0 1.59666,-0.48757 2.35426,-1.0835 0.89709,-0.70565 1.75253,-0.96446 2.45299,-0.74215 0.60598,0.19233 1.57879,0.017 2.22826,-0.40164 1.57828,-1.01731 5.67489,-1.98287 6.97277,-1.64347 0.58584,0.1532 1.87271,-0.17917 2.85972,-0.7386 1.448,-0.82071 2.90706,-1.03083 7.55543,-1.08804 6.31876,-0.0778 11.21827,-0.91676 11.63075,-1.99167 0.36102,-0.94081 2.0651,-0.87425 2.43711,0.0952 0.1658,0.43207 0.75134,0.78557 1.3012,0.78557 0.54986,0 1.29313,0.35351 1.65171,0.78558 0.74177,0.89377 2.3969,1.04424 2.88044,0.26185 0.17802,-0.28804 0.87919,-0.52371 1.55816,-0.52371 0.87725,0 1.43663,0.46547 1.93303,1.60849 0.66307,1.52682 0.82588,1.59767 3.20642,1.3953 2.11215,-0.17955 2.91141,0.0418 5.06511,1.40288 2.4098,1.5229 3.81851,2.38883 7.59723,4.67 0.87379,0.52749 2.475,1.66008 3.55827,2.51686 1.08326,0.85678 2.67405,1.80337 3.53508,2.10353 0.86103,0.30016 1.56552,0.77519 1.56552,1.05563 0,0.67918 0.85769,1.45263 3.55617,3.2069 1.23579,0.80338 2.47591,2.06305 2.75582,2.79927 0.27991,0.73621 0.97743,1.46109 1.55005,1.61084 0.57262,0.14974 1.04113,0.55711 1.04113,0.90527 0,0.79811 5.92162,6.89505 8.98584,9.25188 3.52486,2.71112 7.92357,7.78941 9.02377,10.41787 0.54256,1.2962 1.30794,3.09936 1.70088,4.00702 0.39295,0.90766 0.71672,2.67521 0.71951,3.92787 0.007,3.39383 -1.19941,12.49004 -1.65728,12.49004 -0.2189,0 -0.37123,1.11944 -0.33843,2.48765 0.0642,2.67736 -1.59142,11.67973 -3.00984,16.36613 -0.4795,1.58424 -1.18397,4.41266 -1.56548,6.28539 -0.38152,1.87272 -1.29684,4.70078 -2.03404,6.28459 -0.73721,1.58381 -1.34268,3.27243 -1.34549,3.7525 -0.003,0.48008 -0.20586,0.95142 -0.45122,1.04744 -0.24536,0.096 -2.54317,2.91028 -5.10623,6.25393 -11.22414,14.64241 -17.85468,20.45252 -29.46673,25.82065 -1.34338,0.62103 -2.16479,1.35203 -2.16479,1.92653 0,0.50917 -0.29459,1.2428 -0.65464,1.63029 -0.36005,0.38748 -0.75183,1.05242 -0.87062,1.47762 -0.2147,0.76857 -0.55989,8.47709 -0.73817,16.48459 -0.0513,2.30435 -0.24387,4.4254 -0.42792,4.71345 -0.58087,0.9091 -1.6043,6.60853 -1.3567,7.55536 0.13042,0.49874 -0.0838,1.34566 -0.47599,1.88205 -0.95052,1.29991 -0.96531,4.50497 -0.0191,4.14188 0.85311,-0.32737 2.61199,-4.18622 2.31381,-5.07633 -0.26699,-0.79704 1.33095,-5.45733 2.15317,-6.27955 0.77849,-0.77849 0.78224,1.27103 0.0108,5.89419 -0.76036,4.55662 -1.50504,9.86226 -1.64972,11.75374 -0.10526,1.37605 0.21091,1.72695 2.94932,3.27323 1.68697,0.95257 3.52733,1.73194 4.0897,1.73194 0.56237,0 0.87379,0.24061 0.69204,0.5347 -0.18176,0.29408 0.51135,0.88642 1.54024,1.31631 2.53164,1.05779 2.35947,1.76962 -0.3551,1.46813 -2.08839,-0.23194 -2.16304,-0.19653 -1.20919,0.57356 0.55913,0.45141 1.50992,0.82075 2.11288,0.82075 1.24702,0 3.14809,2.77025 2.70085,3.93572 -0.30662,0.79906 1.96243,2.87259 3.14347,2.87259 1.13251,0 0.83381,0.9454 -0.59434,1.88116 -1.64077,1.07508 -1.67548,1.78485 -0.0873,1.78485 0.6721,0 1.37708,0.15507 1.5666,0.3446 0.53794,0.53794 -0.71251,1.75027 -1.8053,1.75027 -1.10934,0 -1.26546,0.55578 -0.39941,1.42183 0.42938,0.42938 0.1522,0.80713 -1.04743,1.42749 -2.00958,1.03919 -2.05098,1.56322 -0.18457,2.33631 1.77824,0.73657 3.01335,3.88861 1.88929,4.8215 -0.51925,0.43094 -1.30273,0.3303 -3.06238,-0.39336 -1.30053,-0.53485 -2.36549,-1.14921 -2.36657,-1.36524 -0.001,-0.21604 -0.26017,-0.39279 -0.57576,-0.39279 -0.31559,0 -1.3172,-0.5299 -2.22579,-1.17755 -0.9086,-0.64765 -1.76984,-1.19828 -1.91386,-1.2236 -0.64567,-0.11356 -6.57385,-3.04608 -6.80831,-3.36791 -0.29865,-0.40994 -2.81773,-1.06942 -4.61384,-1.20787 -1.24435,-0.0959 -2.01041,0.96965 -5.58072,7.7625 -0.75697,1.44022 -2.78319,4.50396 -4.50271,6.80831 -1.71952,2.30435 -3.40173,4.80627 -3.73825,5.55982 -0.33652,0.75354 -1.27464,1.81407 -2.0847,2.35672 -0.81007,0.54265 -1.47352,1.12495 -1.47435,1.29401 -7.9e-4,0.16905 -1.17987,1.51712 -2.62009,2.9957 -1.44021,1.47858 -2.61858,2.93104 -2.61858,3.22771 0,0.29666 -0.23187,0.53938 -0.51527,0.53938 -0.2834,0 -2.34553,1.76224 -4.58251,3.91608 -5.4296,5.2278 -6.17648,5.90433 -9.55266,8.6531 -1.59207,1.29619 -5.77962,4.76077 -9.30567,7.69906 -3.94953,3.29116 -7.15535,5.5478 -8.3497,5.87758 -2.67161,0.7377 -2.73215,0.36765 -0.21264,-1.29965 1.1786,-0.78 2.14452,-1.56357 2.14649,-1.74134 0.002,-0.17774 0.82341,-0.88146 1.82541,-1.56385 1.00201,-0.68235 1.70714,-1.42624 1.56695,-1.65308 -0.14019,-0.22683 1.73586,-1.75073 4.16901,-3.38649 4.89402,-3.2901 7.09911,-5.16079 7.09911,-6.02249 0,-0.31301 -0.50317,-0.10036 -1.11816,0.4726 -0.61499,0.57296 -1.9701,1.44334 -3.01137,1.93424 -1.04126,0.49087 -2.60023,1.41796 -3.46436,2.06017 -0.86413,0.64225 -2.05661,1.31454 -2.64996,1.49405 -0.59334,0.17946 -3.03516,1.62087 -5.42625,3.20306 -2.3911,1.58222 -4.89654,2.87677 -5.56766,2.87677 -1.60669,0 -2.09431,0.8498 -0.69725,1.21513 0.60319,0.15774 0.99479,0.59695 0.87022,0.97603 -0.29049,0.88401 -2.88057,1.2002 -3.77189,0.46047 -0.84191,-0.69873 -3.90169,0.4409 -3.599,1.34046 0.20222,0.60101 -1.41076,1.22507 -3.19939,1.23791 -0.96451,0.007 -0.96616,-0.0275 -0.0498,-1.0403 1.61535,-1.78494 -0.2943,-1.25079 -2.35672,0.65922 -1.67928,1.55516 -6.0822,3.49914 -8.64132,3.81534 -1.80683,0.22326 -5.725,1.96275 -6.57924,2.92096 -0.65393,0.73349 -1.20066,0.83168 -2.72093,0.48882 -1.95094,-0.44 -4.40208,0.55662 -3.79295,1.5422 0.45138,0.73035 -0.66569,1.13508 -3.13287,1.13508 -1.54484,0 -2.70005,0.34149 -3.49887,1.03432 -1.01572,0.88091 -1.76693,1.00212 -5.06566,0.81731 -4.54486,-0.2546 -9.87384,1.08072 -9.63214,2.41356 0.10739,0.59225 -0.53917,0.85227 -2.61858,1.05318 -4.08761,0.39499 -10.02488,1.81004 -7.86742,1.87505 2.49211,0.0751 2.07784,0.76162 -0.88421,1.46521 -1.81106,0.43022 -3.15568,0.45717 -4.48587,0.0899 -1.04477,-0.28846 -2.5979,-0.3711 -3.45141,-0.18366 -1.1461,0.25173 -1.51369,0.15794 -1.40594,-0.3587 0.11489,-0.55088 -1.2454,-0.71597 -6.40056,-0.77681 -3.60054,-0.0425 -9.13884,-0.32429 -12.30733,-0.62622 -5.77174,-0.54998 -7.59388,-0.43552 -7.59388,0.47692 0,0.45795 1.22131,0.73035 2.32296,0.51805 0.89227,-0.17193 2.9142,0.5061 2.9142,0.97725 0,0.52068 -5.2284,1.00271 -5.53264,0.51008 z m 11.81724,-4.13554 c 0.58433,-0.37763 0.28248,-0.50972 -1.17837,-0.51569 -1.08016,-0.004 -1.96393,0.22766 -1.96393,0.51569 0,0.66707 2.11011,0.66707 3.1423,0 z m -6.02274,-0.55375 c -2.87432,-0.59453 -3.92787,-0.58647 -3.92787,0.0302 0,0.29542 1.31278,0.49747 3.01137,0.46349 2.97916,-0.0596 2.98896,-0.0649 0.9165,-0.49354 z m -15.5955,-0.83169 c 0.11851,-0.36152 -0.69798,-0.71609 -2.05453,-0.89226 -1.23815,-0.1608 -3.13496,-0.44691 -4.21512,-0.63576 -1.29563,-0.22656 -1.96394,-0.14573 -1.96394,0.2376 0,0.49887 2.5644,0.83431 3.441,0.45009 0.16428,-0.072 0.53705,0.29498 0.82838,0.81554 0.59179,1.05747 3.61948,1.0764 3.96421,0.0247 z m 8.78947,0.3343 c 0.46598,-0.75395 -0.87814,-1.1427 -3.22043,-0.93138 l -2.01901,0.18218 1.83301,0.59106 c 2.3857,0.76932 3.01078,0.79834 3.40643,0.15814 z m 24.35052,-0.52001 c 0,-0.61467 -0.40254,-0.61467 -1.833,0 -0.92816,0.39884 -0.88343,0.4543 0.39278,0.4869 0.79212,0.0204 1.44022,-0.19883 1.44022,-0.4869 z m -37.18384,-4.71345 c 0,-0.28803 -0.83877,-0.5237 -1.86392,-0.5237 -1.10925,0 -1.73286,0.21203 -1.54024,0.5237 0.17802,0.28807 1.01678,0.52375 1.86392,0.52375 0.84713,0 1.54024,-0.23568 1.54024,-0.52375 z m 52.08357,-1.6369 c 0.55164,-0.50775 -0.01,-0.60434 -2.85426,-0.4911 -2.76044,0.1099 -4.71344,0.58093 -4.71344,1.13677 0,0.60359 6.84498,0.0196 7.5677,-0.64567 z m -38.74967,-2.8697 c -0.77449,-0.40178 -1.94155,-0.73054 -2.59346,-0.73054 -0.65192,0 -1.47869,-0.35351 -1.83727,-0.78558 -0.72779,-0.87694 -3.1423,-1.07812 -3.1423,-0.26187 0,0.28807 0.57235,0.52374 1.27188,0.52374 0.69954,0 1.58952,0.31761 1.97773,0.70584 0.78163,0.78161 4.62062,1.87623 5.29978,1.51113 0.23749,-0.12769 -0.20188,-0.5609 -0.97636,-0.96272 z m 14.80351,-0.4127 c 0.1748,-0.17483 -0.41456,-0.31784 -1.3097,-0.31784 -0.89514,0 -1.77318,-0.23568 -1.9512,-0.52371 -0.17802,-0.28807 -1.0851,-0.52374 -2.01574,-0.52374 -0.93064,0 -3.0967,-0.3737 -4.81346,-0.83043 -2.94202,-0.78271 -7.04928,-1.29156 -7.04928,-0.87336 0,0.51722 6.06656,2.78077 7.89396,2.94539 1.14944,0.1035 2.23255,0.33088 2.40691,0.50524 0.39178,0.39177 6.40042,0.0565 6.83851,-0.38155 z m 45.18284,-0.056 1.3093,-0.74846 -1.34013,-0.0185 c -0.73707,-0.0102 -1.79759,0.32747 -2.35672,0.75038 -1.003,0.75863 -1.00259,0.76888 0.0308,0.767 0.57609,0 1.63662,-0.3387 2.35673,-0.75035 z m -54.72833,-4.45162 c 0.18049,-0.29203 -0.21128,-0.52016 -0.8856,-0.51569 -0.97287,0.006 -1.0557,0.10727 -0.42369,0.51569 0.9745,0.6298 0.92007,0.6298 1.30929,0 z m -8.1176,-2.63501 c 0,-0.29706 -0.41243,-0.67453 -0.91651,-0.83876 -0.50407,-0.16426 -2.35793,-0.96158 -4.11969,-1.7719 -1.76174,-0.81028 -4.47197,-2.00734 -6.02273,-2.66015 -1.55075,-0.65277 -3.25903,-1.47998 -3.79618,-1.83816 -0.53715,-0.35823 -1.30308,-0.52603 -1.70208,-0.37292 -0.40849,0.15673 -0.72545,-0.047 -0.72545,-0.46624 0,-0.64794 -2.39884,-2.16017 -3.92787,-2.47616 -0.28804,-0.0595 -0.87722,-0.4175 -1.30929,-0.79548 -1.33658,-1.16925 -5.31998,-2.99739 -5.6807,-2.60708 -0.18812,0.20354 -0.0457,0.47586 0.31651,0.60517 0.36219,0.1293 2.2769,1.50138 4.2549,3.04908 1.978,1.54766 3.74623,2.66408 3.92939,2.48093 0.18316,-0.18316 0.62518,0.0597 0.98225,0.53961 0.35708,0.47998 3.08857,2.06445 6.06998,3.52106 6.87703,3.35994 12.64747,5.01656 12.64747,3.631 z m 20.55586,-1.90156 c -0.36006,-0.14529 -0.94924,-0.14529 -1.3093,0 -0.36005,0.14529 -0.0655,0.26415 0.65465,0.26415 0.72011,0 1.0147,-0.11886 0.65465,-0.26415 z m -51.71697,-2.27172 c -0.17802,-0.28803 -0.60436,-0.52013 -0.94741,-0.51569 -0.37479,0.005 -0.31019,0.21065 0.16183,0.51569 1.00613,0.65022 1.18742,0.65022 0.78558,0 z m 53.53778,-0.88605 c -0.64139,-0.35638 -2.28561,-0.65635 -3.65382,-0.66656 -2.42241,-0.0181 -4.58252,-1.26116 -4.58252,-2.63714 0,-0.67441 -0.48586,-0.72799 7.11965,0.7853 3.6183,0.71994 7.12734,1.17133 7.79785,1.00302 1.04611,-0.26253 1.15854,-0.50406 0.79225,-1.70179 -1.92349,-6.28966 -3.14056,-10.70925 -3.14056,-11.40445 0,-0.45528 -0.33433,-1.45333 -0.74296,-2.21788 -0.40863,-0.76455 -1.06934,-3.59621 -1.46824,-6.29258 l -0.72529,-4.90249 1.18997,-0.54218 c 0.65448,-0.2982 1.06323,-0.74724 0.90834,-0.99786 -0.1549,-0.25063 -0.50102,-0.32009 -0.76916,-0.15437 -0.26814,0.16572 -0.48752,-0.0468 -0.48752,-0.47234 0,-0.42551 -0.15789,-1.1851 -0.35086,-1.68797 -0.25276,-0.65868 -0.16386,-0.79875 0.31796,-0.50097 0.50914,0.31466 0.56808,0.11635 0.24686,-0.83059 -0.23208,-0.68417 -0.40042,-1.76898 -0.37409,-2.41069 0.0387,-0.94293 -0.12361,-1.07498 -0.84607,-0.68833 -0.67875,0.36325 -1.17071,0.13983 -2.04364,-0.92811 -1.27518,-1.56007 -3.10479,-4.60924 -3.55533,-5.92522 -0.16056,-0.46896 -0.83141,-1.09847 -1.49079,-1.3989 -0.77936,-0.3551 -1.31845,-1.18368 -1.54062,-2.36794 -0.18796,-1.00193 -0.67696,-2.0999 -1.08667,-2.43993 -0.40972,-0.34003 -1.02904,-1.47909 -1.37628,-2.53124 -0.62674,-1.89904 -4.03993,-6.90638 -4.70764,-6.90638 -0.19162,0 -0.62011,-0.65599 -0.95222,-1.45776 -0.3321,-0.80176 -1.51277,-2.01952 -2.62371,-2.70611 -1.11094,-0.6866 -2.81211,-2.25528 -3.78037,-3.48595 -0.96827,-1.23067 -2.58534,-2.66423 -3.59349,-3.18569 -1.00815,-0.52146 -1.95084,-1.08958 -2.09486,-1.26249 -0.14403,-0.17291 -0.77283,-0.58331 -1.39735,-0.91199 -2.19055,-1.15287 -4.08604,-0.17479 -8.32361,4.29503 -2.22302,2.34486 -8.22792,8.51644 -13.34421,13.71463 -9.47374,9.62539 -9.5967,9.80371 -9.4632,13.72318 0.0454,1.33361 0.28471,1.70207 1.1054,1.70207 0.79102,0 1.04743,0.34915 1.04743,1.42625 0,1.03649 0.71001,2.08588 2.59815,3.84004 1.42898,1.32759 2.82344,3.00636 3.0988,3.73061 0.27535,0.72424 1.34507,1.71751 2.37715,2.20726 1.28265,0.60865 1.87651,1.24179 1.87651,2.00061 0,0.61058 0.12841,0.98173 0.28536,0.82479 0.15694,-0.15695 0.9511,0.33403 1.76479,1.09107 0.81369,0.75704 2.76744,2.58755 4.34167,4.0678 1.57422,1.48026 3.60813,3.0771 4.51979,3.54854 1.74575,0.90276 2.19851,1.87769 0.872,1.87769 -0.43207,0 -0.78558,0.23567 -0.78558,0.52372 0,0.92336 -1.53992,0.55949 -2.2164,-0.52372 -0.35977,-0.57608 -0.85812,-1.04743 -1.10743,-1.04743 -0.65971,0 -4.46376,-3.02378 -6.88863,-5.47567 -1.95643,-1.97823 -5.11835,-3.3589 -4.16696,-1.81952 0.23493,0.38012 0.0214,0.92193 -0.51892,1.31706 -1.09216,0.79861 -0.64588,1.7884 0.80637,1.7884 0.5687,0 1.85884,0.82485 2.86699,1.83301 1.12721,1.1272 2.34233,1.833 3.15575,1.833 0.74846,0 1.18222,0.22738 0.99907,0.52372 -0.17802,0.28804 -0.0862,0.52372 0.20396,0.52372 0.29021,0 1.16338,0.58918 1.94039,1.30929 0.77701,0.72011 1.75898,1.30929 2.18215,1.30929 0.42316,0 1.50819,0.77312 2.41117,1.71805 0.90298,0.94497 2.3488,2.03279 3.21293,2.41745 0.86413,0.38461 1.92466,0.90934 2.35672,1.16602 2.15223,1.27861 8.39033,4.02996 10.47433,4.61977 2.539,0.7186 3.74403,0.7807 7.2011,0.37126 1.22418,-0.14497 2.22579,-0.0762 2.22579,0.15284 0,0.22903 1.00161,0.56467 2.22579,0.74582 1.22419,0.18115 3.28632,0.50882 4.58252,0.72811 1.2962,0.21929 3.23501,0.40166 4.30847,0.40524 1.82876,0.006 1.87826,-0.0342 0.78557,-0.64142 z m -45.16992,-0.66633 c 0.17164,-0.27774 -0.61949,-1.09304 -1.75807,-1.81181 -1.13859,-0.71876 -2.22171,-1.55206 -2.40695,-1.85175 -0.18523,-0.29974 -0.79423,-0.54495 -1.35331,-0.54495 -0.55909,0 -1.01653,-0.23568 -1.01653,-0.52371 0,-0.28803 -0.47134,-0.5237 -1.04743,-0.5237 -0.57609,0 -1.04743,0.14506 -1.04743,0.3224 0,0.1773 1.20693,1.4735 2.68206,2.88042 1.91105,1.82269 3.1066,2.55803 4.15883,2.55803 0.81221,0 1.61718,-0.22723 1.78883,-0.50493 z m -25.18452,-3.59137 c 0.14627,-0.23665 -0.19603,-0.82583 -0.76065,-1.30927 -1.85899,-1.59174 -4.50722,-0.77446 -3.00538,0.92748 0.73127,0.82867 3.32719,1.09187 3.76603,0.38179 z m 5.55676,-3.86416 c 0,-0.84602 -0.15487,-0.99732 -0.58283,-0.56934 -0.32055,0.32055 -0.42448,0.83903 -0.23095,1.15216 0.54173,0.87654 0.81378,0.68168 0.81378,-0.58282 z m 3.59099,0.68589 c 1.11997,-0.70965 -0.24683,-1.24977 -1.4853,-0.58695 -0.58204,0.31148 -1.05826,0.67591 -1.05826,0.80977 0,0.41102 1.79085,0.25414 2.54356,-0.22282 z m 123.14832,-3.71192 c 0,-0.2145 -0.58644,-0.2779 -1.30319,-0.14089 -0.71675,0.13704 -1.18786,0.43572 -1.04691,0.66381 0.30505,0.49357 2.3501,0.0385 2.3501,-0.52292 z m 10.73752,-3.5795 c 11.30008,-4.30959 25.20994,-12.59455 31.06461,-18.50264 3.71579,-3.7497 4.55975,-4.7593 6.61484,-7.9131 1.0796,-1.65678 2.17537,-3.14364 2.43505,-3.30414 0.25969,-0.16049 0.47216,-0.72402 0.47216,-1.2523 0,-0.52827 0.35351,-1.09614 0.78558,-1.26194 0.43206,-0.1658 0.78557,-0.79005 0.78557,-1.38722 0,-0.59717 0.47134,-1.5917 1.04743,-2.21006 0.57609,-0.61835 1.04743,-1.67133 1.04743,-2.33995 0,-0.66861 0.47135,-1.61924 1.04744,-2.1125 0.68848,-0.5895 1.04743,-1.54493 1.04743,-2.78803 0,-1.04015 0.16151,-2.0527 0.35892,-2.25011 0.81713,-0.81713 1.68257,-4.26823 1.1931,-4.7577 -0.27752,-0.27753 -0.51559,-0.86989 -0.52903,-1.31635 -0.0134,-0.44647 -1.01505,-1.31041 -2.2258,-1.91985 -1.21074,-0.60946 -2.14097,-1.37978 -2.06717,-1.71183 0.0738,-0.33205 -0.45647,-0.87285 -1.17836,-1.20176 -0.7219,-0.32892 -1.31254,-0.79588 -1.31254,-1.03769 0,-0.24181 -0.33668,-0.43965 -0.74817,-0.43965 -0.41149,0 -1.10767,-0.35951 -1.54707,-0.79891 -1.81982,-1.81983 -11.98715,-9.1517 -12.69094,-9.1517 -1.44736,0 -3.52687,1.81906 -7.40186,6.47482 -4.48617,5.39009 -9.09346,12.34232 -9.93897,14.99754 -1.16108,3.64621 -3.35858,9.72304 -4.07181,11.2599 -0.40103,0.86413 -1.92008,4.11443 -3.37567,7.2229 -1.45558,3.10846 -2.64652,5.88931 -2.64652,6.17967 0,0.29035 -0.36317,1.23022 -0.80705,2.08858 -1.89973,3.67368 -3.49952,10.62106 -3.36717,14.62253 0.0715,2.16033 0.13102,4.57597 0.13237,5.36808 0.001,0.79213 0.14599,1.44023 0.32142,1.44023 0.17544,0 2.67509,-0.89857 5.55478,-1.99682 z m 43.01707,-5.58331 c 1.95746,-2.15276 3.74147,-4.40732 3.96447,-5.01014 0.39182,-1.05919 0.35485,-1.05525 -1.09996,0.11717 -0.82797,0.66726 -2.63885,2.62723 -4.02418,4.3555 -1.38532,1.72826 -2.88606,3.42939 -3.33498,3.78028 -0.73263,0.57267 -0.72652,0.6397 0.0597,0.65465 0.48175,0.009 2.47747,-1.7447 4.43494,-3.89746 z m -185.76976,0.98705 c -0.3373,-0.40642 -1.05576,-0.73895 -1.59658,-0.73895 -0.54081,0 -1.45465,-0.47134 -2.03073,-1.04743 -1.01008,-1.01007 -3.1597,-1.46028 -3.12575,-0.65465 0.009,0.21603 0.57347,1.02518 1.25415,1.79811 1.66453,1.89011 7.05726,2.52061 5.49891,0.64292 z m -6.76961,-4.85605 c 0,-0.76347 -0.29065,-0.91925 -1.34058,-0.71854 l -1.34059,0.25627 1.20966,0.66718 c 0.66531,0.36696 1.26857,0.6903 1.34058,0.71855 0.072,0.0282 0.13093,-0.38732 0.13093,-0.92346 z m 25.13837,0.45109 c 0,-0.28805 -0.41242,-0.52011 -0.9165,-0.5157 -0.78324,0.007 -0.80228,0.0818 -0.13093,0.5157 0.98836,0.63873 1.04743,0.63873 1.04743,0 z m 106.63001,-2.88032 c -1.0007,-0.75748 -1.88678,-0.62005 -1.88678,0.29265 0,0.27104 0.6481,0.48531 1.44022,0.47615 1.36462,-0.0158 1.38806,-0.0561 0.44656,-0.7688 z m 55.92183,-0.0273 c 0.17884,-0.46607 0.091,-0.67628 -0.20583,-0.4928 -0.28475,0.17598 -0.51772,0.54172 -0.51772,0.81277 0,0.75333 0.37538,0.58733 0.72355,-0.31997 z m -170.03542,-5.86459 c -0.20081,-2.08295 -1.48954,-3.79694 -2.85486,-3.79694 -0.65082,0 -1.18331,0.17924 -1.18331,0.3983 0,0.35743 3.74957,4.83307 4.05244,4.83717 0.0685,7.9e-4 0.0621,-0.64641 -0.0143,-1.43853 z m 101.22877,0.39279 c 0,-0.28804 -0.10393,-0.52372 -0.23094,-0.52372 -0.12703,0 -0.37661,0.23568 -0.55463,0.52372 -0.17802,0.28804 -0.0741,0.52371 0.23095,0.52371 0.30504,0 0.55462,-0.23567 0.55462,-0.52371 z m -1.56337,-8.0427 c 0.008,-0.58553 1.95544,-4.50059 6.16044,-12.38223 1.15258,-2.16033 2.63948,-5.57757 3.30424,-7.59388 0.66475,-2.01631 1.39779,-3.74457 1.62897,-3.84059 0.23118,-0.096 0.42033,-0.5753 0.42033,-1.06509 0,-0.90044 2.63728,-5.41087 4.70875,-8.05318 1.86357,-2.37711 6.81301,-9.34596 6.81301,-9.59276 0,-0.12652 -0.47135,-0.23003 -1.04744,-0.23003 -1.17423,0 -1.38985,-0.77633 -0.39279,-1.4142 1.25695,-0.80413 2.17877,-2.36635 2.20219,-3.73206 0.0196,-1.14325 0.82785,-1.90998 4.77572,-4.53047 2.61366,-1.73487 5.4123,-3.77737 6.2192,-4.53887 l 1.4671,-1.38454 -2.02948,-0.93875 c -1.11621,-0.51631 -2.69565,-1.48405 -3.50987,-2.15053 -0.81423,-0.66649 -1.97739,-1.2118 -2.58483,-1.2118 -0.60744,0 -1.59096,-0.45314 -2.18561,-1.00699 -0.59465,-0.55384 -2.73089,-1.87335 -4.7472,-2.93223 -2.01631,-1.05889 -4.19877,-2.4167 -4.84991,-3.01737 -2.21601,-2.04424 -10.79377,-6.66002 -12.37667,-6.66002 -0.4629,0 -0.84163,-0.22877 -0.84163,-0.50838 0,-0.59223 -5.52972,-3.30577 -7.07017,-3.46946 -1.02242,-0.10864 -1.05156,0.25186 -1.22048,15.10016 -0.11979,10.52912 0.002,15.31937 0.39418,15.56203 0.33637,0.20788 0.61995,2.64606 0.69677,5.99064 0.11164,4.86096 0.003,5.73269 -0.78697,6.31056 -1.21696,0.89029 -1.16072,1.30639 0.13093,0.96862 0.82243,-0.21507 1.05694,-0.008 1.09168,0.96553 0.13383,3.74949 0.5403,8.33271 0.92272,10.40448 0.48024,2.60168 0.39094,6.40597 -0.17174,7.3164 -0.19893,0.32187 -0.14136,0.86949 0.12792,1.21692 0.26928,0.34744 0.54982,2.51708 0.62342,4.82143 0.0736,2.30436 0.1911,5.25026 0.26112,6.54646 0.07,1.29619 0.16328,3.23309 0.20724,4.30422 0.0615,1.49773 0.26136,1.87788 0.86551,1.64604 0.43207,-0.1658 0.78907,-0.57082 0.79335,-0.90006 z m -11.00582,-9.36819 c 0,-0.29214 -0.34735,-0.23543 -0.78557,0.12826 -0.43207,0.35858 -0.78557,0.88764 -0.78557,1.17568 0,0.29215 0.34736,0.23543 0.78557,-0.12825 0.43207,-0.35858 0.78557,-0.88764 0.78557,-1.17569 z m -88.21533,0.40677 c 1.0887,-0.82346 0.68701,-0.9803 -1.2092,-0.47214 -0.64809,0.17369 -1.17836,0.52398 -1.17836,0.77843 0,0.71076 1.25591,0.54964 2.38756,-0.30629 z m 87.29184,-5.6466 c 0.87665,-0.67689 1.44753,-3.17294 0.77858,-3.40416 -1.45845,-0.50411 -2.41864,-0.002 -2.73271,1.42744 -0.52976,2.41193 0.30148,3.25277 1.95413,1.97672 z m -91.96397,-1.07591 c 0.23168,-0.2317 0.10825,-0.6147 -0.27429,-0.85112 -1.14889,-0.71005 -0.18231,-2.54534 1.53974,-2.92356 0.87362,-0.19188 1.4062,-0.57676 1.21845,-0.88053 -0.18343,-0.29681 -0.009,-0.74537 0.38822,-0.9968 0.57831,-0.36629 0.54787,-0.45874 -0.15315,-0.46516 -0.54501,-0.005 -1.00619,-0.60583 -1.22312,-1.59351 -0.31592,-1.43837 -0.047,-1.87572 2.89847,-4.71344 1.78568,-1.72038 3.71247,-3.12796 4.28174,-3.12796 1.16962,0 4.75149,-2.41551 5.60247,-3.77815 0.45329,-0.72583 0.11572,-0.6615 -1.75872,0.33514 -2.87122,1.52665 -3.44536,1.14003 -1.23611,-0.83238 0.91511,-0.81702 1.46704,-1.48549 1.22649,-1.48549 -0.24054,0 -0.0755,-0.41242 0.36683,-0.9165 0.90628,-1.03286 0.51111,-2.82736 -0.67902,-3.0835 -0.41162,-0.0886 -6.75804,-2.18202 -14.10316,-4.65207 -12.01486,-4.04041 -15.80189,-5.04872 -16.46639,-4.38421 -0.2955,0.29551 1.37245,5.0254 2.56561,7.27541 0.53462,1.00815 1.03287,2.68255 1.10723,3.72088 0.16591,2.31671 3.04621,9.22423 4.48534,10.7567 0.91777,0.97731 0.96451,1.26954 0.36066,2.25485 -0.59845,0.9765 -0.57075,1.20194 0.20168,1.64092 1.21262,0.68916 1.84636,4.10471 0.87568,4.71949 -0.57383,0.36343 -0.53391,0.46 0.19281,0.46636 0.50408,0.004 0.9165,-0.22765 0.9165,-0.51569 0,-0.28805 0.82486,-0.52372 1.83301,-0.52372 1.78937,0 1.83301,0.0499 1.83301,2.09486 0,1.15218 -0.23567,2.09487 -0.52372,2.09487 -0.28804,0 -0.52371,0.18245 -0.52371,0.40545 0,0.53663 4.50645,0.4999 5.04745,-0.0411 z m 64.85322,-12.07187 c 0.92929,-0.67953 0.90876,-0.79025 -0.48578,-2.61858 -0.80087,-1.04999 -1.72273,-1.9109 -2.0486,-1.91315 -0.81948,-0.006 -1.85814,-2.40636 -1.55034,-3.58339 0.18595,-0.71106 -0.23064,-1.19782 -1.56849,-1.83267 -1.00192,-0.47545 -2.08066,-0.86445 -2.39718,-0.86445 -0.31652,0 -0.57549,-0.31227 -0.57549,-0.69394 0,-0.89483 -0.9967,-1.84981 -5.58616,-5.35233 -4.16537,-3.17888 -4.80211,-3.21833 -7.68472,-0.47609 l -1.48727,1.41484 4.32969,2.31341 c 2.38134,1.27237 4.93598,2.9259 5.677,3.67451 0.74101,0.74861 2.13638,1.69446 3.10082,2.10188 1.72254,0.7277 2.71397,1.63041 5.3109,4.8357 0.71695,0.88491 1.6166,1.60891 1.99923,1.60891 0.45735,0 0.58179,0.35884 0.36324,1.04744 -0.40069,1.26248 1.07648,1.45423 2.60315,0.33791 z m 8.13303,-0.86163 c 0,-0.57609 -0.0904,-1.04743 -0.20077,-1.04743 -0.11043,0 -0.32404,0.47134 -0.47469,1.04743 -0.15065,0.57609 -0.0603,1.04743 0.20078,1.04743 0.26107,0 0.47468,-0.47134 0.47468,-1.04743 z m 4.88319,-3.87667 c 0.15499,-0.4039 0.15669,-0.85948 0.004,-1.01239 -0.37612,-0.37612 -2.79211,0.75492 -2.79211,1.30711 0,0.74711 2.48951,0.48397 2.78832,-0.29472 z m -8.04391,-1.32606 c 0.29818,-0.55715 0.54214,-1.47098 0.54214,-2.03074 0,-0.55975 0.35351,-1.31112 0.78558,-1.6697 1.0876,-0.90263 0.98174,-2.27871 -0.26186,-3.40416 -1.33626,-1.20929 -1.31878,-1.43017 0.26186,-3.30864 0.7201,-0.85581 1.30928,-2.07555 1.30928,-2.71055 0,-1.50978 -1.56236,-4.78423 -2.11868,-4.44041 -0.23792,0.14704 -0.21205,-0.44422 0.0575,-1.31391 0.26953,-0.86969 0.70521,-2.27407 0.96817,-3.12085 0.26296,-0.84679 0.34977,-2.4965 0.1929,-3.66602 -0.30494,-2.27349 0.1025,-2.59014 2.01547,-1.56634 1.26267,0.67575 2.55068,-0.16836 2.55068,-1.67162 0,-0.77464 -0.38899,-0.98331 -1.83301,-0.98331 -1.50137,0 -1.83301,-0.19509 -1.83301,-1.07834 0,-0.59308 0.20798,-0.94981 0.46217,-0.79271 0.25418,0.1571 1.02012,-0.15248 1.70207,-0.68794 1.12721,-0.88507 1.22446,-1.30412 1.0698,-4.60985 l -0.17013,-3.63628 -1.45731,0.21389 c -1.67499,0.24583 -2.44315,-0.93855 -1.6138,-2.4882 0.43078,-0.80493 0.34543,-0.91433 -0.53394,-0.68437 -1.12747,0.29483 -4.38849,3.7216 -7.32454,7.69679 -2.29676,3.10965 -12.42696,14.94712 -15.6019,18.23134 -1.31627,1.36157 -2.28959,2.56036 -2.16293,2.66397 0.12665,0.10361 1.52648,0.92339 3.11072,1.82173 1.58424,0.89833 3.46962,2.18304 4.18973,2.8549 0.72011,0.67186 2.91508,2.36347 4.87771,3.75912 1.96263,1.39565 4.20152,3.33101 4.9753,4.30079 0.77379,0.96978 1.60048,1.76324 1.83708,1.76325 0.23661,10e-6 0.78371,0.35352 1.21577,0.78559 1.07276,1.07275 2.13788,0.98584 2.7872,-0.22743 z m 141.05922,-0.33011 c 0.4469,-0.17149 0.66318,-0.70618 0.51494,-1.27305 -0.31151,-1.19123 -1.52099,-0.83345 -1.88474,0.55753 -0.27417,1.04842 0.0547,1.22019 1.3698,0.71552 z m -134.56937,-2.59143 c -0.16721,-0.43573 -0.008,-1.14844 0.35292,-1.5838 0.79475,-0.95761 0.42607,-1.43558 -0.92665,-1.20136 -0.85748,0.14848 -0.93666,0.41665 -0.55371,1.87533 0.24576,0.93614 0.66838,1.70208 0.93915,1.70208 0.27076,0 0.3555,-0.35651 0.18829,-0.79225 z m 113.96663,-3.26655 c -0.0396,-0.93442 -1.49722,-2.2258 -2.51229,-2.2258 -0.76634,0 -1.01195,-0.24036 -0.80274,-0.78557 0.22045,-0.57449 -0.0654,-0.78558 -1.06387,-0.78558 -1.01617,0 -1.36532,-0.26785 -1.36532,-1.04743 0,-0.57608 -0.23567,-1.04743 -0.52372,-1.04743 -0.28804,0 -0.52371,-0.58918 -0.52371,-1.30929 0,-0.95233 -0.28054,-1.30929 -1.029,-1.30929 -0.56596,0 -1.28127,-0.47135 -1.58958,-1.04744 -0.40182,-0.75079 -0.39828,-1.04742 0.0125,-1.04742 0.31517,0 0.42502,-0.23952 0.2441,-0.53226 -0.18093,-0.29275 -0.55046,-0.39537 -0.82117,-0.22806 -0.75877,0.46895 -2.57771,-0.27336 -2.57771,-1.05195 0,-0.92777 1.30536,-1.38634 1.99193,-0.69977 0.31064,0.31064 1.31768,0.4041 2.3227,0.21556 1.46536,-0.27491 1.96263,-0.74226 2.85602,-2.68421 0.59495,-1.29324 0.85826,-2.35134 0.58514,-2.35134 -1.02333,0 -8.27951,3.25945 -8.27951,3.71912 0,0.2635 -0.94957,0.85903 -2.11016,1.32341 -1.77428,0.70993 -2.05569,1.02186 -1.76795,1.9597 0.18822,0.61345 0.37186,1.11537 0.40809,1.11537 0.0797,0 0.49738,0.25382 8.37502,5.08896 3.41785,2.09782 6.33005,4.1088 6.47155,4.46886 0.27437,0.69815 1.7277,0.92205 1.6997,0.26186 z m -151.33731,-4.85561 c 0,-0.29422 0.58918,-0.80339 1.30929,-1.13149 0.72011,-0.32811 1.30929,-0.82063 1.30929,-1.09449 0,-0.60628 -3.40659,-0.0286 -4.73932,0.80377 -0.89095,0.55641 -0.8799,0.62553 0.1954,1.22211 1.46744,0.81414 1.92534,0.86173 1.92534,0.2001 z m 149.89792,-4.72527 c 0.29679,-2.02218 -0.18036,-2.31492 -1.60693,-0.98586 -1.43802,1.33971 -1.42432,1.92618 0.0516,2.21046 0.6481,0.12483 1.21053,0.25906 1.24985,0.29828 0.0393,0.0392 0.17678,-0.64607 0.30547,-1.52288 z m -3.46394,-1.54028 c 0.0504,-1.42342 -0.0649,-1.53272 -1.30929,-1.24049 -2.09194,0.49129 -2.56629,1.18934 -1.39543,2.05351 1.66421,1.2283 2.64281,0.93414 2.70472,-0.81302 z m 3.7027,-2.69566 c -0.14069,-0.53799 -0.003,-0.97817 0.30618,-0.97817 0.30908,0 0.4226,-0.13936 0.25227,-0.30969 -0.17034,-0.17033 -7.9e-4,-1.33623 0.37684,-2.59088 0.3776,-1.25466 0.57548,-2.39225 0.43975,-2.52798 -0.13574,-0.13574 -0.90556,-0.0171 -1.71071,0.26353 -1.39078,0.48483 -1.45601,0.65249 -1.30579,3.35584 0.087,1.56502 -0.0591,2.97975 -0.32457,3.14383 -0.97124,0.60026 -0.4462,1.13171 0.86957,0.88019 1.00987,-0.19305 1.28749,-0.50617 1.09646,-1.23667 z m -164.19226,-1.06292 c 0.96628,-0.96628 1.71171,-1.12845 5.08694,-1.1067 3.88654,0.0251 3.98538,-0.007 5.7298,-1.87918 0.97627,-1.04757 2.37086,-2.52545 3.09908,-3.28419 0.72822,-0.75873 1.15716,-1.64953 0.9532,-1.97955 -0.20396,-0.33002 0.44185,-1.83028 1.43513,-3.33392 0.99329,-1.50364 2.41464,-3.94177 3.15856,-5.41805 1.16047,-2.30289 2.1349,-3.29789 3.24518,-3.31364 0.14401,-0.002 0.96639,-0.36806 1.8275,-0.81336 1.66633,-0.86169 2.2276,-2.21473 0.64916,-1.56492 -0.50408,0.20752 -1.38337,0.51013 -1.95399,0.67247 -1.00512,0.28595 -1.0092,0.25199 -0.13093,-1.08843 0.49861,-0.76097 0.90656,-1.84638 0.90656,-2.41203 0,-0.56565 0.35666,-1.38511 0.79259,-1.82104 0.43592,-0.43592 0.94078,-1.53354 1.1219,-2.43914 0.18112,-0.90561 0.64931,-1.76935 1.04041,-1.91943 0.39111,-0.15008 0.71111,-0.81163 0.71111,-1.47011 0,-0.65847 0.33709,-1.32657 0.74907,-1.48467 0.41199,-0.15809 1.94014,-2.05253 3.39589,-4.20985 4.02625,-5.96665 4.90573,-6.77866 6.87371,-6.34642 1.28442,0.28211 1.58835,0.57981 1.38517,1.3568 -0.34272,1.31056 0.0213,1.24062 2.52207,-0.48453 2.41888,-1.66864 2.85387,-3.14499 1.33235,-4.52195 -0.58877,-0.53283 -1.07049,-1.36707 -1.07049,-1.85387 0,-0.4868 -0.46579,-1.30662 -1.03508,-1.82183 -0.5693,-0.5152 -0.9215,-1.12053 -0.78266,-1.34516 0.13883,-0.22464 -0.61222,-1.19475 -1.669,-2.1558 -1.05678,-0.96106 -2.79758,-2.61204 -3.86844,-3.66886 -1.07085,-1.05681 -2.90062,-2.40798 -4.06614,-3.00258 -1.16553,-0.59461 -2.26999,-1.5564 -2.45437,-2.13732 -0.23577,-0.74283 -0.79093,-1.05622 -1.87109,-1.05622 -0.84472,0 -1.53585,-0.23567 -1.53585,-0.52371 0,-0.28804 -0.22755,-0.52372 -0.50566,-0.52372 -0.73584,0 -3.67053,-2.98127 -3.29972,-3.35208 0.17267,-0.17266 -0.40714,-0.31393 -1.28847,-0.31393 -0.94531,0 -1.72673,-0.32399 -1.90559,-0.7901 -0.16676,-0.43456 -0.89899,-1.06157 -1.62718,-1.39336 -0.72819,-0.33179 -1.32399,-0.89144 -1.32399,-1.24368 0,-0.53484 -0.62759,-0.86626 -2.36419,-1.24852 -0.13493,-0.0297 -1.0133,-0.51565 -1.95194,-1.07987 -0.93863,-0.56424 -2.59037,-1.50807 -3.67054,-2.09741 -1.08016,-0.58933 -1.96393,-1.3024 -1.96393,-1.58459 0,-0.28219 -0.61419,-0.51308 -1.36485,-0.51308 -0.8021,0 -1.7572,-0.49878 -2.31642,-1.20972 -0.79086,-1.00541 -5.7381,-3.71825 -10.19722,-5.59168 -6.30455,-2.64877 -9.43408,-3.67292 -11.22348,-3.67292 -1.1722,0 -2.13128,-0.23567 -2.13128,-0.52372 0,-0.82123 -3.82976,-0.6126 -5.10112,0.2779 -1.06009,0.74251 -3.80205,5.48155 -3.80205,6.57123 0,0.26316 -0.83702,2.29056 -1.86005,4.50534 -1.02302,2.21478 -2.32735,5.45627 -2.89851,7.20331 -0.57116,1.74704 -1.24927,3.64779 -1.50692,4.22388 -1.15212,2.5761 -4.23816,13.52363 -5.0195,17.80634 -0.47296,2.5924 -1.06754,5.5383 -1.32129,6.54646 -0.49685,1.97396 -1.54579,10.14088 -1.84979,14.40219 -0.10275,1.44022 -0.30667,3.67911 -0.45316,4.9753 -0.14649,1.2962 -0.31245,3.77076 -0.36879,5.49902 -0.0988,3.03216 -0.0263,3.22032 2.06779,5.36809 1.19362,1.22419 2.41534,2.2258 2.71492,2.2258 0.29958,0 0.54469,0.3535 0.54469,0.78557 0,0.43207 0.31568,0.78557 0.70151,0.78557 0.7331,0 1.91707,2.11761 1.91707,3.4288 0,0.51561 0.63317,0.78731 1.96394,0.84275 3.71814,0.1549 4.58595,0.2527 5.78719,0.65223 1.7783,0.59146 5.90176,0.4866 6.55505,-0.16669 0.85954,-0.85953 1.40531,-0.68266 1.40531,0.45543 0,1.33241 1.08155,3.69066 1.69262,3.69066 0.26238,0 0.83057,-0.35351 1.26263,-0.78558 0.43207,-0.43206 0.55392,-0.78557 0.27079,-0.78557 -0.28313,0 -0.43583,-0.41243 -0.33933,-0.9165 0.0965,-0.50408 0.19348,-1.09326 0.21551,-1.30929 0.0742,-0.72693 1.08751,-0.40073 1.08751,0.35007 0,1.47542 3.2457,2.87053 6.6405,2.85429 1.92002,-0.009 3.83937,0.31566 4.79988,0.81236 0.88028,0.45521 1.9405,0.82765 2.35606,0.82765 0.41555,0 0.8912,0.35351 1.057,0.78557 0.42928,1.1187 1.71957,0.97148 3.03766,-0.34661 z m 64.85605,0.0847 c 0,-0.28804 -0.35351,-0.52371 -0.78558,-0.52371 -0.43206,0 -0.78557,0.23567 -0.78557,0.52371 0,0.28805 0.35351,0.52372 0.78557,0.52372 0.43207,0 0.78558,-0.23567 0.78558,-0.52372 z m -108.04683,-8.20041 c 1.50661,-0.71494 1.68122,-0.95165 0.98807,-1.33956 -0.58742,-0.32873 -1.31458,-0.1346 -2.4055,0.6422 -2.5173,1.79248 -1.71853,2.18547 1.41743,0.69736 z m 171.41648,-4.82836 c 0,-0.25278 -0.3535,-0.75298 -0.78557,-1.11156 -0.43207,-0.35858 -0.78557,-0.97662 -0.78557,-1.37342 0,-0.39679 -0.39388,-0.72144 -0.87527,-0.72144 -0.4814,0 -1.28681,-0.37245 -1.78982,-0.82766 -0.503,-0.45521 -1.3937,-0.74981 -1.97932,-0.65465 -0.87877,0.14279 -0.54324,0.59987 1.92075,2.61658 2.87732,2.35501 4.2948,3.03891 4.2948,2.07215 z m 6.76445,-2.50145 c 0.95392,-0.66815 1.44919,-0.73342 2.16641,-0.28551 1.23352,0.77035 3.08982,0.19131 7.30434,-2.27846 4.18827,-2.45439 9.42689,-5.99187 9.42689,-6.36569 0,-0.15231 -0.47134,-0.15368 -1.04743,-0.003 -1.72635,0.45145 -1.21192,-0.94565 0.73408,-1.99365 0.97983,-0.52767 1.69486,-1.21288 1.58896,-1.52269 -0.10591,-0.3098 0.74212,-1.20914 1.8845,-1.99852 1.91655,-1.32433 2.78789,-3.01635 1.55334,-3.01635 -0.72932,0 -0.65629,-1.75281 0.10474,-2.51383 0.4888,-0.48881 0.29619,-0.62846 -0.86674,-0.62846 -1.37472,0 -1.43178,-0.0739 -0.70806,-0.91651 1.3876,-1.61565 1.55511,-2.74951 0.40619,-2.74951 -1.16639,0 -1.40663,-1.50974 -0.40037,-2.516 0.4917,-0.4917 0.14903,-1.12135 -1.55537,-2.85801 -1.69021,-1.7222 -2.11532,-2.49769 -1.87434,-3.4192 0.20056,-0.76692 -0.0256,-1.56453 -0.63437,-2.23721 -0.91574,-1.01188 -0.90946,-1.071 0.19627,-1.84548 1.44997,-1.0156 1.46268,-1.78815 0.0294,-1.78815 -0.9483,0 -1.06804,-0.22427 -0.80962,-1.51635 0.24312,-1.21565 0.0973,-1.57021 -0.73515,-1.78791 -0.57113,-0.14936 -0.98488,-0.4686 -0.91944,-0.70944 0.31423,-1.15657 -0.75028,-5.35395 -1.42333,-5.61222 -0.41824,-0.1605 -0.76044,-0.61619 -0.76044,-1.01265 0,-0.39647 -0.45015,-1.12822 -1.00033,-1.62613 -0.55018,-0.49791 -1.14386,-1.47712 -1.31927,-2.17604 -0.17541,-0.69891 -0.55012,-1.27074 -0.83268,-1.27074 -0.28255,0 -0.51374,-0.47135 -0.51374,-1.04743 0,-0.78057 -0.34914,-1.04744 -1.37034,-1.04744 -1.19852,0 -1.33722,-0.17328 -1.10616,-1.38198 0.21642,-1.13213 -0.2447,-1.91327 -2.55055,-4.32065 -1.54811,-1.61628 -2.81787,-3.12164 -2.82171,-3.34525 -0.004,-0.22361 -1.00858,-1.45206 -2.23277,-2.72987 -3.94013,-4.11275 -4.73498,-5.3972 -4.39423,-7.10096 0.20388,-1.0194 0.0969,-1.54621 -0.31389,-1.54621 -0.71035,0 -0.56436,0.13007 -9.19474,-8.1922 -3.54195,-3.4155 -6.53579,-6.29722 -6.65299,-6.40382 -0.1172,-0.10661 -0.76498,-0.0553 -1.43952,0.11399 -1.08681,0.27277 -3.16899,2.70185 -8.32762,9.71503 -1.79556,2.44119 -4.11134,6.75972 -4.11134,7.66705 0,0.38962 -1.06724,1.7087 -2.37164,2.93128 -1.3044,1.22259 -2.50987,2.77365 -2.67882,3.44681 -0.16896,0.67316 -0.74253,1.45691 -1.27462,1.74168 -0.53209,0.28476 -1.73228,1.63366 -2.6671,2.99755 -2.15677,3.14672 -8.91789,12.05095 -10.34738,13.62724 -0.59696,0.65826 -1.08537,1.30878 -1.08537,1.44559 0,0.13682 -0.82486,1.42228 -1.83301,2.8566 -1.00815,1.43431 -1.833,2.87703 -1.833,3.20604 0,0.32901 -0.47679,1.36965 -1.05953,2.31255 -0.58274,0.94289 -1.00546,2.42392 -0.93938,3.29118 0.0965,1.26577 0.40879,1.63457 1.58325,1.86946 1.02363,0.20473 1.46309,0.61116 1.46309,1.35315 0,0.58328 0.17675,1.02339 0.39278,0.97802 0.53336,-0.11204 7.91653,3.44484 9.60933,4.62933 0.74845,0.52371 1.27751,1.19146 1.1757,1.48391 -0.10181,0.29245 1.25701,1.10453 3.0196,1.80463 3.70779,1.47273 5.86404,3.00341 5.36602,3.80924 -0.19128,0.30948 -0.10611,0.41334 0.18926,0.23079 0.29537,-0.18255 1.02795,0.0939 1.62796,0.61424 0.6,0.52038 2.04445,1.37614 3.20989,1.90168 1.31728,0.59401 2.11898,1.30597 2.11898,1.88181 0,0.60337 0.54771,1.04657 1.57115,1.27136 0.86413,0.18979 1.57115,0.53343 1.57115,0.76365 0,0.23021 0.76593,0.7302 1.70208,1.1111 0.93614,0.38089 2.88043,1.43724 4.32065,2.34744 1.44022,0.9102 3.14884,1.82139 3.79694,2.02488 0.6481,0.20348 1.17836,0.58975 1.17836,0.85839 0,0.26863 0.58719,0.48842 1.30486,0.48842 0.73766,0 1.58919,0.4553 1.95898,1.04744 0.35978,0.57608 0.95096,1.04743 1.31373,1.04743 0.36278,0 0.6596,0.21261 0.6596,0.47248 0,0.25987 0.70173,0.71711 1.55941,1.0161 0.85768,0.29899 2.09027,1.03818 2.73909,1.64265 0.64882,0.60446 1.71463,1.2333 2.36846,1.3974 0.65383,0.1641 1.18878,0.50849 1.18878,0.7653 0,0.77763 2.3046,0.52363 3.62215,-0.39923 z m -17.61213,-5.5643 c -0.21474,-1.12334 -0.78746,-1.44664 -4.99473,-2.81951 -0.50408,-0.16449 -0.90653,-0.0948 -0.89434,0.1548 0.0299,0.61079 3.52509,2.81059 4.46574,2.81059 0.41209,0 0.74926,0.23567 0.74926,0.52372 0,0.28804 0.20299,0.52371 0.45109,0.52371 0.2481,0 0.34844,-0.53699 0.22298,-1.19331 z m -190.2966,-0.55339 c 1.27629,-0.41687 1.92174,-0.972 2.03228,-1.7479 0.1261,-0.88509 -0.0538,-1.0806 -0.81176,-0.88239 -0.72967,0.19082 -0.9925,-0.0492 -1.04855,-0.9574 -0.0412,-0.66664 -0.23303,-1.85722 -0.42641,-2.64576 -0.27589,-1.12495 -0.14136,-1.50173 0.6247,-1.74957 2.7639,-0.89419 3.33303,-1.44475 3.33303,-3.22425 0,-0.97842 0.22255,-2.19476 0.49454,-2.70299 0.272,-0.50823 0.59168,-2.08353 0.7104,-3.50066 0.11872,-1.41713 0.39442,-2.99342 0.61267,-3.50287 0.35273,-0.82335 0.23663,-0.86536 -1.04489,-0.37813 -2.903,1.10372 -2.30089,-0.14593 1.25667,-2.60815 1.23731,-0.85636 1.48967,-3.09509 0.46444,-4.12031 -0.51547,-0.51548 -0.30067,-0.92066 1.04744,-1.97571 2.00218,-1.56694 2.21155,-2.82247 0.47067,-2.82247 -0.81255,0 -1.46824,0.48508 -1.94673,1.44022 l -0.7215,1.44022 -0.18408,-1.73914 c -0.21947,-2.07341 1.06466,-4.2836 2.48877,-4.2836 0.55311,0 1.37897,-0.53026 1.83524,-1.17836 0.73775,-1.04791 0.74104,-1.19711 0.0297,-1.34769 -1.27127,-0.26912 -0.93407,-1.64182 0.8016,-3.26317 1.57565,-1.47189 1.58411,-1.50688 0.52372,-2.16911 -1.33243,-0.83211 -1.3346,-1.01217 -0.0304,-2.51599 0.57611,-0.66423 1.04746,-1.53509 1.04746,-1.93524 0,-0.40015 0.23212,-1.01219 0.51582,-1.36009 2.30823,-2.83053 3.15019,-3.97755 3.15019,-4.29155 0,-0.20103 0.47134,-0.96473 1.04743,-1.6971 0.57609,-0.73238 1.04744,-1.79799 1.04744,-2.36803 0,-0.57003 0.43918,-1.89336 0.97597,-2.94073 0.53678,-1.04737 1.4144,-2.84701 1.95027,-3.99918 0.53586,-1.15218 1.06243,-2.2819 1.17015,-2.5105 0.10772,-0.22859 -0.4164,-0.26196 -1.1647,-0.0742 -0.85198,0.21384 -1.36055,0.12449 -1.36055,-0.23902 0,-0.83809 4.055,-4.77021 4.91927,-4.77021 0.40125,0 0.8652,-0.35351 1.031,-0.78558 0.18363,-0.47852 7.8e-4,-0.78557 -0.46768,-0.78557 -0.42303,0 -0.76914,0.23567 -0.76914,0.52371 0,0.28805 -0.23567,0.52372 -0.52372,0.52372 -0.28804,0 -0.52371,-0.43207 -0.52371,-0.96015 0,-0.52808 -0.29459,-0.98455 -0.65465,-1.01437 -4.45465,-0.36899 -11.51875,-1.35224 -12.96198,-1.80417 -1.12514,-0.35234 -6.78804,-0.56911 -14.66405,-0.56133 -11.173721,0.011 -13.507501,0.15938 -18.068203,1.14844 -11.202234,2.42942 -18.674058,5.29615 -22.630489,8.68271 -2.507548,2.14636 -7.48319,8.23998 -7.48319,9.16457 0,0.34579 -0.495077,1.25507 -1.100171,2.02061 l -1.100172,1.39189 1.362029,0.16572 c 0.749117,0.0911 1.36203,0.3479 1.36203,0.57058 0,0.42303 -2.641748,1.8536 -3.203838,1.73495 -1.068252,-0.22549 -0.939097,10.00323 0.134687,10.66686 0.247814,0.15316 0.45794,0.79483 0.466948,1.42593 0.009,0.63109 0.596034,2.32581 1.304502,3.76603 0.708468,1.44022 1.290279,3.03101 1.292913,3.53508 0.0026,0.50408 0.243924,0.91651 0.536202,0.91651 0.605246,0 2.60596,3.08552 2.608925,4.0235 0.0011,0.34065 -0.469386,0.76895 -1.045474,0.9518 -0.576088,0.18284 -1.047433,0.7879 -1.047433,1.34458 0,0.74912 0.365492,1.01214 1.406466,1.01214 1.494733,0 3.830696,1.81217 3.830696,2.97173 0,0.38185 -0.471345,0.69429 -1.047432,0.69429 -0.576088,0 -1.047433,0.12737 -1.047433,0.28306 0,0.3804 2.242879,3.56151 2.796875,3.96685 0.485308,0.35507 1.578863,2.17337 2.404835,3.99861 0.293282,0.6481 0.95322,1.17836 1.466522,1.17836 0.546771,0 1.525805,0.98097 2.364017,2.36869 1.029294,1.70407 1.863771,2.45528 2.974074,2.67735 0.848836,0.16976 1.671065,0.64151 1.827175,1.04833 0.190611,0.49673 0.710442,0.6326 1.582704,0.41368 0.851877,-0.21381 1.802052,0.0158 2.76101,0.66731 2.480651,1.68524 4.127714,2.18069 6.286751,1.8911 1.36261,-0.18277 2.634882,0.0111 3.705467,0.56477 0.896705,0.4637 2.085935,0.8431 2.642734,0.8431 0.556984,0 1.130347,0.45119 1.274665,1.00306 0.144267,0.55168 0.819853,1.09381 1.501299,1.20473 2.373579,0.38633 13.746889,-0.20566 15.603909,-0.8122 z m 180.71935,-4.74371 c 0,-0.11321 -0.3535,-0.34149 -0.78557,-0.50729 -0.43207,-0.16579 -0.78557,-0.0732 -0.78557,0.20583 0,0.279 0.3535,0.50728 0.78557,0.50728 0.43207,0 0.78557,-0.0926 0.78557,-0.20582 z M 250.8713,300.45996 c 0.14835,-0.24003 -0.063,-0.43643 -0.46977,-0.43643 -0.40672,0 -0.61812,0.1964 -0.46977,0.43643 0.14835,0.24004 0.35975,0.43643 0.46977,0.43643 0.11003,0 0.32142,-0.19639 0.46977,-0.43643 z m 142.24288,-4.75169 c 0,-0.26108 -0.47134,-0.35143 -1.04743,-0.20078 -0.57609,0.15065 -1.04743,0.36426 -1.04743,0.47469 0,0.11042 0.47134,0.20077 1.04743,0.20077 0.57609,0 1.04743,-0.21361 1.04743,-0.47468 z m -25.39937,-1.2274 c 1.00055,-0.6481 1.8221,-1.44546 1.82567,-1.77192 0.004,-0.32646 0.53674,-0.75987 1.18484,-0.96313 l 1.17836,-0.36957 -1.30929,-0.36763 c -0.78744,-0.2211 -1.37444,-0.81685 -1.47274,-1.49469 -0.13392,-0.92351 0.17347,-1.19026 1.70208,-1.47703 1.02604,-0.19249 1.86552,-0.55942 1.86552,-0.81541 0,-0.71836 1.97902,-0.55028 2.22792,0.18921 0.1726,0.51284 0.38626,0.51778 0.9863,0.0228 0.82802,-0.683 9.36804,-1.05489 10.34591,-0.45054 0.33316,0.20591 0.58021,-0.002 0.58021,-0.48879 0,-0.46607 -0.20095,-0.7232 -0.44656,-0.5714 -0.49985,0.30892 -2.58081,-1.04266 -2.1712,-1.41018 0.14357,-0.12882 1.27011,-0.86278 2.50343,-1.63102 1.26099,-0.78547 2.62141,-2.19159 3.10837,-3.21277 0.47628,-0.99877 1.05504,-1.81595 1.28612,-1.81595 0.39779,0 3.05187,-3.8623 3.05187,-4.44118 0,-0.14975 -0.35351,-0.27226 -0.78558,-0.27226 -0.97745,0 -0.97288,-0.49389 0.0167,-1.80218 0.4229,-0.55913 0.76892,-1.20723 0.76892,-1.44022 0,-0.64991 -1.80627,-0.50273 -2.51384,0.20484 -0.81798,0.81798 -0.79295,0.41717 0.10884,-1.74286 0.83808,-2.00746 2.49784,-9.09051 2.50009,-10.66921 7.9e-4,-0.57609 0.48347,-3.02295 1.07256,-5.43748 0.84183,-3.45045 1.00118,-5.29994 0.74453,-8.64131 -0.19407,-2.52662 -0.0537,-6.16342 0.34614,-8.96472 0.96484,-6.76057 0.66524,-11.33189 -0.90185,-13.76048 -1.53958,-2.38597 -3.67535,-4.66441 -6.00168,-6.40259 -0.96378,-0.72011 -2.51326,-2.01631 -3.4433,-2.88044 -5.87716,-5.46069 -7.1643,-6.38675 -11.10079,-7.98667 -4.25164,-1.72801 -7.27589,-2.17324 -7.62606,-1.12271 -0.14092,0.42274 -0.75443,0.42353 -2.26944,0.003 -3.70766,-1.02935 -9.13327,-0.69239 -15.50546,0.96296 -10.97953,2.85224 -21.91482,7.03909 -25.24737,9.66658 -0.99399,0.7837 -0.782,1.88107 0.36339,1.88107 0.92683,0 4.81801,3.2883 7.5025,6.3401 0.2393,0.27204 1.00141,0.96002 1.69358,1.52885 0.69218,0.56883 1.14211,1.03423 0.99987,1.03423 -0.14225,0 2.06058,2.3601 4.89517,5.24467 2.83459,2.88457 5.1538,5.35913 5.1538,5.49902 0,0.72023 -1.67759,0.097 -2.72832,-1.0135 -0.65976,-0.69732 -1.78874,-1.35101 -2.50884,-1.45265 -0.72011,-0.10165 -1.24901,-0.47791 -1.17533,-0.83614 0.17583,-0.85485 -6.86624,-8.1989 -9.26401,-9.66126 -1.0274,-0.62659 -2.4643,-1.73857 -3.19313,-2.47107 -2.83538,-2.84967 -4.02038,-3.57262 -5.41797,-3.30546 -1.83547,0.35088 -1.73228,0.88153 0.43147,2.2188 0.99328,0.61388 1.93971,1.53753 2.10318,2.05256 0.43176,1.36037 2.77954,3.83681 5.77961,6.09633 1.44021,1.08471 3.6791,2.89504 4.9753,4.02294 1.29619,1.12791 2.59239,2.24113 2.88044,2.47382 0.28804,0.23269 1.4664,1.54257 2.61858,2.91085 1.15217,1.36828 3.21431,3.63655 4.58251,5.0406 1.36821,1.40405 2.48765,2.79433 2.48765,3.08952 0,0.74111 2.45032,4.55882 3.07055,4.78405 0.83608,0.30363 6.19656,7.09097 6.95691,8.8087 0.3894,0.87972 1.12059,1.73045 1.62487,1.8905 1.02016,0.32378 1.19772,1.03245 0.3846,1.53498 -0.29274,0.18093 -0.39429,0.55219 -0.22566,0.82503 0.16862,0.27284 0.50901,0.37097 0.75641,0.21806 0.64068,-0.39596 1.18379,1.62961 0.77895,2.90515 -0.19312,0.60847 -0.0136,1.57216 0.41471,2.22579 0.41541,0.634 0.76833,1.36204 0.78427,1.61788 0.0159,0.25584 0.23131,0.60935 0.4786,0.78558 0.68974,0.49153 2.25843,3.09177 2.25843,3.74355 0,0.73988 1.04113,1.77105 2.25081,2.22927 0.77226,0.29253 0.87758,0.71093 0.58586,2.32742 -0.19562,1.08393 -0.45667,2.14788 -0.58012,2.36434 -0.34295,0.60131 -2.74501,-1.33338 -2.76445,-2.22657 -0.009,-0.43207 -0.60599,-1.47033 -1.32575,-2.30725 -0.71976,-0.83693 -1.30894,-1.77961 -1.30929,-2.09487 -3.9e-4,-0.49582 -0.70483,-1.47374 -3.13137,-4.34802 -0.2937,-0.34772 -0.534,-1.11366 -0.534,-1.7019 0,-0.58825 -0.22649,-1.06954 -0.50331,-1.06954 -0.27683,0 -0.97599,-0.50735 -1.5537,-1.12744 l -1.05037,-1.12745 -0.53592,1.40957 c -0.46489,1.22276 -0.28777,1.77032 1.33648,4.13155 1.02981,1.49709 2.19378,3.49118 2.5866,4.43132 0.39281,0.94014 0.9619,1.70934 1.26464,1.70934 0.30275,0 0.55044,0.54791 0.55044,1.21756 0,1.75679 2.41786,8.60714 3.37616,9.56544 0.44746,0.44747 0.81357,1.11372 0.81357,1.48057 0,0.36685 0.46674,1.08938 1.03719,1.60564 1.55227,1.40479 1.95697,4.32612 0.72822,5.25666 -1.72204,1.30411 0.58597,0.95794 2.68704,-0.40302 z M 59.40033,286.77988 c -0.722612,-1.15709 -1.231392,-1.01286 -0.760045,0.21545 0.170567,0.44449 0.555187,0.80816 0.854712,0.80816 0.344687,0 0.309937,-0.37574 -0.09467,-1.02361 z M 234.9519,268.426 c 0,-0.28805 -0.64809,-0.50023 -1.44021,-0.47151 l -1.44022,0.0522 1.30929,0.41931 c 0.72011,0.23062 1.36821,0.4428 1.44022,0.47151 0.072,0.0287 0.13092,-0.18347 0.13092,-0.47151 z m -6.77387,-1.06586 c 1.24553,-0.66659 1.34166,-2.032 0.13054,-1.85424 -1.06821,0.15677 -2.71827,2.39638 -1.76557,2.39638 0.34211,0 1.07787,-0.24396 1.63503,-0.54214 z m -3.93994,-2.04025 c -0.16572,-0.26814 -0.0609,-0.6361 0.23287,-0.81767 0.29422,-0.18184 0.38048,-0.94257 0.19202,-1.69345 -0.28536,-1.13694 -0.1942,-1.30653 0.54899,-1.02134 0.52602,0.20186 0.76056,0.13066 0.57241,-0.17377 -0.63556,-1.02837 -0.7462,-2.81353 -0.2141,-3.45467 0.69564,-0.83819 0.69278,-8.81683 -0.004,-11.14132 -0.35795,-1.19415 -0.35784,-2.09111 3.1e-4,-2.76033 0.29181,-0.54525 0.38662,-1.22427 0.21069,-1.50894 -0.53694,-0.86878 0.26262,-2.52969 1.39004,-2.88752 0.82074,-0.26049 0.99188,-0.62948 0.74611,-1.60868 -0.1754,-0.69887 -0.0721,-1.73187 0.22959,-2.29556 0.44601,-0.83336 0.39944,-0.9677 -0.24918,-0.7188 -0.51773,0.19867 -0.79769,-1.2e-4 -0.79769,-0.56641 0,-0.47988 0.21004,-0.7427 0.46675,-0.58404 0.69841,0.43163 1.2943,-10.69354 0.66094,-12.33952 -0.3903,-1.01432 -0.34652,-1.63827 0.16635,-2.37049 0.71362,-1.01883 0.9693,-4.72821 0.3522,-5.10959 -0.64588,-0.39917 0.34079,-13.72858 1.22163,-16.50389 0.49966,-1.57426 -0.46249,-1.68968 -2.36774,-0.28404 -2.25613,1.66453 -2.55649,1.62735 -2.256,-0.27926 l 0.24761,-1.57114 h -3.88116 c -3.8977,0 -7.17977,0.74163 -7.17977,1.62238 0,0.25986 -0.58918,0.47248 -1.30929,0.47248 -0.72011,0 -1.30929,-0.23567 -1.30929,-0.52372 0,-0.28804 -0.35351,-0.52371 -0.78557,-0.52371 -0.43207,0 -0.78558,0.23567 -0.78558,0.52371 0,0.28805 0.37315,0.52372 0.82922,0.52372 1.62751,0 0.40456,1.14539 -2.69644,2.52543 -6.53937,2.91023 -14.58898,8.83479 -21.82929,16.06649 -3.05642,3.05277 -13.48735,15.21025 -13.48735,15.71978 0,0.13946 0.69784,0.25356 1.55075,0.25356 1.84557,0 3.85722,1.90886 3.4903,3.31195 -0.1776,0.67913 0.17285,1.14014 1.19633,1.57378 0.79612,0.33731 1.34847,0.90788 1.22743,1.26794 -0.15173,0.45133 0.48473,0.6734 2.04937,0.71505 1.24819,0.0332 2.50511,0.11517 2.79315,0.18209 0.28804,0.0669 1.20067,0.15758 2.02806,0.20145 1.28176,0.068 1.40684,0.19726 0.84533,0.87384 -0.56015,0.67493 -0.33485,0.9303 1.5017,1.70207 1.23756,0.52007 2.16298,1.26353 2.16604,1.74013 0.009,1.45275 3.1773,4.6333 5.17571,5.1962 3.1287,0.88128 3.91595,1.77811 3.97558,4.52891 l 0.053,2.44728 2.69138,0.91482 c 1.9123,0.65002 3.22942,0.79349 4.55006,0.49563 1.3577,-0.30621 2.0213,-0.22326 2.46199,0.30773 0.33181,0.39982 1.14797,0.72694 1.81368,0.72694 0.93109,0 1.24861,0.33232 1.37609,1.44022 0.14351,1.24723 0.36659,1.41662 1.66478,1.2641 1.13493,-0.13334 1.39929,-0.006 1.08833,0.52371 -0.22589,0.38492 0.0608,0.28741 0.63705,-0.21666 0.57627,-0.50408 1.3164,-0.91651 1.64473,-0.91651 0.32834,0 0.48901,-0.29459 0.35705,-0.65464 -0.27752,-0.75724 0.59243,-2.3426 1.03992,-1.89511 0.16519,0.1652 0.39094,1.45016 0.50168,2.85548 0.12576,1.59618 0.59851,3.00105 1.25964,3.74328 1.01901,1.14403 2.56325,1.70014 1.94551,0.70063 z m -35.69017,-12.51621 c 0.40117,-0.64911 -4.59852,-4.2789 -5.89376,-4.2789 -0.61672,0 -1.1213,-0.21012 -1.1213,-0.46694 0,-0.45702 -2.19308,-1.27903 -3.58005,-1.34188 -0.38479,-0.0174 -1.0086,-0.45426 -1.38625,-0.97073 -0.41461,-0.56702 -1.48544,-0.99013 -2.70298,-1.06802 -1.60588,-0.10273 -2.01667,-0.33707 -2.01791,-1.15114 -0.001,-0.69913 -0.58081,-1.21997 -1.83457,-1.64817 -2.10877,-0.7202 -4.19125,-0.86563 -4.18642,-0.29236 0.004,0.50854 3.01781,2.2258 3.90593,2.2258 0.37512,0 0.79876,0.44633 0.94142,0.99186 0.15188,0.58076 0.92193,1.13738 1.8579,1.34295 0.87919,0.1931 1.87534,0.68464 2.21367,1.0923 0.33833,0.40766 1.76864,0.89421 3.17848,1.08124 1.40984,0.18702 2.56335,0.52612 2.56335,0.75357 0,0.70239 3.85376,2.85197 5.23716,2.92122 2.44059,0.12218 2.68085,0.19558 2.35672,0.72003 -0.17802,0.28805 -0.20584,0.52372 -0.0618,0.52372 0.14403,0 0.38272,-0.19555 0.53043,-0.43455 z m 155.86066,-0.84384 c 0,-0.12701 -0.23567,-0.3766 -0.52371,-0.55462 -0.28805,-0.17802 -0.52372,-0.0741 -0.52372,0.23095 0,0.30504 0.23567,0.55463 0.52372,0.55463 0.28804,0 0.52371,-0.10393 0.52371,-0.23096 z m -84.9076,-1.73298 c 0.60383,-0.50408 2.33857,-2.74473 3.85496,-4.97922 1.51639,-2.23449 4.63316,-6.8301 6.92614,-10.21246 2.29299,-3.38237 5.53348,-7.63133 7.2011,-9.44214 3.76398,-4.08718 3.92411,-5.34036 0.80624,-6.30939 -3.52564,-1.09576 -10.87503,-4.73538 -11.18309,-5.53817 -0.15416,-0.40174 -1.08125,-0.8807 -2.06019,-1.06434 -0.97894,-0.18365 -2.12204,-0.67606 -2.54022,-1.09424 -0.50675,-0.50675 -1.29835,-0.65272 -2.37355,-0.43768 -1.88372,0.37674 -1.76663,-0.58451 -1.64794,13.5293 0.0563,6.70048 0.26122,9.52775 0.71156,9.81968 0.47816,0.30996 0.48352,0.50666 0.0219,0.80638 -0.39502,0.25649 -0.68074,2.79814 -0.80951,7.20109 -0.10946,3.74258 -0.39021,7.21711 -0.6239,7.72119 -0.25213,0.54386 -0.21276,0.9165 0.0969,0.9165 0.28695,0 1.01577,-0.41242 1.61961,-0.9165 z m -32.5656,-1.56118 c -0.13279,-0.50956 -0.25016,-0.21945 -0.26084,0.64468 -0.0107,0.86413 0.098,1.28104 0.24143,0.92647 0.14346,-0.35457 0.15219,-1.06159 0.0194,-1.57115 z m 113.80719,-0.66461 c 0,-0.28805 -0.35351,-0.52372 -0.78557,-0.52372 -0.43207,0 -0.78558,0.23567 -0.78558,0.52372 0,0.28804 0.35351,0.52371 0.78558,0.52371 0.43206,0 0.78557,-0.23567 0.78557,-0.52371 z M 172.0064,236.51615 c 0.1406,-0.42178 -0.21448,-0.58748 -1.01511,-0.47369 -0.67724,0.0962 -1.3097,0.58613 -1.40547,1.08862 -0.14255,0.74792 0.0416,0.83384 1.01511,0.4737 0.65408,-0.24196 1.28654,-0.73184 1.40547,-1.08863 z m -92.074473,0.2042 c 0.720108,-0.11442 3.194667,-0.36767 5.499019,-0.56279 5.753522,-0.48717 7.261998,-1.17846 2.618579,-1.20003 -4.906029,-0.0228 -10.770761,0.77558 -12.916455,1.75833 l -1.747596,0.8004 2.618582,-0.29393 c 1.440216,-0.16167 3.207758,-0.38755 3.927871,-0.50198 z m -12.789084,-1.00448 c 1.705185,-0.70793 2.674977,-1.29711 2.155095,-1.30928 -0.983786,-0.0231 -5.601213,1.91229 -5.601213,2.34767 0,0.37863 0.120352,0.34236 3.446118,-1.03839 z m 98.012977,-0.6004 c -0.17403,-0.17403 -0.62573,-0.19263 -1.00379,-0.0413 -0.41779,0.16719 -0.29369,0.29129 0.31641,0.31641 0.55208,0.0227 0.8614,-0.10103 0.68738,-0.27506 z m -18.39756,-1.65554 c 0.77194,-0.51544 1.93325,-2.76329 1.59985,-3.0967 -0.14602,-0.14601 -3.13714,-0.44879 -6.64694,-0.67282 -4.19573,-0.26782 -6.52169,-0.63425 -6.7909,-1.06983 -0.24758,-0.40059 -0.90912,-0.53708 -1.6734,-0.34526 -0.69517,0.17448 -2.54693,0.063 -4.11501,-0.24783 -1.56808,-0.31078 -4.26509,-0.62184 -5.99335,-0.69125 -1.72826,-0.0694 -5.14551,-0.32389 -7.59389,-0.56551 -2.44837,-0.24162 -5.09968,-0.48329 -5.8918,-0.53706 -2.71329,-0.18416 -2.79657,-0.21496 -1.97911,-0.73194 0.42373,-0.26797 0.60282,-0.65481 0.39799,-0.85964 -0.20483,-0.20483 -0.95269,0.2537 -1.6619,1.01896 l -1.28948,1.39137 1.15335,0.083 c 0.63435,0.0456 1.6247,0.0361 2.20078,-0.0211 0.57609,-0.0573 2.69714,0.19265 4.71345,0.55535 2.01631,0.36271 4.31411,0.59282 5.10623,0.51135 0.79212,-0.0815 1.44022,0.10263 1.44022,0.4091 0,0.30647 -0.53026,0.58071 -1.17836,0.60942 -3.01035,0.13337 1.6989,0.89438 5.89181,0.95212 2.44837,0.0337 6.1012,0.41071 8.1174,0.83778 2.0162,0.42706 5.01363,0.77648 6.66095,0.77648 2.3791,0 2.93614,0.15371 2.70833,0.74736 -0.20579,0.53629 0.004,0.67132 0.74291,0.47809 0.56633,-0.1481 1.18804,-0.0131 1.38157,0.30007 0.40124,0.64922 1.84445,0.73933 2.6993,0.16854 z m -54.021473,-6.98732 c 0.302607,-0.28442 0.09743,-0.46222 -0.523719,-0.45384 -1.509316,0.0204 -8.153997,1.84393 -7.844952,2.15297 0.371564,0.37157 7.762015,-1.12895 8.368671,-1.69913 z M 303.55872,208.97077 c 0,-0.56485 -1.00931,-0.18077 -2.16777,0.82493 l -1.23638,1.07333 1.70208,-0.82492 c 0.93614,-0.45372 1.70207,-0.93672 1.70207,-1.07334 z m -56.03763,0.27531 c 0,-0.28805 -0.23567,-0.52372 -0.52371,-0.52372 -0.28805,0 -0.52372,0.23567 -0.52372,0.52372 0,0.28804 0.23567,0.52371 0.52372,0.52371 0.28804,0 0.52371,-0.23567 0.52371,-0.52371 z m 24.61466,0 c 0,-0.28805 -0.3396,-0.52372 -0.75466,-0.52372 -0.41507,0 -0.90032,0.23567 -1.07835,0.52372 -0.17801,0.28804 0.16159,0.52371 0.75467,0.52371 0.59309,0 1.07834,-0.23567 1.07834,-0.52371 z m 34.56527,-2.71826 c 0,-0.68837 -1.19029,-0.25732 -1.45125,0.52555 -0.12757,0.3827 0.11186,0.49975 0.62191,0.30402 0.45614,-0.17503 0.82934,-0.54834 0.82934,-0.82957 z M 249.82668,191.646 c 0.47417,-1.23569 -0.001,-1.51725 -1.44857,-0.85783 -0.68325,0.31131 -1.35628,1.16241 -1.49562,1.89132 -0.24652,1.28955 -0.21476,1.30536 1.17659,0.58586 0.78647,-0.4067 1.58189,-1.13541 1.7676,-1.61935 z m 1.36043,0.61021 c 0,-0.12702 -0.23567,-0.3766 -0.52372,-0.55463 -0.28804,-0.17801 -0.52372,-0.0741 -0.52372,0.23096 0,0.30504 0.23568,0.55462 0.52372,0.55462 0.28805,0 0.52372,-0.10393 0.52372,-0.23095 z m -14.14034,-16.00425 c 0,-0.28804 -0.57527,-0.52372 -1.27838,-0.52372 -0.70311,0 -1.42404,0.23568 -1.60206,0.52372 -0.18884,0.30555 0.34371,0.52371 1.27839,0.52371 0.88113,0 1.60205,-0.23567 1.60205,-0.52371 z m -31.41343,-23.28028 c -0.26854,-0.70632 -1.1887,-1.64642 -2.04479,-2.08913 -0.85609,-0.4427 -1.70695,-1.27884 -1.8908,-1.85808 -0.38779,-1.22185 -1.07957,-1.36046 -1.67787,-0.33621 -0.23035,0.39434 -0.93302,0.87646 -1.56149,1.0714 -1.03056,0.31965 -1.17806,0.11847 -1.50331,-2.05046 -0.41658,-2.77789 -0.15881,-3.2402 1.41506,-2.53792 0.92582,0.41311 1.41093,0.23791 2.6236,-0.94752 1.69064,-1.65265 1.81644,-2.01335 0.70219,-2.01335 -0.43643,0 -0.78557,-0.46552 -0.78557,-1.04743 0,-0.57609 0.32829,-1.04743 0.72954,-1.04743 1.26249,0 1.37231,-1.49943 0.24924,-3.4029 -0.6336,-1.07386 -1.49501,-1.83426 -2.07795,-1.83426 -0.54763,0 -0.9957,-0.23567 -0.9957,-0.52372 0,-0.28804 -0.25681,-0.52372 -0.5707,-0.52372 -0.31388,0 -1.01306,-0.53026 -1.55372,-1.17836 -0.58111,-0.69658 -0.99015,-0.89581 -1.00045,-0.48729 -0.0104,0.41241 -0.48854,0.62359 -1.18577,0.52372 -1.24975,-0.17902 -1.07149,0.47353 -3.26471,-11.95097 -0.4322,-2.44837 -0.78994,-5.5414 -0.79496,-6.87339 -0.009,-2.32703 -0.91419,-5.70108 -2.19575,-8.18266 -0.33447,-0.64766 -0.47637,-1.30933 -0.31533,-1.47036 0.16103,-0.16104 -0.15104,-1.75218 -0.6935,-3.53588 -0.54246,-1.78369 -0.9881,-3.877265 -0.99029,-4.652387 -0.002,-0.775122 -0.21528,-1.539887 -0.47351,-1.69948 -0.25822,-0.15959 -0.72763,-1.764286 -1.04312,-3.565993 -0.31549,-1.801702 -0.81274,-4.100673 -1.105,-5.108828 -0.42236,-1.456942 -0.37374,-1.94921 0.23696,-2.399403 0.42258,-0.31152 1.00744,-1.195291 1.29968,-1.963936 0.54751,-1.440048 1.29914,-1.791922 1.86656,-0.873822 0.59423,0.961488 4.22132,0.598777 5.23716,-0.523718 0.61816,-0.683057 1.61303,-1.04743 2.85986,-1.04743 1.21247,0 2.55544,-0.474754 3.67086,-1.297682 1.7023,-1.255921 2.21066,-1.301622 5.30367,-0.476797 0.80152,0.213747 3.61524,5.263905 3.61524,6.488765 0,0.324776 0.67134,1.155391 1.49186,1.845817 1.03466,0.870612 1.85131,2.425122 2.66475,5.072421 1.58695,5.164714 1.93678,6.402571 2.92881,10.363553 1.03909,4.14887 4.33937,14.57193 5.02297,15.86371 0.27296,0.5158 0.37305,1.13719 0.22244,1.38088 -0.1506,0.24369 0.0771,0.73431 0.50598,1.09026 0.42889,0.35595 0.77981,1.15507 0.77981,1.77582 0,0.62075 0.36803,1.65408 0.81786,2.2963 0.44983,0.64222 0.75505,1.57842 0.67827,2.08046 -0.0768,0.50204 0.13797,1.41562 0.47721,2.03018 0.33925,0.61455 0.87212,2.85344 1.18416,4.9753 0.31204,2.12186 0.90334,4.88896 1.31399,6.14911 0.87522,2.68571 0.67673,3.20501 -1.22918,3.21585 -2.35377,0.0134 -2.72104,0.53302 -2.15556,3.04979 0.27761,1.23555 0.38371,2.44229 0.23578,2.68164 -0.14793,0.23935 -1.26712,0.21092 -2.4871,-0.0632 -1.21998,-0.27411 -2.60192,-0.39803 -3.07099,-0.27536 -0.46906,0.12266 -1.23982,0.006 -1.71279,-0.25824 -0.63456,-0.35511 -0.85997,-0.26853 -0.85997,0.33034 0,0.62478 -0.60277,0.8116 -2.61857,0.8116 -1.93082,0 -2.61859,0.19821 -2.61859,0.75467 0,0.41506 0.2039,0.88067 0.4531,1.03469 0.74601,0.46106 0.20652,3.10062 -0.78138,3.82299 -1.43488,1.04921 -2.79145,0.79977 -3.32819,-0.61196 z m 9.28642,-8.66066 c 2.1453,-1.30801 2.15317,-1.91552 0.0289,-2.2273 -2.66049,-0.39048 -3.56394,0.0554 -3.56394,1.75892 0,1.83523 1.06241,1.97599 3.53508,0.46838 z m 2.95154,-24.37353 c 1.07211,-1.07211 0.32957,-3.07034 -1.22679,-3.30138 -0.68615,-0.10186 -1.69418,0.31593 -2.42986,1.00706 -1.17754,1.10623 -1.20235,1.2418 -0.39129,2.13801 1.05497,1.16574 2.96477,1.23948 4.04794,0.15631 z m 43.75553,17.62413 c 0.88524,-1.65409 0.69454,-1.8883 -1.66824,-2.04884 -1.22377,-0.0831 -2.30359,-0.37774 -2.3996,-0.65464 -0.096,-0.27691 -0.80304,-0.51096 -1.57115,-0.52012 -1.6937,-0.0202 -3.22958,-1.09825 -3.22958,-2.26688 0,-0.47232 -0.32466,-0.85877 -0.72145,-0.85877 -0.3968,0 -1.03072,-0.37264 -1.40871,-0.8281 -0.55563,-0.66948 -0.56096,-1.03035 -0.0279,-1.884 0.7373,-1.1806 0.46049,-1.79067 -0.56893,-1.25388 -0.37247,0.19423 -1.50208,0.78861 -2.51024,1.32085 -2.05987,1.08746 -2.85056,0.93902 -2.08005,-0.39051 0.28439,-0.49073 1.34498,-4.0738 2.35687,-7.9624 1.01188,-3.88859 2.54873,-9.78039 3.41521,-13.0929 0.86649,-3.3125 2.0412,-8.26162 2.61047,-10.998034 0.56927,-2.736418 1.3986,-6.507174 1.84295,-8.379461 0.44435,-1.872283 0.85554,-3.951038 0.91375,-4.619455 0.0582,-0.668414 0.51047,-1.441698 1.00503,-1.718413 0.80345,-0.44954 3.02868,-6.583147 3.02868,-8.348226 0,-0.382076 0.44596,-1.652868 0.99102,-2.823975 0.54506,-1.171106 1.41198,-3.307645 1.9265,-4.747864 0.51452,-1.44022 1.71827,-3.357383 2.675,-4.260363 1.35497,-1.278853 1.7395,-2.065972 1.7395,-3.560689 0,-1.749912 0.19603,-2.007886 2.2258,-2.929233 2.617,-1.1879 3.53508,-1.282471 3.53508,-0.364145 0,0.368051 0.47135,1.072761 1.04744,1.566022 0.64007,0.548053 1.0539,1.560782 1.06408,2.604043 0.0158,1.614517 0.0584,1.652011 0.78558,0.690602 0.4229,-0.55913 0.76891,-1.78355 0.76891,-2.720932 0,-1.342386 0.30586,-1.851276 1.44023,-2.396264 0.82164,-0.394744 1.44117,-1.119641 1.44244,-1.687752 0.003,-1.308217 2.53635,-2.196149 4.10325,-1.43813 0.92696,0.448434 0.96589,0.553885 0.21518,0.582918 -0.50407,0.01949 -0.9165,0.301239 -0.9165,0.626097 0,0.813209 3.99533,0.14008 6.02274,-1.014704 1.06787,-0.608247 2.24218,-0.809479 3.66601,-0.628214 1.83533,0.233651 2.07365,0.418096 1.92361,1.488761 -0.0942,0.672137 0.18089,1.49699 0.61129,1.833006 0.69259,0.540716 0.67655,1.2731 -0.13956,6.371815 -0.50716,3.168483 -1.1774,6.703567 -1.48943,7.855742 -0.31203,1.152175 -0.84036,4.098079 -1.17406,6.546451 -0.87247,6.401231 -1.42049,7.936758 -2.79401,7.828596 -2.18237,-0.17186 -2.43686,0.01571 -2.43686,1.796027 0,2.313583 -0.89966,2.978422 -3.87796,2.865771 -1.34466,-0.05086 -2.71906,0.181731 -3.0542,0.516873 -0.46333,0.463327 -0.44412,0.609354 0.0802,0.609354 0.446,0 0.6044,0.445251 0.4485,1.260744 -0.2208,1.155042 -0.1381,1.213858 0.98638,0.70151 0.67507,-0.30758 1.22739,-0.859033 1.22739,-1.225452 0,-1.031452 2.17825,-1.520393 2.84053,-0.6376 0.78192,1.042261 2.28857,1.534262 2.52513,0.824586 0.10981,-0.329411 0.60047,-0.433374 1.11447,-0.236136 0.50505,0.193809 0.80018,0.543476 0.65583,0.777035 -0.14434,0.233559 -0.75993,3.593554 -1.36797,7.466651 -1.82329,11.614028 -5.41261,24.768678 -8.13754,29.823658 -0.54346,1.00815 -0.94499,1.99374 -0.89229,2.19021 0.17866,0.666 -1.38642,3.91203 -2.21958,4.60349 -1.3909,1.15435 -1.50743,0.19454 -0.28336,-2.33405 0.63988,-1.32182 1.03916,-2.87851 0.88727,-3.45931 -0.26892,-1.02836 1.34564,-5.41121 2.18434,-5.92955 0.23062,-0.14253 0.71606,-1.62524 1.07876,-3.29492 0.3627,-1.66967 0.84129,-3.39212 1.06354,-3.82765 0.50768,-0.99488 1.90348,-5.97576 2.31948,-8.27697 l 0.31397,-1.73682 -1.50832,1.2131 c -1.06887,0.85968 -1.83048,2.28119 -2.6141,4.87912 -0.60817,2.01631 -1.10503,4.05996 -1.10412,4.54145 0.002,0.79414 -3.81147,8.64013 -7.08274,14.57419 -1.38704,2.51609 -4.31854,5.37241 -5.04991,4.9204 -0.24325,-0.15034 -0.58886,0.10865 -0.76801,0.57552 -0.17916,0.46688 -0.63684,0.72949 -1.01706,0.58359 -0.43825,-0.16817 -0.58534,0.0109 -0.4018,0.4892 0.31604,0.82359 -0.11801,1.03712 -3.12698,1.53831 -1.87453,0.31223 -1.96389,0.26815 -1.44022,-0.71034 z"
       id="path1" />
  </g>
</svg>
