<?xml version="1.0" encoding="UTF-8" standalone="no"?>
<!-- Created with Inkscape (http://www.inkscape.org/) -->

<svg
   version="1.1"
   id="svg1"
   width="377.9527"
   height="411.28198"
   viewBox="0 0 377.9527 411.28197"
   sodipodi:docname="car.svg"
   xml:space="preserve"
   inkscape:version="1.4.3 (0d15f75, 2025-12-25)"
   xmlns:inkscape="http://www.inkscape.org/namespaces/inkscape"
   xmlns:sodipodi="http://sodipodi.sourceforge.net/DTD/sodipodi-0.dtd"
   xmlns="http://www.w3.org/2000/svg"
   xmlns:svg="http://www.w3.org/2000/svg"><defs
     id="defs1" /><sodipodi:namedview
     id="namedview1"
     pagecolor="#ffffff"
     bordercolor="#000000"
     borderopacity="0.25"
     inkscape:showpageshadow="2"
     inkscape:pageopacity="0.0"
     inkscape:pagecheckerboard="0"
     inkscape:deskcolor="#d1d1d1"
     inkscape:zoom="0.22927988"
     inkscape:cx="303.12298"
     inkscape:cy="1107.8164"
     inkscape:window-width="1920"
     inkscape:window-height="1122"
     inkscape:window-x="-8"
     inkscape:window-y="-8"
     inkscape:window-maximized="1"
     inkscape:current-layer="g1" /><g
     inkscape:groupmode="layer"
     inkscape:label="Image"
     id="g1"
     transform="translate(-221.97356,-95.34659)"><path
       style="opacity:1;fill:#000000;stroke-width:0.244716"
       d="m 380.5355,457.31488 c -0.20253,7.25621 -0.92787,11.88558 -2.4805,15.83225 -0.31749,0.80702 -0.57995,1.75254 -0.58324,2.10113 -0.009,0.97872 -1.43618,4.11369 -2.80563,6.16434 -0.67949,1.01751 -1.25901,2.01154 -1.28778,2.20898 -0.0288,0.19741 -1.05173,1.32512 -2.27334,2.5059 -1.22166,1.18073 -3.20979,3.234 -4.41797,4.56284 -3.33067,3.66306 -7.83996,5.97808 -9.79458,5.02843 -0.46793,-0.22737 -0.89273,-0.18229 -1.14796,0.12182 -0.75342,0.89794 -3.0076,1.59058 -5.00804,1.53885 -1.09459,-0.0283 -4.54287,0.13535 -7.66283,0.3637 -8.59512,0.62912 -12.66765,0.56955 -15.98931,-0.234 -1.07105,-0.25906 -2.38823,-0.51679 -2.92703,-0.57266 -0.53883,-0.0559 -1.86961,-0.41144 -2.95744,-0.78987 -4.65716,-1.62179 -6.3372,-2.25289 -7.93459,-2.98058 -1.71177,-0.77981 -7.60733,-4.76516 -9.9297,-6.71242 -1.92843,-1.61819 -4.59215,-4.8831 -5.45073,-6.68382 -0.42445,-0.89008 -1.41748,-2.67617 -2.20679,-3.96896 -0.78936,-1.29291 -1.5573,-2.81143 -1.70656,-3.37452 -0.17183,-0.65075 -0.70241,-1.38541 -1.45321,-2.01543 -0.77171,-0.64757 -1.3366,-1.44403 -1.6282,-2.29586 -0.67068,-1.95883 -1.58835,-7.44956 -1.49539,-8.94772 0.15275,-2.46366 -0.0912,-5.20485 -0.60347,-6.77906 -0.65354,-2.00866 -0.43978,-5.83551 0.46649,-8.3512 0.38915,-1.08012 0.72716,-2.38938 0.75117,-2.9096 0.024,-0.52019 0.34443,-1.68886 0.71215,-2.59701 0.36759,-0.90814 1.06184,-2.75856 1.54274,-4.11199 0.74964,-2.1096 1.35827,-3.11874 4.26433,-7.07037 1.86444,-2.53524 4.50918,-6.16201 5.87725,-8.05957 2.56615,-3.55921 11.36983,-13.85257 13.14949,-15.37453 0.55307,-0.4729 1.23316,-0.9565 1.51122,-1.0746 0.27809,-0.11803 1.05624,-0.71093 1.72933,-1.31753 0.27708,-0.24974 2.60587,-4.55853 7.07354,-6.31929 2.36873,-0.93355 5.63007,-0.1551 8.86566,0.13699 5.4838,0.49504 10.78057,6.99786 17.76231,12.44733 4.65824,4.46853 12.16216,6.87162 16.06133,11.70714 4.04254,5.01331 5.79949,10.80972 7.58395,14.58909 2.1262,4.5032 0.0843,5.6902 0.8258,9.25195 0.30959,1.48709 2.6844,4.2055 3.56762,7.50519 0.72201,2.69464 0.009,6.16274 0,6.47495 z m -61.03756,19.79369 c 3.0709,1.65847 5.84204,2.63812 7.55537,2.67113 1.03744,0.0201 3.48124,0.30551 5.43066,0.63455 3.94258,0.66549 6.14412,0.5477 8.71073,-0.46603 0.94918,-0.37486 2.61847,-0.84433 3.70963,-1.04333 1.361,-0.24817 2.57284,-0.76912 3.85979,-1.65954 1.82304,-1.26127 4.94695,-4.03171 5.4891,-4.86815 5.04869,-7.7892 5.92619,-9.31053 5.87701,-10.1886 -0.0288,-0.51336 0.14159,-1.43313 0.3786,-2.04412 0.23705,-0.61098 0.36939,-1.76582 0.29417,-2.56629 -0.0753,-0.80054 0.005,-2.26646 0.1785,-3.25774 0.17232,-0.99142 0.34118,-2.45149 0.3726,-3.24501 0.0315,-0.79357 0.17681,-1.96527 0.3232,-2.60386 0.21775,-0.95021 0.11835,-1.28498 -0.54689,-1.84325 -0.44719,-0.3752 -1.29717,-1.74987 -1.88904,-3.05485 -0.59177,-1.30495 -1.42342,-2.79598 -1.84807,-3.31341 -0.44077,-0.53713 -0.85153,-1.62032 -0.95731,-2.52479 -0.2014,-1.72097 -0.80605,-2.62448 -3.00544,-4.4913 -3.25246,-2.76075 -6.52159,-4.98894 -7.4873,-5.10349 -0.57785,-0.0686 -1.75496,-0.68717 -2.90128,-1.52456 -3.78477,-2.76491 -4.72895,-2.44555 -10.57078,3.5757 -2.20897,2.27677 -4.35933,4.33096 -4.77863,4.56474 -0.41931,0.23388 -1.36826,1.06677 -2.10879,1.85104 -0.74051,0.78419 -1.91437,1.71595 -2.60851,2.07054 -2.26272,1.15587 -3.92804,2.59114 -6.04626,5.21087 -1.98411,2.45405 -2.10307,2.68753 -2.54168,4.99031 -0.25317,1.32871 -0.862,3.47339 -1.35315,4.766 -0.49113,1.29264 -1.07817,2.84114 -1.30466,3.44121 -0.23358,0.61891 -0.24741,1.88329 -0.032,2.92269 0.20886,1.00748 0.45164,2.88815 0.53965,4.17922 0.17452,2.56015 1.4533,6.51269 2.48913,7.6934 0.35926,0.40946 0.80499,1.24879 0.99056,1.86521 0.33191,1.10242 1.4682,2.11263 3.78123,3.36181 z"
       id="path3"
       sodipodi:nodetypes="ssssssssssssssscsssssssssssssssssscsssssssssssssssssssssscsssssssssssssss" /><path
       style="opacity:1;fill:#000000;stroke-width:0.244716"
       d="m 446.19421,407.96256 c -9.3037,-0.013 -17.94364,0.11303 -19.19984,0.28003 -3.26224,0.43371 -14.9527,0.46579 -16.51419,0.0453 -1.16162,-0.31277 -1.6197,-0.22898 -4.36019,0.7976 -1.68418,0.63093 -3.99015,1.24172 -5.12433,1.3573 -1.79304,0.18275 -2.25431,0.10782 -3.53476,-0.57423 -0.80994,-0.43143 -2.54168,-0.98613 -3.84829,-1.23266 -2.14568,-0.40486 -2.5559,-0.39226 -4.23741,0.13019 -0.96774,0.30068 -2.1806,0.80668 -3.21251,1.30911 -0.48024,0.23383 -7.60496,1.54982 -15.87184,1.14415 -10.17333,-0.49925 -22.1249,-2.82929 -26.14059,-3.57056 -7.27885,-1.34362 -15.111,0.95474 -20.8375,0.46579 -21.70338,-1.85309 -26.45908,-3.83059 -29.60833,-3.83918 -2.24322,-0.006 -5.84055,0.11031 -7.99405,0.25876 -3.36782,0.23216 -4.04081,0.37424 -4.81159,1.01584 -0.84574,0.70398 -1.09345,0.73594 -4.4049,0.56799 -7.14523,-0.36235 -8.02056,-0.29912 -9.96684,0.71988 -1.72263,0.9019 -1.83576,0.91788 -3.56288,0.50358 -1.33982,-0.32144 -1.95386,-0.33688 -2.4673,-0.0621 -0.86228,0.46149 -3.21061,0.45779 -5.94708,-0.009 -2.81201,-0.48004 -4.07594,-0.43077 -6.05174,0.23593 -1.43076,0.48278 -1.75687,0.49626 -2.48517,0.10276 -1.18185,-0.63857 -3.52837,-3.45506 -4.26501,-5.11925 -0.7457,-1.68465 -1.32169,-1.94949 -5.38147,-2.47416 -3.54946,-0.45874 -4.6247,-1.09405 -5.19697,-3.07065 -0.21319,-0.73635 -0.75015,-2.06061 -1.19326,-2.94284 -0.44311,-0.8822 -0.9064,-2.06264 -1.02952,-2.62321 -0.12312,-0.56058 -0.36321,-1.10534 -0.53353,-1.21062 -0.17035,-0.10527 -1.06016,-1.09317 -1.97741,-2.19532 l -1.66769,-2.00396 0.214,-3.52353 0.21401,-3.52355 -1.22146,-2.36026 c -1.21315,-2.34429 -1.52928,-3.69921 -1.93033,-8.2734 -0.1529,-1.744 -0.0666,-2.7362 0.34589,-3.97821 0.43484,-1.30921 0.54733,-2.86796 0.53872,-7.46518 -0.007,-3.59354 0.15784,-6.68191 0.43134,-8.09449 0.45409,-2.34541 0.46856,-6.46408 0.059,-16.80384 -0.11729,-2.96107 -0.34348,-5.75084 -0.50267,-6.19951 -0.24596,-0.6932 -0.73378,-4.96081 -0.74596,-6.52575 -0.002,-0.26919 0.0946,-5.36699 0.21481,-11.32841 0.16704,-8.2822 0.33949,-11.28392 0.73109,-12.72527 0.92522,-3.40551 1.10469,-4.44313 1.59611,-9.22779 0.26728,-2.60215 0.6313,-5.07246 0.80896,-5.48958 0.17766,-0.41711 0.47171,-1.44492 0.65349,-2.28402 0.25918,-1.19659 0.66296,-1.82411 1.87211,-2.9096 1.83906,-1.65099 2.63711,-1.83717 7.01005,-1.63533 2.67989,0.12369 3.75987,0.33131 5.45541,1.04877 1.16275,0.49199 2.42649,1.23166 2.80834,1.64369 0.38186,0.41203 1.30794,1.13653 2.05797,1.60999 1.49813,0.94574 2.64206,2.54692 2.64394,3.70084 0,0.50709 0.28549,0.85261 0.8985,1.09068 1.10211,0.428 4.49459,0.12949 6.0862,-0.53552 0.63702,-0.26617 2.44648,-0.77874 4.02101,-1.13905 1.57453,-0.3603 3.15645,-0.78456 3.51535,-0.94279 0.71362,-0.31461 4.01287,-1.07258 7.3415,-1.68664 1.16649,-0.21519 3.51577,-0.79605 5.22061,-1.29079 4.25535,-1.23488 10.7502,-2.68732 13.86728,-3.10115 0.8973,-0.11912 1.88585,-0.35272 2.19677,-0.51911 0.31093,-0.16639 1.76218,-0.4526 3.22499,-0.63603 1.46282,-0.18342 3.21367,-0.61613 3.8908,-0.96157 2.61453,-1.33383 3.64366,-1.59064 14.5065,-3.61987 0.8973,-0.16762 2.51243,-0.20132 3.58918,-0.0749 1.07676,0.12643 2.23622,0.19056 2.57657,0.14252 1.24434,-0.17564 5.30945,-2.32882 6.24759,-3.30919 l 0.9645,-1.0079 -0.0604,-3.97443 c -0.0989,-6.51158 -0.426,-12.22428 -0.92809,-16.21026 -0.25996,-2.06377 -0.68706,-5.6611 -0.9491,-7.99407 -0.26205,-2.33296 -0.63358,-5.34298 -0.82563,-6.68892 -0.19205,-1.34594 -0.56145,-4.50278 -0.82088,-7.0152 -0.54273,-5.25601 -1.32472,-11.04332 -1.79879,-13.31233 -0.17996,-0.86126 -0.32801,-2.32956 -0.32899,-3.26288 0,-0.93333 -0.15422,-2.24564 -0.34045,-2.91625 -0.18626,-0.67061 -0.39982,-2.5794 -0.47458,-4.24175 -0.17191,-3.82109 -0.37635,-5.42812 -1.02796,-8.07994 -0.51432,-2.09315 -0.64328,-4.42865 -0.42641,-7.72289 0.0728,-1.1055 -0.0455,-1.87516 -0.34334,-2.23402 -0.39289,-0.47341 -0.37921,-0.58954 0.10121,-0.8584 0.69096,-0.38668 0.7517,-1.31213 0.0689,-1.05013 -0.76187,0.29236 -0.94083,-0.7231 -0.41102,-2.3324 0.5777,-1.75483 0.40315,-3.09546 -0.40307,-3.09546 -0.75417,0 -1.14337,-1.55633 -1.83596,-7.34149 -0.88955,-7.43035 -0.91938,-10.55536 -0.14468,-15.15476 1.13649,-6.74729 2.73723,-8.66306 10.68016,-12.78205 2.12201,-1.10042 4.25633,-2.2819 4.7429,-2.6255 0.48657,-0.3436 1.67401,-0.89629 2.63875,-1.22822 0.96475,-0.33192 2.20218,-0.83521 2.74983,-1.11842 1.30432,-0.67447 6.99425,-2.49337 7.79988,-2.49337 0.34529,0 0.91741,-0.19406 1.2714,-0.43124 0.35398,-0.23718 1.89166,-0.70796 3.41705,-1.04619 1.52541,-0.33822 3.14054,-0.80399 3.58918,-1.03505 0.44864,-0.2311 1.03596,-0.42159 1.30515,-0.42334 0.68682,-0.004 5.57775,-1.85888 5.98997,-2.2711 0.18701,-0.18702 0.72644,-0.34004 1.1987,-0.34004 0.80661,0 4.26027,-0.93541 6.27969,-1.70083 0.93912,-0.35594 3.73146,-2.89527 5.21312,-4.74071 0.76095,-0.9478 0.83003,-1.25314 0.66436,-2.9366 -0.10168,-1.03335 -0.23973,-1.94169 -0.30675,-2.01853 -0.067,-0.0768 -0.84547,-0.10669 -1.7299,-0.0663 -1.38008,0.063 -1.66679,-0.0329 -2.02237,-0.67601 -1.1077,-2.00367 -1.25493,-7.7561 -0.28962,-11.31809 0.41225,-1.521167 3.03419,-4.619999 4.58956,-5.424311 1.02603,-0.530575 5.87168,-0.689719 10.22969,-0.335969 l 3.22394,0.261693 1.70707,1.507874 c 1.22559,1.082589 1.76908,1.82997 1.927,2.649885 0.41868,2.174038 0.91223,6.695018 0.887,8.125038 -0.0272,1.54152 1.1671,4.60022 1.79619,4.60022 0.20348,0 0.59053,0.33037 0.86008,0.73415 0.45679,0.68423 0.69759,0.72906 3.54122,0.65924 1.6781,-0.0412 3.78802,-0.2835 4.68872,-0.53844 3.78195,-1.07044 8.22248,-1.80157 15.27333,-2.51472 2.7028,-0.27338 3.63052,-0.26496 3.99346,0.0362 0.64896,0.53859 2.67746,0.12586 2.90502,-0.59106 0.29809,-0.93926 1.33936,-1.35041 4.26062,-1.68235 1.53716,-0.17466 2.92495,-0.39798 3.08399,-0.49625 0.15899,-0.0983 1.29281,-0.38652 2.51962,-0.64054 7.81828,-1.61887 11.0063,-2.71454 14.61462,-5.02284 3.78028,-2.41827 6.73614,-3.427629 9.41216,-3.214016 3.10511,0.247863 4.20795,0.548321 5.43829,1.481616 0.62231,0.47207 1.75168,1.22537 2.50966,1.67402 1.6689,0.9878 3.1832,2.83748 4.20734,5.13905 0.41922,0.94216 0.91147,1.71301 1.09391,1.71301 0.18243,0 0.4852,0.57022 0.67289,1.26715 0.18765,0.69693 0.56038,1.44906 0.8283,1.6714 0.26789,0.22233 0.48708,0.74285 0.48708,1.15671 0,0.41385 0.19661,0.94907 0.43689,1.18936 0.24031,0.24029 0.52237,0.80139 0.62682,1.24689 0.10444,0.44549 0.40476,1.69097 0.66734,2.76772 0.26258,1.07675 0.4851,2.39822 0.49448,2.9366 0.0179,1.02309 0.71931,3.91185 1.33235,5.48657 0.19668,0.5052 0.35758,1.49079 0.35758,2.19021 0,0.69942 0.30744,2.09334 0.68318,3.09759 0.41876,1.11928 0.60274,2.14629 0.47539,2.65376 -0.11429,0.45532 -0.0731,0.99734 0.0915,1.2045 0.16465,0.20716 0.38071,0.81714 0.48014,1.35551 0.0994,0.53838 0.39756,1.93326 0.66252,3.09975 0.26498,1.16648 0.48603,2.70986 0.49127,3.42974 0.005,0.71988 0.14878,1.67519 0.31903,2.12292 0.17023,0.44773 0.32384,2.23578 0.34136,3.97343 0.022,2.17379 0.22812,3.75084 0.66093,5.05542 0.34598,1.04284 0.71907,2.77704 0.82907,3.8538 0.18875,1.84726 0.98195,4.82871 1.47577,5.5469 0.84963,1.23574 2.03971,8.45661 1.77079,10.74453 -0.19279,1.64043 -0.16773,1.7066 0.97681,2.57958 1.56374,1.19272 1.81465,1.74073 2.15647,4.71001 0.15967,1.38714 0.61857,3.25622 1.01975,4.15351 0.5574,1.24671 0.75642,2.40091 0.84398,4.89433 0.14069,4.00737 0.585,6.30234 1.38818,7.17048 0.33607,0.36325 0.78385,1.31118 0.99507,2.10651 0.21121,0.79533 0.73823,1.96734 1.17119,2.60448 0.57283,0.84302 0.78749,1.6042 0.7884,2.79569 0.002,2.97179 0.8601,7.08682 1.8378,8.81563 0.53206,0.94083 1.01207,2.39111 1.13396,3.42603 0.11622,0.98702 0.37136,2.60215 0.56694,3.58917 0.19558,0.98703 0.5928,3.3363 0.88271,5.22062 0.28994,1.88432 0.95428,5.26141 1.47633,7.50464 1.13906,4.89469 1.4938,7.37552 1.58261,11.06784 0.0367,1.52788 0.22117,3.51693 0.40985,4.42014 0.18867,0.9032 0.38215,4.43195 0.42994,7.84166 0.14034,10.01408 -0.0268,8.90569 1.38571,9.18736 0.67297,0.1342 1.37041,0.20165 1.54986,0.1499 0.95936,-0.27666 4.81923,-0.0449 5.25343,0.31548 0.39411,0.32708 0.90812,0.33082 2.51529,0.0183 1.33324,-0.25928 5.23676,-0.37548 11.48232,-0.34181 14.03674,0.0757 26.59077,-0.28261 30.18169,-0.86139 1.70487,-0.27478 4.42122,-0.62954 6.03635,-0.78834 2.78779,-0.2741 5.43085,-0.99293 7.53308,-2.04876 0.52274,-0.26254 2.12507,-0.89397 3.56073,-1.40319 3.30949,-1.17384 6.95347,-1.25373 9.85478,-0.21606 1.04039,0.3721 2.58504,0.76807 3.43254,0.87993 1.17733,0.1554 1.68269,0.41072 2.14166,1.08204 0.81897,1.19786 1.50138,3.4594 1.28899,4.27163 -0.096,0.3671 0.17696,2.32337 0.60656,4.34728 0.42962,2.02391 0.78189,4.44346 0.7828,5.37678 0,0.93333 0.16271,2.4478 0.35954,3.36548 0.31123,1.45127 0.2834,1.75077 -0.21372,2.30009 -0.31436,0.34735 -0.78194,0.63155 -1.03909,0.63155 -0.36842,0 -0.41905,0.29405 -0.23884,1.38673 0.25079,1.52056 0.6579,2.20245 1.31491,2.20245 0.69169,0 0.86018,1.10127 0.9472,6.19065 0.0453,2.64685 0.17678,4.96539 0.29231,5.15231 0.11617,0.18797 -0.2258,0.49179 -0.76513,0.67982 -1.06701,0.37195 -1.06769,1.35505 0,1.35505 1.49899,0 3.02037,5.69999 2.24777,8.42156 -0.49158,1.73169 -0.60141,9.0043 -0.17837,11.80833 0.14896,0.98704 0.53887,2.67558 0.86649,3.75234 0.60709,1.99515 1.53577,8.08536 1.36831,8.97292 -0.23184,1.22838 -0.0103,13.63152 0.26539,14.86183 0.17006,0.75877 0.46269,3.41492 0.65029,5.90256 0.71112,9.42932 1.00512,12.02096 1.43866,12.6826 0.24548,0.37466 0.53004,1.48181 0.63233,2.46028 0.10226,0.9785 0.48955,3.17398 0.86057,4.87882 0.71396,3.28047 0.65173,5.46687 -0.18981,6.6683 -0.25242,0.3604 -0.45894,0.99695 -0.45894,1.41459 0,0.99482 -0.70985,2.32808 -1.76359,3.31253 -0.4657,0.43506 -0.84672,0.97319 -0.84672,1.19585 0,0.52933 -2.78216,2.9737 -4.24175,3.72677 -1.35289,0.698 -2.36056,1.76851 -4.0849,4.33963 -2.20047,3.28106 -2.97786,3.88179 -6.58028,5.08496 -3.62367,1.21025 -6.09829,1.41045 -9.40157,0.76058 -1.31775,-0.25925 -2.1561,-0.62721 -2.56451,-1.12552 -0.53536,-0.65322 -0.90021,-0.73971 -3.09975,-0.73459 -1.37112,0.003 -3.30054,0.17874 -4.28755,0.39015 -0.98702,0.21143 -4.21728,0.54207 -7.17835,0.73476 -2.96106,0.19271 -7.0723,0.55991 -9.13609,0.81603 -2.06377,0.25612 -5.73452,0.557 -8.15721,0.66866 -2.4227,0.11164 -5.57954,0.4159 -7.01522,0.67611 -5.15248,0.93386 -9.5482,1.40758 -14.68299,1.58241 -5.50568,0.18745 -9.02644,-0.10775 -19.40435,0.80592 -3.32425,0.29268 -7.14044,1.7253 -12.22638,2.0149 -4.58696,0.26119 -8.5999,-0.23764 -11.83713,-0.14482 -11.55769,0.33132 -15.99832,0.44682 -26.08277,0.43273 z m -75.45405,-17.81167 c 1.20461,-0.37786 2.06952,-0.40481 4.40489,-0.13726 3.46847,0.39735 13.34576,0.4182 17.93124,0.0379 2.32537,-0.19289 3.69042,-0.48194 4.69408,-0.99397 1.56427,-0.79804 2.80667,-0.78431 5.89434,0.065 0.98701,0.27151 2.45531,0.50923 3.26287,0.52829 0.80757,0.0191 1.99816,0.12055 2.64576,0.22556 0.68112,0.11046 2.05654,-0.0399 3.26291,-0.35667 1.69248,-0.44443 2.7617,-0.50028 5.67458,-0.29641 4.59911,0.3219 4.55817,0.32178 8.865,0.024 3.11091,-0.21518 4.15091,-0.14957 7.10456,0.44832 4.14956,0.83996 10.84858,1.3105 12.89742,0.90594 2.01296,-0.39749 10.60256,-0.47101 14.20858,-0.12163 1.87791,0.18195 3.53018,0.1644 4.56805,-0.0485 1.15357,-0.23666 2.49308,-0.22081 4.61031,0.0545 2.38163,0.30972 3.22801,0.3037 4.19117,-0.0297 0.66376,-0.22979 2.68803,-0.8085 4.49832,-1.28599 3.22911,-0.85173 3.36089,-0.86018 6.95592,-0.44609 2.25822,0.26011 4.5831,0.32968 6.05835,0.18128 2.17972,-0.21924 16.9442,-0.60604 19.97712,-0.52335 0.69783,0.0191 1.97659,-0.20052 2.84172,-0.48786 1.22196,-0.40587 2.64984,-0.5015 6.39899,-0.42862 3.44436,0.0669 5.80693,-0.0689 8.25209,-0.47439 1.88431,-0.3125 4.96774,-0.71335 6.85206,-0.89079 11.60066,-1.09232 14.25596,-1.43299 16.64072,-2.13498 2.04473,-0.60191 6.68416,-1.35945 10.90814,-1.78112 4.04218,-0.40354 4.75371,-0.66832 4.75371,-1.76893 0,-1.92927 0.96081,-2.33176 2.66665,-1.11709 0.65298,0.46494 1.08082,0.58468 1.30136,0.36417 0.40799,-0.40799 0.35547,-6.7244 -0.12133,-14.59786 -0.37672,-6.2202 -0.14429,-10.42181 0.91553,-16.55002 0.28793,-1.66501 0.45028,-3.83486 0.36076,-4.82187 -0.17086,-1.88405 0.58781,-10.89331 0.96932,-11.51061 0.12192,-0.19727 0.33859,-2.27653 0.48151,-4.62057 0.14291,-2.34401 0.41589,-5.8036 0.60663,-7.68791 0.19073,-1.88432 0.48209,-5.99556 0.64744,-9.13609 0.16538,-3.14052 0.39865,-6.95811 0.51836,-8.4835 0.12422,-1.58242 0.0273,-5.15553 -0.22565,-8.32037 -0.24384,-3.0508 -0.44546,-7.16203 -0.44805,-9.13608 -0.003,-2.00961 -0.14833,-3.69467 -0.33103,-3.82889 -0.8905,-0.65425 -4.868,-0.0189 -14.68299,2.34542 -7.15945,1.72463 -8.74301,1.93882 -16.88319,2.28365 -3.90198,0.16529 -7.23171,0.38533 -7.39942,0.48898 -0.31507,0.19473 -24.64975,0.22121 -28.413,0.0309 -3.86001,-0.19518 -13.03123,-0.22914 -13.32217,-0.0493 -0.15728,0.0972 -1.37208,0.33979 -2.69954,0.53908 -1.32749,0.19929 -3.24514,0.65949 -4.26145,1.02267 -2.00263,0.71564 -3.09485,0.69053 -7.43443,-0.1709 -2.59233,-0.51459 -3.28794,-1.04203 -3.27047,-2.47978 0.006,-0.45892 -0.0847,-1.31364 -0.20047,-1.89938 -0.11905,-0.60209 -0.0371,-1.4838 0.18853,-2.02854 0.31771,-0.76701 0.31209,-1.31517 -0.0275,-2.68733 -0.59955,-2.42242 -0.41115,-4.67433 0.5247,-6.27121 0.97067,-1.65635 2.44198,-5.51894 2.44198,-6.4109 0,-0.36593 0.37931,-1.46714 0.84292,-2.44711 0.69747,-1.47431 0.87447,-2.42239 1.02576,-5.49408 l 0.18282,-3.7123 -1.03045,-0.53287 c -0.56676,-0.29308 -2.16628,-0.74282 -3.55451,-0.99941 -8.69198,-1.60662 -14.43386,-2.43124 -17.85958,-2.56492 -2.1535,-0.084 -5.604,-0.32079 -7.66777,-0.52611 -3.96906,-0.39489 -18.20042,-0.26777 -24.6348,0.22004 -4.67509,0.35443 -5.87401,0.91871 -7.09367,3.33875 -0.49179,0.9758 -0.99147,2.51751 -1.1104,3.42603 -0.11894,0.90852 -0.42745,1.97696 -0.68558,2.37433 -0.25815,0.39736 -0.52868,1.33856 -0.60122,2.09156 -0.0725,0.753 -0.42615,1.86787 -0.78583,2.47749 -0.35969,0.60962 -0.65858,1.65062 -0.66424,2.31333 -0.006,0.66271 -0.44611,2.08218 -0.97886,3.15436 -0.53272,1.07218 -0.96861,2.18564 -0.96861,2.47435 0,0.92304 -0.40611,0.97654 -1.43955,0.18965 -0.55418,-0.42196 -1.37469,-0.88314 -1.82334,-1.02484 -0.97476,-0.30784 -5.39421,-4.67072 -6.64038,-6.55534 -0.7654,-1.15756 -0.93614,-1.89595 -1.28264,-5.54691 l -0.39967,-4.21159 -2.74611,0.0756 c -2.33024,0.0641 -2.92568,0.20002 -3.93183,0.89729 -0.65217,0.45194 -1.30955,0.82171 -1.46089,0.82171 -0.15133,0 -0.90841,0.51891 -1.68237,1.15312 -1.00598,0.82433 -1.71331,1.1466 -2.48077,1.13026 -1.93952,-0.0413 -5.81755,0.40998 -5.99533,0.69765 -0.0958,0.15502 -1.10776,0.28186 -2.24878,0.28186 -1.9025,0 -3.53236,0.48027 -5.39154,1.58873 -0.26919,0.16049 -1.51724,0.54076 -2.77347,0.84504 -1.2562,0.30428 -3.1297,0.98088 -4.16334,1.50355 -1.03363,0.52267 -2.50193,1.04566 -3.2629,1.16219 -0.76095,0.11652 -1.77999,0.41167 -2.26453,0.65587 -0.48454,0.2442 -1.59166,0.59641 -2.46029,0.7827 -0.86859,0.18628 -1.99999,0.70021 -2.51421,1.14206 -0.51423,0.44185 -1.02412,0.80337 -1.13311,0.80337 -0.10898,0 -0.3431,0.33036 -0.52025,0.73415 -0.19785,0.45099 -1.36742,1.25918 -3.03242,2.09544 -1.4907,0.74871 -3.4729,1.94184 -4.4049,2.6514 -0.932,0.70956 -2.28189,1.66553 -2.99971,2.12439 -1.17914,0.75373 -4.22109,2.88008 -5.9241,4.14101 -0.36357,0.26919 -1.06053,1.12491 -1.54881,1.90161 -1.26068,2.00537 -2.35997,3.17815 -4.59976,4.90734 l -1.95774,1.51141 -3.68619,-0.10183 c -2.0274,-0.056 -4.37668,-0.31136 -5.22063,-0.56747 -2.6491,-0.80391 -3.52803,-0.65105 -4.47381,0.77811 -0.67011,1.01264 -1.12741,1.32 -2.4014,1.61407 -1.8364,0.4239 -2.85474,0.24239 -3.88762,-0.69289 -0.59287,-0.53684 -1.33417,-0.71081 -3.63164,-0.85226 -1.58769,-0.0978 -3.45493,-0.0743 -4.14941,0.0521 -0.69448,0.12639 -2.14369,0.31517 -3.22045,0.41952 -3.50279,0.33945 -4.19319,0.43702 -7.83092,1.10671 -6.21739,1.14461 -11.80557,2.58295 -15.95447,4.10651 -1.2377,0.45451 -2.60317,0.82638 -3.03438,0.82638 -0.43122,0 -1.20579,0.21811 -1.72129,0.48469 -1.18019,0.61029 -3.16666,1.26902 -5.86172,1.94378 -1.15513,0.28921 -3.08132,1.02583 -4.28043,1.63693 -1.19911,0.6111 -3.29323,1.34099 -4.65361,1.62198 -2.35698,0.48685 -2.96921,0.68203 -5.32341,1.69708 -0.56216,0.24238 -1.91508,0.71862 -3.00649,1.05831 -3.28263,1.02167 -4.72897,2.05287 -5.77272,4.11575 -0.56027,1.10739 -1.34028,2.07696 -1.99776,2.48331 -2.07721,1.28378 -2.39448,2.00097 -2.39448,5.41238 0,3.35135 -0.59831,6.51179 -1.82556,9.64338 -0.64904,1.65614 -0.75441,2.36359 -0.59354,3.98545 0.12155,1.22573 0.0478,2.34225 -0.19491,2.95074 -0.86645,2.17198 -1.50513,5.57102 -1.22853,6.53804 0.31387,1.09734 0.36443,11.13296 0.0698,13.85499 -0.13259,1.22488 -0.0432,2.15713 0.28152,2.9366 0.62909,1.51003 1.01619,4.77222 0.59699,5.03128 -0.46005,0.28433 -0.80872,3.52032 -0.55634,5.16324 0.17377,1.13121 0.45299,1.55907 1.50564,2.30719 0.9822,0.69805 1.29232,1.13896 1.29232,1.83731 0,0.50536 0.38389,1.92743 0.85309,3.16014 0.62943,1.65368 0.9237,3.22613 1.12244,5.99747 0.14812,2.06589 0.35616,3.98244 0.46229,4.25902 0.41448,1.0801 2.09081,1.6605 5.32604,1.84396 1.74174,0.0988 3.31365,0.28267 3.4931,0.40865 0.17945,0.12598 0.84019,0.16509 1.4683,0.0869 3.42182,-0.42595 12.90204,-0.002 16.80388,0.75189 4.40891,0.85159 7.44432,1.48866 8.80979,1.84898 5.68868,1.50112 6.30255,1.56771 15.4987,1.68094 3.32,0.0409 7.09798,0.26439 8.39556,0.49667 1.7615,0.31535 2.76936,0.33438 3.97812,0.0752 0.91022,-0.19521 2.94844,-0.26501 4.656,-0.15944 2.83186,0.17507 3.23552,0.11766 5.97367,-0.8497 4.92008,-1.73822 6.03589,-1.97942 8.15721,-1.76323 1.07675,0.10973 2.30298,0.41638 2.72497,0.68146 0.48167,0.30257 2.60687,0.64566 5.71004,0.92182 2.71856,0.24193 5.43029,0.6138 6.02607,0.82639 0.60298,0.21517 1.76025,0.30552 2.61029,0.20382 2.33514,-0.27939 14.69273,0.39678 16.53638,0.90481 2.02214,0.55725 8.754,0.34212 10.96129,-0.35026 z M 347.86935,255.12412 c 1.72845,-0.37133 2.82079,-0.55005 4.07859,-0.66732 2.81835,-0.26277 7.83773,-1.20687 8.62848,-1.62294 2.22959,-1.17315 9.43108,-3.4802 12.16197,-3.89616 1.66574,-0.25372 3.41791,-0.61251 3.89366,-0.7973 0.47578,-0.1848 2.66004,-0.58105 4.8539,-0.88056 2.19389,-0.29952 4.96146,-0.8358 6.15019,-1.19175 1.18871,-0.35594 2.96885,-0.84326 3.95587,-1.08292 5.10625,-1.23986 9.24688,-2.86452 10.18701,-3.99708 0.88338,-1.06418 0.29324,-6.82844 -1.21039,-11.82281 -0.29716,-0.98703 -0.73445,-2.74899 -0.97177,-3.91547 -0.23733,-1.16648 -0.67425,-2.76747 -0.97094,-3.55774 -0.29672,-0.79028 -0.46374,-1.6342 -0.37119,-1.87538 0.0926,-0.24118 -0.12448,-0.93468 -0.48228,-1.54113 -0.39933,-0.67681 -0.71954,-1.96866 -0.82918,-3.34524 -0.0982,-1.23344 -0.38413,-2.75653 -0.63531,-3.38463 -0.5558,-1.38977 -1.64028,-5.81882 -1.9196,-7.8396 -0.11228,-0.81234 -0.43667,-1.91356 -0.72086,-2.44717 -0.55764,-1.04703 -2.07549,-6.63293 -2.07549,-7.63806 0,-0.33737 -0.4021,-1.38844 -0.89356,-2.3357 -0.62168,-1.19826 -0.95143,-2.43012 -1.08382,-4.04868 -0.11358,-1.38834 -0.48185,-2.92867 -0.91333,-3.82002 -0.39769,-0.82149 -0.80082,-2.33547 -0.89586,-3.36438 -0.095,-1.02892 -0.45469,-2.76979 -0.7992,-3.8686 -0.34453,-1.09882 -0.63056,-2.51175 -0.63565,-3.13986 -0.0108,-1.347 -0.96068,-5.25372 -1.94559,-8.00253 -0.38413,-1.0721 -1.12597,-3.3141 -1.64851,-4.98222 -0.52257,-1.66813 -1.82456,-4.85556 -2.89331,-7.0832 -1.06877,-2.22763 -2.12722,-4.55907 -2.35209,-5.18097 -0.2249,-0.62189 -0.76268,-1.32006 -1.19507,-1.55148 -0.43242,-0.23142 -1.13434,-1.01481 -1.55985,-1.74086 -0.42549,-0.72604 -1.27989,-1.81078 -1.89866,-2.41052 -0.95192,-0.92265 -1.27891,-1.05663 -2.12509,-0.87078 -0.55003,0.12081 -1.50283,0.56084 -2.11731,0.97783 -0.61449,0.41701 -1.68387,0.93793 -2.37642,1.15762 -0.69257,0.21968 -1.74138,0.60205 -2.33071,0.84971 -0.58932,0.24766 -1.33762,0.45029 -1.66287,0.45029 -0.32525,0 -1.05683,0.2322 -1.62572,0.51599 -0.56887,0.2838 -2.36382,0.78838 -3.98876,1.12129 -1.62494,0.33292 -3.12755,0.74181 -3.33913,0.90865 -1.07208,0.84539 -3.6082,2.02211 -4.35811,2.02211 -1.12163,0 -5.03215,1.12836 -7.28355,2.10162 -4.35893,1.88436 -6.07753,2.74206 -6.4899,3.23893 -0.24313,0.29296 -0.60761,0.53532 -0.80996,0.53859 -0.20236,0.003 -0.95523,1.21461 -1.67306,2.69188 l -1.30517,2.68594 0.0614,5.71005 c 0.0953,8.85168 1.30891,20.1756 2.37607,22.16957 0.18477,0.34526 0.33595,1.5097 0.33595,2.58766 0,1.07796 0.14284,2.04821 0.31742,2.15611 0.70882,0.43808 1.07201,3.2543 1.1629,9.01785 0.0566,3.58664 0.29911,7.19586 0.59199,8.8098 0.31559,1.73906 0.48745,4.58154 0.47225,7.81078 -0.0164,3.4799 0.10445,5.31655 0.38411,5.83909 0.22438,0.41928 0.46039,1.21816 0.52445,1.7753 0.0641,0.55713 0.3428,2.18761 0.61938,3.62328 0.2766,1.43567 0.64461,3.34446 0.81779,4.24175 0.38744,2.00732 1.53702,6.26564 1.8113,6.7094 0.1109,0.17949 0.33504,1.73591 0.49802,3.45873 0.16301,1.72282 0.43657,3.30134 0.60795,3.50783 0.17135,0.20649 0.45926,1.81907 0.63979,3.58352 0.1805,1.76445 0.41205,3.29193 0.51454,3.39441 0.2571,0.25712 2.83758,0.65179 3.43706,0.52568 0.26919,-0.0566 0.85651,-0.18182 1.30518,-0.2782 z m 73.56391,-15.66033 c 6.92288,-1.8665 10.27085,-2.53966 13.99898,-2.81472 2.17803,-0.16069 5.20816,-0.44678 6.73355,-0.63574 1.52542,-0.18896 5.85687,-0.34273 9.62551,-0.34171 3.87731,9.8e-4 8.55191,-0.19932 10.76752,-0.46155 2.15351,-0.25488 5.14688,-0.55016 6.65193,-0.65617 1.50506,-0.10602 3.00042,-0.33402 3.32301,-0.50667 0.32259,-0.17265 1.1046,-0.31391 1.73776,-0.31391 2.05978,0 4.49938,-1.16522 5.54613,-2.64896 0.92708,-1.31415 0.94084,-1.39676 0.75103,-4.51215 -0.10633,-1.74543 -0.49041,-4.55567 -0.85349,-6.24498 -1.75543,-8.16728 -2.54601,-13.25003 -2.67353,-17.1891 -0.064,-1.97839 -0.2781,-3.03763 -1.33412,-6.60172 -0.18611,-0.62811 -0.6047,-1.43567 -0.93019,-1.79459 -0.87991,-0.97026 -1.28785,-2.28977 -1.28785,-4.16555 0,-1.68199 -1.12163,-7.99072 -1.63784,-9.21228 -0.15165,-0.35892 -0.49359,-1.16649 -0.75984,-1.79459 -0.447,-1.0545 -0.57066,-1.56617 -1.07504,-4.44793 -0.10188,-0.58202 -0.025,-1.11701 0.17862,-1.24284 0.55492,-0.34296 0.42177,-3.50702 -0.23664,-5.62241 -0.32677,-1.04992 -1.06092,-2.55333 -1.63143,-3.34091 -0.57053,-0.78758 -1.03733,-1.57926 -1.03733,-1.75927 0,-0.18002 -0.44697,-1.27337 -0.9933,-2.42966 -1.29348,-2.73764 -1.48923,-3.75253 -0.8294,-4.30013 0.28466,-0.23625 0.51755,-0.82732 0.51755,-1.3135 0,-1.06687 -1.15369,-5.07896 -1.78699,-6.21449 -0.91475,-1.64014 -3.43362,-6.76006 -3.43362,-6.97923 0,-0.12405 -0.29664,-0.62676 -0.65919,-1.11713 -0.36676,-0.49606 -0.75138,-1.68437 -0.86701,-2.67867 -0.11433,-0.98289 -0.39218,-2.08074 -0.61746,-2.43966 -0.22529,-0.35892 -0.88576,-2.04746 -1.46769,-3.75232 -1.54343,-4.52172 -3.24702,-6.67061 -5.55326,-7.00479 -1.83346,-0.26568 -6.3473,0.45253 -10.73901,1.7087 -1.88432,0.53898 -4.38043,1.21474 -5.54689,1.50169 -1.16649,0.28695 -2.78162,0.68542 -3.58919,0.88549 -0.80756,0.20007 -2.56952,0.70694 -3.91546,1.12637 -1.34594,0.41944 -3.84205,0.91693 -5.54689,1.10553 -1.70487,0.18861 -4.12756,0.56035 -5.38376,0.82609 -1.25623,0.26574 -3.75234,0.64474 -5.54693,0.84221 -5.69139,0.62626 -7.47315,0.98211 -8.29608,1.65689 -0.76609,0.62816 -0.77793,0.7033 -0.36955,2.34485 0.23207,0.93274 0.86561,2.51571 1.4079,3.51771 0.83987,1.55182 1.28149,1.97266 2.97984,2.83967 1.09663,0.55981 2.61387,1.19362 3.37163,1.40845 0.75777,0.21483 1.63875,0.62553 1.95774,0.91265 0.31899,0.28713 0.98377,0.7304 1.47726,0.98505 0.49352,0.25464 0.8973,0.57907 0.8973,0.72094 0,0.14187 0.3879,0.61763 0.86202,1.05724 0.49437,0.45842 0.78355,1.00371 0.67806,1.2786 -0.10117,0.26362 -0.0184,0.64497 0.18422,0.84744 0.61536,0.61538 0.34272,6.09693 -0.373,7.49955 -0.33252,0.65163 -0.91893,1.88514 -1.30314,2.74115 -0.45199,1.00698 -1.01569,1.695 -1.59694,1.94907 -0.49411,0.21599 -1.56857,0.94721 -2.38769,1.62495 -0.81911,0.67773 -1.58997,1.23223 -1.71301,1.23223 -0.12305,0 -0.50118,0.25696 -0.84029,0.57101 -3.01021,2.78781 -2.91655,2.64521 -3.12226,4.75401 -0.35227,3.61127 -0.0891,5.88037 0.82482,7.11078 1.00519,1.35336 1.55573,3.63527 1.60054,6.63405 0.0186,1.24629 0.17744,2.439 0.35295,2.65047 0.18092,0.218 0.29315,2.34515 0.25913,4.91237 -0.0628,4.7446 -0.0625,4.74612 1.63009,7.37708 0.71662,1.11391 0.80533,1.69823 1.04033,6.85206 0.19624,4.30354 0.41791,6.12601 0.93854,7.71612 0.37488,1.145 0.68162,2.39891 0.68162,2.78647 0,1.38607 1.004,4.60325 1.59066,5.09703 0.97079,0.81711 1.34068,1.7865 1.49793,3.92571 0.11421,1.55376 0.30127,2.12463 0.81388,2.48366 0.95804,0.67104 0.88749,2.62143 -0.15016,4.15046 -0.85878,1.26549 -1.10367,3.36489 -0.46682,4.00175 0.36739,0.36739 0.56348,1.10743 0.60501,2.28316 0.0211,0.59808 0.8754,1.20021 1.96951,1.38816 0.0825,0.0142 1.47735,-0.33212 3.09972,-0.76954 z"
       id="path2" /><path
       style="opacity:1;fill:#000000;stroke-width:0.244716"
       d="m 494.42945,412.96094 c 1.94068,1.83197 5.58504,5.33634 8.09862,7.78744 4.54187,4.42898 8.01699,7.45299 8.56479,7.45299 0.66788,0 2.47481,2.22597 3.67924,4.5324 0.71308,1.36556 2.04465,3.29038 2.95906,4.2774 0.91443,0.98703 1.88987,2.23509 2.1677,2.77347 0.2778,0.53837 0.60831,1.05228 0.73449,1.14199 0.12618,0.0897 0.78833,0.96364 1.47141,1.94202 0.6831,0.97838 1.50689,2.06318 1.83065,2.41068 0.32373,0.3475 0.80942,1.27987 1.07929,2.07189 0.2699,0.79205 0.9125,1.98311 1.42802,2.6468 0.51552,0.6637 1.42947,2.08768 2.031,3.16443 0.60152,1.07676 1.41593,2.39823 1.8098,2.9366 0.39388,0.53838 0.8986,1.56619 1.12161,2.28404 0.22299,0.71783 0.81584,2.03929 1.31741,2.9366 0.50157,0.89727 1.36801,3.04057 1.92545,4.76286 0.9522,2.94208 1.01149,3.41559 0.98022,7.83093 -0.0307,4.34203 -0.37317,7.15874 -0.96803,7.96239 -0.13283,0.17945 -0.34248,0.79861 -0.46589,1.3759 -0.12339,0.57726 -0.57917,1.57242 -1.01281,2.21143 -0.43366,0.63902 -1.03084,1.635 -1.32707,2.21328 -1.33395,2.60408 -5.33411,6.39234 -8.9312,8.45812 -1.69283,0.97216 -7.31105,3.19364 -8.10839,3.20613 -0.29605,0.005 -1.56608,0.37948 -2.82229,0.83301 -2.4998,0.90247 -7.89301,2.17384 -12.23582,2.88442 -1.52539,0.24959 -4.72952,0.90827 -7.12027,1.4637 -2.39074,0.55546 -4.85633,1.00992 -5.47908,1.00992 -0.62276,0 -2.19061,0.20708 -3.48413,0.46019 -2.86054,0.55969 -12.25961,0.83035 -16.66042,0.47972 v 0 c -1.76815,-0.14086 -3.53011,-0.46031 -3.91546,-0.70985 -0.38538,-0.24956 -1.4463,-0.54033 -2.35758,-0.64617 -1.56775,-0.18207 -5.41283,-1.87485 -8.94749,-3.93913 -0.80757,-0.47162 -1.70607,-0.85927 -1.9967,-0.86143 -0.68476,-0.005 -3.28133,-2.05292 -7.04778,-5.55834 -2.06078,-1.91797 -3.33343,-3.41093 -4.04105,-4.74055 -0.56811,-1.06748 -1.30677,-2.29104 -1.64149,-2.71902 -0.3347,-0.42799 -0.60856,-0.96061 -0.60856,-1.18362 0,-0.22304 -0.20967,-0.57951 -0.46599,-0.79222 -0.65388,-0.54271 -2.29615,-5.23003 -2.92196,-8.33982 -0.39189,-1.94765 -0.54036,-4.80537 -0.58468,-11.25696 -0.0643,-9.35849 0.033,-10.09223 2.18402,-16.47759 0.42314,-1.2562 0.98871,-3.33842 1.25677,-4.62715 0.26809,-1.28872 0.70571,-2.68361 0.97248,-3.09975 0.26684,-0.41611 0.65877,-1.41488 0.87104,-2.21943 0.21224,-0.80455 0.73811,-2.15786 1.16857,-3.00732 0.43046,-0.84949 0.78378,-1.73291 0.78515,-1.96319 0.003,-0.49722 4.33072,-9.12009 5.18938,-10.33964 0.32785,-0.46562 0.92484,-1.50733 1.32659,-2.3149 0.40177,-0.80756 1.27269,-2.12903 1.93539,-2.93659 2.5277,-3.08032 12.34296,-4.22797 15.5765,-8.83848 2.73152,-3.89471 6.71832,-8.72989 12.41038,-9.77446 1.04611,-0.19198 2.01311,1.02022 3.18853,1.00806 3.20897,-0.0332 4.98341,2.95392 7.25342,5.07723 3.0857,2.88626 6.28738,5.29603 7.82716,6.74957 z m 1.36285,75.72662 c 7.48074,-1.79351 11.91344,-3.6698 15.42867,-6.53075 2.3969,-1.95076 3.43006,-3.78195 3.77445,-6.68982 0.35903,-3.03145 -0.88739,-9.30838 -2.91445,-14.67699 -0.44883,-1.18861 -0.91152,-2.67013 -1.02822,-3.29227 -0.11673,-0.62214 -0.57704,-1.4739 -1.02294,-1.89279 -0.4459,-0.4189 -0.81072,-0.94629 -0.81072,-1.17199 0,-0.22568 -0.41795,-0.70794 -0.9288,-1.07169 -0.51082,-0.36375 -1.42851,-1.48846 -2.03927,-2.49936 -2.08393,-3.44904 -3.50872,-5.52942 -4.68153,-6.83552 -0.64455,-0.71783 -1.4936,-1.96588 -1.88678,-2.77345 -0.72299,-1.48503 -1.69462,-2.61876 -6.12548,-7.14753 -1.34594,-1.37567 -2.8714,-3.06363 -3.38988,-3.75101 -0.51853,-0.68739 -1.42974,-1.53709 -2.02489,-1.88824 -0.59512,-0.35114 -1.16059,-0.88474 -1.25657,-1.18577 -0.096,-0.301 -0.83663,-1.35382 -1.64591,-2.33956 -0.80928,-0.98577 -1.47141,-1.96649 -1.47141,-2.1794 0,-0.68934 -3.73476,-4.34871 -4.4383,-4.34871 -1.46061,0 -3.04647,3.15897 -3.54374,7.05895 -0.31045,2.43473 -1.19644,5.0599 -2.11694,6.2724 -1.64819,2.17103 -2.61411,3.81092 -2.62192,4.45139 -0.0164,1.33478 -0.67936,2.99961 -1.56619,3.93257 -0.50284,0.52898 -1.48474,1.76933 -2.18206,2.75634 -0.69729,0.98704 -2.09347,2.749 -3.10259,3.91547 -1.00909,1.16649 -2.26365,2.7082 -2.78786,3.42603 -0.52418,0.71785 -1.69104,2.12169 -2.59301,3.11964 -2.4794,2.74332 -4.66489,7.14864 -5.02467,10.12835 -0.16031,1.32764 -0.51721,3.22143 -0.79317,4.20847 -0.28818,1.03079 -0.49756,3.05675 -0.49196,4.76025 0.007,2.16329 -0.13968,3.25463 -0.54258,4.03373 -0.30375,0.58747 -0.63357,1.85571 -0.73295,2.81833 -0.16893,1.63659 -0.10888,1.83439 0.92463,3.04581 0.60793,0.71254 1.42907,1.72234 1.82478,2.24395 1.44733,1.90786 5.93854,3.44204 9.79385,3.3455 1.1164,-0.0279 2.3043,0.0961 2.63978,0.27565 0.99404,0.53199 7.199,1.05979 15.5603,1.3236 8.90313,0.28088 9.216,0.26184 13.81833,-0.84158 z"
       id="path1"
       sodipodi:nodetypes="ssssssssssssssssssssssssssssssssssssssssssssssssssssssssssssssssssssssssssscssssssssssssssss" /></g></svg>
