<?xml version="1.0" encoding="UTF-8" standalone="no"?>
<!-- Created with Inkscape (http://www.inkscape.org/) -->

<svg
   version="1.1"
   id="svg1"
   width="377.95224"
   height="239.17889"
   viewBox="0 0 377.95225 239.17889"
   sodipodi:docname="cat.svg"
   inkscape:version="1.4.3 (0d15f75, 2025-12-25)"
   xmlns:inkscape="http://www.inkscape.org/namespaces/inkscape"
   xmlns:sodipodi="http://sodipodi.sourceforge.net/DTD/sodipodi-0.dtd"
   xmlns="http://www.w3.org/2000/svg"
   xmlns:svg="http://www.w3.org/2000/svg">
  <defs
     id="defs1" />
  <sodipodi:namedview
     id="namedview1"
     pagecolor="#ffffff"
     bordercolor="#000000"
     borderopacity="0.25"
     inkscape:showpageshadow="2"
     inkscape:pageopacity="0.0"
     inkscape:pagecheckerboard="0"
     inkscape:deskcolor="#d1d1d1"
     inkscape:zoom="0.31537356"
     inkscape:cx="1257.2392"
     inkscape:cy="878.32346"
     inkscape:window-width="1920"
     inkscape:window-height="1122"
     inkscape:window-x="-8"
     inkscape:window-y="-8"
     inkscape:window-maximized="1"
     inkscape:current-layer="g1" />
  <g
     inkscape:groupmode="layer"
     inkscape:label="Image"
     id="g1"
     transform="translate(-121.76242,-67.126216)">
    <path
       style="fill:#000000;stroke-width:0.208967"
       d="m 235.9079,305.51967 c -0.53635,-0.45703 -1.40926,-1.23697 -1.93981,-1.73323 -0.53055,-0.49623 -1.34253,-1.02763 -1.80441,-1.18087 -0.55568,-0.18437 -1.19236,-0.81196 -1.88199,-1.85514 -0.57321,-0.86707 -1.4244,-1.84865 -1.89153,-2.18128 -0.46714,-0.33263 -1.03779,-0.96921 -1.26813,-1.41464 -0.24452,-0.47285 -0.73554,-0.88682 -1.17994,-0.99479 -0.41863,-0.1017 -1.00846,-0.35428 -1.31073,-0.56128 -0.30227,-0.20701 -0.97016,-0.37635 -1.4842,-0.37635 -0.6615,0 -1.17261,-0.23802 -1.74905,-0.81445 -1.14765,-1.14765 -1.03352,-2.2209 0.39505,-3.71499 0.49888,-0.52177 0.49602,-0.55219 -0.10447,-1.11164 -0.33957,-0.31636 -0.85836,-1.11994 -1.15287,-1.7857 -0.29451,-0.66579 -0.65209,-1.21053 -0.79463,-1.21053 -0.4253,0 -1.15555,-1.31131 -1.83343,-3.29231 -0.35048,-1.02421 -0.94751,-2.71456 -1.32673,-3.75634 -0.37922,-1.04177 -0.77285,-2.42095 -0.87472,-3.06484 -0.10188,-0.64388 -0.41818,-1.94441 -0.7029,-2.89005 -0.40905,-1.35855 -0.45414,-1.88761 -0.21491,-2.52141 0.23487,-0.62226 0.16066,-1.76734 -0.33096,-5.10692 -0.34854,-2.36765 -0.74027,-5.30786 -0.8705,-6.53379 -0.43451,-4.09022 -0.58394,-5.01271 -0.8688,-5.36348 -0.1948,-0.23987 -1.22446,-0.34828 -3.30793,-0.34828 -2.08868,0 -3.36083,-0.13434 -4.10969,-0.43397 -0.94285,-0.37726 -1.7832,-0.39631 -6.43005,-0.14581 -2.93999,0.15849 -5.45715,0.3572 -5.59368,0.44158 -0.13653,0.0844 -0.78753,0.0247 -1.44667,-0.13251 -1.55286,-0.37049 -8.24201,-1.1224 -9.9851,-1.1224 -1.47447,0 -1.83482,-0.27034 -1.41242,-1.05961 0.25471,-0.47593 0.0653,-0.53625 -2.56437,-0.81683 -2.96439,-0.31629 -4.05207,-0.71921 -10.03559,-3.71759 -1.19955,-0.6011 -2.45335,-1.09497 -2.78622,-1.09749 -0.33288,-0.003 -1.10675,-0.31154 -1.71972,-0.68671 -0.61297,-0.37517 -1.55332,-0.89174 -2.08967,-1.14793 -2.63316,-1.25773 -3.29446,-1.66655 -4.41065,-2.72665 -1.37962,-1.31032 -1.99766,-2.34587 -1.99766,-3.34718 0,-0.3831 -0.1928,-0.80444 -0.42845,-0.93632 -0.37306,-0.20878 -0.35719,-0.30425 0.12284,-0.73867 0.46212,-0.41822 0.52511,-0.73091 0.38947,-1.9334 -0.089,-0.78897 -0.33234,-1.77306 -0.54077,-2.18687 -0.20843,-0.4138 -0.37896,-1.39374 -0.37896,-2.17764 0,-0.78389 -0.14754,-1.69912 -0.32787,-2.03385 -0.18033,-0.33472 -0.48697,-2.05045 -0.68143,-3.81273 -0.73923,-6.69942 -0.96687,-8.54785 -1.25084,-10.15689 -0.23804,-1.34875 -0.22005,-1.71339 0.0962,-1.95035 0.5989,-0.44872 0.66551,-4.76404 0.0786,-5.09249 -0.25469,-0.14253 -0.5368,-0.86549 -0.67237,-1.72311 -0.26617,-1.6838 -0.55802,-1.95733 -2.1182,-1.98523 -0.61297,-0.011 -2.43098,-0.12288 -4.04002,-0.24871 -1.65483,-0.12941 -3.0405,-0.12261 -3.19022,0.0156 -0.14559,0.13445 -0.49432,0.24445 -0.77496,0.24445 -0.66898,0 -0.86211,0.56098 -0.51104,1.48437 0.35742,0.94009 -0.002,0.95764 -0.98324,0.048 -0.63906,-0.59225 -1.04798,-0.70457 -2.73093,-0.75007 -1.08862,-0.0294 -2.29277,-0.0211 -2.67588,0.0185 -0.3831,0.0396 -1.46984,0.0577 -2.41496,0.0403 -1.45629,-0.0269 -1.7439,0.0485 -1.88549,0.49463 -0.0919,0.28954 -0.47207,0.81295 -0.84483,1.16314 -0.6483,0.60905 -0.72373,0.61831 -1.7366,0.21315 -0.99764,-0.39906 -1.06037,-0.49557 -1.08511,-1.66946 -0.0204,-0.96563 -0.23036,-1.49989 -0.93353,-2.37489 -0.499,-0.62094 -1.20812,-1.20449 -1.57582,-1.29677 -0.3677,-0.0923 -0.66855,-0.35658 -0.66855,-0.58732 0,-0.23074 -0.31531,-0.5394 -0.7007,-0.68593 -0.64218,-0.24415 -0.68574,-0.36575 -0.52162,-1.45587 0.0985,-0.6542 0.28843,-1.30857 0.42208,-1.45416 0.13365,-0.14557 0.243,-0.6073 0.243,-1.02605 0,-0.52336 0.17891,-0.81816 0.57234,-0.94302 0.56003,-0.17775 0.55651,-0.2024 -0.16389,-1.1469 -0.84306,-1.1053 -0.74839,-1.91929 0.18862,-1.62189 0.54749,0.17376 0.58467,0.11468 0.42627,-0.67735 -0.15593,-0.77966 -0.10523,-0.86772 0.4996,-0.86772 0.87581,0 1.14871,-0.47087 0.61572,-1.06239 -0.55341,-0.61419 -0.85939,-1.87401 -0.56708,-2.3349 0.12701,-0.20026 0.23285,-0.94916 0.2352,-1.66422 0.003,-0.90634 0.19413,-1.55693 0.63116,-2.14804 0.7512,-1.01606 0.77685,-1.35747 0.15373,-2.04602 -0.32568,-0.35987 -0.44979,-0.90318 -0.39815,-1.74294 0.0611,-0.99385 -0.032,-1.27734 -0.502,-1.5289 -0.3981,-0.21306 -0.57836,-0.58658 -0.5813,-1.20454 -0.002,-0.49264 -0.12065,-1.07974 -0.2629,-1.30466 -0.19887,-0.31443 -0.0568,-0.4754 0.61471,-0.69655 0.73814,-0.24309 0.93005,-0.50328 1.23969,-1.68073 0.2015,-0.76621 0.35235,-1.70656 0.33522,-2.08967 -0.0737,-1.64883 0.0362,-1.96586 0.79411,-2.28933 0.42142,-0.17986 1.1375,-0.71004 1.59129,-1.17817 0.65347,-0.67411 0.82732,-1.10493 0.83587,-2.07131 0.009,-0.99631 0.15011,-1.32483 0.77021,-1.79071 0.71302,-0.53571 0.79096,-0.54202 1.27574,-0.1033 0.65651,0.59414 0.78973,0.58688 1.65021,-0.09 0.50085,-0.39397 1.12601,-0.55613 2.13361,-0.55344 1.61165,0.004 2.679,0.23052 2.679,0.5678 0,0.12539 0.12921,0.56785 0.28714,0.98324 l 0.28715,0.75525 0.63633,-0.5978 c 0.81962,-0.76999 1.07043,-0.75417 2.64047,0.16657 1.16556,0.68352 1.58338,0.76614 3.95033,0.78107 2.11905,0.0134 2.90779,0.13876 3.95508,0.62874 0.71949,0.33662 1.4887,0.61204 1.70935,0.61204 0.80457,0 1.28383,-1.30699 1.47464,-4.02154 0.16262,-2.31339 0.12303,-2.74103 -0.29666,-3.20478 -0.58816,-0.64991 -0.34796,-1.68959 0.39034,-1.68959 0.30781,0 0.57622,-0.27078 0.68058,-0.68658 0.12708,-0.5063 0.4598,-0.76398 1.2672,-0.98139 0.74018,-0.19931 1.15742,-0.4959 1.28792,-0.91551 0.10617,-0.34137 0.67254,-1.06661 1.25861,-1.61164 0.78809,-0.73291 1.02551,-1.14415 0.91174,-1.57923 -0.11988,-0.45842 -0.0121,-0.60868 0.48816,-0.68077 0.4143,-0.0597 0.70152,-0.33956 0.80981,-0.78906 l 0.16781,-0.69656 0.341,0.6269 c 0.56667,1.04176 0.97174,0.76368 0.76558,-0.52556 l -0.18429,-1.15247 0.96057,0.15588 c 1.40397,0.22783 1.91967,-0.24894 1.57253,-1.45382 -0.4567,-1.58517 -0.92326,-9.44507 -0.73452,-12.3742 0.19391,-3.0095 0.79037,-6.79205 1.41283,-8.95962 0.86692,-3.01892 1.28075,-5.63479 1.00581,-6.35793 -0.21176,-0.55698 -0.15505,-0.85324 0.26572,-1.38816 0.52351,-0.66554 0.52374,-0.69019 0.0108,-1.15442 -0.91471,-0.8278 -0.92767,-1.70018 -0.0552,-3.71406 0.4465,-1.03059 0.90001,-2.18724 1.0078,-2.57035 0.33351,-1.1853 1.82584,-4.81157 2.52258,-6.12969 1.19091,-2.25304 2.59757,-5.300995 3.48206,-7.544955 0.59815,-1.517531 2.25269,-3.801581 2.94675,-4.067917 0.59355,-0.227768 2.67175,1.292848 4.02236,2.943148 0.68283,0.834351 1.80572,2.183718 2.49531,2.998595 1.97316,2.331639 2.6764,3.250039 3.06246,3.999399 0.19736,0.3831 0.90554,1.28674 1.57373,2.00807 0.66818,0.72134 1.21488,1.4921 1.21488,1.7128 0,0.22071 0.49612,1.0097 1.10249,1.75333 0.60637,0.74362 1.64245,2.03446 2.30241,2.86852 0.65995,0.83406 1.3236,1.52365 1.47476,1.53242 0.15117,0.009 0.28767,-0.34135 0.30335,-0.77804 0.0276,-0.76967 0.56815,-1.39031 0.98595,-1.13209 0.11286,0.0697 0.58504,0.79072 1.04931,1.60217 0.97872,1.71063 1.55196,2.2712 2.56897,2.51219 0.40262,0.0954 0.9286,0.47347 1.16885,0.84014 0.93912,1.43328 2.47724,5.95875 2.8458,8.37295 0.41266,2.70306 1.70941,6.16102 2.5457,6.78848 0.36327,0.27256 0.95788,0.33299 2.07631,0.21103 0.99518,-0.10853 1.83957,-0.0468 2.3133,0.16901 0.61919,0.28213 0.87765,0.26219 1.51998,-0.11724 0.53301,-0.31486 2.02452,-0.55221 4.79156,-0.7625 6.70719,-0.50973 7.98754,-0.68423 8.52596,-1.16203 0.27879,-0.2474 0.75226,-0.49478 1.05216,-0.54974 0.40407,-0.0741 0.84273,-0.85711 1.69398,-3.02395 1.81678,-4.62457 7.18068,-15.15989 8.83847,-17.35976 0.36825,-0.48867 1.26958,-1.88215 2.00294,-3.09663 0.73337,-1.21447 2.278,-3.34593 3.43251,-4.73657 1.15451,-1.390636 2.34805,-3.092647 2.65231,-3.782237 0.30426,-0.68959 1.03766,-1.783863 1.62977,-2.431721 0.59212,-0.647855 1.07658,-1.35523 1.07658,-1.571943 0,-0.625331 2.47897,-3.214581 3.64929,-3.811633 1.91918,-0.979096 4.20655,-0.594299 6.29334,1.058707 0.62873,0.498037 1.442,0.905522 1.80726,0.905522 1.00672,0 1.83649,0.723919 2.63422,2.298176 0.60682,1.197486 0.73506,1.869078 0.80767,4.229593 0.0935,3.039306 0.70591,6.429536 1.25425,6.943216 0.26944,0.25241 0.30498,-0.006 0.1667,-1.2116 -0.0967,-0.84284 -0.25782,-1.83414 -0.35809,-2.2029 -0.12234,-0.44988 -0.0824,-0.6087 0.12144,-0.48273 0.16707,0.10326 0.45061,0.90649 0.63008,1.78496 0.51911,2.54087 1.84451,6.48414 4.09555,12.18487 2.70053,6.83906 5.10202,14.42869 4.69445,14.83626 -0.0774,0.0774 0.0389,0.57087 0.2585,1.0965 0.31659,0.7577 0.32983,1.06695 0.064,1.49271 -0.2693,0.43121 -0.21162,1.15537 0.29279,3.67584 0.34548,1.72635 0.62518,3.49186 0.62156,3.92335 -0.004,0.4315 0.12843,1.03683 0.29346,1.34519 0.22601,0.4223 0.19607,0.7798 -0.12132,1.44864 -0.23175,0.48838 -0.55083,1.22849 -0.70907,1.64468 -0.19344,0.50879 -0.42627,0.70353 -0.71068,0.59439 -0.49494,-0.18993 -0.98796,0.87872 -0.98796,2.14145 0,0.66886 -0.11733,0.81773 -0.64443,0.81773 -0.85966,0 -2.1418,1.37379 -2.1418,2.2949 0,0.49532 -0.27026,0.92444 -0.83586,1.32719 -0.45973,0.32735 -0.83587,0.71992 -0.83587,0.87238 0,0.15245 -0.30264,0.92754 -0.67253,1.72241 -0.36989,0.79488 -0.73944,1.65773 -0.82122,1.91745 -0.0851,0.27009 -0.56813,0.5509 -1.12859,0.65604 -0.53894,0.10111 -1.13078,0.36563 -1.31519,0.58783 -0.72673,0.87566 -1.33679,0.98661 -2.10451,0.38272 -0.40285,-0.31688 -0.94248,-0.50949 -1.19917,-0.42802 -0.68383,0.21704 -1.28503,-0.61516 -1.81088,-2.50666 -0.25561,-0.91945 -0.63162,-2.04787 -0.83557,-2.5076 -0.20396,-0.45972 -0.4568,-1.71352 -0.56189,-2.78622 -0.26471,-2.7022 -0.896,-5.47553 -1.80754,-7.94073 -1.11663,-3.01989 -1.95777,-5.64815 -1.96171,-6.12969 -0.004,-0.44769 -0.71261,-1.92182 -2.94792,-6.1297 -0.77335,-1.4558 -1.89762,-3.71185 -2.49837,-5.01346 -1.24655,-2.70083 -2.80815,-5.15625 -3.27925,-5.15625 -0.65818,0 -1.91051,4.31671 -2.38944,8.23622 -0.12284,1.00534 -0.37769,2.11628 -0.56632,2.46874 -0.18863,0.35246 -0.58589,1.51746 -0.8828,2.58889 -0.68464,2.4706 -1.45697,3.98372 -2.58884,5.07192 -1.26095,1.2123 -2.81839,4.15516 -3.48695,6.58878 -0.35751,1.30139 -0.77765,2.21396 -1.12982,2.45408 -0.36675,0.25005 -0.56065,0.69283 -0.56065,1.28027 0,1.01963 -0.7143,1.82024 -1.62402,1.82024 -0.68445,0 -0.78411,0.5494 -0.25668,1.41504 0.30064,0.49342 0.26088,0.64326 -0.29063,1.09544 -0.3514,0.2881 -1.22906,0.6092 -1.95036,0.71355 -0.7213,0.10435 -1.46644,0.31321 -1.65589,0.46414 -0.40577,0.32327 -1.49474,0.19255 -3.95837,-0.47518 -1.32553,-0.35926 -2.23673,-0.43465 -3.48278,-0.28816 -0.92816,0.10913 -2.8839,0.24397 -4.34608,0.29966 -1.62479,0.0619 -3.37874,0.3237 -4.51076,0.67335 -1.28869,0.39804 -2.19686,0.51699 -2.98494,0.39097 -0.62299,-0.0996 -1.72765,-0.0309 -2.45481,0.15282 -0.72715,0.18368 -1.8863,0.46739 -2.57589,0.63047 -0.68959,0.16309 -1.81032,0.59754 -2.49051,0.96545 -0.68019,0.3679 -1.94536,0.74299 -2.81149,0.83352 -1.56464,0.16353 -1.57865,0.15833 -2.17641,-0.80887 -0.72763,-1.17732 -0.74973,-1.68549 -0.11968,-2.75207 0.38465,-0.65117 0.41502,-0.91297 0.15042,-1.29679 -2.00997,-2.91566 -3.77945,-6.32195 -4.55423,-8.76702 -1.05607,-3.33273 -2.92824,-7.7043 -3.96873,-9.2671 -0.68689,-1.03168 -3.24763,-4.61393 -5.17846,-7.24418 -0.44997,-0.61297 -1.16224,-1.77847 -1.58282,-2.59 -0.86585,-1.6707 -2.65842,-3.53981 -3.76471,-3.92546 -0.64304,-0.22417 -0.7842,-0.16749 -1.05317,0.42284 -0.41264,0.90563 -0.58319,3.2888 -0.71519,9.99333 -0.0603,3.06485 -0.18826,6.45011 -0.28426,7.5228 -0.096,1.0727 -0.21114,3.64299 -0.25585,5.71176 -0.0447,2.06877 -0.10163,3.91056 -0.12647,4.09286 -0.0248,0.1823 -0.51533,0.37037 -1.08999,0.41793 l -1.04483,0.0865 -0.0844,1.63028 c -0.083,1.60396 -0.10158,1.63703 -1.14799,2.04808 -1.03551,0.40675 -1.06755,0.46146 -1.21354,2.07142 -0.0825,0.9095 -0.3495,1.95819 -0.5934,2.33042 -0.2439,0.37224 -0.44345,0.84409 -0.44345,1.04856 0,0.20447 -0.43763,0.53001 -0.9725,0.72343 -0.87813,0.31753 -0.97058,0.4514 -0.95262,1.37942 0.0244,1.25926 -0.41652,2.75087 -1.00542,3.4016 -0.27687,0.30593 -0.55317,1.48376 -0.74574,3.17902 l -0.30591,2.69303 1.62103,1.4448 c 0.89157,0.79464 2.1637,1.78896 2.82696,2.20958 0.66327,0.42063 1.20593,0.88382 1.20593,1.02932 0,0.14549 -0.31345,0.51109 -0.69655,0.81244 -0.95393,0.75036 -0.87539,1.23217 0.32979,2.02311 0.56449,0.37047 0.99806,0.79897 0.9635,0.95221 -0.0353,0.15646 -0.74699,0.24543 -1.62327,0.20292 -1.91684,-0.093 -3.04908,0.48208 -2.60027,1.32069 0.37707,0.70456 0.36109,2.3272 -0.0267,2.71503 -0.37173,0.37173 -0.095,0.91587 0.46582,0.91587 0.22082,0 0.40149,0.18807 0.40149,0.41793 0,0.22987 -0.1429,0.41794 -0.31756,0.41794 -0.99945,0 -1.54163,3.44567 -0.65762,4.17933 0.22987,0.19077 0.41794,0.61479 0.41794,0.94227 0,0.32748 0.25076,0.75202 0.55724,0.94343 0.66211,0.41349 0.71615,0.97903 0.13931,1.45777 -0.4862,0.40351 -0.57689,2.65509 -0.11835,2.93848 0.19194,0.11863 0.0774,0.42161 -0.31875,0.84332 -0.60893,0.64818 -0.61377,0.71572 -0.31874,4.44822 0.18911,2.39242 0.44932,4.01858 0.70564,4.40978 0.43291,0.66069 1.243,11.30143 0.90236,11.8526 -0.0968,0.15669 0.0114,1.01034 0.24051,1.89701 0.22912,0.88667 0.46554,2.7302 0.52537,4.09672 0.10714,2.44693 0.12381,2.49763 1.0995,3.34347 1.9388,1.68079 3.4981,2.63234 8.16173,4.98066 5.46638,2.75254 6.30389,3.11446 8.55975,3.69901 0.91491,0.23708 1.99331,0.6665 2.39643,0.95427 0.89756,0.64072 4.84082,1.0765 11.45991,1.26646 20.87337,0.59906 21.36344,0.62433 22.38862,1.15447 1.25237,0.64763 3.70784,1.18134 5.48754,1.19277 0.8505,0.005 1.69681,0.16038 1.8807,0.34427 0.46754,0.46754 0.4268,4.38056 -0.13193,12.66963 -0.25645,3.80463 -0.45405,7.63845 -0.43912,8.51958 0.0261,1.54004 0.002,1.59581 -0.61666,1.44048 -0.55937,-0.14039 -0.70698,0.004 -1.12551,1.09973 -0.33556,0.87865 -0.42168,1.58276 -0.28389,2.32091 0.10879,0.58279 0.18433,1.87458 0.16787,2.87066 -0.034,2.05381 0.53271,3.29025 1.88476,4.11249 0.43891,0.26689 1.14444,0.89701 1.56787,1.40022 0.61448,0.73026 0.7349,1.08972 0.59664,1.78102 -0.10534,0.52671 -0.0369,1.03038 0.17474,1.28536 0.32188,0.38782 0.77904,3.62484 0.83456,5.90926 0.013,0.53636 0.1841,1.10057 0.38013,1.2538 0.19604,0.15326 0.59407,0.91432 0.88452,1.6913 0.70557,1.88743 2.54076,4.32137 4.31692,5.72533 l 1.44901,1.14537 2.09381,-0.12216 c 1.79664,-0.10482 2.37062,-0.27772 4.04416,-1.21824 2.87488,-1.61567 4.09585,-2.5864 5.02209,-3.99283 2.6275,-3.9897 3.46478,-10.50141 2.45721,-19.11024 -0.23316,-1.99214 -0.52844,-5.00126 -0.65618,-6.68692 -0.12774,-1.68567 -0.34917,-3.62906 -0.49207,-4.31865 -0.1429,-0.68959 -0.18398,-2.06877 -0.0913,-3.06484 0.0927,-0.99608 0.0537,-2.26203 -0.0866,-2.81323 -0.14032,-0.5512 -0.15216,-1.24079 -0.0263,-1.53242 0.12586,-0.29163 0.26575,-0.95099 0.31086,-1.46523 0.0713,-0.8124 -0.0257,-0.97566 -0.73991,-1.24523 -0.71394,-0.26948 -0.82194,-0.45106 -0.82194,-1.38196 0,-1.24855 0.40881,-2.14958 0.97529,-2.14958 0.21914,0 0.82684,-0.37614 1.35044,-0.83587 0.79589,-0.69881 1.18882,-0.83586 2.3963,-0.83586 0.79436,0 1.68636,-0.12955 1.98222,-0.28789 0.32507,-0.17398 3.04343,-0.28744 6.87024,-0.28676 6.051,10e-4 6.35141,0.0264 6.76186,0.57056 l 0.42953,0.56945 0.48061,-0.56131 c 0.26433,-0.30871 0.73881,-0.5613 1.05441,-0.5613 0.31559,0 0.91237,-0.16345 1.32618,-0.36323 0.4138,-0.19978 1.24002,-0.3565 1.83602,-0.34828 1.06833,0.0147 1.32752,0.22423 1.68172,1.35923 0.15054,0.4824 0.19624,0.47884 0.89354,-0.0697 0.40419,-0.31793 1.10236,-0.57806 1.5515,-0.57806 0.44913,0 1.05303,-0.12653 1.34199,-0.28118 0.66807,-0.35754 2.9649,0.186 3.77458,0.89324 0.31637,0.27634 1.00596,0.50435 1.53243,0.5067 1.45358,0.006 1.81181,0.33348 1.41696,1.29345 -0.23146,0.56275 -0.24433,1.07364 -0.0445,1.76529 0.1547,0.53533 0.28127,1.33357 0.28127,1.77387 0,0.73292 0.0647,0.78472 0.76622,0.6134 1.86611,-0.45576 1.8807,-0.44509 1.8807,1.37597 0,1.57373 -0.0368,1.66662 -0.6269,1.58456 -0.37548,-0.0522 -0.62759,0.0595 -0.62862,0.27862 -0.001,0.20119 -0.17558,0.69902 -0.38807,1.10629 -0.36331,0.69634 -0.33215,0.79305 0.52255,1.62145 0.832,0.80641 0.89679,0.99129 0.76574,2.18504 -0.0787,0.71724 -0.28177,1.3962 -0.45118,1.50878 -0.57824,0.38429 -0.94403,0.21374 -1.1299,-0.5268 -0.17089,-0.6809 -0.22166,-0.70412 -0.63522,-0.29056 -0.39146,0.39147 -0.45083,1.44896 -0.45991,8.19319 -0.0118,8.79328 0.3332,11.96709 1.88688,17.35617 l 0.92377,3.20415 1.63638,0.0854 c 1.68972,0.0882 2.42394,-0.18746 4.81375,-1.80746 0.5145,-0.34876 1.62091,-0.9584 2.45871,-1.35475 1.10974,-0.52499 1.59928,-0.93868 1.8033,-1.52393 0.15402,-0.44184 1.05947,-1.48766 2.01211,-2.32403 0.95264,-0.83636 2.2761,-2.3134 2.94102,-3.28232 1.50308,-2.19028 3.91984,-6.68163 3.91984,-7.28468 0,-0.24719 0.50152,-1.41859 1.11448,-2.60312 1.01903,-1.96921 1.11449,-2.33862 1.11449,-4.31239 0,-2.10166 0.30112,-4.17738 0.87703,-6.04575 0.20376,-0.66099 0.19231,-1.02864 -0.0408,-1.30946 -0.48089,-0.57944 0.16538,-8.40572 0.78565,-9.51407 0.21495,-0.38408 0.18274,-0.63392 -0.12557,-0.9746 -0.36717,-0.40574 -0.36491,-0.71993 0.0196,-2.74752 0.23885,-1.25917 0.43429,-2.32303 0.43429,-2.36413 0,-0.0411 0.37614,-0.23053 0.83587,-0.42096 0.45973,-0.19042 0.83587,-0.50313 0.83587,-0.69491 0,-0.56418 2.64395,-0.68209 5.99036,-0.26714 1.68567,0.20902 4.27715,0.41695 5.75887,0.46208 l 2.69402,0.082 -0.15538,0.83586 -0.15541,0.83587 0.82406,-0.77002 c 0.79852,-0.74615 0.94446,-0.77462 4.70557,-0.91797 4.81424,-0.1835 6.73174,-0.20583 9.66684,-0.1126 1.41415,0.0449 2.70357,-0.0719 3.3418,-0.30265 0.79813,-0.2886 1.36863,-0.3083 2.45927,-0.0849 1.06535,0.21823 1.45167,0.20854 1.54658,-0.0388 0.0881,-0.22952 1.30794,-0.34097 4.01475,-0.36677 3.25322,-0.031 3.88823,0.0299 3.88823,0.37279 0,0.44742 0.70791,0.56368 0.95894,0.15749 0.24322,-0.39351 7.91959,-0.0525 9.21895,0.40954 0.61745,0.21956 2.62353,0.46191 4.45795,0.53854 4.5147,0.18861 4.81283,0.26743 5.09078,1.34593 0.15616,0.60589 0.41979,0.91191 0.83823,0.97293 0.48961,0.0714 0.61043,0.27465 0.61043,1.0267 0,0.51571 0.12808,1.27452 0.28461,1.68625 0.20314,0.53427 0.19213,0.86002 -0.0385,1.13785 -0.2503,0.30159 -0.21586,0.50772 0.15286,0.91515 0.73178,0.80863 0.95118,4.5723 0.66707,11.44443 -0.20584,4.97899 0.99867,11.15272 3.52815,18.08373 0.64017,1.75415 1.80349,3.64881 2.24035,3.64881 0.20533,0 0.71534,-0.13004 1.13338,-0.28898 0.50179,-0.19079 0.85383,-0.19522 1.03601,-0.013 0.39998,0.39999 1.28291,-0.14767 1.6821,-1.04337 0.18243,-0.40936 0.82278,-1.49618 1.42302,-2.41519 0.60024,-0.919 1.82725,-3.23853 2.7267,-5.1545 0.89946,-1.916 2.06522,-4.36128 2.5906,-5.43397 0.52539,-1.0727 1.08843,-2.57726 1.25121,-3.34347 0.48685,-2.29171 1.35611,-4.9056 1.952,-5.86978 0.36028,-0.58295 0.65681,-1.78311 0.83238,-3.36895 0.15,-1.35487 0.41006,-2.88284 0.5779,-3.39548 0.42635,-1.30221 1.28454,-6.69872 1.34716,-8.47143 0.0115,-0.3287 0.24245,-0.48758 0.7084,-0.48758 0.55009,0 0.82026,-0.27018 1.32347,-1.32346 0.44284,-0.92695 0.79922,-1.32346 1.1895,-1.32346 0.40228,0 0.53159,-0.15498 0.46495,-0.55724 -0.0508,-0.30649 -0.15952,-0.97322 -0.24167,-1.48163 l -0.14932,-0.92439 1.63476,0.0572 c 0.89912,0.0315 3.07662,-0.0512 4.83892,-0.18364 5.51154,-0.41425 10.09449,-0.13668 13.75822,0.83328 0.90098,0.23853 1.73424,0.3743 1.8517,0.30171 0.11746,-0.0726 0.5714,0.0547 1.00876,0.28276 0.43737,0.22811 0.93488,0.41551 1.10558,0.41646 0.51224,0.003 1.73083,2.00418 2.03682,3.34518 0.15736,0.68959 0.28915,1.77204 0.29291,2.40545 0.005,0.91468 -0.10611,1.18118 -0.54197,1.29516 -0.52296,0.13675 -0.5429,0.34496 -0.42358,4.4208 0.15677,5.35487 0.54212,9.32238 1.13258,11.66077 0.25153,0.99608 0.61727,3.00216 0.81278,4.45796 0.88319,6.57656 2.51257,12.02825 3.69342,12.35768 1.14359,0.31903 4.78517,0.44243 6.19985,0.21008 2.3965,-0.39361 4.86216,-0.97122 5.0152,-1.17485 0.0766,-0.10196 0.95427,-0.52602 1.95035,-0.94234 0.99609,-0.41635 1.93644,-0.84981 2.08967,-0.96327 0.15324,-0.11347 0.87894,-0.36877 1.61268,-0.56733 0.80542,-0.21797 1.56004,-0.64834 1.90438,-1.0861 0.38625,-0.49103 1.30272,-0.96562 2.83942,-1.4704 1.24801,-0.40993 2.64788,-1.08221 3.11082,-1.494 0.46295,-0.41177 1.28055,-0.93824 1.8169,-1.16997 0.53636,-0.2317 1.37574,-0.77282 1.86528,-1.20247 0.59516,-0.52234 1.08174,-0.73107 1.46843,-0.62996 0.36668,0.0959 0.98411,-0.12997 1.68716,-0.61719 0.60985,-0.42263 1.10882,-0.8059 1.10882,-0.8517 0,-0.0458 -0.1207,-0.40077 -0.26823,-0.7888 -0.30929,-0.81351 0.23717,-2.4203 1.1648,-3.42493 0.52576,-0.5694 0.56264,-0.9555 0.53677,-5.62144 -0.0268,-4.84218 0.005,-5.13897 0.94117,-8.85726 0.53292,-2.11597 0.96895,-4.12118 0.96895,-4.45604 0,-0.33485 0.17648,-0.96378 0.39217,-1.39761 0.89812,-1.80648 1.06696,-2.30457 0.91523,-2.69999 -0.0879,-0.22899 0.0144,-0.56093 0.22734,-0.73763 0.21292,-0.17671 0.53631,-0.78143 0.71868,-1.34383 0.18234,-0.5624 0.57453,-1.36887 0.87149,-1.79216 0.39131,-0.55772 0.48865,-1.00329 0.35353,-1.61842 -0.12318,-0.56091 -0.002,-1.33941 0.35984,-2.29523 1.17454,-3.11009 1.71848,-5.17388 2.02894,-7.69826 0.22841,-1.85723 0.49526,-2.86217 0.90834,-3.42091 0.5039,-0.68155 0.54056,-0.90868 0.2647,-1.63955 -0.39925,-1.05769 -0.24027,-1.52417 0.94597,-2.77563 0.83096,-0.87667 0.95949,-1.21853 1.09988,-2.92553 0.0874,-1.06308 0.46104,-2.89883 0.83024,-4.07945 0.80473,-2.57324 0.83583,-3.32992 0.16189,-3.93983 -0.52825,-0.47804 -0.52668,-0.54123 0.12022,-4.85003 0.0748,-0.49832 0.45109,-1.1982 0.8362,-1.55529 0.55307,-0.51282 0.75945,-1.08352 0.9822,-2.71604 0.15512,-1.13674 0.45175,-2.33006 0.65919,-2.65183 0.31913,-0.49498 0.31059,-0.92379 -0.0555,-2.78622 -0.25116,-1.27769 -0.65879,-2.4503 -0.97157,-2.79493 -0.47197,-0.52003 -0.52405,-0.91191 -0.41944,-3.15691 0.079,-1.69527 0.25222,-2.69598 0.51159,-2.95537 0.31094,-0.31093 0.34204,-0.78246 0.15006,-2.27622 -0.53706,-4.17913 -0.19214,-8.76619 0.73452,-9.76858 0.48112,-0.52042 0.5919,-0.99009 0.59152,-2.5076 0,-1.02698 -0.13821,-2.25303 -0.30655,-2.72455 -0.22776,-0.6379 -0.21984,-1.10822 0.0309,-1.83772 0.21654,-0.62985 0.24872,-1.21923 0.09,-1.64829 -0.2935,-0.79337 -0.36609,-5.07783 -0.0935,-5.51886 0.10455,-0.16914 0.0662,-0.30753 -0.0851,-0.30753 -0.78544,0 -1.08662,-0.83633 -0.94346,-2.61978 0.12024,-1.49798 0.0463,-1.97376 -0.43296,-2.78604 -0.46873,-0.79445 -0.52835,-1.1525 -0.3155,-1.89471 0.14436,-0.50333 0.26246,-1.58611 0.26246,-2.40616 0,-0.82006 0.26196,-2.35343 0.58212,-3.4075 0.55581,-1.82991 0.56145,-1.97866 0.12499,-3.29275 -0.45394,-1.36668 -0.81861,-1.70351 -1.84439,-1.70351 -0.64468,0 -0.70574,-0.74204 -0.11476,-1.39506 0.37572,-0.41516 0.34998,-0.65598 -0.24556,-2.2979 -0.43465,-1.19831 -0.57058,-1.92884 -0.3921,-2.1073 0.15022,-0.15024 0.38312,-1.25378 0.51752,-2.45232 0.23975,-2.13772 0.2301,-2.19406 -0.50735,-2.9638 -0.53629,-0.55975 -0.67412,-0.89033 -0.48093,-1.15337 1.36766,-1.86218 1.34378,-1.78852 0.83294,-2.56818 -0.50495,-0.77065 -0.64625,-2.92597 -0.29233,-4.45912 0.14033,-0.60782 0.0528,-1.15164 -0.29146,-1.81104 -0.37708,-0.72229 -0.51502,-1.78831 -0.5906,-4.56447 -0.0805,-2.9548 -0.22078,-3.95574 -0.76173,-5.433136 -0.36471,-0.996076 -0.8133,-2.375256 -0.99683,-3.064846 -0.72374,-2.719052 -1.23023,-3.80315 -2.23894,-4.792204 -1.09575,-1.074419 -3.02792,-4.748173 -3.63418,-6.909932 -0.52866,-1.88508 -0.63066,-1.95108 -3.00473,-1.944159 -2.36763,0.0069 -2.99086,0.316449 -3.77402,1.874504 -0.25034,0.498037 -0.57556,0.905522 -0.72269,0.905522 -0.14714,0 -0.57493,0.470175 -0.95068,1.044834 -0.61139,0.93508 -0.7034,1.45599 -0.87605,4.958938 -0.17156,3.480891 -0.13677,4.020556 0.31441,4.87589 0.36952,0.700519 0.56014,1.907878 0.70167,4.444569 0.18498,3.31537 0.16339,3.53634 -0.44917,4.59726 -0.61808,1.07048 -0.64941,1.41834 -0.79345,8.80785 -0.0825,4.23135 -0.0802,8.12277 0.005,8.6476 0.10981,0.67664 0.39666,1.09301 0.98609,1.43129 0.70428,0.4042 0.80492,0.59678 0.65906,1.26095 -0.1329,0.60504 -0.008,0.96062 0.54563,1.55843 0.53989,0.58255 0.66402,0.92355 0.50071,1.37566 -0.11941,0.33062 -0.23432,2.23106 -0.25536,4.22321 -0.021,1.99215 -0.19246,5.75355 -0.38095,8.35866 -0.18848,2.60512 -0.37956,5.67693 -0.42459,6.82625 -0.045,1.14932 -0.21693,2.51874 -0.382,3.04316 -0.16508,0.52442 -0.37802,2.27974 -0.47322,3.90071 -0.24288,4.13593 -0.66314,5.63547 -1.87845,6.70253 -0.99119,0.87027 -1.61366,2.30038 -2.00144,4.59823 -0.27966,1.65719 -0.49604,1.91044 -2.50244,2.92884 -1.01298,0.51417 -1.89892,1.02727 -1.96873,1.14023 -0.0698,0.11297 -0.48556,0.07 -0.92387,-0.0954 -0.61288,-0.23133 -1.23998,-0.1933 -2.71535,0.1647 -1.05514,0.25603 -2.13786,0.46518 -2.40602,0.46478 -0.26819,-4.2e-4 -0.48761,0.13176 -0.48761,0.29369 0,0.16502 -0.27213,0.1038 -0.61923,-0.13931 -0.34057,-0.23856 -1.06151,-0.43384 -1.60208,-0.43396 -0.98731,-2.1e-4 -4.04042,-0.57802 -5.85872,-1.10875 -0.60278,-0.17594 -1.45399,-0.82356 -2.22898,-1.69586 -1.43406,-1.61411 -2.61104,-2.04082 -4.1798,-1.51535 -0.85641,0.28687 -0.98544,0.45437 -1.0631,1.37994 -0.0662,0.78905 0.0684,1.22029 0.53617,1.71822 0.60224,0.64106 0.60471,0.66478 0.069,0.66478 -0.30555,0 -0.83961,0.32668 -1.18678,0.72596 l -0.63121,0.72596 -0.87737,-0.79562 c -0.48254,-0.43758 -0.94206,-0.87087 -1.02111,-0.96287 -0.47423,-0.5518 -1.66357,-0.8394 -3.29501,-0.79678 -1.02517,0.0268 -2.7416,-0.0865 -3.81429,-0.25186 -1.07269,-0.1653 -2.8907,-0.41667 -4.04002,-0.55858 -1.14931,-0.14192 -2.82997,-0.52162 -3.73478,-0.84378 -1.47348,-0.52464 -2.11144,-0.57437 -6.11578,-0.47672 -2.89095,0.0705 -4.91991,-0.008 -5.74201,-0.22075 -0.69922,-0.18138 -1.58313,-0.24297 -1.96425,-0.13688 -0.38111,0.1061 -1.17991,0.20541 -1.77511,0.22068 -1.16676,0.0299 -3.17593,0.53231 -3.69751,0.92451 -0.46918,0.35279 -6.12275,0.4833 -7.80153,0.18009 -1.06907,-0.19309 -1.95958,-0.14866 -3.48278,0.17377 -1.12556,0.23825 -3.22411,0.4992 -4.66347,0.57988 -1.43936,0.0807 -2.94392,0.3016 -3.34347,0.49094 -0.5066,0.24007 -1.27453,0.27941 -2.5375,0.13 -0.99608,-0.11784 -2.2866,-0.26601 -2.86784,-0.32926 -2.11405,-0.23008 -5.94308,1.94897 -6.56632,3.73682 -0.24913,0.71462 -0.35685,0.74847 -2.96662,0.93192 -1.7154,0.12058 -2.83358,0.0862 -3.05039,-0.0937 -0.4083,-0.33885 -0.70892,-0.0999 -0.70892,0.56338 0,0.44914 -0.0664,0.44695 -1.00845,-0.0334 -0.55464,-0.28277 -1.2445,-0.72776 -1.533,-0.98885 -0.43233,-0.39126 -1.19794,-0.48585 -4.35503,-0.53805 -2.10676,-0.0348 -4.38018,-0.2126 -5.05205,-0.39504 -0.68601,-0.18628 -1.54106,-0.2395 -1.95034,-0.1214 -0.40084,0.11567 -2.67219,0.25031 -5.04745,0.29921 -2.37524,0.0489 -5.20294,0.16102 -6.28373,0.24915 -1.48118,0.12079 -2.53694,0.0179 -4.28727,-0.4177 -2.77681,-0.69111 -4.15075,-0.74138 -4.37384,-0.16002 -0.25945,0.67614 -1.71338,0.51043 -2.44464,-0.27863 -0.35505,-0.3831 -0.77357,-0.69655 -0.93002,-0.69655 -0.15648,0 -0.6264,-0.17738 -1.04427,-0.39418 -0.55976,-0.29041 -1.59513,-0.37048 -3.93272,-0.30415 l -3.1729,0.09 -0.96625,-1.12885 c -0.95625,-1.11717 -0.98199,-1.12722 -2.48845,-0.97174 -0.83721,0.0864 -1.98393,0.3762 -2.54825,0.644 -0.98108,0.46554 -1.09227,0.46438 -2.53644,-0.0265 -1.21282,-0.41225 -1.65941,-0.74469 -2.26677,-1.68742 -0.62187,-0.96522 -1.16668,-1.35964 -3.0634,-2.21775 -2.08541,-0.94348 -2.45623,-1.0262 -3.86035,-0.86118 -0.85434,0.10041 -1.78268,0.3053 -2.06297,0.45531 -1.2708,0.68012 -6.71346,-0.006 -7.79249,-0.98291 -0.73255,-0.66294 -2.4299,-1.25308 -3.54144,-1.23128 -1.4347,0.0281 -3.0893,0.80698 -3.50756,1.65107 -0.50174,1.01257 -2.02126,1.13036 -2.44976,0.1899 -0.26978,-0.59211 -0.5564,-0.70524 -2.1961,-0.86681 -1.0372,-0.1022 -2.12094,-0.36164 -2.40829,-0.57653 -0.50555,-0.37806 -0.50216,-0.40522 0.10443,-0.83824 1.0241,-0.73107 0.78609,-1.76342 -0.85896,-3.72572 -0.58675,-0.69991 -0.73525,-1.09314 -0.57868,-1.53242 0.11584,-0.325 0.22027,-1.24283 0.23206,-2.03961 0.0118,-0.79678 0.17816,-1.60548 0.36971,-1.79711 0.19155,-0.19163 0.34828,-0.79979 0.34828,-1.35146 0,-1.1983 0.40372,-1.67174 1.42559,-1.67174 0.46928,0 0.95102,-0.25264 1.26773,-0.66485 l 0.51083,-0.66486 3.48278,0.66192 c 6.95448,1.32175 9.07804,1.64117 10.27995,1.54628 1.92026,-0.1516 4.17144,0.22113 4.70485,0.77899 0.75808,0.79282 2.02637,1.32546 3.68289,1.54668 0.84284,0.11256 1.90856,0.39871 2.36829,0.63589 0.53637,0.27673 1.73436,0.45319 3.34347,0.4925 1.71227,0.0418 2.99364,0.2418 4.04002,0.63052 0.84284,0.31311 2.3679,0.69369 3.38904,0.84574 1.7931,0.26701 3.29789,0.94286 3.29789,1.48119 0,0.1432 0.59556,0.25363 1.32347,0.24541 0.7279,-0.008 2.38918,0.11197 3.69173,0.26708 1.30258,0.1551 3.22125,0.35822 4.26372,0.45137 1.5955,0.14256 1.96523,0.27588 2.33652,0.84254 0.40794,0.62262 0.47807,0.63972 0.93345,0.22761 0.45248,-0.4095 0.77098,-0.38978 3.93248,0.24347 4.46635,0.89461 4.51958,0.9063 6.64429,1.45957 0.99608,0.25938 3.31561,0.56023 5.15452,0.66856 1.8389,0.10833 3.60298,0.28821 3.92017,0.39974 0.38233,0.13443 0.69849,0.056 0.93805,-0.23262 0.38962,-0.46947 1.94287,-0.38869 3.44171,0.17897 0.62777,0.23777 0.84194,0.20788 1.11448,-0.15555 0.33514,-0.44693 1.76132,-0.58128 15.52227,-1.46228 1.45579,-0.0932 5.25723,-0.18852 8.44763,-0.21181 4.94273,-0.0361 5.83682,-0.1068 6.04491,-0.47817 0.20746,-0.37028 0.5137,-0.39554 2.03623,-0.16801 1.51582,0.22654 2.18358,0.17295 4.33238,-0.34769 1.3972,-0.33852 2.67659,-0.53129 2.84314,-0.42836 0.45285,0.27988 4.72054,-0.39203 5.76086,-0.907 0.78446,-0.38834 1.05651,-0.39911 2.02313,-0.0801 1.03468,0.34147 1.16396,0.32424 1.75852,-0.23431 0.78149,-0.73417 2.16312,-0.7878 2.77848,-0.10785 0.38715,0.42781 0.70514,0.46513 2.34181,0.2749 3.83138,-0.44532 9.9949,-0.73007 10.80974,-0.4994 0.45973,0.13014 3.8155,0.30832 7.45727,0.39596 5.31553,0.12791 6.79267,0.24791 7.48985,0.60843 0.59973,0.31013 1.22348,0.39641 2.01588,0.27885 0.71864,-0.10663 1.7722,0.003 2.81919,0.29463 1.293,0.35956 2.77054,0.45773 6.5221,0.43332 5.39416,-0.0351 7.39207,-0.3299 9.16501,-1.35237 1.39951,-0.80711 1.72579,-1.49836 1.72945,-3.66404 0.002,-0.87117 0.17144,-3.21388 0.37767,-5.20603 0.20622,-1.99215 0.38692,-3.93554 0.40153,-4.31865 0.18886,-4.95365 0.188,-7.74825 -0.003,-8.14087 -0.18427,-0.37979 -0.37516,-0.42445 -0.92332,-0.21603 -0.64753,0.24618 -0.74495,0.15592 -1.54696,-1.43285 -0.83037,-1.64494 -0.88238,-1.68998 -1.74184,-1.50846 -2.66914,0.56376 -4.3695,0.70541 -7.3418,0.61163 -3.22168,-0.10166 -5.79354,-0.54864 -6.11083,-1.06203 -0.52056,-0.84227 2.3333,-1.68072 5.46184,-1.60467 1.80742,0.0439 7.69888,-0.40374 9.39157,-0.71363 1.17993,-0.21602 3.42507,-1.21811 3.42507,-1.52875 0,-0.13495 -0.31345,-0.49192 -0.69657,-0.79328 -0.9056,-0.71235 -0.87835,-0.88564 0.13932,-0.88564 h 0.83587 l 0.0212,-2.02001 c 0.0117,-1.11101 -0.0105,-2.89767 -0.0492,-3.97037 -0.0387,-1.07278 -0.0579,-2.32658 -0.0427,-2.78631 0.1786,-5.41114 0.003,-11.68639 -0.35662,-12.70415 -0.52208,-1.47971 -0.51761,-2.57598 0.0146,-3.60531 0.34216,-0.66168 0.41665,-1.92523 0.38932,-6.603441 -0.033,-5.648028 0.69492,-16.024947 1.16865,-16.659652 0.32275,-0.432391 2.08229,-3.988054 2.7342,-5.52522 0.38964,-0.918717 0.69991,-1.305864 0.96507,-1.204117 0.21492,0.08248 1.05798,-0.279881 1.87341,-0.805244 0.8249,-0.531446 1.84367,-0.955205 2.29646,-0.955205 0.50006,0 1.56771,-0.49666 2.76919,-1.288192 2.3008,-1.515774 2.66764,-1.624849 6.93802,-2.062855 3.8922,-0.399215 4.96094,-0.208938 8.78695,1.564422 3.3452,1.550489 4.89059,3.074409 6.63008,6.537905 0.71454,1.422764 1.5437,2.917572 1.84256,3.321793 0.36036,0.487442 0.67826,1.696223 0.94392,3.58935 0.22032,1.569921 0.70719,4.007763 1.08193,5.417425 0.94827,3.567218 1.12215,4.866448 0.71665,5.355043 -0.21294,0.256564 -0.26838,0.787926 -0.15165,1.453132 0.10123,0.576769 0.28593,2.448797 0.41048,4.160061 0.1846,2.536625 0.33645,3.251275 0.82207,3.868635 0.82118,1.04397 0.8642,4.86644 0.0684,6.07356 -0.45905,0.69629 -0.50919,1.21159 -0.40658,4.17934 0.14483,4.18934 0.23153,4.59755 1.04178,4.90561 0.69454,0.26406 1.08997,1.44396 0.82433,2.4597 -0.0835,0.31915 -0.0199,0.99604 0.14151,1.5042 0.16131,0.50816 0.363,2.86732 0.44824,5.24257 0.0852,2.37526 0.24175,5.63514 0.34784,7.24418 0.10612,1.60904 0.20979,4.74355 0.23043,6.96556 0.0207,2.22201 0.19158,5.23113 0.3799,6.68693 0.18832,1.4558 0.40862,3.16808 0.48955,3.80507 0.11687,0.92014 0.0308,1.27446 -0.41879,1.72407 -0.31565,0.31564 -0.70731,1.28207 -0.88564,2.18531 -0.38507,1.95017 -0.87094,10.47351 -0.95795,16.80431 -0.0507,3.69083 -0.16034,4.81702 -0.55587,5.71176 -0.33368,0.75482 -0.56958,2.32837 -0.73103,4.87589 -0.26353,4.15881 -0.52712,5.37096 -1.36087,6.25846 -0.98737,1.051 -1.50615,5.93713 -0.83485,7.86284 0.20828,0.59747 0.19693,1.05878 -0.0404,1.64365 -0.41089,1.01256 -0.7596,2.96285 -1.02486,5.73203 -0.13152,1.37323 -0.37162,2.31766 -0.67419,2.65199 -0.32258,0.35645 -0.51061,1.18611 -0.59973,2.64622 -0.0845,1.38356 -0.46378,3.13468 -1.08531,5.01013 -0.52555,1.58573 -1.09394,3.60252 -1.26314,4.48175 -0.16918,0.87923 -0.75339,2.71278 -1.29823,4.07457 -0.54484,1.36178 -0.99061,2.75458 -0.99061,3.0951 0,0.70955 -0.57476,2.84167 -1.57953,5.8594 -0.60223,1.80873 -0.6967,2.59536 -0.70276,5.85107 -0.006,3.3689 0.0719,3.994 0.74929,5.99038 0.95534,2.81567 1.24191,5.97988 0.59052,6.52048 -0.24785,0.2057 -0.45063,0.73881 -0.45063,1.1847 0,0.44588 -0.18245,1.24736 -0.40544,1.78106 -0.50332,1.20461 -2.85411,3.96276 -3.57158,4.19047 -0.29249,0.0928 -0.70653,0.58697 -0.9201,1.09807 -0.21354,0.5111 -0.51213,1.00583 -0.66353,1.0994 -0.15142,0.0936 -0.40427,0.64916 -0.56191,1.23463 -0.15767,0.58548 -0.5999,1.52611 -0.98275,2.09028 -0.38287,0.56417 -0.69611,1.18643 -0.69611,1.38277 0,0.61217 -1.18622,1.47366 -2.89233,2.10052 -0.90117,0.3311 -1.90076,0.78571 -2.22132,1.01025 -0.32053,0.22451 -0.91686,0.40819 -1.32518,0.40819 -0.4083,0 -1.34414,0.40749 -2.07962,0.90554 -1.03463,0.7006 -1.43583,1.19441 -1.77287,2.18222 -0.2396,0.70217 -0.84314,1.78595 -1.34117,2.40838 -0.58437,0.73032 -0.90551,1.43861 -0.90551,1.99712 0,0.47598 -0.11855,0.86541 -0.26343,0.86541 -0.14487,0 -0.42698,0.33353 -0.6269,0.74116 -0.69653,1.42025 -1.62538,1.83736 -4.17127,1.87314 -2.27633,0.032 -2.32373,0.019 -2.41515,-0.66393 -0.12408,-0.92691 -0.2596,-1.03679 -1.66728,-1.35183 -1.1172,-0.25 -1.26933,-0.2113 -2.12645,0.54127 -0.59714,0.5243 -1.22998,0.81056 -1.79191,0.81056 -0.54833,0 -0.86874,0.14028 -0.86874,0.38036 0,0.2092 -0.23164,0.67937 -0.51474,1.04483 -0.69032,0.89108 -0.97828,2.15871 -0.59524,2.62024 0.22932,0.27634 0.16178,0.6549 -0.26663,1.49467 -0.31556,0.61855 -0.57649,1.34903 -0.57986,1.62332 -0.003,0.27427 -0.248,1.03154 -0.54362,1.68283 -0.46502,1.02446 -0.65449,1.18415 -1.40499,1.18415 -0.60943,0 -1.06406,0.23363 -1.52838,0.78545 -0.36718,0.43636 -1.195,0.93928 -1.86271,1.13163 -0.66099,0.19041 -1.57024,0.4619 -2.02056,0.60331 -0.61412,0.19284 -0.93298,0.15372 -1.27575,-0.15647 -0.25132,-0.22746 -0.67291,-0.41357 -0.93684,-0.41357 -0.57196,0 -1.28729,-1.55371 -1.28729,-2.79602 0,-1.15523 -1.54671,-3.04059 -2.5076,-3.05666 -0.38312,-0.006 -1.69961,-0.30682 -2.92554,-0.6676 -1.5788,-0.4646 -2.37798,-0.57811 -2.73974,-0.3891 -0.37025,0.19344 -0.64964,0.1412 -1.01552,-0.18991 -0.58533,-0.52973 -2.51374,-3.58325 -2.51374,-3.98037 0,-0.14779 -0.23745,-0.57055 -0.52764,-0.93948 -0.6847,-0.87047 -1.31988,-3.03743 -1.56717,-5.34666 -0.26499,-2.47456 -0.5519,-2.83664 -1.94326,-2.45248 -0.77416,0.21376 -1.18317,0.21196 -1.44622,-0.006 -0.45557,-0.37808 -0.47475,-1.98767 -0.0381,-3.19518 0.30772,-0.85104 0.26277,-0.99349 -0.706,-2.23695 -0.79533,-1.02084 -0.99773,-1.49609 -0.87505,-2.05468 0.11044,-0.50282 -0.0266,-0.9633 -0.4447,-1.49491 -0.54183,-0.68881 -0.56481,-0.84206 -0.22228,-1.4821 0.21014,-0.39262 0.66452,-0.89893 1.00973,-1.12513 0.53696,-0.35182 0.60452,-0.57798 0.46742,-1.56446 -0.0881,-0.63425 -0.29272,-1.50289 -0.45461,-1.93031 -0.24631,-0.65037 -0.20855,-0.84105 0.2316,-1.16901 0.49726,-0.37053 0.47625,-0.40948 -0.3855,-0.71494 -0.50127,-0.17769 -1.03084,-0.54622 -1.1768,-0.81896 -0.14596,-0.27274 -0.61348,-0.5823 -1.03894,-0.6879 -0.42546,-0.10561 -1.04929,-0.44935 -1.38629,-0.76386 -0.64054,-0.5978 -1.47695,-0.51904 -1.47695,0.13907 0,0.26091 -0.6241,0.45928 -1.99979,0.63564 l -1.99981,0.25637 -0.33466,1.11449 c -0.18406,0.61297 -0.48813,1.62554 -0.6757,2.25016 -0.2085,0.69428 -0.27362,1.77717 -0.16757,2.78622 0.0954,0.90781 0.24441,2.36393 0.33111,3.23583 l 0.15764,1.58527 -1.34735,0.68656 c -1.20379,0.61342 -1.40961,0.8601 -1.93173,2.31543 -0.84414,2.35299 -1.44373,4.28581 -1.64451,5.30138 -0.0964,0.48746 -0.36659,1.04509 -0.60046,1.23918 -0.23388,0.19411 -1.08414,1.73868 -1.88948,3.43238 -1.2855,2.70351 -1.45606,3.26655 -1.39707,4.61189 0.037,0.84283 0.11168,1.78318 0.16603,2.08967 0.0754,0.4251 -0.11592,0.62044 -0.80672,0.82383 -0.67222,0.19789 -0.90553,0.42713 -0.90553,0.88972 0,0.73161 -0.96305,1.4906 -1.89136,1.4906 -1.01573,0 -1.6994,0.47749 -1.54255,1.07733 0.0862,0.32964 -0.23664,1.01808 -0.86099,1.83604 -0.71057,0.93089 -0.99892,1.59271 -0.99892,2.29268 0,0.91755 -0.0484,0.97191 -0.71573,0.80442 -0.67093,-0.16841 -0.71018,-0.12233 -0.6269,0.736 l 0.0888,0.91565 -2.22899,0.14043 c -1.22592,0.0772 -2.50283,0.29665 -2.83756,0.48758 -0.74003,0.42215 -2.38721,0.44572 -4.18618,0.0599 -1.42129,-0.30482 -3.36685,-1.94473 -3.96402,-3.34125 -0.1623,-0.37957 -0.4013,-0.87821 -0.53109,-1.10807 -0.62627,-1.10915 -0.87983,-1.69583 -0.87983,-2.03571 0,-0.20435 -0.38688,-0.8016 -0.85973,-1.32723 -0.47287,-0.52564 -1.7343,-2.71103 -2.80319,-4.85643 -1.8216,-3.65623 -1.93797,-4.00115 -1.85681,-5.50329 0.0809,-1.49814 0.0461,-1.60256 -0.535,-1.60208 -0.41804,0 -0.66696,-0.20479 -0.76011,-0.6264 -1.80061,-8.14822 -2.39721,-10.32373 -2.91975,-10.64667 -0.1627,-0.10055 -0.29909,-0.77098 -0.30313,-1.48985 -0.004,-0.71884 -0.3157,-2.5608 -0.6926,-4.09322 -0.37691,-1.53242 -0.68706,-3.13926 -0.68923,-3.57075 -0.005,-1.08834 -0.47728,-1.86238 -1.13515,-1.86238 -0.32896,0 -0.65783,-0.27222 -0.80887,-0.6695 -0.14001,-0.36822 -0.38667,-0.75114 -0.54814,-0.85094 -0.16147,-0.0998 -3.71119,-0.2431 -7.88826,-0.31845 -4.17708,-0.0754 -8.72309,-0.17593 -10.10227,-0.22349 -1.37918,-0.0476 -2.65931,0.0321 -2.8447,0.17693 -0.18542,0.14487 -1.06308,0.30079 -1.95037,0.34648 -2.82557,0.14552 -9.68022,0.72287 -10.04157,0.84577 -0.19155,0.0652 -0.34828,0.37316 -0.34828,0.68445 0,0.69361 -0.21129,0.71164 -0.91899,0.0784 -0.51989,-0.46518 -0.55932,-0.46366 -0.85781,0.033 -0.96618,1.60778 -1.14815,1.70295 -3.53248,1.84766 -1.86141,0.11298 -2.35342,0.23851 -2.6027,0.66404 -0.16906,0.2886 -0.58948,0.81576 -0.93427,1.17148 -0.35171,0.36285 -0.6269,0.99477 -0.6269,1.43956 0,0.43604 -0.138,0.93081 -0.30668,1.09947 -0.22313,0.22314 -0.2162,0.56084 0.0255,1.23987 0.28441,0.799 0.25049,1.12191 -0.23582,2.24536 -0.3124,0.72169 -0.64974,1.74788 -0.74964,2.28041 -0.0999,0.53256 -0.42,1.18397 -0.7113,1.4476 -0.31711,0.28699 -0.52965,0.84918 -0.52965,1.40102 0,0.50693 -0.23296,1.52188 -0.51767,2.25544 -0.2847,0.73357 -0.60147,1.87815 -0.70393,2.5435 -0.10246,0.66533 -0.43373,1.69472 -0.73615,2.28752 -0.30241,0.59281 -0.54985,1.39627 -0.54985,1.78547 0,0.38922 -0.24556,0.95322 -0.5457,1.25334 -0.30012,0.30014 -0.79455,1.03353 -1.09872,1.62975 -0.3042,0.59625 -1.02396,1.69853 -1.5995,2.44951 -0.57553,0.75101 -1.34896,1.99235 -1.71871,2.75855 -0.36972,0.76622 -1.12647,2.02002 -1.68164,2.78624 -1.33824,1.84699 -5.35166,5.6968 -5.9476,5.70514 -0.25948,0.004 -0.63562,0.23547 -0.83587,0.51521 -0.20024,0.27972 -1.17904,0.91659 -2.17512,1.41523 -2.48377,1.24339 -2.81179,1.6034 -2.60759,2.86175 0.12515,0.77122 0.32739,1.06214 0.8252,1.18708 0.6994,0.17555 1.05805,1.03184 0.89996,2.1487 -0.0832,0.58766 -0.25079,0.66192 -1.62517,0.7201 -0.84283,0.0357 -2.18331,0.21066 -2.97883,0.38885 -1.966,0.44037 -2.91441,0.0389 -3.58706,-1.51857 -0.27652,-0.64027 -0.75718,-1.45154 -1.06812,-1.80281 -0.4708,-0.53191 -0.50877,-0.72928 -0.22706,-1.18037 0.70372,-1.12686 0.45379,-1.3851 -1.34049,-1.3851 -1.66278,0 -1.69554,-0.0157 -3.44148,-1.63984 -0.96949,-0.90192 -2.06251,-1.73501 -2.42893,-1.8513 -0.36642,-0.11631 -1.00942,-0.53813 -1.42888,-0.93741 -0.41946,-0.39929 -1.33625,-1.03942 -2.03731,-1.42252 -1.29354,-0.70687 -1.88932,-1.71987 -2.94958,-5.0152 -0.17257,-0.53635 -0.59861,-1.35713 -0.94676,-1.82398 -0.40924,-0.54877 -0.68042,-1.38593 -0.76714,-2.36831 -0.0738,-0.8357 -0.27523,-2.05086 -0.44768,-2.70035 -0.17245,-0.64949 -0.43418,-1.96598 -0.58162,-2.92553 -0.14745,-0.95956 -0.40964,-2.6223 -0.58264,-3.69501 -0.17301,-1.07269 -0.43099,-4.08181 -0.57329,-6.68694 -0.36035,-6.5971 -0.37999,-6.80413 -0.78628,-8.289 -0.3599,-1.31536 -0.67716,-1.64147 -0.94871,-0.97518 -0.0978,0.24009 -0.2998,0.15761 -0.65012,-0.26552 -0.48113,-0.58114 -0.61878,-0.59969 -2.58624,-0.34863 -3.13188,0.39964 -3.7176,0.70597 -2.58886,1.35396 0.41757,0.23973 0.35756,0.30673 -0.41794,0.46661 -1.02144,0.21059 -1.19126,0.65172 -0.33688,0.87515 0.99258,0.25957 0.41325,0.76567 -1.13084,0.98788 -0.82021,0.11804 -1.53923,0.26257 -1.59784,0.32117 -0.27825,0.27825 -0.34254,3.09572 -0.0885,3.87753 0.15756,0.48485 0.34964,2.06211 0.42685,3.505 0.0772,1.4429 0.27266,3.92404 0.43436,5.51365 0.3169,3.11544 0.23042,4.04913 -0.61406,6.62989 -0.30087,0.91945 -0.65247,2.84201 -0.78134,4.27236 -0.25326,2.81104 -0.0148,2.30821 -3.29038,6.93764 -0.56748,0.80203 -1.50458,1.8477 -2.08243,2.32371 -0.57786,0.47602 -1.25077,1.26167 -1.49536,1.74593 -0.24459,0.48424 -0.67844,1.13676 -0.96412,1.45006 -0.28567,0.31329 -0.68953,1.06557 -0.89747,1.67174 -0.23576,0.68727 -0.65486,1.23779 -1.11342,1.46256 -0.40444,0.19824 -1.25678,0.97884 -1.89409,1.73465 -1.24852,1.48068 -1.83659,1.79061 -3.23482,1.7049 -0.74611,-0.0457 -0.92759,0.0622 -1.07207,0.63787 -0.14022,0.55869 -0.479,0.77786 -1.74876,1.13134 -0.86617,0.24113 -1.86285,0.55991 -2.21486,0.70842 -0.352,0.14849 -0.85452,0.26999 -1.1167,0.26999 -0.26219,0 -1.06551,0.31345 -1.78518,0.69657 -1.64183,0.874 -1.81321,0.86541 -3.00573,-0.15075 z M 369.78711,161.48142 c 0.22132,-0.35809 -0.5613,-0.66727 -1.13335,-0.44775 -0.5583,0.21424 -0.25084,0.72834 0.43559,0.72834 0.28839,0 0.60239,-0.12627 0.69776,-0.28059 z m -81.82478,115.28193 c -0.15424,-0.85645 0.0344,-1.6433 0.34764,-1.44973 0.32895,0.2033 0.33923,2.07663 0.0114,2.07663 -0.13538,0 -0.29694,-0.28211 -0.35904,-0.6269 z m -60.65529,-10.89202 c -0.32194,-0.38792 0.16387,-3.52669 0.54585,-3.52669 0.50743,0 0.47896,3.44992 -0.0311,3.76515 -0.1152,0.0712 -0.34686,-0.0361 -0.51479,-0.23846 z m 59.8121,-1.44584 c -0.29003,-0.29002 0.34584,-2.78326 0.79489,-3.11675 0.67747,-0.50312 0.9321,-0.18634 0.9321,1.15961 0,0.97364 -0.13201,1.29181 -0.68675,1.65531 -0.75829,0.49684 -0.82568,0.5164 -1.04024,0.30183 z m 93.95096,-26.0588 c 0,-0.16229 0.12538,-0.21757 0.27862,-0.12287 0.15325,0.0947 0.27863,0.22749 0.27863,0.29507 0,0.0676 -0.12538,0.12287 -0.27863,0.12287 -0.15324,0 -0.27862,-0.13278 -0.27862,-0.29507 z M 184.36278,216.7929 c -1.47252,-0.75947 -3.57349,-1.71125 -4.20908,-1.9068 -0.87589,-0.26949 -0.86633,-3.54525 0.0171,-5.86557 0.24272,-0.63749 0.21804,-0.93814 -0.11929,-1.45296 -0.6958,-1.06193 -0.56336,-4.03698 0.25129,-5.64461 0.39266,-0.77488 0.81027,-2.31146 0.99511,-3.66143 0.47311,-3.45537 2.5141,-6.96556 4.05011,-6.96556 0.43088,0 0.7128,-0.21065 0.83903,-0.6269 0.10456,-0.3448 0.40824,-0.87766 0.67485,-1.18415 0.26661,-0.30648 0.77604,-1.08874 1.13207,-1.73835 0.35603,-0.64961 0.90468,-1.2628 1.21923,-1.36263 0.31455,-0.0998 0.90721,-0.42942 1.31703,-0.7324 1.098,-0.8118 1.44671,-0.42413 1.22374,1.36047 -0.15395,1.2322 -0.10791,1.53024 0.25808,1.67068 0.38983,0.14959 0.3616,0.31473 -0.22608,1.32245 -0.60806,1.04269 -0.75159,1.68359 -0.75703,3.3805 -0.001,0.30648 -0.18479,1.26493 -0.40845,2.12988 -0.61289,2.37015 -0.57452,2.54819 0.49886,2.31461 0.49803,-0.10838 1.15283,-0.3691 1.4551,-0.57938 0.30227,-0.21028 0.81979,-0.38234 1.15003,-0.38234 0.33025,0 0.75653,-0.18807 0.9473,-0.41793 0.49817,-0.60026 1.75212,-0.51475 2.63494,0.17968 0.47977,0.37738 1.21579,0.6166 1.99728,0.64916 1.1863,0.0494 1.32077,-0.0311 3.2482,-1.94461 2.56225,-2.54377 3.07648,-2.8329 3.98255,-2.23921 0.51797,0.33938 0.81326,0.37508 1.23512,0.1493 0.64977,-0.34774 0.64601,-0.32845 0.23842,-1.223 -0.24849,-0.54537 -0.21873,-0.99082 0.13931,-2.08547 0.25041,-0.76559 0.45529,-1.53713 0.45529,-1.71455 0,-0.17741 0.27082,-0.7029 0.60182,-1.16774 0.48614,-0.68272 0.54023,-0.94378 0.28144,-1.35817 -0.26348,-0.42191 -0.22192,-0.56569 0.23405,-0.80972 0.34657,-0.18548 0.55443,-0.58317 0.55443,-1.06079 0,-1.07286 0.72802,-2.00255 1.56816,-2.00255 0.55594,0 0.69021,-0.1295 0.64991,-0.6269 -0.10713,-1.32258 -0.0578,-1.3679 1.27207,-1.16848 1.1266,0.16895 1.33298,0.11164 1.93425,-0.53715 0.53177,-0.57379 0.80529,-0.67737 1.30275,-0.49335 0.64814,0.23977 0.73828,0.35951 1.46822,1.95049 0.29393,0.64064 0.34652,1.09031 0.16678,1.42613 -0.14437,0.26977 -0.18616,0.56681 -0.0929,0.6601 0.0933,0.0933 -0.36346,0.68697 -1.01501,1.31927 l -1.18464,1.14965 0.19393,2.06951 0.19393,2.0695 -0.99269,1.09879 c -0.54598,0.60434 -1.06291,1.44675 -1.14874,1.87203 -0.0858,0.42528 -0.27708,1.15828 -0.425,1.62888 -0.38235,1.21636 -0.35342,1.3522 0.46137,2.16699 0.67522,0.67522 0.69099,0.74292 0.20897,0.89713 -1.55072,0.49612 -1.54306,0.48777 -1.0684,1.16509 0.38659,0.55166 0.67988,0.62668 2.44353,0.62507 1.53169,-0.001 2.20128,-0.1324 2.84008,-0.5556 0.45973,-0.30456 1.5201,-0.75362 2.35639,-0.99791 1.84191,-0.53804 3.94831,-1.57764 4.46986,-2.20606 0.21061,-0.25377 0.97369,-0.76076 1.69574,-1.12665 2.06512,-1.04648 3.75856,-2.27627 4.61806,-3.35368 0.43509,-0.54539 1.44931,-1.6563 2.25383,-2.46869 0.80452,-0.81239 1.46277,-1.69786 1.46277,-1.96772 0,-0.26985 0.26098,-0.91293 0.57997,-1.42905 0.77379,-1.25203 1.83965,-1.29973 2.29154,-0.10254 0.36604,0.96976 0.58011,1.03288 1.08306,0.31936 0.20024,-0.28408 0.74021,-0.59293 1.19994,-0.68633 2.86431,-0.58196 2.63263,-0.60995 2.82283,0.34105 0.0961,0.48036 0.28386,0.94086 0.41731,1.02334 0.13345,0.0825 0.24264,0.77568 0.24264,1.54046 0,1.35273 -0.56447,2.88795 -1.26942,3.45249 -0.346,0.2771 -0.60831,1.49381 -0.78088,3.6221 -0.0497,0.61296 -0.28937,1.49848 -0.53262,1.96781 -0.65151,1.25708 -2.79228,3.54604 -5.0462,5.39552 -2.89572,2.3761 -6.26261,5.73134 -6.57454,6.55179 -0.19152,0.50374 -0.47635,0.71255 -0.97195,0.71255 -0.38557,0 -1.29768,0.45563 -2.02691,1.01252 -0.72922,0.55689 -1.60797,1.14123 -1.95276,1.29853 -0.65442,0.29854 -0.82617,0.87637 -0.34828,1.17172 0.38848,0.24009 0.3499,1.2538 -0.0477,1.2538 -0.17948,0 -0.55061,-0.20296 -0.82472,-0.45103 -0.70026,-0.63373 -2.39605,-0.29699 -2.78318,0.55267 -0.15758,0.34584 -0.95918,1.03115 -1.78134,1.52291 -1.7063,1.02058 -3.96602,1.41774 -8.14588,1.4317 -1.86913,0.006 -2.57843,0.10429 -2.58152,0.35688 -0.003,0.23218 -0.0943,0.20896 -0.27436,-0.0697 -0.14854,-0.22986 -0.272,-0.98841 -0.27435,-1.68566 -0.006,-1.70361 -0.2701,-1.91387 -1.98102,-1.57558 l -1.3934,0.27551 -1.17081,-1.25465 c -1.1113,-1.1909 -1.2699,-1.26483 -3.12115,-1.45485 -1.0727,-0.1101 -2.46196,-0.31135 -3.08724,-0.44722 -1.42421,-0.30947 -2.85164,0.0608 -3.86904,1.00374 -0.65176,0.60403 -0.73608,0.8501 -0.57873,1.68887 0.10131,0.54 0.26015,1.17975 0.35298,1.42166 0.13584,0.35399 0.0303,0.40509 -0.54078,0.26176 -0.51887,-0.13022 -1.29032,0.12065 -2.87052,0.93348 -2.53332,1.3031 -3.8088,1.39653 -5.70607,0.418 z m 89.41716,-10.6819 c -2.13535,-0.75346 -3.93697,-2.14294 -4.7059,-3.62937 -0.31674,-0.61229 -0.56217,-2.69258 -0.60473,-5.12563 -0.016,-0.91206 -0.10325,-1.04483 -0.68699,-1.04483 -1.0011,0 -0.8478,-0.81398 0.19247,-1.02204 0.47366,-0.0947 1.2956,-0.61952 1.82653,-1.1662 0.76618,-0.78891 0.92883,-1.13934 0.78844,-1.6987 -0.21796,-0.86843 -0.58762,-1.11819 -1.66512,-1.12504 -0.45973,-0.003 -1.2388,-0.25099 -1.73128,-0.55126 -0.52085,-0.31758 -0.96479,-0.4337 -1.06127,-0.27758 -0.33902,0.54854 -0.96885,0.26466 -0.96885,-0.43669 0,-0.4552 -0.34113,-1.00459 -0.96257,-1.55022 -0.64839,-0.5693 -0.96277,-1.08942 -0.96319,-1.59356 -4.2e-4,-0.41163 -0.0823,-1.2177 -0.18218,-1.79125 -0.14282,-0.82045 -0.0256,-1.34107 0.54972,-2.44134 0.49539,-0.94741 0.67515,-1.6221 0.55729,-2.09167 -0.13133,-0.52327 -0.0641,-0.69316 0.27417,-0.69316 0.6524,0 1.56262,-1.01435 1.56263,-1.74139 1e-5,-0.3756 0.36957,-0.92178 0.9219,-1.36248 0.53956,-0.43051 1.05689,-1.18616 1.2474,-1.82204 0.22442,-0.74903 0.79767,-1.4941 1.84573,-2.39893 l 1.52021,-1.31246 2.59586,0.006 c 4.63752,0.0113 9.18205,0.47971 10.39567,1.07151 1.16207,0.56666 1.53403,0.54233 1.53403,-0.10033 0,-0.91766 1.15192,-0.87456 7.24418,0.27105 1.91553,0.36021 4.79927,0.79083 6.40831,0.95695 4.08837,0.42207 5.25397,0.65963 6.83777,1.39363 0.75989,0.35215 2.01878,0.93913 2.79758,1.3044 0.77882,0.36528 1.80441,0.74181 2.27912,0.83676 0.47473,0.0949 1.12729,0.45382 1.45019,0.79752 l 0.58705,0.62489 -0.75634,1.15523 c -0.41599,0.63537 -0.91416,1.15522 -1.10704,1.15522 -0.1929,0 -1.32752,-0.37614 -2.52141,-0.83587 -1.19389,-0.45972 -2.38404,-0.83586 -2.64477,-0.83586 -0.72096,0 -1.43202,0.8189 -1.07969,1.24343 0.15909,0.19169 0.2135,0.7273 0.12091,1.19024 -0.097,0.48486 -0.0148,1.12193 0.19384,1.50266 0.19918,0.36351 0.32926,0.93489 0.28906,1.26973 -0.0494,0.41151 0.15349,0.72753 0.62608,0.97518 0.38455,0.20151 1.01032,0.95159 1.39062,1.66683 0.72179,1.35756 0.71176,2.05685 -0.0464,3.23256 -0.24677,0.3827 -0.3508,0.98761 -0.26351,1.53242 0.0793,0.49507 0.064,1.38783 -0.0341,1.98391 -0.15878,0.96516 -0.30027,1.12239 -1.29278,1.43656 -0.61298,0.19403 -1.80408,0.62656 -2.64692,0.96119 -0.84283,0.33463 -1.82508,0.64999 -2.18277,0.7008 -0.35769,0.0508 -0.86908,0.29034 -1.13643,0.53229 -0.26734,0.24194 -0.74397,0.43989 -1.05919,0.43989 -0.52058,0 -1.30764,0.32468 -2.23964,0.9239 -0.24958,0.16047 -0.2693,0.37339 -0.0692,0.7473 0.25348,0.47363 0.19223,0.50868 -0.65011,0.37198 -0.73865,-0.11986 -1.08826,-0.004 -1.69954,0.56232 -0.42327,0.39228 -0.72257,0.85429 -0.6651,1.02669 0.0575,0.17241 1.01012,0.69155 2.11701,1.15366 1.10689,0.46211 2.01252,0.92385 2.01252,1.02608 0,0.31454 -2.56901,0.78356 -4.04002,0.73759 -0.76621,-0.0239 -2.53519,-0.14485 -3.93106,-0.26869 -1.80867,-0.16046 -2.59399,-0.13446 -2.73301,0.0905 -0.10728,0.17359 -0.49372,0.31563 -0.85873,0.31563 -0.96812,0 -1.12364,0.50261 -0.39538,1.27781 l 0.63818,0.67931 -0.95727,-0.18272 c -0.5265,-0.10049 -1.0051,-0.22298 -1.06356,-0.2722 -0.0585,-0.0492 -0.37191,0.0583 -0.69655,0.239 -0.32465,0.18067 -1.656,0.35311 -2.95856,0.38321 -1.30256,0.0301 -3.05788,0.1189 -3.90071,0.19735 -1.20537,0.11218 -1.9828,-0.0163 -3.64268,-0.60198 z m -86.67163,-25.87807 c -0.40548,-0.0623 -0.95778,-0.35697 -1.22733,-0.65481 -0.26954,-0.29784 -0.71245,-0.54153 -0.98424,-0.54153 -0.66922,0 -1.38255,-0.75713 -1.18887,-1.26187 0.0865,-0.22542 0.39463,-0.40986 0.68472,-0.40986 0.64191,0 0.71211,-0.893 0.1095,-1.39312 -0.47567,-0.39477 -0.56059,-1.55068 -0.13332,-1.81474 0.1676,-0.10359 0.0378,-0.37576 -0.31571,-0.66202 -0.50627,-0.40994 -0.54986,-0.5804 -0.27823,-1.08795 0.17716,-0.33102 0.56872,-0.73384 0.87014,-0.89515 0.46039,-0.2464 0.49439,-0.37921 0.21258,-0.83046 -0.28281,-0.45284 -0.22845,-0.65104 0.3463,-1.26284 0.47698,-0.50772 0.65553,-0.97578 0.59443,-1.55826 -0.048,-0.4579 0.0309,-0.98296 0.17534,-1.1668 0.14448,-0.18384 0.34181,-0.66616 0.43853,-1.07183 0.23618,-0.99061 2.1052,-2.142 2.53432,-1.56123 0.16071,0.2175 0.62364,0.47796 1.02874,0.57879 0.62408,0.15533 0.76316,0.0773 0.91083,-0.51109 0.14972,-0.59651 0.33269,-0.69442 1.29769,-0.69442 1.01854,0 1.16108,0.0902 1.52711,0.96623 0.59475,1.42343 0.50087,2.13535 -0.45253,3.43178 -0.59768,0.81272 -0.80107,1.33815 -0.67354,1.73999 0.1005,0.31662 0.0329,0.75613 -0.1501,0.97669 -0.18304,0.22056 -0.25547,0.60255 -0.16095,0.84886 0.26316,0.68579 -0.78391,2.76666 -1.75249,3.48275 -0.5838,0.43163 -0.86463,0.87596 -0.86463,1.36807 0,0.46498 -0.34759,1.06571 -0.96018,1.65946 -0.78608,0.76189 -0.93133,1.07494 -0.80104,1.72639 0.0875,0.43766 0.11213,0.77695 0.0547,0.75399 -0.0575,-0.023 -0.43624,-0.0927 -0.84173,-0.15502 z m 157.92937,-5.20871 c -0.0903,-0.23526 -0.0529,-0.49649 0.0831,-0.58052 0.36432,-0.22516 0.67323,0.41611 0.35416,0.73518 -0.17835,0.17835 -0.33002,0.1247 -0.43722,-0.15466 z m -112.51228,-3.9475 c -0.22648,-0.22648 -0.96571,-0.70806 -1.64274,-1.07018 -1.67915,-0.89813 -1.98379,-1.44192 -1.15924,-2.0693 0.54237,-0.41267 0.59897,-0.60087 0.36547,-1.21504 -0.3631,-0.955 -0.79091,-1.19163 -1.33623,-0.73906 -0.39546,0.32821 -0.42621,0.26244 -0.28188,-0.60291 0.55728,-3.34112 0.61096,-3.46566 2.08984,-4.84898 0.9532,-0.89161 1.44657,-1.57766 1.44657,-2.01153 0,-0.50822 0.15169,-0.65843 0.66492,-0.65843 0.5756,0 0.69047,-0.17041 0.85515,-1.26856 0.21228,-1.4156 0.43552,-1.57509 2.88523,-2.06126 1.54412,-0.30645 2.56026,-0.0577 2.56026,0.62678 0,0.18821 0.43883,0.99382 0.97517,1.79025 1.05574,1.56767 1.12183,1.90596 0.68191,3.49005 -0.20028,0.72117 -0.44816,1.04484 -0.8002,1.04484 -0.28052,0 -0.67696,0.20113 -0.88097,0.44695 -0.20402,0.24583 -0.64255,0.55023 -0.97451,0.67644 -0.39913,0.15175 -0.66656,0.56523 -0.78953,1.22071 -0.11396,0.60745 -0.46134,1.1816 -0.89719,1.48289 -1.42446,0.98467 -1.78616,1.45524 -1.62184,2.10996 0.11163,0.44478 -0.0538,0.8646 -0.553,1.40323 -0.4223,0.45567 -0.71229,1.09633 -0.71229,1.57364 0,0.97923 -0.32374,1.23067 -0.8749,0.67951 z m 191.87761,-0.38724 c -0.1,-0.16176 0.0196,-0.37141 0.26584,-0.46588 0.61294,-0.23521 0.80361,0.0233 0.31579,0.42815 -0.2746,0.2279 -0.4568,0.23972 -0.58163,0.0377 z m -154.77948,-9.75601 c -0.33824,-0.21383 -0.34905,-0.32931 -0.0581,-0.6203 0.29099,-0.29098 0.40647,-0.28018 0.62031,0.058 0.50841,0.80418 0.24192,1.07067 -0.56225,0.56225 z m -69.03104,-42.69946 c -0.28536,-0.35126 -2.01997,-4.06817 -2.01997,-4.32838 0,-0.52118 0.90367,0.81666 1.66001,2.45758 0.85259,1.84971 1.01079,2.67192 0.35996,1.8708 z"
       id="path1" />
  </g>
</svg>
