<?xml version="1.0" encoding="UTF-8" standalone="no"?>
<!-- Created with Inkscape (http://www.inkscape.org/) -->

<svg
   version="1.1"
   id="svg1"
   width="377.95279"
   height="163.68654"
   viewBox="0 0 377.9528 163.68654"
   sodipodi:docname="elephant_souris.svg"
   inkscape:version="1.4.3 (0d15f75, 2025-12-25)"
   xmlns:inkscape="http://www.inkscape.org/namespaces/inkscape"
   xmlns:sodipodi="http://sodipodi.sourceforge.net/DTD/sodipodi-0.dtd"
   xmlns="http://www.w3.org/2000/svg"
   xmlns:svg="http://www.w3.org/2000/svg">
  <defs
     id="defs1" />
  <sodipodi:namedview
     id="namedview1"
     pagecolor="#ffffff"
     bordercolor="#000000"
     borderopacity="0.25"
     inkscape:showpageshadow="2"
     inkscape:pageopacity="0.0"
     inkscape:pagecheckerboard="0"
     inkscape:deskcolor="#d1d1d1"
     inkscape:zoom="0.46254736"
     inkscape:cx="1128.5331"
     inkscape:cy="938.28229"
     inkscape:window-width="1920"
     inkscape:window-height="1122"
     inkscape:window-x="-8"
     inkscape:window-y="-8"
     inkscape:window-maximized="1"
     inkscape:current-layer="g1" />
  <g
     inkscape:groupmode="layer"
     inkscape:label="Image"
     id="g1"
     transform="translate(-32.175252,-22.667608)">
    <path
       style="fill:#000000;stroke-width:0.141827"
       d="m 263.40148,186.18136 c -1.20313,-0.45003 -1.93,-1.01071 -3.38161,-2.60842 -0.78005,-0.85855 -1.84376,-1.99368 -2.36379,-2.52251 -0.52003,-0.5288 -1.21243,-1.51301 -1.53862,-2.1871 -0.53316,-1.10172 -0.60568,-1.46461 -0.71732,-3.58941 -0.0683,-1.30009 -0.0529,-2.78928 0.0343,-3.30932 0.0871,-0.52003 0.0943,-1.58373 0.0158,-2.36378 -0.0784,-0.78005 -0.23817,-2.43944 -0.35498,-3.68751 -0.13148,-1.40493 -0.22833,-8.0112 -0.25427,-17.34471 -0.0231,-8.2915 -0.0979,-15.1314 -0.16625,-15.19978 -0.20366,-0.20367 -1.80375,0.64075 -1.90554,1.0056 -0.0517,0.18526 -0.15194,0.92832 -0.22284,1.65126 -0.0709,0.72293 -0.21236,1.53135 -0.3144,1.79648 -0.10206,0.26513 -0.26018,1.12028 -0.35136,1.90033 -0.0912,0.78005 -0.29124,2.09905 -0.44458,2.9311 -0.15335,0.83206 -0.27611,1.81067 -0.27279,2.17469 0.006,0.60626 -0.17582,2.55849 -0.60605,6.52407 -0.0903,0.83205 -0.26056,2.61908 -0.37843,3.97116 -0.11784,1.35209 -0.25729,2.75619 -0.30989,3.12021 -0.0526,0.36402 -0.11771,1.96805 -0.14466,3.56451 -0.035,2.07126 -0.11667,2.94443 -0.28512,3.04855 -0.28254,0.1746 -1.53877,-0.0848 -2.28871,-0.47262 -0.29593,-0.15304 -0.7538,-0.27824 -1.01748,-0.27824 -0.26371,0 -0.85808,-0.10126 -1.32085,-0.22504 -1.21802,-0.32578 -1.73781,-0.0469 -1.89363,1.01614 -0.3029,2.06622 -0.91262,3.75011 -1.66906,4.60946 -0.89232,1.01375 -1.39555,1.29357 -3.41138,1.89693 -1.15733,0.34639 -1.9653,0.45574 -3.3675,0.45574 -1.80252,0 -1.85343,-0.012 -2.22,-0.52687 -0.32746,-0.45987 -0.83024,-2.24412 -0.78407,-2.78243 0.009,-0.10402 0.0602,-0.65714 0.11391,-1.22917 0.0537,-0.57204 0.007,-1.67829 -0.10503,-2.45834 -0.11149,-0.78005 -0.22973,-1.80121 -0.26275,-2.26924 -0.0754,-1.06804 -0.61242,-3.65627 -0.85193,-4.10585 -0.0991,-0.18595 -0.40798,-1.57198 -0.6865,-3.08008 -0.27851,-1.5081 -0.58961,-3.12493 -0.69131,-3.59296 -0.1017,-0.46803 -0.22021,-1.64656 -0.26336,-2.61896 -0.0432,-0.97239 -0.1648,-2.23491 -0.27031,-2.8056 -0.13681,-0.74016 -0.12752,-1.41242 0.0324,-2.34504 0.17697,-1.03207 0.17273,-1.63601 -0.0202,-2.8675 -0.1344,-0.85804 -0.31965,-2.42809 -0.41166,-3.489 -0.092,-1.06091 -0.33974,-2.5874 -0.55052,-3.3922 -0.2108,-0.80479 -0.38327,-1.66353 -0.38327,-1.90829 0,-0.51454 -0.99226,-2.72377 -1.35934,-3.0265 -0.56449,-0.46554 -2.92989,-1.5611 -3.36825,-1.56003 -0.26,5.7e-4 -0.77058,0.0504 -1.13462,0.11068 l -0.66186,0.10952 -0.0128,5.04146 c -0.007,2.77281 -0.0635,9.16865 -0.12559,14.21298 -0.11244,9.14163 -0.0855,9.78456 0.55504,13.23723 1.16903,6.30158 1.12879,6.6969 -0.63645,6.25241 -0.48563,-0.12229 -2.18146,-0.27305 -3.7685,-0.33503 l -2.88555,-0.11269 -0.5537,0.55369 c -0.3936,0.3936 -0.59423,0.82567 -0.69391,1.49431 -0.20308,1.36249 -0.9557,2.81969 -1.8028,3.4906 -1.11366,0.88202 -3.05718,1.59673 -6.2085,2.28306 -2.5284,0.55068 -2.94153,0.59546 -3.61958,0.39231 -0.66583,-0.19948 -0.76536,-0.30065 -0.76536,-0.77786 0,-0.30171 -0.0796,-0.59775 -0.17687,-0.65786 -0.0973,-0.0601 -0.35777,-0.59283 -0.57888,-1.18381 -0.38123,-1.01896 -0.38607,-1.10986 -0.0935,-1.75855 0.29625,-0.65698 0.28922,-0.7391 -0.17754,-2.07508 -0.2673,-0.76505 -0.486,-1.53614 -0.486,-1.7135 0,-0.17735 -0.29625,-0.90712 -0.65831,-1.62169 -0.3621,-0.71457 -0.65993,-1.52768 -0.66188,-1.80694 -0.002,-0.27924 -0.0982,-0.74727 -0.21383,-1.04005 -0.11568,-0.29279 -0.28041,-1.55351 -0.36604,-2.8016 -0.10729,-1.56361 -0.27171,-2.53384 -0.52875,-3.1202 -0.30422,-0.69399 -0.35998,-1.16491 -0.30222,-2.55289 0.0389,-0.93607 -0.0166,-2.04232 -0.12356,-2.45835 -0.1069,-0.41603 -0.31615,-1.86266 -0.46501,-3.21475 -0.46601,-4.23331 -0.77216,-6.41255 -0.96967,-6.90227 -0.1049,-0.26002 -0.21016,-1.74921 -0.23396,-3.30931 -0.0407,-2.66983 -0.16838,-4.08669 -0.52819,-5.8622 -0.13653,-0.67368 -0.21932,-0.76283 -0.75697,-0.81502 -0.33201,-0.0322 -0.7907,0.0415 -1.01928,0.16382 l -0.41562,0.22244 0.16304,5.50927 c 0.18367,6.20628 0.14266,13.07414 -0.0882,14.77533 -0.29648,2.1843 -0.25391,6.23596 0.0779,7.41866 0.37889,1.35039 0.31635,2.86298 -0.12996,3.14277 -0.24145,0.15137 -0.55689,0.0876 -1.3079,-0.26429 -0.87946,-0.41209 -1.2443,-0.46377 -3.27477,-0.46377 -2.0514,0 -2.34465,0.0425 -2.8682,0.41598 l -0.58316,0.416 -0.0203,2.32602 c -0.0277,3.17682 -0.31403,5.04878 -0.85165,5.56893 -0.53478,0.51738 -3.27405,1.9574 -3.72344,1.9574 -0.18708,0 -1.17973,0.34967 -2.20589,0.77704 -4.48622,1.86838 -6.4688,2.38428 -7.87043,2.04803 l -0.93101,-0.22336 0.10394,-0.87537 c 0.0572,-0.48144 0.1596,-1.24628 0.22763,-1.69966 0.0954,-0.63556 -0.0206,-1.32833 -0.50669,-3.02565 -0.34672,-1.21075 -0.78361,-2.41589 -0.97087,-2.67807 -0.39982,-0.5598 -0.63305,-1.94571 -0.81084,-4.81819 -0.0708,-1.14407 -0.24641,-2.42051 -0.39022,-2.83654 -0.14381,-0.41603 -0.26271,-1.48208 -0.26422,-2.36899 -0.002,-1.05159 -0.0927,-1.74234 -0.26125,-1.98559 -0.14342,-0.20696 -0.29744,-1.06039 -0.34601,-1.91716 -0.0514,-0.90692 -0.20425,-1.72633 -0.37037,-1.98559 -0.45755,-0.71406 -0.70006,-2.00454 -0.79614,-4.23648 -0.0785,-1.82381 -0.0406,-2.20094 0.29431,-2.9311 0.36571,-0.7972 0.37746,-1.04963 0.24155,-5.18735 -0.0786,-2.39216 -0.15192,-5.79602 -0.16299,-7.56413 -0.0192,-3.06527 -0.0423,-3.25432 -0.49645,-4.06549 -0.32837,-0.5865 -0.85699,-1.10163 -1.70193,-1.65852 -1.48845,-0.98101 -1.81122,-1.07519 -2.78565,-0.8128 l -0.75987,0.20461 -0.0975,1.84237 c -0.0536,1.01331 -0.20173,2.89419 -0.32918,4.17973 -0.18752,1.89161 -0.18302,2.95544 0.0236,5.57855 0.15211,1.93113 0.2648,6.48963 0.27882,11.27808 0.0157,5.35155 0.0969,8.35282 0.24311,8.98241 0.39292,1.69191 0.45248,2.14713 0.3397,2.59647 -0.11095,0.44204 -0.11296,0.44231 -3.28511,0.43575 -4.17331,-0.009 -6.70241,0.45474 -7.46927,1.36848 -0.141,0.16801 -0.14764,1.10784 -0.022,3.12021 0.10563,1.69241 0.11028,3.02283 0.0113,3.22673 -0.25856,0.53253 -3.0835,1.79379 -4.67648,2.08791 -0.78005,0.14402 -2.43943,0.48803 -3.68751,0.76445 -1.24809,0.2764 -2.52039,0.47805 -2.82736,0.44811 -0.76294,-0.0745 -1.29756,-1.03079 -1.45758,-2.60736 -0.19967,-1.9673 -0.49171,-2.99795 -1.10836,-3.91164 -0.31718,-0.47 -0.53234,-0.99475 -0.47812,-1.16616 0.0542,-0.17141 -0.0699,-0.56694 -0.27579,-0.87896 -0.2059,-0.31202 -0.37796,-0.86514 -0.38235,-1.22916 -0.0136,-1.12593 -0.51188,-2.83872 -1.05306,-3.61965 -0.51236,-0.73932 -0.71347,-1.47393 -1.00225,-3.66083 -0.0824,-0.62404 -0.27928,-1.38991 -0.43751,-1.70193 -0.15823,-0.31202 -0.34457,-0.88163 -0.41408,-1.26579 -0.13731,-0.75876 -0.42079,-0.93399 -1.46653,-0.90653 -0.34777,0.009 -1.52583,-0.0691 -2.6179,-0.17374 -2.51859,-0.24145 -3.42617,-0.24671 -3.78171,-0.022 -0.21656,0.1369 -0.2902,0.61512 -0.31261,2.02996 -0.0161,1.01798 -0.13453,3.723 -0.26313,6.01115 -0.25875,4.60383 -0.25999,4.60789 -1.5993,5.22288 -1.09688,0.50369 -2.31898,0.46548 -2.92076,-0.0914 -0.66717,-0.61735 -2.84914,-1.39882 -4.54882,-1.62919 -2.57005,-0.34832 -3.67438,-0.5503 -4.72759,-0.86464 -0.57203,-0.17074 -1.71252,-0.46645 -2.53442,-0.65715 -1.73507,-0.40257 -2.26667,-0.82262 -2.33421,-1.84438 -0.0256,-0.38691 -0.0959,-1.26119 -0.15632,-1.94286 -0.0857,-0.96692 -0.0242,-1.49354 0.27964,-2.39551 0.33363,-0.99035 0.36522,-1.34929 0.22032,-2.50332 -0.13356,-1.06363 -0.097,-1.71372 0.1735,-3.08849 0.3441,-1.74857 0.58044,-4.00575 0.67734,-6.46887 0.0286,-0.72804 0.10223,-2.60017 0.16354,-4.16027 0.0613,-1.5601 0.17423,-3.98535 0.25094,-5.38944 0.0767,-1.40409 0.0673,-3.53151 -0.021,-4.72759 -0.19495,-2.64198 -0.19493,-2.6456 0.0296,-6.99682 0.11421,-2.21291 0.29158,-3.84584 0.4827,-4.44393 0.16618,-0.52003 0.35649,-1.54373 0.42293,-2.27487 0.1147,-1.26237 0.085,-1.40533 -0.58878,-2.83656 -0.39027,-0.82895 -1.06708,-1.93266 -1.50403,-2.4527 -0.43696,-0.52003 -1.09056,-1.371 -1.45246,-1.89103 -0.3619,-0.52003 -1.05667,-1.36618 -1.54394,-1.88033 -0.487259,-0.51415 -0.88593,-0.98779 -0.88593,-1.05252 0,-0.0647 -0.319112,-0.30182 -0.709137,-0.52684 -0.390026,-0.22502 -2.028133,-1.78931 -3.640239,-3.476197 -1.612105,-1.686884 -4.03763,-4.220258 -5.390051,-5.629719 -1.373513,-1.431443 -2.783751,-3.105241 -3.194753,-3.791831 -1.40258,-2.343035 -2.943345,-5.201625 -2.946912,-5.467423 -0.002,-0.146894 -0.442208,-1.25315 -0.978302,-2.458342 -1.050224,-2.361005 -2.050936,-5.132345 -2.050936,-5.679795 0,-0.186348 -0.173774,-0.881751 -0.386166,-1.545344 -0.255799,-0.799222 -0.346925,-1.440136 -0.26993,-1.898518 0.07879,-0.469053 0.01504,-0.887682 -0.19788,-1.299421 -0.205072,-0.396566 -0.274058,-0.820964 -0.19872,-1.222546 0.06347,-0.338312 0.125637,-1.777534 0.138155,-3.198271 0.02141,-2.43038 -0.0023,-2.609789 -0.400247,-3.03343 -0.232654,-0.247647 -0.621589,-0.50011 -0.864298,-0.561027 -0.594782,-0.14928 -7.198137,-3.142679 -9.009791,-4.084271 -0.797531,-0.414512 -1.552759,-0.753656 -1.678284,-0.753656 -0.2472,0 -1.975514,-0.701887 -3.490275,-1.417435 -1.331176,-0.628828 -2.779808,-0.874174 -4.849524,-0.821332 -1.427642,0.03645 -1.87775,-0.01891 -2.244936,-0.276095 -0.366082,-0.256414 -0.889508,-0.321688 -2.579573,-0.321688 -1.166167,0 -2.352141,-0.08814 -2.635501,-0.195878 -0.695872,-0.26457 -8.30852,0.09877 -10.24996,0.489215 -0.801143,0.16112 -2.605427,0.537629 -4.009519,0.836687 -4.054192,0.863504 -3.681256,0.865321 -4.542497,-0.02213 -0.905829,-0.933395 -0.943188,-1.377871 -0.23793,-2.830706 0.550994,-1.135049 1.259815,-1.732548 2.330901,-1.964826 0.359175,-0.07789 1.206172,-0.4187 1.882216,-0.757353 1.521093,-0.761964 6.537514,-2.510932 7.942339,-2.769085 0.572036,-0.105119 1.423001,-0.305025 1.891032,-0.444235 0.468032,-0.139212 1.596473,-0.475842 2.50765,-0.748071 1.351199,-0.403688 1.787071,-0.461369 2.36379,-0.312802 0.38891,0.100184 1.643169,0.23573 2.787245,0.301213 1.144074,0.06548 2.921374,0.20483 3.949552,0.309661 1.390146,0.141734 2.008281,0.13308 2.411067,-0.03376 0.297908,-0.123397 0.541652,-0.269825 0.541652,-0.325395 0,-0.05557 -0.212742,-0.379955 -0.47276,-0.720853 -0.260016,-0.340899 -0.472758,-0.699775 -0.472758,-0.797501 0,-0.205329 -0.657205,-1.799933 -1.028298,-2.494999 -0.278893,-0.52237 -0.940237,-3.02114 -1.151143,-4.349374 -0.07432,-0.468032 -0.296245,-1.1689 -0.493175,-1.557487 -0.426061,-0.840716 -0.474237,-2.089946 -0.189565,-4.915536 0.214107,-2.125166 0.958232,-4.36123 1.58236,-4.75492 0.481564,-0.303763 1.279821,0.146351 1.279821,0.721653 0,0.258397 0.158543,0.877171 0.35232,1.375054 0.193774,0.497882 0.414067,1.244054 0.48954,1.658159 0.07547,0.414105 0.384957,1.282795 0.687748,1.930423 0.631759,1.351247 0.689351,1.882173 0.219597,2.024398 -0.37497,0.113529 -2.031994,0.1625 -2.59369,0.07666 -0.308669,-0.04718 -0.401401,0.101285 -0.546655,0.87517 -0.188083,1.002066 0.182816,3.089742 0.73959,4.162929 0.154059,0.296948 0.242853,0.57716 0.197317,0.622696 -0.04553,0.04553 0.144413,0.454054 0.422102,0.907823 0.277688,0.453769 0.879456,1.446284 1.337262,2.20559 1.680385,2.787054 3.882342,4.772221 7.250421,6.53659 0.701967,0.367727 1.616515,0.9598 2.032324,1.315718 0.724827,0.620425 0.799602,0.641681 1.812256,0.515158 1.234733,-0.15427 1.401703,-0.399343 0.877451,-1.287884 -0.207402,-0.351521 -0.435326,-1.011736 -0.506499,-1.467146 -0.07117,-0.455411 -0.349513,-1.551339 -0.618534,-2.435396 -0.44724,-1.46973 -0.487172,-1.87458 -0.466308,-4.727584 0.01255,-1.716112 0.120497,-3.588235 0.239884,-4.160273 0.119386,-0.572036 0.327713,-1.593194 0.462949,-2.269239 0.36195,-1.809383 1.73631,-5.682215 2.186526,-6.161447 0.214612,-0.228446 0.552925,-0.938175 0.751803,-1.577176 0.455238,-1.462675 0.650182,-1.831552 1.427339,-2.700813 0.684242,-0.765336 1.399175,-2.046129 1.399175,-2.506606 0,-0.494889 0.837276,-0.33031 1.421418,0.279402 0.461641,0.481852 0.558749,0.760443 0.624391,1.791355 0.06231,0.978547 0.0024,1.348472 -0.302024,1.864404 -0.208867,0.354002 -0.43822,0.93071 -0.509676,1.281574 -0.07146,0.350863 -0.393489,1.361254 -0.715632,2.245311 -0.33285,0.913446 -0.604325,2.056394 -0.628826,2.647447 -0.02371,0.572037 -0.108421,2.571804 -0.188243,4.443927 -0.171398,4.019873 -0.144127,5.48287 0.111088,5.959743 0.103126,0.192694 0.187504,1.073728 0.187504,1.957854 0,0.884125 0.09866,1.847054 0.219241,2.139843 0.120583,0.292791 0.234804,1.000376 0.253829,1.572413 0.01902,0.572039 0.218203,1.698003 0.44262,2.502144 0.224418,0.804139 0.408031,1.806694 0.408031,2.227898 0,0.912532 0.232121,1.047892 1.302641,0.759632 0.90821,-0.244557 1.344807,-0.91063 1.344807,-2.051652 0,-1.627409 0.593071,-4.05609 1.611146,-6.597775 1.442151,-3.600423 2.471412,-5.318656 4.337487,-7.240928 0.858213,-0.884058 1.844604,-2.014516 2.191984,-2.512128 0.602887,-0.863627 2.068316,-2.026351 2.55389,-2.026351 0.125944,0 0.57867,0.349684 1.006064,0.777077 0.894666,0.894665 0.896236,1.214327 0.01291,2.626782 -0.292699,0.46803 -0.61359,1.066497 -0.713087,1.329923 -0.0995,0.263428 -0.46972,0.859103 -0.822718,1.323723 -0.92928,1.223137 -2.802642,4.104122 -2.802642,4.310102 0,0.09673 -0.122174,0.277264 -0.271499,0.401193 -0.149324,0.123928 -0.324987,0.468855 -0.390361,0.766501 -0.06537,0.297647 -0.242331,0.643649 -0.39324,0.76889 -0.363726,0.301865 -1.165355,1.908175 -1.598096,3.202279 -0.191288,0.572039 -0.568238,1.664557 -0.837666,2.427819 -0.593384,1.681008 -0.805171,4.906361 -0.523521,7.972864 0.201127,2.189802 0.338195,2.498198 2.491276,5.605296 2.725662,3.933381 4.250944,5.782206 6.575496,7.970283 3.030475,2.852551 4.037476,3.686086 6.32635,5.236555 1.00596,0.681433 1.85693,1.307714 1.89103,1.391736 0.0567,0.139721 2.96099,2.110319 3.1102,2.110319 0.0356,0 0.52655,0.295457 1.09106,0.656572 1.71052,1.094206 2.93532,1.553638 3.89764,1.462031 1.08222,-0.103022 1.24145,-0.241524 1.91394,-1.664854 0.30439,-0.644239 0.66879,-1.267084 0.80978,-1.384097 0.141,-0.117015 0.3111,-0.486477 0.37801,-0.821024 0.0669,-0.334549 0.39073,-1.052248 0.71961,-1.594888 0.47976,-0.791613 0.78726,-1.067387 1.55579,-1.395275 0.71246,-0.303971 1.54001,-0.996403 3.23039,-2.702973 1.24991,-1.261872 2.86674,-2.716693 3.59297,-3.232937 0.72622,-0.516242 1.67611,-1.20877 2.11086,-1.538949 0.89173,-0.677231 4.58244,-2.514687 6.01726,-2.995747 0.52003,-0.174355 1.371,-0.512589 1.89103,-0.751631 1.30017,-0.597644 3.51148,-0.983357 7.8175,-1.363588 2.81001,-0.248128 3.79566,-0.273479 4.25482,-0.109435 0.32868,0.117428 0.98054,0.267513 1.44857,0.333523 2.08229,0.293683 5.72831,1.130398 7.37502,1.692476 0.98807,0.337258 2.09198,0.668101 2.45315,0.735207 0.36116,0.06711 0.91429,0.360744 1.22917,0.65253 0.31488,0.291785 1.21073,0.900503 1.99078,1.352705 2.97888,1.726876 3.69095,2.17233 4.81436,3.011715 0.63697,0.475934 1.28914,0.950432 1.44925,1.054438 1.67466,1.087831 2.45384,1.665835 2.74765,2.038218 0.19215,0.243537 1.20843,1.132764 2.25841,1.976062 1.04996,0.843295 2.33574,2.019727 2.85727,2.614288 l 0.94823,1.081022 0.88391,-0.132551 c 0.81626,-0.122406 0.93725,-0.214808 1.58094,-1.207349 1.45582,-2.244833 2.60306,-3.550011 6.56903,-7.473447 1.66501,-1.647137 3.29274,-3.111558 3.6172,-3.254269 0.68413,-0.30091 1.99775,-1.27919 2.81393,-2.095593 1.28797,-1.288329 5.37371,-3.145291 9.63548,-4.379306 2.27156,-0.657741 2.28932,-0.659646 6.24919,-0.670387 3.32812,-0.009 4.35221,0.05815 6.32418,0.41481 3.12042,0.564378 4.27141,0.849222 5.36863,1.328599 0.50265,0.21961 0.99664,0.399289 1.09772,0.399289 0.18135,0 1.02222,0.356485 2.94063,1.246679 0.53957,0.250388 1.08601,0.455251 1.21427,0.455251 0.12826,0 0.36754,0.115606 0.53174,0.256902 0.16421,0.141297 0.87058,0.566962 1.56973,0.945921 1.38063,0.748346 3.23495,1.942366 4.87468,3.138849 0.57203,0.417407 1.38174,1.005715 1.79932,1.307348 1.28672,0.929404 4.79533,4.558953 6.31063,6.528124 0.79186,1.029058 1.57953,2.04453 1.75036,2.256607 0.29043,0.360555 0.37894,0.3703 1.36305,0.150066 1.02636,-0.22969 1.07254,-0.268437 1.86408,-1.563776 1.99175,-3.259471 5.8326,-7.23308 8.99002,-9.300761 4.39185,-2.876068 8.10386,-4.202749 14.40737,-5.149211 2.79827,-0.420157 7.79626,-0.282941 10.22368,0.280685 2.73529,0.63511 4.98895,1.268472 5.5801,1.568216 0.31117,0.15778 0.90614,0.39255 1.32218,0.52171 1.10567,0.34327 3.40388,1.459565 3.67331,1.784224 0.1278,0.153987 0.64961,0.547711 1.15953,0.87494 0.8009,0.513941 1.0325,0.577168 1.70056,0.464299 0.42537,-0.07187 0.81955,-0.250946 0.87598,-0.397958 0.0564,-0.14701 -0.0313,-1.223509 -0.19493,-2.39222 -0.41825,-2.987349 -0.42456,-3.688935 -0.0434,-4.828745 0.18425,-0.551036 0.28678,-1.194034 0.22784,-1.428884 -0.10698,-0.426225 -0.0332,-0.955923 0.53034,-3.809639 0.1643,-0.832054 0.41853,-2.431243 0.56496,-3.553749 0.14642,-1.122508 0.35554,-2.148543 0.46471,-2.280074 0.10915,-0.131534 0.31916,-0.702488 0.46666,-1.268789 0.1475,-0.566299 0.69535,-1.837871 1.21742,-2.825713 0.5221,-0.987844 1.01165,-2.00882 1.0879,-2.268838 0.0763,-0.260017 0.46765,-0.888082 0.86979,-1.395701 0.40213,-0.507619 0.73116,-1.035467 0.73116,-1.172997 0,-0.412703 0.42411,-1.213098 0.64493,-1.217121 0.11332,-0.0021 0.45882,-0.429531 0.7678,-0.949929 0.30898,-0.520396 1.09612,-1.485795 1.74921,-2.145331 1.87343,-1.891927 1.58112,-2.100282 -1.07045,-0.763013 -0.94394,0.476056 -2.16234,1.210728 -2.70756,1.632602 -1.31718,1.019192 -3.35511,3.014718 -3.35511,3.285303 0,0.118712 -0.25528,0.53708 -0.5673,0.929706 -0.31202,0.392627 -0.56731,0.800803 -0.56731,0.90706 0,0.106255 -0.34779,0.653839 -0.77288,1.216853 -0.42508,0.563015 -0.97936,1.506808 -1.23173,2.097321 -0.25239,0.590511 -0.54283,1.221422 -0.64543,1.402023 -0.10258,0.1806 -0.18729,0.43589 -0.18824,0.567309 -10e-4,0.131421 -0.21104,0.664429 -0.46684,1.184463 -0.25582,0.520033 -0.46784,1.073161 -0.47114,1.229171 -0.003,0.156011 -0.17548,0.72955 -0.38262,1.274533 -0.20713,0.544982 -0.42747,1.608689 -0.48963,2.363791 -0.0622,0.755103 -0.20655,1.670751 -0.32085,2.034775 -0.11431,0.364023 -0.25559,2.105407 -0.31396,3.869741 l -0.10613,3.207881 -0.64254,0.432358 c -1.07437,0.722922 -2.40604,0.406504 -1.72792,-0.410573 0.1346,-0.162175 0.21415,-0.824955 0.1983,-1.652245 -0.029,-1.514182 0.1211,-3.571452 0.31461,-4.312543 0.0679,-0.260017 0.14186,-1.042812 0.16434,-1.739548 0.0225,-0.696733 0.16897,-1.675342 0.32548,-2.174687 0.15653,-0.499343 0.46447,-1.476975 0.68433,-2.17251 0.21987,-0.695537 0.39974,-1.490824 0.39974,-1.767305 0,-0.276481 0.12595,-0.728562 0.27987,-1.004627 0.38805,-0.695933 1.23295,-2.685245 1.23295,-2.902935 0,-0.305349 2.12531,-4.50127 2.27996,-4.50127 0.0803,0 0.40482,-0.404209 0.72123,-0.898243 0.3164,-0.494031 0.96218,-1.408819 1.43504,-2.032859 0.47286,-0.624041 1.00844,-1.379358 1.19014,-1.678487 0.67961,-1.118723 1.28789,-1.693273 2.96094,-2.796729 2.11122,-1.392446 6.11612,-3.358643 8.14834,-4.000417 1.73441,-0.547726 4.94364,-1.263187 5.66609,-1.263187 0.48359,0 0.93162,-0.146946 4.07273,-1.335749 0.88406,-0.334586 2.28815,-0.859046 3.1202,-1.165465 3.80421,-1.400968 13.29339,-2.296958 17.49205,-1.651639 0.67606,0.103905 1.99505,0.278751 2.93111,0.388546 1.76513,0.20704 4.13479,0.781837 4.5113,1.094282 0.11896,0.09872 0.8545,0.240473 1.63456,0.315014 1.52126,0.145371 1.89421,0.298198 3.21475,1.317367 0.46804,0.361214 1.39208,1.032836 2.05343,1.492493 1.2239,0.850638 4.22242,3.704434 5.62114,5.34983 2.63489,3.099574 3.17328,3.887778 4.4956,6.581588 1.00648,2.050378 2.69959,6.667273 2.94728,8.036889 0.25458,1.407626 0.96635,4.009313 1.24352,4.545287 0.18535,0.358441 0.31671,2.005068 0.45868,5.750347 0.10942,2.886444 0.15815,5.314114 0.10826,5.394824 -0.0499,0.08071 -0.18206,1.199857 -0.29375,2.486997 -0.11169,1.287139 -0.32757,2.664975 -0.47973,3.061857 -0.15216,0.396881 -0.22399,0.806808 -0.15964,0.910948 0.23235,0.375947 -0.58278,3.899799 -1.45955,6.309788 -0.11352,0.31202 -0.36946,1.03501 -0.56875,1.606643 -0.19931,0.571633 -0.57259,1.356951 -0.82947,1.745151 -0.2569,0.388201 -0.46709,0.77188 -0.46709,0.852623 0,0.08074 -0.46889,0.770085 -1.04197,1.531872 -0.57308,0.761785 -0.99417,1.462384 -0.93576,1.556886 0.0584,0.0945 0.93149,0.164085 1.94019,0.154628 2.29486,-0.02152 3.04394,0.114661 4.53313,0.824108 2.14865,1.023623 4.16646,3.879383 5.44578,7.707319 0.49966,1.495062 0.76304,1.752056 1.68461,1.643795 0.41815,-0.04912 1.27561,-0.284324 1.90546,-0.522672 1.71272,-0.648141 1.86694,-0.491445 1.10029,1.118077 -0.37043,0.777726 -0.783,1.374263 -0.99751,1.442349 -0.2012,0.06386 -0.59017,0.29259 -0.86439,0.508298 -0.62017,0.487818 -0.54612,0.965799 0.46408,2.996071 0.38814,0.78005 1.10762,2.35434 1.59886,3.49841 0.49126,1.14408 1.048,2.42053 1.23721,2.83655 0.813,1.78752 0.97267,2.1843 1.67419,4.16028 0.84373,2.37653 0.96439,2.46053 2.70414,1.88267 0.80885,-0.26865 0.99772,-0.27808 1.2106,-0.0604 0.40002,0.40902 -0.0401,2.0106 -0.65747,2.39237 -0.26606,0.16453 -0.66383,0.45776 -0.88392,0.65164 -0.37744,0.33245 -0.38489,0.39768 -0.13091,1.14698 0.14809,0.43697 0.43456,1.14046 0.63657,1.56333 0.202,0.42286 0.36812,0.89089 0.36914,1.04006 10e-4,0.14918 0.22361,0.73926 0.49465,1.3113 0.27104,0.57204 0.73972,1.88589 1.0415,2.91967 0.30178,1.03378 0.79605,2.26768 1.09833,2.742 0.30229,0.47431 0.63234,1.28787 0.73345,1.80791 0.22453,1.15494 1.16749,3.37029 2.455,5.76765 0.53064,0.98807 1.21914,2.2734 1.53,2.8563 l 0.56522,1.05982 2.89499,0.10682 c 1.75783,0.0649 3.22925,0.21649 3.74596,0.38603 0.46804,0.15356 1.36155,0.42076 1.98558,0.59379 0.62404,0.17304 1.41406,0.43719 1.75563,0.58702 0.34154,0.14983 0.85212,0.27249 1.13461,0.27258 0.80527,2.8e-4 3.11926,0.52492 5.06771,1.14906 1.47103,0.47122 1.9912,0.7494 2.99728,1.60292 1.31619,1.1166 1.34786,1.17344 1.53236,2.74886 0.11077,0.94591 0.06,1.18453 -0.48276,2.26924 -0.3336,0.66669 -0.71321,1.33981 -0.84357,1.49582 -0.34988,0.41872 -0.48364,1.15224 -0.58109,3.18652 -0.0849,1.77194 -0.11883,1.88706 -1.17341,3.97956 -0.95877,1.90243 -1.26128,2.3177 -2.58243,3.54507 -1.55631,1.44584 -3.54942,2.57835 -6.16246,3.50155 -1.08495,0.38332 -1.5731,0.43331 -4.16029,0.42607 -3.09196,-0.009 -3.86543,-0.15606 -6.90226,-1.31558 -0.62403,-0.23827 -1.68774,-0.61769 -2.36379,-0.84314 -0.67604,-0.22547 -1.35681,-0.51796 -1.51283,-0.64997 -0.15601,-0.13205 -0.69263,-0.44004 -1.1925,-0.68445 -0.89266,-0.43645 -4.4806,-3.69108 -4.4806,-4.06435 0,-0.10474 -0.47516,-0.52825 -1.05594,-0.94113 -1.87349,-1.33194 -2.22746,-1.6519 -5.01461,-4.53277 -5.69466,-5.88615 -6.31674,-6.63646 -7.98466,-9.6306 -0.29388,-0.52755 -0.81046,-1.38467 -1.148,-1.9047 -0.7605,-1.17175 -2.57249,-4.85383 -2.57249,-5.22751 0,-0.15147 -0.076,-0.35624 -0.16888,-0.45504 -0.22746,-0.24197 -2.10037,-3.88932 -2.10037,-4.09031 0,-0.0875 -0.2634,-0.56243 -0.58532,-1.05534 -0.32194,-0.49291 -1.12136,-1.84831 -1.7765,-3.012 -1.50944,-2.68113 -2.41535,-3.84446 -4.85211,-6.23081 -1.952,-1.91164 -1.95972,-1.91675 -2.71398,-1.79424 -0.65738,0.10676 -0.76457,0.19396 -0.81869,0.66592 -0.11447,0.99813 0.54288,3.96006 1.58675,7.14972 1.68201,5.1396 4.95787,11.00063 7.69478,13.76719 1.55571,1.57257 1.94832,2.19415 2.20659,3.49354 l 0.25835,1.29975 -0.58024,0.51845 c -0.41764,0.37317 -0.87475,0.55525 -1.63113,0.64976 -1.3459,0.16815 -1.66727,0.0787 -3.14169,-0.87423 -0.66882,-0.43229 -1.51599,-0.89248 -1.88256,-1.02265 -1.10574,-0.39262 -2.86828,-1.5141 -4.07038,-2.58993 -0.62403,-0.5585 -1.70903,-1.46677 -2.41107,-2.01838 -0.70204,-0.55162 -1.27645,-1.07785 -1.27645,-1.16942 0,-0.0916 -0.53336,-0.57354 -1.18526,-1.07106 -2.0914,-1.59613 -5.44659,-5.41467 -6.40263,-7.28681 -0.38726,-0.75837 -0.81249,-0.88512 -1.7604,-0.52472 -0.61093,0.23227 -0.63191,0.83265 -0.1143,3.27001 0.20392,0.96025 0.46686,2.63942 0.58432,3.73149 0.25173,2.34043 0.36335,10.35167 0.15941,11.44075 -0.0779,0.41603 -0.24114,1.64993 -0.36277,2.742 -0.12164,1.09207 -0.30563,2.24088 -0.40888,2.5529 -0.10325,0.31202 -0.22181,2.13574 -0.26342,4.05271 -0.0416,1.91698 -0.12484,3.64028 -0.18492,3.82955 -0.19159,0.60367 -0.73138,0.74782 -2.01829,0.53896 -1.60685,-0.26074 -2.70601,-0.24412 -2.94561,0.0446 -0.10945,0.13189 -0.21759,0.74883 -0.24029,1.371 -0.0907,2.48406 -0.54414,4.88041 -1.06602,5.63372 -0.65721,0.94862 -0.82879,1.02409 -2.91221,1.28071 -4.01079,0.49404 -8.59549,-0.41235 -11.49413,-2.27241 -0.84978,-0.54532 -0.9279,-0.65226 -0.77333,-1.05884 0.10676,-0.28074 0.0999,-0.65891 -0.018,-0.99723 -0.1045,-0.29975 -0.21577,-2.11123 -0.24728,-4.02551 -0.053,-3.21942 -0.16366,-4.40455 -0.69576,-7.45171 -0.22046,-1.26253 -0.25775,-1.72227 -0.43698,-5.38944 -0.0686,-1.40409 -0.20502,-3.36131 -0.3031,-4.34938 -0.0981,-0.98806 -0.27612,-2.90273 -0.39564,-4.25482 -0.20603,-2.33051 -0.53362,-4.77675 -0.94961,-7.09138 -0.10283,-0.57203 -0.26502,-1.63574 -0.36042,-2.36379 -0.42732,-3.26078 -0.3859,-3.20582 -2.32159,-3.08159 -2.57149,0.16503 -3.03905,0.7121 -3.03763,3.55417 0.001,1.70089 0.17452,10.48525 0.35892,18.1541 0.0473,1.96616 -0.0483,5.98293 -0.21813,9.17102 -0.16625,3.11993 -0.258,6.00259 -0.20391,6.40589 0.2105,1.56941 -0.5916,2.05564 -1.91151,1.15874 -0.51703,-0.35136 -0.94312,-0.47277 -1.65893,-0.47277 -1.34795,0 -1.77805,0.47546 -1.80727,1.99787 -0.0358,1.86457 -0.50326,6.55912 -0.72786,7.3096 -0.46488,1.55333 -1.58061,2.2887 -4.70366,3.10014 -1.85448,0.48184 -3.94405,0.60765 -5.03,0.30284 -0.48319,-0.13563 -0.60132,-0.31419 -0.90942,-1.37466 -0.19476,-0.67031 -0.52051,-1.77188 -0.72388,-2.44793 -0.20337,-0.67605 -0.36852,-1.42624 -0.36702,-1.66708 0.002,-0.24086 -0.0753,-0.58381 -0.17078,-0.76213 -0.0954,-0.1783 -0.25933,-0.94356 -0.36424,-1.70057 -0.10491,-0.757 -0.29796,-1.50557 -0.42902,-1.66347 -0.22942,-0.27645 -0.60895,-2.93529 -1.20498,-8.44158 -0.15506,-1.43274 -0.32616,-4.32603 -0.38021,-6.42952 -0.054,-2.10349 -0.13789,-4.46275 -0.18635,-5.24281 -0.1077,-1.73317 -0.2313,-4.51763 -0.39453,-8.88785 -0.1259,-3.37062 -0.43638,-6.14965 -0.87676,-7.84779 -0.23402,-0.90233 -0.27724,-0.94817 -0.94635,-1.00373 -1.36524,-0.11335 -1.38378,-0.0712 -1.63453,3.71155 -0.22052,3.32635 -0.0362,9.7944 0.32155,11.28583 0.44269,1.84539 -0.22836,20.49294 -0.76937,21.37964 -0.0598,0.098 -0.0425,0.84952 0.0384,1.67009 0.1657,1.68064 -0.0229,2.66224 -0.56744,2.95368 -0.20065,0.10739 -0.77134,0.27727 -1.26816,0.3775 -2.51107,0.50655 -3.30124,0.71389 -3.50773,0.92038 -0.14548,0.14549 -0.26975,1.31905 -0.34864,3.29258 -0.24586,6.1502 -0.37759,6.65513 -2.02507,7.7616 -1.90233,1.27762 -5.94172,2.13618 -7.43041,1.57933 z m 3.63285,-6.2125 c 1.16408,-0.65424 1.1992,-0.90422 1.15105,-8.19336 -0.0234,-3.53623 -0.0716,-7.5783 -0.10729,-8.9824 -0.27649,-10.89112 -0.0823,-21.43731 0.4844,-26.31256 0.1166,-1.00303 0.15535,-1.97134 0.0861,-2.1518 -0.0693,-0.18047 -0.0444,-0.59371 0.0551,-0.91832 0.20778,-0.67759 0.57117,-2.98397 0.68889,-4.37226 0.1699,-2.00359 1.19975,-3.82996 2.56352,-4.54622 1.99694,-1.0488 7.59429,-1.24618 9.29809,-0.32788 0.60217,0.32456 2.40361,2.12501 2.40361,2.4023 0,0.075 0.33565,0.70444 0.74589,1.39867 0.41025,0.69423 0.88897,1.68771 1.06384,2.20775 0.72351,2.15158 1.29791,6.75522 1.16795,9.36061 -0.0441,0.88406 0.0297,3.35186 0.16399,5.48399 0.13431,2.13215 0.28521,5.96149 0.33535,8.50965 0.14883,7.56466 0.37817,9.51561 1.95624,16.6411 0.28792,1.30007 0.59908,2.48104 0.69145,2.62438 0.31821,0.49373 3.4931,-0.12805 3.52808,-0.69093 0.005,-0.0753 0.045,-1.28578 0.0897,-2.68987 0.0446,-1.40409 0.14177,-3.27622 0.21586,-4.16028 0.0741,-0.88405 0.14847,-6.96845 0.16532,-13.52088 0.0168,-6.55243 0.0956,-12.33899 0.175,-12.85902 0.0794,-0.52004 0.14347,-1.20081 0.14233,-1.51283 -10e-4,-0.31202 0.0734,-1.03534 0.16558,-1.60738 0.18532,-1.1498 0.39932,-4.27724 0.43452,-6.35015 0.0202,-1.18732 0.0869,-1.41845 0.58942,-2.04153 2.24942,-2.78902 2.97386,-3.25107 6.23979,-3.97971 2.87819,-0.64214 6.67624,-1.13943 7.50907,-0.98319 1.34502,0.25232 2.63319,1.68381 2.99852,3.33211 0.0807,0.36402 0.27998,1.12989 0.44289,1.70193 0.16293,0.57204 0.34863,1.59319 0.41268,2.26924 0.0641,0.67604 0.31839,2.46307 0.56517,3.97117 0.24681,1.5081 0.58652,4.10354 0.75492,5.76765 0.1684,1.66411 0.38445,3.70642 0.48011,4.53848 0.0957,0.83205 0.25323,3.51259 0.35015,5.95675 0.0969,2.44416 0.2691,4.86941 0.38265,5.38944 0.25066,1.14818 0.55258,4.09009 0.66955,6.52406 0.10035,2.08833 0.29256,2.36764 1.75258,2.54692 0.48957,0.0601 1.45963,0.19243 2.1557,0.29402 1.90086,0.27744 2.88738,0.23327 3.36132,-0.15051 0.67897,-0.54979 0.90638,-2.0802 0.93471,-6.29018 0.0142,-2.10411 0.0658,-3.89054 0.11486,-3.96985 0.049,-0.0793 -0.0326,-1.4508 -0.18145,-3.04774 -0.30871,-3.31283 -0.43835,-5.91691 -0.58225,-11.69684 -0.0557,-2.23615 -0.19385,-4.67162 -0.30702,-5.41217 -0.11875,-0.77687 -0.16942,-2.73675 -0.11979,-4.63303 0.0887,-3.39061 0.1713,-3.77626 1.14878,-5.36672 0.12785,-0.20801 0.55061,-0.93982 0.93947,-1.62623 0.75123,-1.32608 2.15746,-2.73983 4.11941,-4.14142 1.72017,-1.22888 1.88083,-1.41792 1.88843,-2.22196 0.004,-0.39003 0.12832,-0.92188 0.27696,-1.1819 0.14864,-0.26002 0.27326,-0.824 0.27695,-1.25329 0.004,-0.445 0.12496,-0.87868 0.28179,-1.00884 0.15131,-0.12557 0.50262,-0.62529 0.78073,-1.1105 0.77995,-1.3608 1.71677,-2.23061 3.64318,-3.38255 1.28994,-0.77135 2.0057,-1.07853 2.64745,-1.13618 0.835,-0.075 0.96005,-0.0185 2.46942,1.1169 3.24125,2.43809 3.20573,2.419 4.50871,2.42219 0.65992,0.002 1.18189,0.0864 1.18189,0.192 0,0.24177 0.22981,0.45737 2.92261,2.74199 2.75809,2.34002 6.91028,6.52894 6.91122,6.97235 0,0.11747 0.34179,0.7161 0.75901,1.33029 0.41722,0.61419 1.021,1.67789 1.34174,2.36379 0.32074,0.68589 0.67657,1.41728 0.79071,1.62529 0.11416,0.20801 0.47262,0.88879 0.7966,1.51283 0.324,0.62404 0.89882,1.68774 1.27741,2.36379 0.37859,0.67604 0.99476,2.11038 1.36928,3.1874 0.55676,1.60106 1.98545,4.61361 3.17996,6.70527 1.44022,2.52192 5.01806,6.58747 8.36762,9.50825 1.03319,0.90092 2.01159,1.77604 2.17424,1.94472 0.16267,0.16868 1.26892,1.07255 2.45836,2.00862 1.18942,0.93606 2.71672,2.2653 3.39401,2.95386 0.91742,0.93269 1.66482,1.46915 2.9311,2.1038 3.91057,1.95995 6.1215,2.60102 8.97038,2.60102 1.92768,0 3.61855,-0.41014 5.68289,-1.37847 1.61703,-0.75851 4.57092,-4.34702 4.02082,-4.88467 -0.0793,-0.0775 -1.07191,-0.19038 -2.20577,-0.25082 -4.77099,-0.25433 -8.28607,-1.85264 -12.18689,-5.54138 -0.57745,-0.54603 -1.10422,-0.99279 -1.17064,-0.99279 -0.0664,0 -0.66033,-0.70205 -1.31981,-1.5601 -0.65949,-0.85806 -1.68773,-2.11707 -2.28498,-2.79782 -1.10452,-1.25894 -2.25024,-3.11959 -2.25024,-3.65439 0,-0.16229 -0.24282,-0.5746 -0.53958,-0.91624 -1.29506,-1.49089 -1.93562,-3.45736 -1.98869,-6.10516 -0.0552,-2.75621 -0.50897,-3.47461 -1.84501,-2.9212 -0.56292,0.23316 -1.03703,0.96231 -1.46914,2.25934 -0.29391,0.88224 -1.00344,1.66003 -1.55654,1.70627 -0.77345,0.0647 -0.92158,0.006 -0.92158,-0.36365 0,-0.55714 1.30573,-3.54288 1.9794,-4.52613 0.33243,-0.48522 0.75782,-1.28607 0.94528,-1.77968 l 0.34085,-0.89747 -0.62789,-1.65543 c -0.34536,-0.91048 -0.80619,-2.29365 -1.02408,-3.0737 -0.43908,-1.57181 -0.66392,-1.73074 -1.88056,-1.32922 -0.69795,0.23035 -0.8609,0.57415 -0.86504,1.82517 -0.002,0.68258 -0.11069,0.87925 -0.87115,1.58022 -0.75081,0.69208 -0.94869,0.78459 -1.45964,0.6824 -0.3251,-0.065 -0.65467,-0.18179 -0.73237,-0.2595 -0.21283,-0.21283 0.33907,-2.35008 0.82223,-3.18417 0.50962,-0.87975 1.32012,-1.96029 2.28437,-3.04546 0.39071,-0.43971 0.71039,-0.88841 0.71039,-0.99711 0,-0.17944 -0.7721,-2.19222 -1.43263,-3.7347 -0.19544,-0.45638 -0.38337,-0.61459 -0.73011,-0.61459 -0.7506,0 -1.4301,0.39597 -1.43128,0.83405 -0.002,0.82821 -0.41524,1.82686 -1.02137,2.46955 -0.49602,0.52592 -0.77534,0.66757 -1.31642,0.66757 h -0.68681 v -0.91701 c 0,-1.26558 1.03893,-3.22524 2.38126,-4.49168 0.56244,-0.53062 1.0226,-1.10102 1.0226,-1.26755 0,-0.35942 -0.23116,-0.96204 -0.95715,-2.49527 -0.29549,-0.62404 -0.84486,-1.81539 -1.22079,-2.64744 -0.87242,-1.93085 -1.27241,-2.36379 -2.18386,-2.36379 -0.56186,0 -0.9158,0.17897 -1.76354,0.89172 -0.64296,0.5406 -1.06163,1.04321 -1.06323,1.27645 -0.004,0.62183 -2.05211,4.42508 -2.56283,4.75972 -0.54891,0.35966 -2.16211,0.58777 -2.16211,0.30572 0,-0.32112 0.5498,-1.52737 0.75356,-1.6533 0.10558,-0.0653 0.19197,-0.29024 0.19197,-0.49997 0,-0.20973 0.36165,-0.98028 0.80369,-1.71233 0.44201,-0.73204 0.88877,-1.47436 0.99279,-1.6496 0.4212,-0.70968 1.5638,-2.08078 2.87161,-3.4459 1.4626,-1.526725 1.65631,-2.026346 1.11071,-2.864924 -0.14989,-0.230356 -0.5385,-1.142148 -0.86359,-2.026206 -1.08358,-2.946694 -1.65261,-3.544966 -4.25335,-4.471997 -1.46001,-0.520414 -1.63829,-0.539333 -5.10579,-0.541883 -3.80891,-0.0028 -4.32026,-0.102842 -4.61632,-0.903151 -0.1865,-0.504163 0.15311,-1.362572 0.98017,-2.477611 1.72671,-2.327904 2.42004,-3.369002 3.16204,-4.748039 2.08734,-3.879487 2.46965,-4.81491 2.75868,-6.74969 0.14417,-0.965095 0.31399,-1.883541 0.3774,-2.040994 0.43852,-1.089078 0.64733,-2.553119 0.64733,-4.538589 0,-1.343969 0.11585,-2.747819 0.28802,-3.490224 0.24663,-1.06338 0.25707,-1.724402 0.0726,-4.597489 -0.11846,-1.845551 -0.20317,-3.602919 -0.1882,-3.905264 0.0149,-0.302346 -0.1847,-1.280956 -0.44368,-2.174689 -0.25898,-0.893733 -0.6498,-2.433385 -0.86847,-3.42145 -0.21867,-0.988064 -0.60233,-2.221963 -0.85255,-2.741998 -0.25022,-0.520034 -0.77277,-1.626288 -1.16123,-2.458342 -1.91103,-4.09332 -2.90289,-5.480431 -6.61643,-9.253077 -4.39771,-4.467725 -8.81662,-6.165408 -18.02827,-6.926216 -8.39592,-0.693436 -17.75532,2.051975 -24.86821,7.294632 -1.79421,1.322444 -4.56103,3.698726 -5.1333,4.408731 -0.22376,0.277619 -0.7909,0.920483 -1.26031,1.42859 -0.46943,0.508106 -1.08559,1.359071 -1.36927,1.891031 -0.28368,0.531963 -0.66524,1.137398 -0.84791,1.345412 -0.34019,0.387377 -2.03611,3.708364 -2.41423,4.727582 -0.40032,1.079091 -0.84607,3.030915 -0.99326,4.349376 -0.0813,0.728048 -0.25631,2.279997 -0.38893,3.448776 -0.22255,1.960956 -0.21275,2.231106 0.12682,3.498413 0.30251,1.128931 0.3713,2.046479 0.38648,5.155422 0.0102,2.080137 0.0996,4.633032 0.19887,5.673099 0.11535,1.209363 0.11463,2.157772 -0.002,2.630998 -0.26136,1.060205 -1.3618,2.086139 -2.68507,2.503257 l -1.07969,0.340345 -0.30541,-0.439742 c -0.76053,-1.095032 -1.90489,-2.204706 -3.2237,-3.12605 -1.54844,-1.081737 -5.15883,-2.958353 -6.79995,-3.534489 -0.56072,-0.196845 -1.11932,-0.440749 -1.24132,-0.542007 -0.12202,-0.101259 -1.45028,-0.486342 -2.95169,-0.855741 -6.66621,-1.640109 -13.35004,-1.195681 -18.78072,1.248784 -2.27609,1.024517 -3.38758,1.646699 -5.8851,3.294325 -3.93077,2.593128 -8.15213,7.161708 -8.78332,9.505754 -0.29659,1.101455 -1.18623,2.201213 -2.16325,2.674182 -0.47494,0.229912 -0.97723,0.390123 -1.11618,0.356026 -0.25274,-0.06201 -2.40524,-2.440836 -3.82057,-4.222268 -1.47772,-1.859976 -5.33548,-5.526456 -7.56549,-7.190393 -5.77574,-4.309583 -10.26478,-6.384472 -16.54654,-7.648005 -4.19608,-0.844009 -9.32205,-0.971477 -12.48082,-0.310358 -1.5462,0.323611 -4.7708,1.363555 -5.76766,1.860077 -2.26064,1.126018 -6.83252,4.291976 -8.42643,5.835185 -0.47428,0.459182 -1.41033,1.355422 -2.08014,1.991643 -2.38234,2.262888 -6.03997,6.825341 -6.03997,7.534136 0,0.401996 -1.30211,1.755737 -2.18835,2.275105 -0.77385,0.453505 -0.92771,0.483175 -1.42894,0.275559 -0.30895,-0.127968 -0.81069,-0.59453 -1.11498,-1.036804 -0.30429,-0.442275 -1.08721,-1.23146 -1.73982,-1.753745 -0.65263,-0.522283 -1.52697,-1.305159 -1.943,-1.73972 -1.68044,-1.7553 -8.22767,-7.184054 -8.66417,-7.184054 -0.0546,0 -0.76541,-0.412673 -1.5797,-0.917051 -2.84765,-1.763851 -6.51256,-3.317985 -8.95011,-3.795366 -0.57204,-0.11203 -1.93359,-0.385272 -3.02566,-0.607203 -3.01482,-0.612678 -7.5825,-0.575324 -10.78992,0.08824 -3.8899,0.804754 -8.92583,2.771759 -11.11002,4.339508 -0.48785,0.350165 -1.31249,0.878735 -1.83252,1.174601 -2.33687,1.329526 -6.38825,5.216911 -8.17983,7.848716 -0.38942,0.572036 -0.85694,1.151264 -1.03896,1.287171 -0.48647,0.36324 -0.4199,0.564075 0.52004,1.568942 0.90158,0.963866 1.02301,1.382615 0.57332,1.977153 -0.1527,0.201891 -0.28035,0.605316 -0.28365,0.8965 -0.0144,1.264969 -0.91861,2.023469 -2.41226,2.023469 -0.85853,0 -5.90113,-1.334733 -8.27809,-2.191144 -1.04007,-0.374731 -2.32384,-0.799902 -2.85282,-0.944821 -1.502002,-0.411491 -3.475374,-1.371371 -4.641639,-2.25777 -0.585719,-0.445164 -1.266491,-0.917001 -1.512826,-1.048523 -0.683911,-0.365153 -4.752768,-4.121919 -6.067877,-5.602457 -0.590916,-0.665249 -1.246375,-0.84595 -2.156739,-0.594586 -0.759178,0.209618 -0.780747,0.390246 -0.165712,1.387654 0.256537,0.416029 0.736898,1.309541 1.067469,1.985585 0.33057,0.676044 0.874134,1.612106 1.20792,2.080137 0.333784,0.46803 0.754935,1.141476 0.935889,1.496546 0.360269,0.706921 2.353422,2.810063 8.154913,8.604933 4.263482,4.258621 7.331812,7.976245 8.817322,10.683195 0.31896,0.58121 0.81529,1.43969 1.10297,1.90772 1.06754,1.73686 1.23546,5.38168 0.44347,9.62588 -0.62117,3.32871 -0.66855,4.25196 -0.92298,17.9832 -0.11543,6.22945 -0.31096,12.04511 -0.46096,13.70999 -0.0843,0.93606 -0.14401,2.62885 -0.1326,3.76176 l 0.0208,2.05984 0.75641,0.2634 c 0.41603,0.14487 2.1605,0.46878 3.87662,0.7198 1.71611,0.25102 3.39945,0.55509 3.74075,0.67572 0.7027,0.24835 2.18252,0.0939 2.45838,-0.25659 0.32144,-0.4084 0.38364,-1.69433 0.21681,-4.48193 -0.17132,-2.86246 -0.19504,-5.59401 -0.0764,-8.79331 0.0516,-1.39219 8.5e-4,-1.997 -0.19242,-2.29276 -0.15241,-0.2332 -0.31147,-1.18519 -0.37916,-2.26924 -0.0641,-1.02713 -0.14576,-2.33554 -0.18141,-2.90758 -0.0973,-1.56067 -0.10094,-2.15797 -0.044,-7.11585 0.0425,-3.69697 0.11074,-4.70188 0.35951,-5.2949 0.30382,-0.72422 0.79838,-2.31639 1.40213,-4.51399 0.17863,-0.6502 0.29689,-1.7043 0.27699,-2.46894 -0.0274,-1.05171 0.0404,-1.43221 0.32009,-1.79648 0.19514,-0.25419 0.40966,-0.61236 0.4767,-0.79593 0.21853,-0.59839 1.04193,-0.75311 3.34634,-0.62881 2.44195,0.13172 6.23063,0.57929 7.09138,0.83773 1.16062,0.34848 2.83781,1.49439 3.15222,2.1537 0.37382,0.78393 0.68118,4.6848 0.80862,10.26286 0.0261,1.14408 0.15304,4.6907 0.28199,7.88138 0.17243,4.26615 0.17984,6.15332 0.028,7.13175 -0.34363,2.21474 -0.46685,7.9793 -0.20157,9.42965 0.35072,1.91745 1.82305,7.38072 2.749,10.2005 0.45074,1.37264 0.87568,2.79497 0.9443,3.16076 0.19468,1.03772 0.42889,1.13059 2.02093,0.80135 1.71344,-0.35434 3.43282,-0.98509 3.76002,-1.37934 0.20582,-0.24799 0.17763,-0.41584 -0.17188,-1.0231 -0.51698,-0.89829 -0.51676,-0.94737 0.007,-1.61625 0.29727,-0.37935 0.43471,-0.82868 0.4561,-1.49106 0.0168,-0.52144 0.0888,-2.2483 0.15994,-3.83745 0.1086,-2.42637 0.0831,-2.95999 -0.15942,-3.33005 -0.34104,-0.5205 -0.31564,-2.81113 0.0385,-3.47288 0.16406,-0.30655 0.17176,-0.73455 0.0293,-1.62656 -0.1602,-1.00284 -0.14067,-1.33614 0.11385,-1.94266 0.24824,-0.59156 0.27931,-1.04072 0.16182,-2.3395 -0.18422,-2.03652 -0.17244,-2.62211 0.0855,-4.25482 0.14592,-0.92352 0.15141,-1.69535 0.0182,-2.5529 -0.19004,-1.22308 -0.15204,-3.176 0.0982,-5.04681 0.11171,-0.83512 0.0716,-1.05695 -0.26991,-1.49105 -0.45911,-0.58366 -0.56471,-2.29988 -0.16605,-2.69854 0.12929,-0.1293 0.28961,-0.80582 0.35626,-1.50337 0.0667,-0.69756 0.28147,-1.88243 0.47738,-2.63304 0.29962,-1.14796 0.49258,-1.4973 1.21472,-2.19919 0.65267,-0.63436 1.05997,-0.86642 1.69861,-0.96779 0.46204,-0.0733 1.86123,-0.34417 3.10931,-0.60186 1.72068,-0.35527 2.90924,-0.47435 4.91669,-0.49258 2.50942,-0.0228 2.75097,0.009 4.63303,0.60499 3.24295,1.02738 4.59013,1.98469 5.77652,4.10481 1.40696,2.51429 1.78833,6.33725 1.8806,18.85167 0.0663,8.99674 0.24945,11.62019 1.22966,17.61612 0.20404,1.24808 0.46284,2.99257 0.57511,3.87662 0.29317,2.30834 0.89689,5.36873 1.16576,5.90948 0.10122,0.20356 0.37996,0.33093 0.72419,0.33093 0.5601,0 4.06554,-1.04965 5.66746,-1.69702 1.11172,-0.44929 1.75721,-1.35078 1.62463,-2.26896 -0.053,-0.36688 -0.14717,-1.98605 -0.2093,-3.59815 -0.0621,-1.61211 -0.19888,-3.60197 -0.30386,-4.42192 -0.13395,-1.04597 -0.12996,-1.63846 0.0133,-1.98559 0.11231,-0.27212 0.24012,-1.81376 0.28401,-3.42587 0.0439,-1.6121 0.1125,-3.86716 0.15245,-5.01123 0.05,-1.43151 -0.005,-2.27898 -0.17696,-2.71782 -0.32061,-0.81886 -0.3177,-1.62873 0.008,-2.15825 0.20589,-0.335 0.21851,-0.72686 0.063,-1.95792 -0.16672,-1.32019 -0.14929,-1.63407 0.1225,-2.20687 0.52846,-1.11362 0.58433,-1.77865 0.21777,-2.59155 -0.31862,-0.70657 -0.3194,-0.84889 -0.0158,-2.87602 0.17568,-1.17297 0.39315,-2.4305 0.48326,-2.79453 0.0901,-0.36402 0.22438,-1.04479 0.29836,-1.51282 0.074,-0.46803 0.4697,-1.44295 0.87936,-2.16647 0.40966,-0.72353 0.79552,-1.5745 0.8575,-1.89104 0.097,-0.4952 0.37528,-1.16854 0.98052,-2.372 0.0785,-0.15601 0.44689,-0.45039 0.81876,-0.65417 0.66024,-0.36182 0.71529,-0.36274 2.3479,-0.0391 0.9195,0.18226 2.48023,0.4066 3.46832,0.49853 0.98805,0.0919 2.16883,0.30101 2.62392,0.46461 0.45512,0.1636 0.95262,0.29746 1.10556,0.29746 0.15297,0 0.83161,0.48595 1.50811,1.07988 1.55112,1.3618 2.31966,2.84514 2.34033,4.51698 0.0139,1.11799 0.13342,2.02099 0.54851,4.14196 0.12213,0.62404 0.3368,2.49616 0.47703,4.16027 0.14023,1.66411 0.38491,4.34465 0.54369,5.95675 0.1588,1.61211 0.37842,3.95226 0.48806,5.20034 0.10963,1.24809 0.35924,3.24785 0.55469,4.44393 0.53731,3.28837 0.74096,4.80003 0.96807,7.18593 0.14582,1.53191 0.37653,2.64978 0.78059,3.78206 0.31547,0.88407 0.67929,2.03818 0.8085,2.56473 0.12921,0.52654 0.30223,1.06626 0.38449,1.19937 0.0823,0.13311 0.2974,0.8511 0.47807,1.59554 l 0.32848,1.35354 1.03516,-0.0198 c 0.80225,-0.0153 1.32968,-0.17538 2.34427,-0.71135 1.25569,-0.66334 1.32789,-0.73972 1.76877,-1.87124 0.44865,-1.15152 0.63824,-2.83469 0.63345,-5.62361 -0.0172,-10.04123 -0.0505,-11.21957 -0.3281,-11.64331 -0.24342,-0.37149 -0.24826,-0.53799 -0.0336,-1.1558 0.13793,-0.39698 0.21104,-1.04867 0.16246,-1.4482 -0.0486,-0.39953 0.0191,-0.9272 0.15048,-1.17259 0.16717,-0.31236 0.19217,-0.71839 0.0833,-1.35372 -0.18329,-1.0699 -0.17548,-3.38266 0.0179,-5.30047 0.10988,-1.08968 0.071,-1.54229 -0.19136,-2.22933 -0.21344,-0.5589 -0.29438,-1.14211 -0.23017,-1.65838 0.29411,-2.36414 0.71215,-4.82676 0.96979,-5.71304 0.16048,-0.55203 0.29179,-1.22146 0.29179,-1.48762 0,-0.26616 0.18167,-0.93384 0.4037,-1.48372 0.22205,-0.54989 0.43377,-1.50463 0.47048,-2.12165 0.13877,-2.33232 1.41892,-3.31315 4.32617,-3.31464 3.15917,-0.002 8.97628,0.8489 9.82815,1.43699 0.20515,0.14163 0.48007,0.25751 0.61092,0.25751 0.5065,0 2.32818,1.36062 3.34267,2.49666 2.28014,2.55334 3.28772,6.72741 3.71097,15.3736 0.28256,5.77234 0.98731,12.50406 1.63324,15.60102 0.16271,0.78005 0.36491,1.75866 0.44934,2.17469 0.0844,0.41603 0.32978,1.56483 0.54522,2.55289 0.21544,0.98807 0.44079,2.47726 0.50078,3.30932 0.15358,2.13004 0.21908,2.36378 0.6625,2.36378 0.87239,0 1.59492,-0.50365 2.06079,-1.43651 0.42088,-0.84273 0.46041,-1.13418 0.43374,-3.19652 -0.0161,-1.24808 -0.11304,-2.54865 -0.21532,-2.89014 -0.19599,-0.65434 0.0164,-4.24702 0.3769,-6.37592 0.11589,-0.68436 0.13659,-2.07267 0.0521,-3.49841 -0.16977,-2.86647 -0.1704,-3.3195 -0.0132,-9.63042 0.0685,-2.74857 0.20632,-5.25891 0.30628,-5.57855 0.22439,-0.71746 0.62515,-3.62343 0.69301,-5.02509 0.14084,-2.91009 0.30232,-3.7386 0.86057,-4.41587 0.90587,-1.09897 1.8111,-1.28458 6.55251,-1.34353 2.25812,-0.0281 4.88214,-0.11714 5.83116,-0.19793 2.10069,-0.17882 2.51799,-0.085 3.4778,0.78214 1.09319,0.98764 1.80445,2.61915 2.25616,5.17519 0.36729,2.07836 0.38305,2.86156 0.35573,17.68116 -0.0335,18.18247 -0.0304,18.46288 0.24414,22.03053 0.11606,1.5081 0.22231,3.98256 0.23612,5.49878 0.0245,2.69029 0.0375,2.77305 0.5391,3.4306 0.28268,0.37059 0.94494,0.99015 1.47168,1.37682 1.91395,1.40497 3.76747,1.7694 5.12333,1.00737 z m 72.65904,-91.97873 c -1.66229,-0.493749 -2.49943,-0.938861 -3.68214,-1.957819 -0.70912,-0.610941 -0.74357,-0.68937 -0.62253,-1.418274 0.17283,-1.04098 0.47363,-1.577622 1.38645,-2.4735 0.42388,-0.416026 0.77215,-0.824577 0.77388,-0.90789 0.008,-0.365347 -1.52489,-0.727501 -3.7523,-0.886692 -2.53074,-0.180869 -5.38778,-0.02424 -7.25876,0.397938 -0.70151,0.158292 -1.1513,0.180174 -1.26971,0.06177 -0.1124,-0.112403 -0.12641,-0.716078 -0.0362,-1.560044 0.12468,-1.166963 0.23168,-1.460897 0.70239,-1.92942 0.5808,-0.578142 0.71657,-0.610424 4.71553,-1.121252 0.83207,-0.106288 2.23616,-0.327416 3.12021,-0.491397 2.36318,-0.438336 5.99396,-0.03064 7.1758,0.80577 0.26558,0.187967 0.73313,0.468178 1.03896,0.622694 0.30586,0.154516 1.093,0.793106 1.74923,1.419089 1.19174,1.136845 1.19312,1.13939 1.19312,2.214677 v 1.076522 l 0.72144,0.194267 c 0.39681,0.106847 0.91644,0.401826 1.15478,0.655511 0.39286,0.418191 0.42063,0.570569 0.29738,1.63246 -0.11227,0.967344 -0.24962,1.29705 -0.78904,1.894122 -0.35922,0.397602 -0.96659,0.822871 -1.34978,0.945047 -0.38316,0.122176 -1.13248,0.467307 -1.66519,0.766961 -1.15894,0.65194 -1.58511,0.658972 -3.60348,0.05946 z M 310.36862,75.493252 c -0.13001,-0.05357 -0.23638,-0.300088 -0.23638,-0.547818 0,-0.247733 -0.25529,-0.741179 -0.56732,-1.096551 -0.71027,-0.808962 -0.71024,-1.238929 0,-2.740592 0.31194,-0.659382 0.56717,-1.351036 0.56717,-1.537009 0,-0.328106 -0.30468,-1.175093 -0.86279,-2.398485 -0.35933,-0.787695 -0.34541,-2.685746 0.0292,-3.974201 0.16553,-0.569434 0.63357,-1.612204 1.04007,-2.317266 0.4065,-0.705062 0.73908,-1.410859 0.73908,-1.568437 0,-0.157577 0.15786,-0.489449 0.35078,-0.737491 0.19292,-0.248042 0.69868,-1.026153 1.1239,-1.729135 1.55726,-2.574418 3.81782,-4.727793 6.89282,-6.565928 1.89893,-1.135121 2.52632,-1.319049 4.49154,-1.316746 2.44883,0.0029 3.96343,0.762522 5.99392,3.006294 1.6921,1.869822 2.68189,4.981716 2.69898,8.485591 0.005,1.080206 -0.0491,1.251382 -0.55966,1.761942 -0.77796,0.777957 -1.58361,0.708186 -1.66659,-0.144329 -0.0443,-0.454444 -0.26123,-0.736542 -0.94553,-1.229172 -0.8415,-0.605815 -0.98519,-0.642786 -2.73814,-0.704558 -1.66139,-0.05854 -2.04064,-0.004 -3.71859,0.534771 -3.10922,0.998325 -5.25239,2.556801 -8.42076,6.1234 -1.3969,1.572494 -1.47684,1.7088 -1.29097,2.201241 0.18635,0.493685 0.13313,0.582188 -0.89378,1.486102 -0.97561,0.858776 -1.10553,1.060064 -1.21965,1.889759 -0.10148,0.737821 -0.0417,1.128565 0.29097,1.901872 0.23029,0.535299 0.38583,1.003288 0.34567,1.039977 -0.15272,0.13947 -1.21807,0.269882 -1.44405,0.176769 z m 2.85645,-11.293904 c 0.34786,-0.145341 0.93414,-0.68479 1.32929,-1.223078 1.65087,-2.24895 4.55794,-4.347592 7.8696,-5.681152 1.4346,-0.5777 1.84111,-0.655266 3.78207,-0.72167 3.44461,-0.117847 3.58975,-0.224618 2.22196,-1.634745 -0.91923,-0.947688 -2.44055,-1.535223 -4.4912,-1.734526 -1.52357,-0.148077 -2.60856,0.08982 -4.38619,0.961695 -1.87828,0.921251 -2.8452,1.624687 -4.42511,3.219281 -1.88657,1.904108 -3.02767,4.08073 -3.23776,6.175985 -0.082,0.818472 -0.0543,0.898239 0.31247,0.898239 0.22139,0 0.68258,-0.117012 1.02487,-0.260029 z M 274.49486,168.38024 c 0.41617,-0.41617 0.46416,-0.62206 0.46416,-1.99096 0,-0.83975 0.12553,-2.73701 0.27896,-4.21615 0.15339,-1.47914 0.27467,-2.85954 0.26948,-3.06755 -0.005,-0.20801 0.0373,-1.04911 0.0945,-1.8691 0.0572,-0.81999 0.19118,-3.28779 0.29781,-5.484 0.10663,-2.1962 0.24635,-4.47308 0.31052,-5.05972 0.0808,-0.73898 0.0246,-1.34889 -0.18303,-1.98558 -0.16484,-0.50543 -0.39681,-1.51464 -0.51554,-2.24269 -0.27545,-1.68927 -0.37378,-7.64812 -0.14667,-8.88785 0.1911,-1.04307 0.26257,-4.02751 0.10031,-4.18974 -0.18189,-0.18191 -1.63936,0.14946 -1.92833,0.43843 -0.15395,0.15395 -0.27992,0.57653 -0.27992,0.93908 0,0.36254 -0.0792,1.01596 -0.17605,1.45204 -0.185,0.83315 -0.5396,4.6551 -0.67011,7.22239 -0.0423,0.83205 -0.16265,3.00201 -0.26744,4.82213 -0.3579,6.21669 -0.31383,8.58354 0.38463,20.65955 l 0.22694,3.92387 h 0.63783 c 0.42505,0 0.79265,-0.15482 1.10197,-0.46415 z m -58.33583,-5.39546 c 2.39927,-0.003 2.53499,-0.10507 2.14978,-1.60995 -0.67204,-2.62532 -0.86818,-4.29156 -0.95721,-8.13145 -0.0506,-2.18414 -0.0861,-4.09882 -0.0788,-4.25483 0.19125,-4.10862 0.2064,-7.19671 0.0369,-7.51352 -0.14171,-0.26475 -0.14562,-0.73653 -0.0129,-1.56015 0.10457,-0.64935 0.22205,-2.85167 0.26104,-4.89406 0.039,-2.04238 0.13301,-4.55654 0.20887,-5.58701 0.12463,-1.69286 0.10446,-1.89807 -0.20919,-2.12741 -0.76916,-0.56243 -3.15153,-0.11811 -3.3627,0.62715 -0.19063,0.67282 -0.34716,1.58754 -0.4076,2.3822 -0.0336,0.4414 -0.15396,1.52586 -0.26752,2.40992 -0.12284,0.95622 -0.20295,4.9398 -0.19774,9.83337 0.01,8.92245 0.0891,20.22935 0.14429,20.49248 0.0189,0.0901 0.22583,0.11259 0.45985,0.0499 0.23401,-0.0627 1.23891,-0.11519 2.2331,-0.11661 z m 83.90378,-0.0146 0.57681,-0.20107 0.12199,-2.49365 c 0.0671,-1.37151 0.0968,-3.685 0.066,-5.1411 -0.0308,-1.45609 -0.0256,-4.00899 0.0115,-5.6731 0.0371,-1.66411 0.007,-5.57855 -0.0679,-8.69875 -0.0745,-3.1202 -0.14739,-6.93139 -0.16207,-8.4693 -0.0295,-3.09492 -0.0996,-3.27444 -1.14122,-2.9247 -0.89505,0.30053 -1.00525,0.44938 -1.12328,1.51735 -0.0601,0.54384 -0.1902,1.66957 -0.28911,2.50162 -0.50047,4.20973 -0.56432,7.52492 -0.32417,16.8302 0.0832,3.22421 0.14361,7.30884 0.1342,9.07695 -0.009,1.76812 0.0294,3.36368 0.0862,3.54569 0.12074,0.38687 1.1858,0.45238 2.11098,0.12986 z M 246.17929,160.417 c 0.38645,-0.44929 0.43702,-0.69073 0.40885,-1.95215 -0.0298,-1.33115 0.0481,-2.23529 0.54689,-6.35614 0.10073,-0.83205 0.18603,-1.64047 0.18958,-1.79648 0.0362,-1.59234 0.85143,-7.81208 1.16915,-8.91991 0.099,-0.34502 0.18083,-1.0959 0.18196,-1.66863 10e-4,-0.57272 0.13171,-1.4668 0.29017,-1.98683 0.15848,-0.52004 0.32585,-1.42332 0.37194,-2.00731 0.0461,-0.58398 0.26406,-1.4775 0.48439,-1.98558 0.33066,-0.76254 0.78026,-2.91425 0.98329,-4.70586 0.0414,-0.36516 -0.0517,-0.37618 -2.69915,-0.31928 -2.76319,0.0594 -3.66991,0.22703 -3.85642,0.71302 -0.19208,0.50056 -0.4738,4.15078 -0.58259,7.5486 -0.17055,5.32674 -0.32711,11.85195 -0.30063,12.52938 0.0132,0.33874 -0.0653,2.96607 -0.17461,5.83852 -0.15655,4.11501 -0.14896,5.28257 0.0358,5.50518 0.17995,0.21683 0.49912,0.25854 1.37243,0.17935 0.93191,-0.0845 1.21779,-0.19602 1.57895,-0.61588 z m -58.00639,-2.4572 c 0.28934,-0.26186 0.31424,-0.60124 0.22297,-3.03963 -0.065,-1.73649 -0.0176,-3.31286 0.12911,-4.29099 0.4135,-2.75759 0.6023,-9.34302 0.32892,-11.47405 -0.0867,-0.67604 -0.15639,-1.73975 -0.1548,-2.36379 0.005,-2.12693 0.19442,-6.80453 0.32649,-8.07911 0.13024,-1.25711 0.12599,-1.27358 -0.37893,-1.46555 -0.70613,-0.26847 -3.13116,-0.2388 -3.67869,0.045 -0.24785,0.12848 -0.64989,0.61652 -0.89343,1.08455 -0.77529,1.49002 -1.03875,6.5388 -1.08547,20.80137 l -0.0288,8.7933 1.41828,0.10776 c 2.7745,0.21081 3.45358,0.18953 3.79435,-0.11887 z m 141.88114,-0.46191 c 0.57549,-0.50528 0.65703,-0.69726 0.74294,-1.7492 0.2607,-3.19234 0.54024,-5.60935 0.73378,-6.34497 0.18571,-0.70578 0.33313,-8.59869 0.18791,-10.05948 -0.0259,-0.26002 -0.0379,-1.32373 -0.0267,-2.36379 0.0223,-2.07787 -0.41846,-6.06299 -0.88666,-8.01691 -0.16461,-0.68704 -0.32992,-1.75974 -0.3673,-2.38378 -0.0965,-1.6099 -0.0831,-1.59403 -1.12285,-1.33002 -0.98452,0.24998 -1.25354,0.51827 -1.85765,1.85269 -0.37449,0.82726 -0.39654,1.08226 -0.26964,3.12021 0.16877,2.71043 0.6366,9.00549 0.94488,12.71456 0.30514,3.67127 0.32853,4.24144 0.40426,9.84849 0.0359,2.66049 0.12686,4.93682 0.20206,5.05851 0.2239,0.36227 0.62969,0.2554 1.315,-0.34631 z M 151.40931,155.8841 c 1.33598,-0.1597 2.7255,-0.35437 3.08782,-0.4326 l 0.65877,-0.14222 -0.0915,-1.50571 c -0.0503,-0.82814 -0.0719,-3.07999 -0.048,-5.00412 0.10479,-8.44154 0.0816,-11.68768 -0.0895,-12.51277 -0.10068,-0.4856 -0.12825,-1.20892 -0.0613,-1.60737 0.067,-0.39846 0.0511,-1.18663 -0.0353,-1.75148 -0.14061,-0.91962 -0.0871,-6.64725 0.0779,-8.3336 l 0.0648,-0.66186 -0.94552,-0.0651 c -1.05677,-0.0727 -3.97572,0.29856 -4.50025,0.57242 -0.187,0.0976 -0.42119,0.3911 -0.52044,0.65215 -0.0993,0.26106 -0.26872,2.61731 -0.37658,5.23612 -0.10786,2.61882 -0.27185,4.94373 -0.36441,5.16648 -0.0926,0.22275 -0.21971,3.54152 -0.28254,7.37503 -0.14166,8.64317 -0.24529,11.89886 -0.40394,12.69041 -0.12268,0.61208 -0.12008,0.61458 0.63889,0.61458 0.41913,0 1.85513,-0.13067 3.19111,-0.29038 z m 252.1825,-7.16421 c 1.31081,-0.57971 1.75536,-0.99523 1.45366,-1.35875 -0.12032,-0.14499 -0.35728,-0.26366 -0.52656,-0.26371 -0.16927,-6e-5 -0.77579,-0.18834 -1.34785,-0.41842 -0.84991,-0.34184 -1.42368,-0.41961 -3.13842,-0.42539 -2.11712,-0.007 -2.72377,0.16149 -2.72377,0.75708 0,0.35221 1.19357,1.03962 2.83498,1.63274 1.76834,0.63899 2.15649,0.64759 3.44796,0.0764 z m -273.93143,-3.06103 c 0.15896,-0.61283 0.45621,-1.38657 0.66055,-1.71943 0.30436,-0.49579 0.39068,-1.07696 0.47748,-3.21476 0.0583,-1.43525 0.0956,-2.89764 0.083,-3.24975 -0.0126,-0.35211 0.0526,-0.73504 0.14489,-0.85097 0.0987,-0.124 0.0774,-0.7557 -0.0518,-1.53449 -0.12082,-0.72805 -0.19726,-1.96194 -0.16988,-2.742 0.0274,-0.78005 -0.0728,-1.9714 -0.22265,-2.64744 -0.32501,-1.46639 -0.64763,-6.38241 -0.58174,-8.86446 l 0.0471,-1.77308 -1.14431,0.11961 c -0.62937,0.0658 -1.20823,0.18352 -1.28636,0.26165 -0.0781,0.0781 -0.0736,1.78166 0.01,3.78564 0.0836,2.00398 0.084,4.07417 8.5e-4,4.60042 -0.12156,0.76902 -0.23118,6.40308 -0.15596,8.01608 0.0922,1.97747 0.42956,5.62377 0.57147,6.17688 0.0978,0.38109 0.26064,1.56262 0.36192,2.62562 0.26532,2.78458 0.70379,3.13748 1.25553,1.01048 z m -4.67303,-0.35122 c 0.29467,-0.15238 0.5844,-0.47149 0.64384,-0.70914 0.12418,-0.49646 -0.0962,-3.59353 -0.52855,-7.4289 -0.28769,-2.55184 -0.32626,-4.34028 -0.21615,-10.02248 0.0513,-2.64623 0.13521,-3.50015 0.52256,-5.31594 0.17067,-0.80001 0.15058,-1.13399 -0.11657,-1.9383 l -0.32276,-0.97175 h -1.00123 c -1.62973,0 -2.1303,0.161 -2.26698,0.72913 -0.15572,0.64735 -0.38795,10.90212 -0.38174,16.85748 0.004,4.13435 0.17881,8.18459 0.3809,8.84058 0.10558,0.34272 2.60509,0.31178 3.28668,-0.0407 z m 220.70397,-12.05022 c 0.67566,-0.49955 0.67931,-0.55919 0.10724,-1.75821 -0.97711,-2.04789 -1.62773,-3.71557 -1.62773,-4.17218 0,-0.26325 -0.1582,-0.79435 -0.35157,-1.18023 -0.19338,-0.38589 -0.49606,-1.33983 -0.6726,-2.11988 -0.17657,-0.78005 -0.40088,-1.77348 -0.49851,-2.20761 -0.5805,-2.58189 -0.29272,-5.58206 0.80099,-8.35039 0.23965,-0.60657 0.22633,-0.64892 -0.35682,-1.13462 -1.94241,-1.61784 -2.48694,-1.92282 -3.43321,-1.92282 -1.06417,0 -1.99297,0.34152 -3.33606,1.22668 -1.88375,1.24147 -3.00932,3.17297 -3.17442,5.44734 l -0.10695,1.47367 0.66858,0.60646 c 0.36771,0.33356 1.759,2.26584 3.09174,4.29398 2.9727,4.52381 3.43715,5.19701 4.60642,6.67692 1.16723,1.47733 3.20382,3.53466 3.49902,3.53466 0.12333,0 0.47607,-0.1862 0.78388,-0.41377 z M 77.768085,52.522433 C 78.144611,52.320921 78.198708,51.688925 77.90545,50.9176 77.797076,50.632552 77.622914,49.499483 77.518422,48.399671 77.262627,45.7073 77.219965,45.322426 76.978703,43.53053 76.864235,42.680362 76.787447,41.7443 76.808061,41.450393 c 0.02061,-0.293907 -0.106441,-0.80914 -0.282347,-1.144963 -0.309122,-0.590152 -0.349793,-0.60651 -1.215277,-0.488812 -0.936956,0.127417 -1.153326,0.304545 -1.668908,1.366215 -0.327704,0.674793 -0.313601,1.135788 0.119092,3.893457 0.114234,0.728048 0.23513,1.664109 0.268654,2.080135 0.07785,0.966131 0.414883,2.455603 0.658749,2.91127 0.103897,0.194133 0.327855,0.767316 0.497685,1.273743 0.44656,1.331619 0.772137,1.636832 1.583644,1.484593 0.365376,-0.06855 0.814806,-0.205164 0.998732,-0.303598 z M 62.879682,52.262215 c 0,-0.296157 -1.696623,-0.784108 -3.971169,-1.142116 -3.467174,-0.545726 -4.254344,-0.603123 -4.602546,-0.335597 -0.487685,0.37469 -0.01985,0.566812 1.744433,0.716364 0.843914,0.07154 2.342806,0.329744 3.330871,0.573795 1.809889,0.44704 3.498411,0.537564 3.498411,0.187554 z"
       id="path1" />
  </g>
</svg>
