<?xml version="1.0" encoding="UTF-8" standalone="no"?>
<!-- Created with Inkscape (http://www.inkscape.org/) -->

<svg
   version="1.1"
   id="svg1"
   width="377.95276"
   height="636.10132"
   viewBox="0 0 377.95275 636.10132"
   sodipodi:docname="idk.svg"
   inkscape:version="1.4.3 (0d15f75, 2025-12-25)"
   xmlns:inkscape="http://www.inkscape.org/namespaces/inkscape"
   xmlns:sodipodi="http://sodipodi.sourceforge.net/DTD/sodipodi-0.dtd"
   xmlns="http://www.w3.org/2000/svg"
   xmlns:svg="http://www.w3.org/2000/svg">
  <defs
     id="defs1" />
  <sodipodi:namedview
     id="namedview1"
     pagecolor="#ffffff"
     bordercolor="#000000"
     borderopacity="0.25"
     inkscape:showpageshadow="2"
     inkscape:pageopacity="0.0"
     inkscape:pagecheckerboard="0"
     inkscape:deskcolor="#d1d1d1"
     inkscape:zoom="0.52595849"
     inkscape:cx="453.45784"
     inkscape:cy="770.02274"
     inkscape:window-width="1920"
     inkscape:window-height="1122"
     inkscape:window-x="-8"
     inkscape:window-y="-8"
     inkscape:window-maximized="1"
     inkscape:current-layer="g1" />
  <g
     inkscape:groupmode="layer"
     inkscape:label="Image"
     id="g1"
     transform="translate(-54.73199,-63.999997)">
    <path
       style="fill:#000000;stroke-width:0.41211"
       d="m 308.05351,699.80496 c -0.43233,-0.28534 -3.46134,-0.41866 -6.73113,-0.29622 -3.26979,0.12244 -5.94507,0.019 -5.94507,-0.23016 0,-0.6403 -2.72581,-1.80636 -3.33806,-1.42796 -0.27956,0.17275 -0.5083,0.0914 -0.5083,-0.1808 0,-0.2722 -0.94206,-0.7772 -2.09346,-1.12213 -1.1514,-0.34498 -2.6781,-1.24956 -3.39266,-2.01019 -0.71456,-0.76059 -1.60055,-1.38292 -1.96886,-1.38292 -0.3683,0 -0.80558,-0.35425 -0.97173,-0.78721 -0.28611,-0.74559 -4.92861,-4.08092 -8.00976,-5.7545 -0.7819,-0.42472 -1.50405,-0.98107 -1.60479,-1.23633 -0.10074,-0.2553 -0.60459,-0.46416 -1.11967,-0.46416 -0.51509,0 -3.15259,-2.29916 -5.86113,-5.10922 -7.04846,-7.31264 -8.14802,-8.59484 -10.12264,-11.80402 -0.9706,-1.57743 -1.99078,-2.86804 -2.26707,-2.86804 -0.27629,0 -0.50235,-0.3348 -0.50235,-0.74398 0,-1.34196 -4.54677,-5.52182 -7.6929,-7.0721 -7.89534,-3.89061 -17.50335,-6.13426 -29.12226,-6.80064 -18.14793,-1.04082 -28.14217,-0.55907 -35.9533,1.73301 -1.49037,0.43733 -3.37641,0.79516 -4.19119,0.79516 -0.81479,0 -1.78382,0.36435 -2.1534,0.80968 -0.36959,0.44532 -1.57438,0.97715 -2.67731,1.18189 -1.10294,0.20469 -2.77048,0.95304 -3.70565,1.66294 -0.93516,0.70994 -1.93576,1.29081 -2.22353,1.29081 -1.02986,0 -4.11314,2.74799 -7.88237,7.02524 -0.60861,0.69066 -1.12464,1.67972 -1.14673,2.19791 -0.0221,0.51823 -0.47453,1.684 -1.00541,2.59065 -0.92021,1.57154 -1.87125,2.08404 -5.03135,2.71135 -0.77349,0.15355 -2.25709,0.89453 -3.29688,1.64663 -3.38285,2.44686 -5.6708,3.44734 -9.5093,4.15819 -5.32501,0.98614 -14.03416,0.34506 -17.05279,-1.25533 -1.23913,-0.6569 -3.04119,-1.44667 -4.00457,-1.75497 -0.96338,-0.3083 -2.93113,-1.67325 -4.37276,-3.03321 -1.44163,-1.35997 -2.75518,-2.47266 -2.91898,-2.47266 -0.1638,0 -0.24862,-0.14758 -0.1885,-0.32796 0.0601,-0.18038 -0.86711,-1.28146 -2.06055,-2.44682 -1.19343,-1.16537 -2.16987,-2.34215 -2.16987,-2.61509 0,-0.27294 -0.7418,-1.43286 -1.64844,-2.57758 -0.90664,-1.14472 -1.64844,-2.63664 -1.64844,-3.31538 0,-0.67871 -0.40009,-1.52658 -0.88908,-1.88417 -1.385826,-1.01334 -2.443242,-4.58889 -2.647397,-8.95185 -0.11793,-2.52026 -0.510897,-4.43983 -1.068626,-5.22008 -0.485161,-0.6787 -1.27483,-1.77524 -1.754818,-2.43672 -0.479989,-0.66148 -0.946613,-1.77418 -1.036939,-2.47266 -0.360658,-2.78883 -2.645355,-10.19713 -3.864467,-12.53087 -0.711426,-1.36185 -1.595208,-3.46514 -1.963964,-4.67402 -1.031631,-3.38186 -4.265911,-10.05714 -5.111404,-10.54948 -0.415659,-0.24208 -1.399308,-1.67643 -2.185885,-3.18751 -0.786578,-1.51108 -1.745183,-3.11852 -2.13023,-3.57213 -0.80919,-0.95325 -5.142478,-3.84396 -5.770999,-3.84977 -0.233141,-0.004 -2.031121,-1.49117 -3.995512,-3.30887 -1.964391,-1.81773 -4.883304,-3.97624 -6.486474,-4.79667 -1.995665,-1.02133 -2.843795,-1.76346 -2.689519,-2.35344 0.13024,-0.49803 -0.588108,-1.54034 -1.702167,-2.46981 -3.3332,-2.78096 -3.934052,-4.91969 -3.930866,-13.9918 0.0027,-7.60825 0.07645,-8.1402 1.636372,-11.79797 0.898466,-2.10678 1.633574,-4.27374 1.633574,-4.81542 0,-0.54168 0.216913,-1.41424 0.482029,-1.93902 0.265115,-0.52478 0.777457,-1.94322 1.138535,-3.15206 0.36108,-1.20884 1.678946,-4.29773 2.928592,-6.86415 1.994404,-4.09596 3.131047,-5.52297 9.30045,-11.67643 3.8656,-3.85562 7.276144,-7.01024 7.578979,-7.01024 0.302839,0 0.550616,-0.3503 0.550616,-0.77844 0,-0.42814 0.30265,-0.87932 0.67256,-1.00262 0.762552,-0.25419 0.746372,-7.83903 -0.01892,-8.87524 -0.246982,-0.33443 -0.518146,-1.59709 -0.602587,-2.80598 -0.08444,-1.20884 -0.379958,-2.47319 -0.656706,-2.80964 -0.276748,-0.33644 -0.597625,-1.82004 -0.713053,-3.29688 -0.78631,-10.06006 -1.095496,-12.70275 -1.599894,-13.67476 -0.535232,-1.03138 -1.171591,-7.63813 -1.773008,-18.40755 -0.143456,-2.56885 -0.51466,-7.01963 -0.8249,-9.89064 -0.310241,-2.87105 -0.681173,-8.55816 -0.824294,-12.63805 -0.27871,-7.94499 -0.808182,-20.33264 -1.080838,-25.2875 -0.09181,-1.66846 -0.466777,-5.87198 -0.833254,-9.34116 -0.366495,-3.46917 -0.627205,-8.16487 -0.579374,-10.43487 0.04783,-2.26999 -0.291858,-8.69891 -0.754866,-14.28648 -0.463008,-5.58756 -0.851701,-12.50823 -0.863763,-15.37926 -0.135525,-32.2597 -0.549319,-53.59159 -1.438931,-74.1798 -0.387,-8.95631 -0.335833,-39.44448 0.07331,-43.68366 0.17501,-1.81328 0.686922,-11.45666 1.137583,-21.42972 0.45066,-9.97306 1.083204,-21.47093 1.405651,-25.55082 0.322448,-4.07989 0.67762,-9.51974 0.789272,-12.08856 0.111652,-2.56882 0.465268,-7.51414 0.785813,-10.9896 0.320545,-3.47546 0.687667,-9.65711 0.815825,-13.737 0.193845,-6.17101 1.322312,-19.61739 2.743803,-32.69406 0.164259,-1.51106 0.526454,-5.34369 0.804876,-8.51693 0.278421,-3.17325 0.757858,-7.87131 1.065415,-10.44012 0.630863,-5.26916 1.137235,-11.673 1.498989,-18.95706 0.765338,-15.410384 2.161039,-29.715875 3.269953,-33.516022 1.094972,-3.752369 3.560956,-6.321281 6.06801,-6.321281 2.1582,0 6.235995,1.864814 6.332557,2.895937 0.03478,0.371626 0.01924,1.108398 -0.03454,1.637273 -0.06506,0.639588 0.28579,0.96159 1.047749,0.96159 2.246494,0 7.965712,3.106939 10.053302,5.461411 1.13485,1.279931 1.92387,2.55285 1.75338,2.828708 -0.17049,0.275858 0.0855,0.501561 0.56891,0.501561 0.97685,0 4.83023,2.581967 7.17549,4.80795 0.39801,0.377765 1.11222,0.686847 1.58713,0.686847 0.50066,0 0.86347,0.467465 0.86347,1.112561 0,0.684247 0.53444,1.315761 1.38825,1.640375 1.55255,0.590278 1.59004,0.618462 5.64657,4.244874 1.60256,1.432626 3.20978,2.618019 3.57163,2.634203 1.35068,0.06042 3.58258,1.522507 4.26199,2.791983 0.38648,0.722153 1.05496,1.313007 1.48551,1.313007 0.43054,0 0.90999,0.48634 1.06543,1.080759 0.15545,0.594419 0.75705,1.231339 1.3369,1.415374 0.57985,0.18404 1.45635,0.94827 1.94779,1.69829 0.49143,0.75003 1.82953,1.8412 2.97356,2.42484 1.91303,0.97595 3.4385,1.06624 18.99903,1.12448 20.9897,0.0785 40.95778,1.28675 43.46781,2.63008 0.677,0.36231 6.73077,1.76083 13.45281,3.10781 6.72204,1.34698 14.32365,2.9449 16.89247,3.55093 5.71841,1.34908 23.33872,5.26826 27.474,6.11088 3.09325,0.63029 9.45097,2.13268 14.83596,3.50588 1.66218,0.42386 4.753,1.16814 6.8685,1.65394 2.1155,0.48581 4.95906,1.23634 6.31902,1.66785 1.35997,0.4315 5.31622,1.52013 8.79168,2.41916 9.42507,2.43808 32.7685,10.31354 37.0899,12.51317 1.20886,0.61532 3.01819,1.29587 4.02074,1.51235 1.00256,0.21647 2.48615,0.73965 3.29688,1.16263 0.81074,0.42297 2.11073,0.77057 2.88889,0.77243 2.13038,0.005 8.74159,2.40155 11.16252,4.04624 1.17547,0.79857 2.4118,1.45309 2.7474,1.45449 0.3356,0.001 2.09377,0.6137 3.90705,1.36066 1.81329,0.74696 4.40958,1.37823 5.76954,1.40283 1.35997,0.0246 4.20352,0.52679 6.31902,1.11599 2.1155,0.5892 6.14297,1.57101 8.94994,2.1818 6.39391,1.39129 7.81485,1.06502 13.32945,-3.06073 4.28666,-3.20706 10.41174,-6.84946 11.51809,-6.84946 0.35756,0 1.30645,-0.46653 2.10864,-1.03674 1.67883,-1.19334 12.64103,-4.07441 14.49921,-3.81066 0.86747,0.12313 1.19248,0.48746 1.07025,1.19974 -0.23282,1.35668 1.91105,3.59386 3.13679,3.27332 0.52904,-0.13835 1.30617,0.16331 1.72698,0.67034 0.66052,0.79588 0.63861,1.01437 -0.16032,1.59856 -0.50898,0.37217 -0.98495,1.45811 -1.05773,2.4132 -0.0728,0.95509 -0.32698,1.73652 -0.56492,1.73652 -0.23793,0 -0.4326,0.41325 -0.4326,0.91833 0,0.50508 -0.42288,1.3856 -0.93974,1.95672 -0.66082,0.7302 -0.75437,1.15297 -0.31519,1.4244 0.45028,0.27828 0.33237,1.22725 -0.42252,3.40071 -0.59063,1.70053 -0.91327,3.67341 -0.74011,4.52577 0.25463,1.25347 0.11658,1.51107 -0.8098,1.51107 -0.99408,0 -1.09475,0.28674 -0.91642,2.61003 0.11019,1.43552 0.22219,2.93371 0.24888,3.32931 0.0267,0.39561 0.32789,0.54664 0.66931,0.33563 0.37756,-0.23335 0.519,-0.0846 0.36103,0.37968 -0.14285,0.41983 -0.74357,0.69436 -1.33494,0.61007 -0.89754,-0.12794 -1.08363,0.18985 -1.12616,1.92318 -0.10844,4.4204 -0.44202,7.2965 -0.84628,7.2965 -0.232,0 -0.42182,0.6513 -0.42182,1.44732 0,2.32864 -1.21285,5.84823 -1.73286,5.02865 -0.34858,-0.54936 -0.46569,-0.52317 -0.52677,0.11779 -0.24366,2.557 -0.367,3.20641 -0.71633,3.77164 -0.21218,0.34331 -0.14118,0.6242 0.15777,0.6242 0.35628,0 0.35268,0.61529 -0.0104,1.78581 -0.3047,0.9822 -0.614,2.15671 -0.68735,2.61003 -0.0733,0.45332 -0.28513,1.19512 -0.47064,1.64844 -0.18551,0.45332 -0.49367,2.55508 -0.68479,4.67058 -0.19113,2.1155 -0.48739,5.32996 -0.65835,7.14324 -0.17097,1.81329 -0.30185,4.23883 -0.29086,5.3901 0.0172,1.79531 -0.0767,1.96092 -0.65973,1.16363 -0.49993,-0.68369 -0.68339,-0.72867 -0.69355,-0.17004 -0.0515,2.83237 -0.83178,7.9608 -1.27927,8.40829 -0.29618,0.29618 -0.53851,1.09263 -0.53851,1.76989 0,0.67726 -0.24727,1.38419 -0.54948,1.57097 -0.8157,0.50413 -0.66523,1.3737 0.23771,1.3737 1.33588,0 1.69218,2.28761 0.50819,3.26277 -1.31187,1.08048 -2.14525,3.83814 -2.3351,7.72683 -0.0811,1.66218 -0.52717,3.82666 -0.99117,4.80996 -0.80681,1.70978 -0.78781,2.50006 0.11278,4.69104 0.27267,0.66335 0.17787,0.93197 -0.29087,0.82422 -0.88496,-0.20342 -2.23003,4.65819 -1.57484,5.69209 0.25856,0.40801 0.47011,1.11273 0.47011,1.56605 0,0.67864 -0.0843,0.69107 -0.47752,0.0704 -0.26263,-0.4146 -0.78649,-0.65083 -1.16413,-0.52495 -0.50609,0.1687 -0.45057,0.46493 0.21119,1.12668 0.99596,0.99597 1.17592,3.54916 0.33991,4.82267 -0.47491,0.72345 -0.60459,0.72539 -1.06066,0.0159 -0.86767,-1.34977 -1.28606,-0.21996 -1.26085,3.40475 0.0162,2.32861 -0.12433,3.09109 -0.43287,2.34888 -0.40513,-0.97457 -0.46121,-0.93159 -0.49546,0.37968 -0.0212,0.81325 0.20931,1.63187 0.51235,1.81915 0.36829,0.22763 0.36829,0.68183 0,1.37001 -0.30304,0.56622 -0.55097,1.76988 -0.55097,2.6748 0,0.90493 -0.42529,2.07061 -0.94508,2.5904 -0.5198,0.5198 -1.01676,1.4647 -1.10435,2.0998 -0.0876,0.63509 -0.38496,2.88558 -0.6608,5.00107 -0.27584,2.1155 -0.89658,5.07679 -1.37942,6.58064 -0.48284,1.50385 -0.7641,3.03082 -0.62502,3.39326 0.13909,0.36245 0.0305,1.48105 -0.24118,2.48578 -0.27174,1.00474 -0.65174,3.55767 -0.84443,5.67316 -0.19271,2.1155 -0.41917,4.52634 -0.50324,5.35743 -0.0841,0.83109 -0.18378,2.23521 -0.22155,3.12027 -0.0378,0.88505 -0.45725,1.99775 -0.93216,2.47266 -0.6467,0.64669 -0.68119,0.8639 -0.13737,0.86521 1.2841,0.003 0.96276,4.92804 -0.4188,6.41877 -0.96536,1.04164 -1.11026,1.65465 -0.7966,3.36997 0.40744,2.22809 -0.30197,8.40386 -1.18384,10.306 -0.29055,0.62669 -0.37424,2.1721 -0.186,3.43425 0.231,1.54878 0.13913,2.29482 -0.28259,2.29482 -0.41561,0 -0.52022,0.74816 -0.31236,2.23418 0.21733,1.55382 0.0458,2.64115 -0.56318,3.57062 -0.64803,0.98902 -0.77908,1.98056 -0.50411,3.81419 0.2961,1.97456 0.19721,2.54466 -0.48694,2.80719 -0.57492,0.22062 -0.8585,1.03605 -0.8585,2.46857 0,1.73532 -0.19709,2.13913 -1.04407,2.13913 -0.83321,0 -1.05193,0.41613 -1.08307,2.06055 -0.0575,3.03781 -0.36436,5.79605 -0.74882,6.73113 -0.18639,0.45332 -0.50235,2.06055 -0.70215,3.57162 -0.1998,1.51107 -0.73506,3.53859 -1.18948,4.50559 -0.45442,0.967 -0.66831,2.01368 -0.47532,2.32594 0.49789,0.80561 -0.27154,4.48553 -0.86162,4.12084 -0.26908,-0.1663 -0.48923,0.20676 -0.48923,0.82903 0,0.62226 0.24726,1.13138 0.54948,1.13138 0.30221,0 0.54948,0.3709 0.54948,0.82422 0,0.45332 -0.25501,0.82422 -0.56669,0.82422 -0.31169,0 -0.51459,0.80362 -0.4509,1.78581 0.0637,0.9822 -0.16714,2.30965 -0.51294,2.9499 -0.3458,0.64024 -0.47856,1.31425 -0.29502,1.49778 0.18354,0.18355 0.0651,0.65739 -0.26325,1.053 -0.32832,0.39561 -0.58236,1.5761 -0.56452,2.62331 0.0178,1.04721 -0.34665,3.38762 -0.80997,5.2009 -0.46332,1.81329 -1.01567,6.01681 -1.22743,9.34116 -0.21177,3.32436 -0.48304,6.90971 -0.60282,7.96746 -0.11979,1.05775 -0.44034,4.27221 -0.71234,7.14324 -0.272,2.87103 -0.80186,5.96186 -1.17746,6.8685 -0.43919,1.06015 -0.63885,3.91918 -0.55944,8.01121 0.10567,5.4455 -0.031,6.6337 -0.94816,8.24219 -0.58939,1.03369 -0.97965,2.49763 -0.86725,3.25315 0.61419,4.12815 -0.34356,11.22707 -1.90944,14.15297 -0.79254,1.48088 -0.78795,1.95002 0.0142,1.45425 0.47307,-0.29239 0.51341,0.43552 0.15807,2.85234 -0.59719,4.06176 -0.72023,7.56609 -0.96425,27.46417 -0.10777,8.78742 -0.31992,16.2054 -0.47145,16.4844 -0.25797,0.47499 -0.0767,16.3104 0.29205,25.50866 0.0909,2.2666 -0.0351,4.38732 -0.2799,4.71268 -0.2448,0.3254 -0.14694,1.38152 0.21748,2.34701 0.52216,1.38333 0.517,1.98847 -0.0243,2.8553 -0.48511,0.77679 -0.52348,1.40534 -0.13059,2.13943 0.30598,0.57172 0.49708,2.97688 0.42467,5.34478 -0.0724,2.3679 0.055,4.9712 0.28308,5.78508 0.35331,1.26064 0.19658,1.58621 -1.05818,2.19794 -1.80917,0.882 -1.96445,1.99206 -1.15187,8.2345 0.42381,3.25579 0.44269,4.9993 0.0595,5.49478 -0.36877,0.4769 -0.40373,2.73835 -0.10195,6.59401 0.25261,3.22748 0.27491,7.30737 0.0496,9.06642 -0.40205,3.13814 -0.15759,9.39648 0.701,17.94661 0.31721,3.15878 0.66656,4.39734 1.30939,4.64221 1.24393,0.47376 4.99549,4.02129 5.00988,4.73741 0.023,1.14349 5.92176,6.9176 7.06695,6.9176 0.8296,0 1.03521,0.24372 0.77584,0.91962 -0.26271,0.6846 -0.12814,0.83337 0.52655,0.58215 1.49102,-0.57217 2.10349,0.82846 1.58227,3.61841 -0.26076,1.39577 -0.36921,2.64265 -0.24101,2.77086 0.78396,0.78396 0.53821,3.72774 -0.41204,4.9358 -0.58761,0.74703 -1.06839,1.6292 -1.06839,1.96041 0,0.33121 -0.49453,1.52485 -1.09896,2.65259 -0.60443,1.12773 -1.10136,2.42497 -1.10429,2.88279 -0.003,0.45777 -0.86837,1.91804 -1.92319,3.24495 -1.05481,1.32695 -1.91784,2.57519 -1.91784,2.77387 0,0.19868 -0.80361,1.13359 -1.78581,2.07761 -4.13339,3.9727 -6.60779,6.19818 -6.89149,6.19818 -0.16642,0 -0.69296,0.3484 -1.17008,0.77427 -0.47711,0.42584 -1.98018,1.36808 -3.34014,2.09389 -3.78116,2.01798 -5.14433,2.75442 -6.04428,3.26552 -0.45332,0.2574 -1.44239,0.73747 -2.19792,1.06671 -0.75554,0.32927 -2.66698,1.18786 -4.24765,1.90794 -2.03671,0.92783 -4.67646,1.47923 -9.06133,1.89274 -3.40306,0.32091 -6.74658,0.72383 -7.43006,0.89535 -1.40979,0.35384 -4.17905,3.62616 -4.81269,5.68695 -0.42243,1.37386 -5.02332,7.81921 -5.80668,8.13456 -0.22833,0.0919 -1.06771,0.77188 -1.8653,1.51108 -0.79758,0.73917 -1.71091,1.34394 -2.02962,1.34394 -0.31871,0 -1.48432,0.71666 -2.59025,1.59255 -1.10593,0.87594 -3.05782,1.87453 -4.33754,2.21913 -1.27972,0.34457 -2.32676,0.8321 -2.32676,1.08336 0,0.25126 -1.05088,0.60485 -2.33529,0.78577 -1.28441,0.18087 -2.95345,0.46614 -3.70899,0.63395 -0.75554,0.16777 -1.72743,0.0715 -2.15976,-0.21385 z m 4.35768,-12.16804 c 4.91918,-1.59528 11.32486,-5.52693 11.81092,-7.24922 0.77645,-2.75125 1.5427,-4.26699 2.1571,-4.26699 0.35594,0 0.96918,-0.89052 1.36275,-1.97891 0.39356,-1.08838 1.18504,-2.44834 1.75882,-3.02212 0.57379,-0.57378 0.88129,-1.04326 0.68335,-1.04326 -0.71793,0 1.77211,-2.33168 3.37547,-3.16084 0.90447,-0.46771 4.36677,-1.15741 7.69402,-1.53268 7.75307,-0.87442 13.54888,-2.18035 17.14249,-3.86263 1.56791,-0.73396 3.11332,-1.33449 3.43425,-1.33449 0.32093,0 0.58351,-0.21726 0.58351,-0.48283 0,-0.26552 0.74557,-0.79162 1.65682,-1.16907 2.06981,-0.85736 8.50478,-7.04506 9.02231,-8.67562 0.21149,-0.66638 0.61513,-1.21156 0.89698,-1.21156 0.28184,0 0.51245,-0.25258 0.51245,-0.56125 0,-0.30871 0.63658,-1.5232 1.41464,-2.69895 1.21809,-1.84065 1.36424,-2.50699 1.05194,-4.79614 -0.19948,-1.46221 -0.83607,-3.70672 -1.41464,-4.98781 -0.57857,-1.28112 -1.05309,-2.51745 -1.05448,-2.74741 -10e-4,-0.22996 -0.70605,-1.16854 -1.56589,-2.08577 -0.85984,-0.91724 -1.83897,-2.1827 -2.17586,-2.8122 -0.33689,-0.62946 -1.30129,-1.28224 -2.14311,-1.45063 -0.84182,-0.16834 -2.43772,-0.92172 -3.54644,-1.67415 -1.10872,-0.75239 -2.1596,-1.22426 -2.33529,-1.04858 -0.17569,0.17569 -0.31943,-0.096 -0.31943,-0.60382 0,-0.50776 -0.27164,-1.35819 -0.60363,-1.88981 -0.46121,-0.7385 -0.33048,-1.79866 0.55405,-4.49307 0.91579,-2.78966 1.08347,-4.25092 0.8025,-6.99343 -0.29741,-2.90286 -0.21817,-3.46695 0.48703,-3.46695 0.90012,0 0.67472,-1.84395 -0.62566,-5.11845 -0.82305,-2.0725 -0.76652,-7.16219 0.11708,-10.54173 0.39508,-1.51105 0.56443,-3.36554 0.37634,-4.1211 -0.1881,-0.75553 -0.14403,-2.61002 0.0979,-4.1211 0.24195,-1.51105 0.57324,-5.8382 0.7362,-9.61589 0.16296,-3.77769 0.47269,-7.68346 0.6883,-8.67957 0.2156,-0.99607 0.22022,-4.33416 0.0103,-7.41798 -0.40272,-5.91481 -0.576,-43.06509 -0.21838,-46.81793 0.1152,-1.20884 0.37186,-10.11041 0.57034,-19.78128 0.1985,-9.67082 0.58352,-18.32513 0.85561,-19.23177 0.27208,-0.90664 0.78165,-4.1211 1.13236,-7.14327 0.35071,-3.02212 0.68346,-5.87001 0.73945,-6.32865 0.056,-0.45863 0.29882,-1.15267 0.53963,-1.54232 0.2408,-0.38961 0.29253,-1.28731 0.11495,-1.99486 -0.17758,-0.70751 -0.0743,-2.59716 0.22952,-4.19918 0.30382,-1.60202 0.81241,-5.02715 1.1302,-7.61139 0.3178,-2.58424 0.83564,-6.42948 1.15077,-8.54498 0.31514,-2.11549 0.66527,-5.08268 0.77808,-6.59376 1.69473,-22.70056 2.7017,-30.42531 5.15724,-39.56255 0.56851,-2.1155 1.45499,-6.56629 1.96996,-9.89064 0.51496,-3.32436 1.13734,-6.53882 1.38306,-7.14324 0.24573,-0.60443 0.56845,-2.08803 0.71716,-3.29688 0.46697,-3.79586 2.66721,-12.49218 3.82314,-15.1107 0.20011,-0.45332 0.57774,-2.9599 0.83916,-5.57018 0.28115,-2.80717 0.8425,-5.27017 1.37413,-6.02917 0.59402,-0.84809 0.8988,-2.42179 0.8988,-4.64093 0,-3.68041 0.88077,-9.30605 1.69491,-10.82563 0.28453,-0.53108 0.64909,-3.62191 0.81012,-6.8685 0.16103,-3.24659 0.52587,-6.64469 0.81076,-7.55133 0.28488,-0.90664 0.58262,-3.77415 0.66164,-6.37224 0.0944,-3.10338 0.41307,-5.04831 0.92901,-5.66978 0.52524,-0.63267 0.82126,-2.52591 0.89378,-5.71632 0.0596,-2.62369 0.38511,-6.00667 0.72326,-7.51774 0.33816,-1.51107 0.83802,-4.12389 1.11081,-5.80626 0.27279,-1.68237 0.89206,-4.22549 1.37616,-5.65137 0.48411,-1.42588 0.88019,-3.43471 0.88019,-4.46406 0,-1.02935 0.24726,-2.02437 0.54948,-2.21115 0.30221,-0.18678 0.551,-1.00499 0.55286,-1.81824 0.002,-0.81325 0.40447,-2.22044 0.89468,-3.12708 0.49022,-0.90664 0.84963,-2.6717 0.7987,-3.92234 -0.0854,-2.0975 0.9144,-4.04512 2.07658,-4.04512 0.21888,0 0.4048,-2.16358 0.41314,-4.80795 0.008,-2.64437 0.32969,-5.54975 0.71409,-6.45639 0.3844,-0.90664 0.77183,-2.88477 0.86096,-4.39584 0.3349,-5.67805 0.86755,-10.50272 1.36491,-12.3633 0.28275,-1.05775 0.66687,-2.66498 0.8536,-3.57162 0.99765,-4.84398 1.91837,-9.03462 2.41451,-10.9896 0.30679,-1.20885 0.83712,-4.42331 1.17852,-7.14324 0.34141,-2.71992 0.82461,-5.43985 1.07378,-6.04428 0.5427,-1.31643 1.19084,-4.80571 1.3562,-7.30114 0.0658,-0.99348 0.36954,-2.35345 0.6749,-3.02214 1.3995,-3.06464 2.86259,-9.77067 3.14429,-14.41175 0.0736,-1.21349 0.42094,-2.74265 0.77174,-3.39812 0.3508,-0.65548 0.63781,-1.93217 0.63781,-2.8371 0,-0.90492 0.32086,-1.97205 0.71302,-2.37141 0.39216,-0.39935 0.73721,-1.22063 0.76678,-1.82506 0.0295,-0.60442 0.1812,-1.61456 0.33696,-2.24475 0.15576,-0.63018 0.0761,-1.48085 -0.17698,-1.89038 -0.90058,-1.45716 -4.3643,0.26179 -17.40361,8.63691 -1.56808,1.00718 -3.54621,1.96586 -4.39584,2.13041 -3.24761,0.62896 -21.91721,-3.56315 -31.65532,-7.10796 -2.05453,-0.74787 -4.74431,-1.53021 -5.9773,-1.73852 -1.23299,-0.20831 -3.975,-1.09346 -6.09335,-1.967 -2.11835,-0.87353 -4.2164,-1.58825 -4.66233,-1.58825 -0.91329,0 -12.95879,-3.8672 -17.99512,-5.77732 -1.81329,-0.68772 -4.40958,-1.53458 -5.76954,-1.88189 -1.35997,-0.34732 -3.46173,-1.08646 -4.67058,-1.64254 -1.20886,-0.55608 -3.31062,-1.31874 -4.67058,-1.69481 -1.35997,-0.37606 -3.70899,-1.13465 -5.22006,-1.68576 -1.51107,-0.55109 -4.9728,-1.64474 -7.69272,-2.43031 -2.71993,-0.78558 -6.92345,-2.00742 -9.34116,-2.71521 -4.62826,-1.35493 -17.14884,-4.51287 -20.88024,-5.2664 -1.20886,-0.24412 -4.79421,-1.09017 -7.96746,-1.88011 -3.17325,-0.78993 -6.88224,-1.65065 -8.2422,-1.91271 -4.43942,-0.85545 -18.43981,-4.01029 -28.29822,-6.37669 -3.02214,-0.72543 -7.10203,-1.55383 -9.06642,-1.84089 -1.9644,-0.28706 -6.53882,-1.14938 -10.16538,-1.91625 -6.21437,-1.3141 -9.35444,-1.79788 -20.6055,-3.17462 -2.56882,-0.31434 -14.45864,-0.73323 -26.42182,-0.93088 l -21.75125,-0.35935 -1.87639,-1.70462 c -1.03203,-0.93755 -3.36,-3.10737 -5.17328,-4.82182 -1.81329,-1.71446 -5.15138,-4.58567 -7.41798,-6.38047 -2.26661,-1.7948 -6.06552,-4.81757 -8.44202,-6.717261 -2.3765,-1.899691 -6.382,-5.061213 -8.9011,-7.025602 -2.51909,-1.964392 -6.66823,-5.240667 -9.2203,-7.280611 -5.427565,-4.338414 -7.457351,-4.827122 -8.599213,-2.07042 -0.373298,0.901214 -0.534688,2.013911 -0.358651,2.47266 0.177718,0.463121 0.02225,0.837832 -0.349535,0.842505 -0.423489,0.0053 -0.366663,0.204188 0.154615,0.541063 0.68592,0.443274 0.639817,0.541344 -0.274737,0.584447 -0.60443,0.02848 -0.791853,0.175855 -0.416503,0.327483 0.471511,0.190469 0.522489,0.574601 0.164922,1.242718 -0.284644,0.531865 -0.514853,1.439166 -0.511569,2.016223 0.0076,1.342432 -0.597353,7.32624 -0.8761,8.665281 -0.13659,0.656153 0.16207,1.120366 0.833822,1.296032 0.966962,0.252866 0.985145,0.392621 0.238838,1.835826 -0.641486,1.240496 -0.676441,1.850436 -0.169777,2.962436 0.490782,1.07715 0.480681,1.74565 -0.04377,2.89668 -0.448099,0.98347 -0.487765,1.56104 -0.11572,1.68506 0.387775,0.12925 0.386349,0.6531 -0.0045,1.66314 -0.329346,0.85106 -0.42388,3.00122 -0.223595,5.08554 0.195542,2.0349 0.104552,4.24876 -0.208453,5.07203 -0.305502,0.80353 -0.816394,4.24749 -1.135318,7.65326 -1.983494,21.18158 -1.929495,20.82392 -3.077444,20.38341 -0.467621,-0.17944 -0.773835,0.0525 -0.773835,0.58607 0,0.48565 0.403459,0.883 0.89657,0.883 0.749995,0 0.83245,0.38179 0.504348,2.3353 -0.215719,1.2844 -0.487089,3.44798 -0.603045,4.80794 -0.782765,9.1807 -1.219989,12.21973 -1.810551,12.58472 -0.4794,0.29628 -0.553699,1.33054 -0.263454,3.66724 0.222342,1.79002 0.340815,3.47707 0.263281,3.749 -0.07754,0.27193 -0.258744,2.49732 -0.402677,4.94532 -0.143934,2.44799 -0.408558,5.31633 -0.588056,6.37408 -0.179495,1.05775 -0.419347,3.53041 -0.533003,5.4948 -0.113656,1.96439 -0.222906,3.81889 -0.242782,4.1211 -0.01986,0.30221 -0.03627,1.04401 -0.03639,1.64844 -4.13e-4,1.78614 -0.407231,11.17368 -0.702417,16.20966 -0.343993,5.8686 -1.31515,22.77719 -1.704232,29.67192 -0.162017,2.87104 -0.35868,8.80542 -0.437034,13.18752 -0.07835,4.3821 -0.334535,8.27544 -0.569301,8.65187 -0.598623,0.95984 -0.869866,9.57419 -0.334069,10.60954 0.243025,0.4696 0.225997,1.20311 -0.03783,1.63001 -0.288658,0.46706 -0.243367,1.06095 0.113722,1.49122 0.388591,0.46823 0.441465,1.70743 0.153173,3.59005 -0.242139,1.58125 -0.384643,5.1004 -0.316669,7.82033 0.125203,5.00989 0.1213,6.42594 -0.02386,8.65431 -0.04429,0.67998 0.21616,6.67618 0.578776,13.32489 1.063606,19.50148 1.147401,22.80342 0.57871,22.80342 -0.290109,0 -0.527472,0.3709 -0.527472,0.82422 0,0.45332 0.247266,0.82422 0.549478,0.82422 0.664379,0 0.758794,10.2459 0.09818,10.65418 -0.574465,0.35504 -0.27118,10.39049 0.798917,26.43572 0.417958,6.2669 0.418242,6.12965 -0.0253,12.27163 -0.181868,2.51841 -0.170778,4.83763 0.02464,5.15383 0.468021,0.75728 0.920522,7.01791 0.799519,11.06193 -0.05285,1.76623 0.162647,3.52307 0.478876,3.9041 0.337118,0.40621 0.67703,5.16185 0.821714,11.4964 0.135716,5.94199 0.36773,10.99936 0.515591,11.2386 0.300242,0.48581 1.044748,16.09354 1.092334,22.89967 0.0169,2.41773 0.202371,4.5206 0.412143,4.67308 0.444597,0.32322 1.626149,13.41814 1.859004,20.60299 0.09793,3.02192 0.509487,5.75849 1.05815,7.03603 0.493836,1.14991 0.86933,3.12804 0.834436,4.39586 -0.0721,2.61941 0.81644,9.8824 1.305866,10.67431 0.178291,0.28847 0.370713,2.23244 0.427601,4.31986 0.05689,2.08742 0.309577,4.16622 0.561529,4.61954 0.414965,0.74666 1.560413,8.2298 1.619101,10.57751 0.01323,0.52886 0.241996,0.96157 0.508392,0.96157 0.519036,0 0.353359,4.60484 -0.232039,6.44924 -0.194396,0.61248 -2.633271,3.10162 -5.41972,5.53142 -2.786453,2.42976 -5.964448,5.36435 -7.062214,6.52131 -5.338362,5.62617 -6.688528,7.16441 -7.513309,8.55994 -0.491191,0.8311 -1.049475,1.51108 -1.240631,1.51108 -0.926957,0 -5.805915,13.51012 -6.221979,17.229 -0.197969,1.76952 -0.615732,3.69527 -0.928363,4.27944 -0.496238,0.9272 -0.390002,3.05303 0.361316,7.23001 0.168894,0.93899 2.278342,3.07401 3.075807,3.11308 0.205074,0.01 0.732526,0.37795 1.172117,0.81755 0.43959,0.43959 1.982718,1.45998 3.429172,2.26755 1.446455,0.80753 4.361678,2.79691 6.478271,4.42078 2.116593,1.62388 4.033675,2.95253 4.260183,2.95253 0.226504,0 0.697447,0.86543 1.046537,1.92319 0.489211,1.48232 0.934863,1.92319 1.944129,1.92319 0.720183,0 1.559407,0.30909 1.86495,0.68683 0.305538,0.37778 1.176088,1.39795 1.934547,2.26705 0.758464,0.8691 1.228344,1.824 1.04418,2.122 -0.184164,0.29795 -0.109555,0.6996 0.165796,0.89246 0.9997,0.70026 4.486934,5.89771 5.349571,7.97314 0.486389,1.17018 0.884347,2.73188 0.884347,3.47038 0,0.73846 0.261818,1.83191 0.581821,2.42984 0.819147,1.53058 0.839344,6.56425 0.03239,8.06598 -0.371777,0.69185 -0.606416,1.68091 -0.521422,2.19791 0.085,0.51703 -0.023,1.22269 -0.23998,1.56812 -0.287521,0.45777 0.155048,0.50417 1.631823,0.1711 2.594034,-0.58503 2.911224,-0.35128 2.911224,2.14549 0,1.13054 0.20559,2.29047 0.45685,2.57758 0.63855,0.7296 1.74107,4.77455 1.74107,6.38763 0,0.73829 0.36304,1.82231 0.80675,2.40894 0.44371,0.58664 0.81461,1.50268 0.82422,2.03566 0.01,0.53294 0.24395,1.39837 0.52076,1.92316 0.2768,0.52478 0.88012,1.82564 1.3407,2.89082 0.46057,1.06518 1.49304,2.67241 2.29436,3.57164 0.80132,0.89918 1.8338,2.49895 2.2944,3.55502 0.80057,1.8355 6.57467,8.22201 7.44784,8.23775 0.23008,0.004 1.89071,1.01256 3.6903,2.24097 l 3.27199,2.23343 6.43992,-0.008 c 5.62367,-0.007 6.63308,-0.15058 7.96389,-1.13449 0.83819,-0.61969 1.69267,-1.12671 1.89884,-1.12671 0.20618,0 1.07388,-0.73146 1.92822,-1.62545 0.85434,-0.89399 2.24108,-1.98179 3.08163,-2.41731 1.83878,-0.95284 3.97525,-2.95685 5.0999,-4.78373 1.31007,-2.1281 5.55174,-6.00284 6.95755,-6.35564 0.70656,-0.17738 1.28465,-0.61059 1.28465,-0.96274 0,-1.34426 13.11828,-6.93329 16.27348,-6.93329 0.68476,0 1.39784,-0.24727 1.58462,-0.54947 0.18678,-0.30224 1.01735,-0.54951 1.84571,-0.54951 0.82837,0 1.75837,-0.25225 2.06668,-0.56055 0.31254,-0.31254 6.52346,-0.84388 14.03803,-1.20097 13.86787,-0.65896 17.23128,-0.43012 26.55746,1.80706 1.20886,0.28996 4.75253,0.5838 7.87483,0.65295 4.89599,0.10847 5.78396,0.27224 6.4552,1.19075 0.42806,0.58573 1.30963,1.14608 1.95904,1.24515 0.64941,0.0991 1.61859,0.68505 2.15374,1.3021 0.53515,0.61701 1.8505,1.36413 2.923,1.66027 1.07251,0.29614 2.29982,0.88822 2.72736,1.31578 0.42754,0.42753 0.93041,0.62427 1.1175,0.43717 0.18708,-0.18706 0.34015,-0.0517 0.34015,0.30092 0,0.3526 0.32464,0.64108 0.72142,0.64108 0.39678,0 1.4321,0.7418 2.30072,1.64844 0.87163,0.90978 2.15407,1.64844 2.86198,1.64844 0.83232,0 1.50075,0.47858 1.90377,1.36314 0.3416,0.74971 1.07809,1.50816 1.63666,1.68545 0.55857,0.17728 1.01557,0.67656 1.01557,1.10952 0,0.43296 0.25503,0.78721 0.56673,0.78721 0.3117,0 0.72763,0.43272 0.92428,0.96158 0.58741,1.5797 3.84028,6.31983 5.7504,8.37955 2.31141,2.49245 3.63759,3.25349 5.71113,3.27743 1.30518,0.0148 2.26938,0.64277 4.2499,2.76687 1.40894,1.51108 3.04343,2.74741 3.63221,2.74741 0.58877,0 1.22745,0.49453 1.41929,1.09893 0.19184,0.60445 0.70094,1.09898 1.13133,1.09898 0.4304,0 1.09138,0.49453 1.46885,1.09897 0.37747,0.6044 0.96423,1.09893 1.3039,1.09893 0.33967,0 1.4547,0.73162 2.47785,1.62582 1.02315,0.89424 2.84934,2.04592 4.05819,2.55937 1.20886,0.51345 3.68152,1.65994 5.4948,2.54774 3.13562,1.5352 3.55221,1.5994 8.51694,1.31266 2.87103,-0.16584 6.08549,-0.58219 7.14324,-0.92519 z m -53.02482,-96.65541 c -5.84778,-0.90669 -11.10288,-2.18485 -13.737,-3.34123 -1.51107,-0.66333 -3.61283,-1.31652 -4.67058,-1.45157 -2.02174,-0.25811 -8.29263,-2.06208 -10.16538,-2.92438 -3.4489,-1.58794 -9.50523,-3.8149 -15.93492,-5.85938 -4.00633,-1.27391 -8.5495,-2.8159 -15.38544,-5.22192 -6.88352,-2.4228 -18.58232,-6.07751 -22.25394,-6.95218 -1.35997,-0.32396 -4.20352,-0.9905 -6.31902,-1.4812 -2.1155,-0.4907 -4.71179,-1.13635 -5.76954,-1.43476 -1.05775,-0.29845 -4.2593,-1.16632 -7.11457,-1.92855 -2.85525,-0.76228 -6.31698,-2.04168 -7.69271,-2.84315 -2.95479,-1.72138 -8.62668,-5.64735 -10.2174,-7.0723 -0.61727,-0.55293 -1.85086,-1.42079 -2.74132,-1.9286 -1.17397,-0.66947 -1.65723,-1.39458 -1.75806,-2.63791 -0.0765,-0.94307 -0.38829,-2.18039 -0.69293,-2.7496 -0.68116,-1.27276 -0.73393,-4.95356 -0.071,-4.95356 0.26558,0 1.78266,-1.23967 3.3713,-2.75483 3.6588,-3.48963 12.87185,-7.99007 19.83035,-9.68694 5.66457,-1.38131 20.76389,-1.11644 23.67201,0.41524 0.509,0.26812 1.66892,0.48745 2.5776,0.48745 0.90867,0 1.80495,0.24726 1.99173,0.54946 0.18678,0.30225 1.07016,0.54951 1.96306,0.54951 0.89291,0 2.11465,0.24727 2.71498,0.54947 0.60032,0.3022 1.58268,0.79673 2.183,1.09897 0.60033,0.3022 1.45737,0.54947 1.90454,0.54947 0.44717,0 1.62504,0.35285 2.61749,0.78412 1.52503,0.66267 3.04798,1.2639 4.27711,1.68854 0.48598,0.16789 2.42998,0.93499 3.98373,1.57195 0.83109,0.34073 1.51107,0.80642 1.51107,1.03485 0,0.22843 0.46426,0.41532 1.03168,0.41532 0.56742,0 1.3273,0.35623 1.68861,0.79159 0.36132,0.43535 1.02451,0.65051 1.47376,0.47808 0.52113,-0.19995 0.92402,0.0965 1.11293,0.81887 0.16854,0.6445 0.60647,1.01321 1.01653,0.85587 0.61142,-0.23462 8.68782,3.19616 11.25985,4.78307 0.45332,0.2797 3.29688,1.73272 6.31902,3.22892 3.02214,1.49625 6.6075,3.32923 7.96746,4.07338 3.20542,1.7539 10.18195,4.98332 12.63804,5.85011 1.05775,0.37329 2.66498,0.99924 3.57162,1.39099 2.42717,1.04874 12.29474,3.66481 14.83596,3.93326 10.13146,1.07021 19.55332,-0.45888 27.94065,-4.53461 2.7591,-1.34072 5.39371,-2.43771 5.8547,-2.43771 0.46099,0 1.73461,-0.48048 2.83026,-1.0677 1.09565,-0.58721 2.14287,-0.9169 2.32715,-0.73265 0.18428,0.1843 0.33506,-0.077 0.33506,-0.58074 0,-1.60838 2.05249,-1.04598 2.98189,0.81709 1.15511,2.31544 1.08923,3.87746 -0.23449,5.56031 -0.60443,0.76838 -1.09896,1.7762 -1.09896,2.23957 0,0.46338 -0.22627,0.98235 -0.50281,1.15325 -0.27655,0.17094 -1.17548,2.0711 -1.99764,4.22264 -0.82215,2.15155 -1.95585,4.30668 -2.51932,4.78914 -0.56348,0.48245 -1.02451,1.07836 -1.02451,1.32419 0,0.24586 -0.49463,0.99454 -1.09917,1.66369 -2.67858,2.965 -4.59079,5.19151 -5.8821,6.84889 -0.76525,0.98218 -1.71889,1.7858 -2.11921,1.7858 -0.40032,0 -1.09554,0.52494 -1.54495,1.16656 -1.23043,1.7567 -5.36123,3.92572 -11.53476,6.0567 -2.77873,0.95914 -4.91449,1.19083 -12.16231,1.31928 -4.83542,0.0857 -10.02801,-0.0358 -11.53908,-0.27013 z m 16.80562,-11.9439 c 0.49293,-0.49412 0.49982,-1.64395 0.0288,-4.81068 -0.74144,-4.98513 -1.45095,-6.27195 -3.64166,-6.60489 -6.31609,-0.95997 -12.24265,-2.13485 -13.10966,-2.59885 -1.33011,-0.71184 -5.74436,-0.77501 -6.4274,-0.092 -0.67094,0.67091 -1.32437,13.16568 -0.70777,13.53353 0.25206,0.15042 2.18915,0.44648 4.30465,0.65793 2.11549,0.2115 3.96744,0.50484 4.11543,0.65192 0.58307,0.57938 14.80154,-0.0994 15.43759,-0.73698 z m 13.23451,-4.62074 c 0.6161,-0.32973 1.87285,-1.31879 2.79277,-2.19791 0.91993,-0.87915 1.82695,-1.59841 2.01562,-1.59841 0.18867,0 0.80128,-0.85092 1.36136,-1.89092 0.56009,-1.04005 1.35812,-2.02132 1.7734,-2.18068 1.03244,-0.39621 0.95764,-1.97269 -0.0936,-1.97269 -0.46677,0 -2.38308,0.35701 -4.25848,0.79335 -1.87539,0.43634 -4.08265,0.9338 -4.90501,1.10545 -2.11745,0.44198 -2.80618,2.06755 -2.3666,5.58582 0.39609,3.17015 1.19896,3.6841 3.68054,2.35599 z m -48.07513,-0.28596 c 1.15018,-0.30847 1.18766,-0.5383 0.96213,-5.8994 -0.12906,-3.06816 -0.2349,-6.75296 -0.2352,-8.18846 -4.2e-4,-2.10914 -0.18508,-2.61509 -0.96214,-2.63643 -0.52887,-0.0144 -1.75232,-0.44723 -2.71876,-0.96158 -9.76233,-5.19568 -12.32289,-5.99517 -14.65976,-4.57726 -1.82099,1.1049 -2.09667,1.99115 -2.04061,6.55992 0.0248,2.02173 -0.24449,4.83743 -0.59843,6.25711 -0.60989,2.4462 -0.57384,2.63812 0.68927,3.66988 0.73305,0.59875 2.44551,1.39244 3.80548,1.76362 1.35996,0.37123 3.43421,1.15317 4.60945,1.73762 1.17523,0.58446 3.64789,1.39137 5.4948,1.79314 4.03991,0.87878 4.14143,0.88743 5.65377,0.48184 z m -29.1555,-11.09825 c -0.73492,-1.18914 -0.75099,-6.34522 -0.0252,-8.0823 0.48334,-1.15675 0.78464,-3.78367 0.78464,-6.84086 0,-4.26036 -0.1293,-4.96296 -0.91332,-4.96296 -0.50232,0 -1.9241,-0.5847 -3.15951,-1.29934 -1.23541,-0.71464 -3.60616,-1.59157 -5.26834,-1.94871 -2.96432,-0.63695 -7.79621,-2.69091 -8.14346,-3.4616 -0.25617,-0.56859 -3.54285,0.13699 -4.41203,0.94716 -0.53818,0.50166 -0.79093,2.85691 -0.92121,8.58433 -0.0987,4.34117 -0.25953,8.6077 -0.35729,9.48121 -0.11126,0.99413 0.13055,1.75513 0.64647,2.03446 1.53717,0.83226 4.66258,2.07432 6.59376,2.62044 1.05775,0.29911 3.53041,1.16224 5.49481,1.91809 3.42584,1.31813 10.31535,2.03698 9.68068,1.01008 z m -31.76818,-10.43768 c 0.51292,-0.66737 0.59642,-1.7105 0.29448,-3.6789 -0.2318,-1.51109 -0.35372,-6.13067 -0.27095,-10.26583 0.14076,-7.03101 0.0795,-7.55645 -0.94519,-8.10484 -1.76512,-0.94464 -12.31209,-0.71678 -16.32584,0.35272 -3.1274,0.83337 -3.53133,1.09642 -3.5856,2.33531 -0.0336,0.76788 -0.11508,2.38521 -0.18099,3.59409 -0.0659,1.20884 0.31644,4.0524 0.84965,6.31901 0.53322,2.2666 1.11296,4.79733 1.28832,5.62382 0.22746,1.07202 0.74951,1.59523 1.82154,1.82564 0.82648,0.17762 2.98629,0.69754 4.79958,1.15535 1.81328,0.45782 4.38925,1.0583 5.72438,1.33446 1.33512,0.27615 2.56401,0.6386 2.73085,0.80547 0.53144,0.53145 3.05732,-0.33027 3.79977,-1.2963 z m -29.9556,-11.88504 c -0.19495,-2.67913 -0.54453,-3.05819 -2.82037,-3.05819 -2.43457,0 -3.64432,1.0534 -3.11716,2.71436 0.36437,1.14802 2.97666,2.23039 4.95581,2.05338 0.85738,-0.0767 1.07319,-0.45249 0.98172,-1.70955 z m 79.69798,-24.1107 c -1.56269,-0.67492 -3.29355,-1.62524 -3.84636,-2.11182 -0.55281,-0.48662 -2.05237,-1.41127 -3.33236,-2.05482 -2.45154,-1.23254 -4.32976,-3.46136 -3.73196,-4.42862 0.195,-0.31551 0.0927,-0.57366 -0.22737,-0.57366 -0.32005,0 -0.58191,-0.34205 -0.58191,-0.76013 0,-0.94884 2.63224,-1.51067 3.17336,-0.67739 0.37346,0.57514 0.99155,0.97505 3.69514,2.39098 2.31002,1.20979 7.32446,2.32818 10.77417,2.40297 5.01266,0.10872 9.68823,-2.09014 13.81088,-6.49497 2.79789,-2.98941 4.07999,-3.4084 5.26907,-1.72192 1.17688,1.66917 1.18466,2.15743 0.0556,3.48678 -0.51338,0.60444 -1.33053,1.88507 -1.81589,2.84582 -1.07671,2.1314 -2.33742,2.58121 -5.87179,2.09509 -1.8269,-0.25127 -2.71545,-0.1768 -2.71545,0.22761 0,0.33055 -0.3652,0.60102 -0.81155,0.60102 -1.22998,0 -2.65811,2.53369 -2.27917,4.0435 0.30119,1.20002 0.12447,1.33194 -2.21404,1.65244 -4.21363,0.57757 -6.36864,0.36484 -9.35032,-0.92288 z m 76.05661,-27.25568 c -2.04151,-0.5259 -3.79895,-0.86902 -3.90543,-0.76257 -0.10647,0.10649 -0.50636,-0.18327 -0.88864,-0.64392 -0.38229,-0.46062 -1.34477,-0.83885 -2.13885,-0.84054 -3.3563,-0.007 -5.60905,-1.17761 -9.28349,-4.82354 -3.87639,-3.84627 -6.00095,-6.78741 -7.23043,-10.00937 -0.40362,-1.05777 -1.20747,-2.95211 -1.78632,-4.20967 -0.57885,-1.25759 -1.2498,-3.53491 -1.49099,-5.06071 -0.2412,-1.52579 -0.77795,-3.18313 -1.19278,-3.68298 -0.8325,-1.00308 -1.10678,-12.74465 -0.40338,-17.26803 0.46863,-3.0137 3.77888,-12.77061 4.50586,-13.28095 0.28844,-0.2025 0.58494,-0.78035 0.65887,-1.28413 0.39932,-2.72072 8.12135,-11.27489 13.23738,-14.66388 4.8457,-3.20992 7.25453,-4.27347 11.0679,-4.88675 1.7114,-0.27524 4.47159,-0.74769 6.13377,-1.04989 2.06212,-0.37491 3.98216,-0.36457 6.04428,0.0326 3.19421,0.61516 9.89064,3.55866 9.89064,4.34756 0,0.25632 1.11944,1.00794 2.48765,1.67028 1.36821,0.66234 2.82649,1.8595 3.24062,2.66035 0.41414,0.80085 1.27282,1.92655 1.90819,2.50155 0.63537,0.575 1.15522,1.33716 1.15522,1.69368 0,0.35653 0.73875,1.30646 1.64165,2.11096 1.09052,0.97165 1.75976,2.20122 1.99341,3.66244 0.19347,1.20985 0.54885,2.19973 0.78973,2.19973 0.93222,0 3.86678,6.30947 3.54109,7.61353 -0.18763,0.75126 0.0314,1.83588 0.52194,2.58452 0.46489,0.70951 0.81699,1.85784 0.78245,2.55185 -0.0345,0.69401 0.09,3.85813 0.27674,7.03138 0.18675,3.17324 0.11219,7.00587 -0.16569,8.51695 -0.27787,1.51108 -0.88863,4.94446 -1.35723,7.62976 -0.4686,2.68531 -1.22939,5.45836 -1.69065,6.16233 -0.46125,0.70396 -0.83864,1.64056 -0.83864,2.08132 0,0.44079 -0.61817,1.53605 -1.3737,2.43396 -0.75554,0.8979 -1.3737,2.02387 -1.3737,2.50217 0,0.47825 -0.67998,1.30573 -1.51107,1.83879 -0.83109,0.53306 -2.11266,1.51479 -2.84794,2.18163 -1.56646,1.42067 -8.75917,5.11667 -9.95741,5.11667 -0.45347,0 -1.32458,0.3503 -1.93579,0.7784 -0.61121,0.4281 -2.58254,1.18642 -4.38073,1.68516 -8.24517,2.28675 -8.58015,2.30761 -14.12453,0.8794 z m -161.13215,-4.85668 c -8.02926,-2.01587 -17.82896,-7.91947 -20.30931,-12.23484 -0.31401,-0.5463 -1.4168,-2.41657 -2.45065,-4.15613 -2.96486,-4.98868 -3.60387,-8.13003 -3.56737,-17.53673 0.0262,-6.75172 0.25705,-9.08683 1.27662,-12.9128 0.68455,-2.56881 1.57924,-6.03054 1.98819,-7.69272 0.40895,-1.66217 1.22514,-4.0112 1.81375,-5.22005 0.5886,-1.20886 1.46714,-3.06336 1.9523,-4.1211 1.60838,-3.50659 3.9749,-6.69105 8.44737,-11.36702 3.46871,-3.62655 11.01382,-7.1974 16.72248,-7.91421 2.09717,-0.26332 4.04342,-0.62117 4.32501,-0.7952 1.02656,-0.63444 13.96599,1.97508 17.00087,3.4286 5.00509,2.39713 10.23787,6.69704 11.33284,9.31247 0.39859,0.95208 1.13137,2.13771 1.6284,2.63473 0.49702,0.49703 1.13351,1.94345 1.41442,3.21427 0.28091,1.27081 1.00334,2.68964 1.60539,3.15294 1.84909,1.42291 2.85102,7.00741 3.00356,16.74099 0.1202,7.6706 0.0108,9.00189 -0.85788,10.44012 -0.54761,0.90665 -1.42307,3.12908 -1.94547,4.9387 -0.52241,1.80965 -1.12606,3.66415 -1.34145,4.1211 -0.2154,0.45698 -0.84937,1.77949 -1.40883,2.93892 -0.55946,1.15947 -1.06582,2.3958 -1.12525,2.74741 -0.24037,1.42219 -1.31846,3.66143 -1.7628,3.66143 -0.26064,0 -1.28009,1.79268 -2.26545,3.98375 -2.28303,5.07649 -5.77336,8.73887 -9.87827,10.36518 -1.68839,0.66894 -3.33326,1.41548 -3.65527,1.65899 -0.81474,0.61619 -9.56618,1.49979 -14.52522,1.46658 -2.26661,-0.0153 -5.6047,-0.40012 -7.41798,-0.85538 z M 317.63125,374.98369 c -13.24787,-1.6921 -22.72816,-6.68264 -26.42096,-13.90831 -1.96499,-3.84487 -2.64266,-5.0536 -3.32452,-5.92976 -1.73226,-2.2259 -3.96984,-18.44323 -2.98275,-21.61809 0.28318,-0.91083 0.77314,-3.3869 1.08881,-5.5024 0.31567,-2.1155 1.09431,-5.20632 1.7303,-6.8685 0.636,-1.66218 1.35104,-3.76394 1.58898,-4.67058 0.54703,-2.08443 2.8319,-6.31902 3.40957,-6.31902 0.24001,0 0.94586,-0.92725 1.56856,-2.06055 1.80726,-3.28918 3.29233,-5.12184 7.75473,-9.56979 3.22314,-3.21269 4.93314,-4.45877 7.41555,-5.40371 4.18846,-1.59436 9.46191,-1.96747 15.75428,-1.11464 4.1025,0.55602 6.09212,1.18998 10.55468,3.36305 3.02456,1.47283 6.34772,3.45287 7.38481,4.4001 1.03707,0.94723 2.95141,2.1791 4.25407,2.73748 1.30266,0.55839 2.36847,1.34831 2.36847,1.75538 0,0.40708 0.44059,1.21948 0.97908,1.80534 1.40189,1.52518 3.41676,4.91694 3.41676,5.75162 0,0.3907 0.79069,1.41628 1.75709,2.27909 1.40525,1.2546 1.74568,1.97175 1.70005,3.58135 -0.0314,1.10694 0.35244,2.63762 0.85293,3.40151 1.34973,2.06004 1.30648,15.83175 -0.0602,19.18071 -0.5557,1.36166 -0.81912,2.92902 -0.62336,3.70899 0.19421,0.77378 0.0995,1.35079 -0.22173,1.35079 -0.30841,0 -0.72763,0.98777 -0.93159,2.19504 -0.20397,1.20727 -0.5966,2.33456 -0.87252,2.50509 -0.27592,0.17052 -0.50167,0.77101 -0.50167,1.33442 0,0.5634 -0.61817,1.75902 -1.3737,2.65692 -0.75554,0.8979 -1.3737,1.84854 -1.3737,2.11252 0,0.26399 -0.61817,1.38969 -1.3737,2.50156 -0.75554,1.11187 -1.3737,2.43557 -1.3737,2.94156 0,1.05886 -8.31199,9.57845 -9.34504,9.57845 -0.37761,0 -1.953,0.71152 -3.50086,1.58115 -2.07488,1.16574 -4.12335,1.7432 -7.79682,2.19792 -5.4273,0.67182 -6.56171,0.67629 -11.50186,0.0453 z M 159.93049,364.55107 c -4.74038,-0.47604 -8.06632,-1.10269 -8.79168,-1.65649 -0.30221,-0.23072 -1.58412,-0.6961 -2.84867,-1.03417 -2.53822,-0.67856 -9.7133,-6.31789 -11.2468,-8.83954 -0.50939,-0.83761 -1.19743,-1.69059 -1.52899,-1.89551 -0.92372,-0.57088 -5.72487,-8.01898 -6.56699,-10.18745 -0.63574,-1.63708 -1.00529,-3.38761 -1.85593,-8.79168 -0.34003,-2.16018 0.85201,-14.73665 1.52605,-16.10047 0.41841,-0.84658 0.62587,-1.89074 0.46102,-2.32034 -0.36822,-0.95956 2.47152,-6.96232 5.62991,-11.90071 1.29156,-2.01945 4.91725,-6.25944 8.05709,-9.42219 6.35386,-6.40023 10.21962,-8.78054 16.33965,-10.06102 6.74737,-1.41174 16.21292,-0.63631 20.88136,1.71062 0.75553,0.37983 2.49612,1.18996 3.86798,1.80029 3.65379,1.62557 10.96798,7.59745 10.96798,8.95513 0,1.45723 1.56859,3.82041 2.53586,3.82041 0.41856,0 0.76102,0.40938 0.76102,0.90972 0,0.50035 0.57151,1.67486 1.27003,2.61003 1.47888,1.97991 2.35516,4.16439 2.83726,7.07301 0.21802,1.31531 0.56632,1.93846 0.95069,1.70091 0.35283,-0.21806 0.45195,-0.12466 0.23694,0.22325 -0.20333,0.32899 0.0326,1.60345 0.52418,2.83215 0.52553,1.31344 0.74754,2.817 0.53877,3.64881 -0.1953,0.77815 -0.0547,2.24554 0.31244,3.26086 0.45738,1.26484 0.49171,2.07366 0.10908,2.56905 -0.30716,0.39767 -0.45332,1.71209 -0.32481,2.92095 0.45467,4.27694 0.30175,6.6313 -0.64244,9.89064 -0.52528,1.81328 -1.18247,3.53178 -1.46042,3.81888 -0.27795,0.28711 -0.50536,1.05646 -0.50536,1.70968 0,1.66298 -5.10784,9.23106 -7.421,10.9954 -1.2189,0.92969 -1.92016,1.92901 -1.92016,2.73627 0,2.41379 -6.17079,6.52251 -11.1799,7.44395 -10.84511,1.995 -14.61852,2.27204 -21.51416,1.57956 z M 334.07733,264.5936 c -0.92772,-0.22197 -2.51113,-0.81482 -3.51867,-1.31745 -1.00756,-0.50263 -2.22664,-0.9151 -2.70908,-0.91659 -1.2568,-0.004 -9.27662,-2.93768 -12.51154,-4.57693 -3.53035,-1.78897 -12.22925,-10.44143 -14.64997,-14.57176 -1.02312,-1.74569 -2.17274,-4.51786 -2.55472,-6.16039 -0.38197,-1.64254 -0.92326,-3.62341 -1.20287,-4.40195 -0.27961,-0.77853 -0.46513,-2.88029 -0.41227,-4.67058 0.0529,-1.79028 -0.0459,-5.10955 -0.2195,-7.37616 -0.22138,-2.89082 -0.077,-4.82685 0.48371,-6.48516 0.43961,-1.30023 0.65629,-2.93385 0.4815,-3.63028 -0.41533,-1.65483 1.64989,-6.03954 3.37797,-7.17182 0.73104,-0.479 1.33003,-1.29793 1.33107,-1.81983 0.003,-1.35139 6.03037,-8.13891 9.46256,-10.65541 1.59437,-1.169 4.10208,-3.16456 5.57271,-4.43457 1.47062,-1.27002 3.44874,-2.59364 4.39583,-2.9414 0.9471,-0.34775 2.63465,-1.03266 3.75013,-1.52202 3.21806,-1.41175 12.32638,-2.68109 16.1047,-2.24437 3.46888,0.40095 9.85189,2.30335 12.63804,3.76665 0.90664,0.47617 1.95281,0.86729 2.32482,0.86915 0.37201,0.002 0.84633,0.6805 1.05404,1.50809 0.20771,0.82759 0.95422,1.95824 1.65891,2.51254 0.70468,0.55431 1.28125,1.48442 1.28125,2.06691 0,0.5825 0.32912,1.05908 0.73137,1.05908 0.40225,0 1.05105,0.59734 1.44178,1.32742 0.61788,1.15452 2.30592,2.17167 3.39984,2.04861 0.19411,-0.0218 0.85836,1.12594 1.47611,2.55061 0.61775,1.42467 1.63344,2.90148 2.2571,3.28181 0.62365,0.38033 1.13392,1.06031 1.13392,1.51107 0,0.45076 0.21471,0.81956 0.47713,0.81956 2.0147,0 2.28585,24.16232 0.33049,29.44927 -1.26733,3.4266 -1.72524,4.01355 -2.89301,3.70817 -0.82063,-0.2146 -0.95721,0.24623 -1.03046,3.47671 -0.0747,3.29576 -0.24799,3.85453 -1.50643,4.85797 -0.7821,0.62362 -1.422,1.53832 -1.422,2.03265 0,0.49434 -0.61817,1.63344 -1.3737,2.53134 -0.75554,0.8979 -1.3737,1.78043 -1.3737,1.96116 0,0.47063 -1.97694,2.76095 -5.76954,6.68411 -3.44481,3.56339 -5.83431,5.09138 -9.06642,5.79761 -1.05775,0.23112 -2.91225,0.67803 -4.1211,0.99313 -2.48342,0.64732 -6.32077,0.68342 -8.83,0.083 z M 166.24951,243.46502 c -7.31503,-1.09894 -8.44983,-1.43196 -13.85822,-4.06675 -6.03017,-2.93771 -12.24025,-7.71585 -13.34821,-10.27032 -0.30616,-0.70586 -0.98408,-1.75569 -1.50649,-2.33294 -0.52241,-0.57726 -1.19639,-2.34964 -1.49774,-3.93863 -0.30134,-1.58898 -0.73489,-3.17902 -0.96345,-3.53341 -1.03333,-1.60228 -2.39026,-23.99823 -1.60376,-26.46992 2.50112,-7.8601 6.03883,-14.45012 11.60277,-21.61358 3.04926,-3.92586 9.31317,-9.81103 12.0863,-11.35553 7.15195,-3.98327 8.95397,-4.3982 18.97944,-4.37022 6.85957,0.0192 9.73516,0.24441 11.81382,0.92543 1.51107,0.49507 3.74526,1.1577 4.96486,1.47252 1.21961,0.31482 2.75468,1.07288 3.41127,1.6846 0.6566,0.61171 1.57506,1.1122 2.04101,1.1122 0.46596,0 0.8472,0.22336 0.8472,0.49635 0,0.81965 5.52136,6.53374 8.63305,8.93439 1.59832,1.23309 2.90603,2.56384 2.90603,2.95723 0,0.39338 0.6094,1.43947 1.35422,2.32464 0.74482,0.88517 1.51751,2.63051 1.71707,3.87853 0.21616,1.35177 0.59224,2.12736 0.93025,1.91845 0.36233,-0.22393 0.44219,0.12724 0.22095,0.97158 -0.31217,1.19139 0.0895,3.13016 1.29862,6.26757 0.66879,1.73541 1.21583,3.22776 1.51063,4.1211 0.31862,0.9655 0.39095,9.18263 0.10883,12.3633 -0.10723,1.20886 -0.52139,2.68566 -0.92036,3.28177 -0.39898,0.59613 -0.72541,1.74087 -0.72541,2.54388 0,0.80301 -0.86081,3.15884 -1.9129,5.23517 -1.0521,2.07633 -1.91753,4.59 -1.92319,5.58593 -0.007,1.23449 -0.48808,2.28375 -1.51159,3.29688 -0.82572,0.81735 -1.88482,2.22789 -2.35354,3.13453 -0.46873,0.90664 -1.15054,1.58748 -1.51513,1.51297 -0.3646,-0.0745 -1.29634,0.86795 -2.07054,2.09436 -2.56278,4.05971 -8.3994,7.6554 -17.01133,10.47995 -9.40112,3.08339 -9.97877,3.11953 -21.70446,1.35797 z m 242.32068,21.09517 c 0,-0.30221 -0.10904,-0.54948 -0.24231,-0.54948 -0.13327,0 -0.39513,0.24727 -0.58191,0.54948 -0.18678,0.30221 -0.0777,0.54948 0.24231,0.54948 0.32005,0 0.58191,-0.24727 0.58191,-0.54948 z m 21.9792,-113.95831 c 0,-0.42098 -0.34291,-0.89702 -0.76203,-1.05785 -0.53458,-0.20513 -0.67946,0.0233 -0.48539,0.76544 0.31816,1.21664 1.24742,1.43447 1.24742,0.29241 z m -8.70492,42.52591 c 0,-0.75553 0.12471,-1.06462 0.27715,-0.68685 0.15243,0.37777 0.15243,0.99593 0,1.3737 -0.15244,0.37777 -0.27715,0.0687 -0.27715,-0.68685 z"
       id="path1" />
  </g>
</svg>
