<?xml version="1.0" encoding="UTF-8" standalone="no"?>
<!-- Created with Inkscape (http://www.inkscape.org/) -->

<svg
   version="1.1"
   id="svg1"
   width="377.95276"
   height="573.34058"
   viewBox="0 0 377.95277 573.34058"
   sodipodi:docname="keep_on.svg"
   inkscape:version="1.4.3 (0d15f75, 2025-12-25)"
   xmlns:inkscape="http://www.inkscape.org/namespaces/inkscape"
   xmlns:sodipodi="http://sodipodi.sourceforge.net/DTD/sodipodi-0.dtd"
   xmlns="http://www.w3.org/2000/svg"
   xmlns:svg="http://www.w3.org/2000/svg">
  <defs
     id="defs1" />
  <sodipodi:namedview
     id="namedview1"
     pagecolor="#ffffff"
     bordercolor="#000000"
     borderopacity="0.25"
     inkscape:showpageshadow="2"
     inkscape:pageopacity="0.0"
     inkscape:pagecheckerboard="0"
     inkscape:deskcolor="#d1d1d1"
     inkscape:zoom="0.14596545"
     inkscape:cx="352.82321"
     inkscape:cy="2062.1318"
     inkscape:window-width="1920"
     inkscape:window-height="1122"
     inkscape:window-x="-8"
     inkscape:window-y="-8"
     inkscape:window-maximized="1"
     inkscape:current-layer="g1" />
  <g
     inkscape:groupmode="layer"
     inkscape:label="Image"
     id="g1"
     transform="translate(-37.067176,-124.09068)">
    <path
       style="fill:#000000;stroke-width:0.29196"
       d="m 67.209385,697.04652 c 0.263482,-0.74047 -0.38076,-1.90811 -1.052791,-1.90811 -1.427201,0 -4.301327,-3.78406 -4.171204,-5.49177 0.06448,-0.84619 -0.05408,-1.05263 -0.505079,-0.87956 -0.440825,0.16916 -0.590831,-0.0541 -0.595293,-0.88604 -0.004,-0.74858 -0.112509,-0.94411 -0.331897,-0.59811 -0.533794,0.84187 -1.653575,-1.94331 -1.36381,-3.39214 0.155924,-0.77962 0.08625,-1.20936 -0.196072,-1.20936 -0.240867,0 -0.43794,-0.24273 -0.43794,-0.53942 0,-0.29669 -0.261684,-1.04119 -0.581521,-1.65442 -0.683102,-1.30979 -0.823436,-6.75961 -0.174067,-6.75961 0.226743,0 0.302226,-0.17801 0.167743,-0.39561 -0.134482,-0.2176 -0.387735,-0.30711 -0.562785,-0.19894 -0.175051,0.1082 -0.522127,-0.0489 -0.77128,-0.34913 -0.323507,-0.38979 -0.392833,-2.36388 -0.242511,-6.90544 0.323355,-9.76925 0.64275,-13.21602 1.36031,-14.67973 0.352755,-0.71956 1.086351,-2.78965 1.610905,-4.54567 0.195082,-0.65306 1.10062,-2.0959 2.012309,-3.20631 0.911693,-1.11038 2.041795,-2.51868 2.511346,-3.12949 0.904808,-1.17707 4.523293,-2.79275 6.254625,-2.79275 0.552877,0 1.32743,0.29161 1.721231,0.64798 0.615073,0.55665 0.921202,0.58106 2.171694,0.17331 0.800631,-0.26108 3.238995,-0.57718 5.418589,-0.70249 3.586334,-0.20618 4.09706,-0.14867 5.374853,0.60526 0.776579,0.45818 1.839887,0.83308 2.36291,0.83308 0.856261,0 0.950949,0.16151 0.950949,1.62199 0,0.89211 0.115263,1.50675 0.256143,1.36587 0.388433,-0.38845 1.300978,0.51937 1.300978,1.29421 0,0.37578 -0.245227,0.88677 -0.544947,1.13552 -0.460103,0.38182 -0.396593,0.73127 0.407944,2.24438 0.778124,1.46345 0.882403,1.99435 0.568569,2.89461 -0.326805,0.93749 -0.254145,1.20589 0.485516,1.7934 0.707224,0.56173 0.959889,1.37192 1.351551,4.33388 0.302719,2.28932 0.345718,3.80813 0.115721,4.08745 -0.201298,0.24446 -0.559699,2.45897 -0.796447,4.92119 -0.432127,4.49414 -1.091222,8.0219 -1.63886,8.77186 -0.161586,0.22127 -0.131318,0.65922 0.06726,0.97319 0.635179,1.00428 0.391477,2.85779 -0.604916,4.60074 -0.532681,0.93179 -0.968511,2.27907 -0.968511,2.99393 0,0.7149 -0.175176,1.40804 -0.389279,1.54036 -0.214106,0.13234 -0.389282,0.5744 -0.389282,0.98238 0,0.69936 -1.553442,3.84141 -2.469896,4.99568 -0.230619,0.29047 -0.602769,0.89608 -0.826998,1.34585 -0.487845,0.97853 -2.662607,2.50936 -5.851192,4.11874 -1.73206,0.87421 -3.241114,1.27691 -5.839204,1.55825 -1.926938,0.20866 -3.921122,0.50477 -4.431521,0.65799 -0.704351,0.21149 -0.881206,0.14714 -0.733842,-0.267 z m 15.283895,-5.79646 c 0.136381,-0.22067 -0.01988,-0.28592 -0.366308,-0.15299 -0.674396,0.25879 -0.797784,0.53782 -0.237831,0.53782 0.201468,0 0.473329,-0.17316 0.604139,-0.38483 z m -4.733183,-8.72698 c 2.24466,-2.27639 3.495943,-4.51161 4.487668,-8.01653 0.272618,-0.96347 0.658972,-2.28973 0.858567,-2.94725 0.199599,-0.6575 0.364799,-2.49685 0.367117,-4.08745 0.0023,-1.59057 0.273208,-3.76783 0.601975,-4.83836 0.350449,-1.1411 0.498052,-2.49334 0.356764,-3.26841 -0.136661,-0.74963 -0.06927,-1.42815 0.155664,-1.56715 0.375511,-0.23208 0.43183,-1.09392 0.32807,-5.02026 -0.02864,-1.0839 0.15591,-1.80767 0.519608,-2.03776 0.387974,-0.24542 0.412139,-0.35868 0.07743,-0.36276 -0.267631,-0.003 -0.489284,-0.31255 -0.49256,-0.68722 -0.0047,-0.53878 -0.07702,-0.56906 -0.34576,-0.14475 -0.396584,0.62611 -1.205401,0.25424 -1.205401,-0.55423 0,-0.81019 -2.52397,-1.73401 -4.737492,-1.73401 -1.561593,0 -2.090366,-0.18659 -2.849176,-1.00537 -1.074542,-1.15943 -1.190185,-1.11993 -4.080372,1.39464 -4.3416,3.77735 -5.257441,4.9082 -6.509442,8.03784 -0.672545,1.68116 -1.32037,3.75315 -1.43961,4.60439 -0.129808,0.92674 -0.544012,1.79459 -1.032292,2.1629 -0.592157,0.44667 -0.870923,1.19551 -1.017884,2.73432 -0.164654,1.72408 -0.108864,2.02848 0.29923,1.63261 0.782328,-0.75892 1.205518,-0.57367 0.889325,0.38927 -0.158181,0.48174 -0.26846,1.18244 -0.245065,1.55711 0.02339,0.37471 -0.121751,0.68126 -0.322549,0.68126 -0.631052,0 -0.398529,0.88742 0.476598,1.81895 0.758008,0.80686 0.79671,1.04606 0.389283,2.40595 -0.555402,1.85375 -0.585664,3.56069 -0.06313,3.56069 0.214103,0 0.389279,0.32892 0.389279,0.73092 0,0.40197 0.271757,0.95644 0.603905,1.23208 0.46904,0.38927 0.548305,0.94618 0.354942,2.49383 -0.230683,1.84633 -0.177707,2.03076 0.721457,2.512 0.533733,0.28562 1.189367,0.38401 1.456967,0.21865 0.314642,-0.19448 0.388441,-0.14198 0.208874,0.14858 -0.204845,0.33143 0.876958,0.42427 4.124615,0.354 l 4.40229,-0.0953 z m 8.81742,0.45031 c -0.0048,-0.70826 -0.07817,-0.76414 -0.38332,-0.29196 -0.487737,0.75472 -0.487737,1.16785 0,1.16785 0.214106,0 0.386599,-0.39415 0.38332,-0.87589 z m 2.438694,-8.65218 c -0.255351,-1.3358 -0.486332,-1.23686 -0.486332,0.20832 0,0.65495 0.151685,1.09707 0.337074,0.9825 0.185391,-0.11459 0.252557,-0.65046 0.149258,-1.19082 z M 65.321596,652.88129 c 0.132939,-0.34644 0.06768,-0.5027 -0.152993,-0.36632 -0.21165,0.13079 -0.384821,0.40267 -0.384821,0.60415 0,0.55995 0.279024,0.43654 0.537814,-0.23783 z m 37.417014,38.7536 c 0.13232,-0.21412 0.0551,-0.3893 -0.17167,-0.3893 -0.22674,0 -0.38352,-0.13138 -0.3484,-0.29196 0.0351,-0.16058 -0.0664,-0.75364 -0.22565,-1.31791 -0.20321,-0.72015 -0.49145,-0.97316 -0.96692,-0.84881 -0.39569,0.10347 -1.192265,-0.30382 -1.915386,-0.9793 -1.302578,-1.2168 -1.693828,-1.21446 -0.591564,0.004 0.355526,0.39283 0.515,0.84458 0.354387,1.00384 -0.465916,0.462 -2.164581,-1.94413 -2.16671,-3.06908 -0.0012,-0.56264 0.285532,-1.70128 0.63688,-2.53033 1.350657,-3.18701 1.495402,-4.23734 2.051476,-14.88597 0.277992,-5.32349 0.257789,-7.33521 -0.07908,-7.87464 -0.3442,-0.55116 -0.342895,-1.01479 0.0055,-1.93768 0.336178,-0.89062 0.343789,-1.39589 0.02864,-1.90054 -0.31292,-0.50107 -0.312686,-1.15056 8.76e-4,-2.39598 0.277891,-1.10378 0.306891,-2.25495 0.08193,-3.2522 -0.4374,-1.93897 0.123026,-4.69989 1.427921,-7.03461 0.88151,-1.57719 1.10642,-1.73768 2.43524,-1.73768 3.23092,0 5.09641,1.72799 5.20508,4.82143 0.0422,1.20135 0.17198,2.18459 0.28839,2.18497 0.11641,0 0.44797,1.06583 0.7368,2.36774 0.32425,1.46158 0.8017,2.53979 1.24813,2.81858 0.75768,0.47318 1.00471,1.82137 0.33373,1.82137 -0.2141,0 -0.38928,0.28422 -0.38928,0.63159 0,0.50358 0.11284,0.53794 0.55677,0.16952 0.44462,-0.36901 0.64066,-0.30537 0.9732,0.31601 0.57609,1.07643 0.52073,1.60786 -0.16749,1.60786 -0.32116,0 -0.58392,0.17517 -0.58392,0.38927 0,0.21409 0.26276,0.38927 0.58392,0.38927 0.32116,0 0.58392,0.17517 0.58392,0.3893 0,0.21409 0.23465,0.38927 0.52143,0.38927 0.75393,0 1.44258,1.76104 1.18747,3.03662 -0.14728,0.73635 -0.0169,1.26211 0.39859,1.60689 0.74122,0.61516 0.79778,1.62584 0.13087,2.33863 -0.39919,0.42667 -0.32499,0.48106 0.4131,0.30273 0.62576,-0.1512 0.96907,-0.0193 1.12758,0.43362 0.12534,0.35806 0.65929,1.11853 1.18655,1.68993 0.52727,0.57139 0.84284,1.22629 0.70128,1.45533 -0.14903,0.24116 -0.0393,0.33278 0.26061,0.21769 1.08196,-0.4152 1.85126,0.74934 2.1026,3.1828 l 0.24697,2.39116 1.19614,-0.34303 c 0.65787,-0.18869 1.36332,-0.64182 1.56766,-1.00694 0.20434,-0.36513 1.02486,-1.37437 1.82337,-2.24278 1.52151,-1.65463 2.85625,-4.32659 2.55432,-5.11339 -0.0974,-0.2538 0.0758,-1.19552 0.38495,-2.09271 0.69055,-2.00431 1.07165,-4.7116 0.98441,-6.99295 -0.0362,-0.94615 0.20275,-2.64405 0.53097,-3.77309 0.54672,-1.88066 0.54163,-2.16841 -0.0607,-3.43141 -0.56497,-1.18477 -0.58386,-1.51606 -0.13435,-2.35597 0.41005,-0.76619 0.4373,-1.54555 0.12613,-3.60708 -0.21831,-1.44637 -0.43421,-4.1082 -0.47979,-5.9152 -0.0456,-1.807 -0.24577,-3.58986 -0.44489,-3.9619 -0.67134,-1.25441 0.52419,-2.67929 2.24803,-2.67929 0.3947,0 1.01762,-0.35035 1.38426,-0.77857 0.83782,-0.97851 1.99355,-1.04183 1.77594,-0.0973 -0.0863,0.37467 0.2436,1.06913 0.73316,1.54321 0.64862,0.62813 0.89011,0.70733 0.89011,0.29196 0,-0.3135 0.17951,-0.57002 0.39891,-0.57002 0.56952,0 1.23821,1.95613 0.8479,2.48038 -0.17988,0.24156 -0.35588,0.90916 -0.39112,1.48353 -0.0496,0.80847 0.13225,1.0722 0.80528,1.16785 0.82584,0.11736 0.86226,0.26886 0.72772,3.02716 -0.0806,1.65252 -0.38518,3.27529 -0.70688,3.76625 -0.31089,0.4745 -0.59751,1.46217 -0.63693,2.19484 -0.0626,1.1637 -0.15784,1.27864 -0.75292,0.90879 -0.37468,-0.2329 -0.68124,-0.55645 -0.68124,-0.71907 0,-0.16259 -0.17518,-0.29564 -0.38928,-0.29564 -0.75726,0 -0.41399,1.88609 0.38969,2.14118 0.98226,0.31175 1.63527,1.51498 1.78585,3.29054 0.0644,0.75938 0.31139,2.16327 0.54886,3.11974 0.50776,2.04509 0.2894,3.19676 -0.97178,5.12524 -0.89894,1.37458 -0.96061,3.06237 -0.11188,3.06237 0.46345,0 0.005,4.68944 -0.51231,5.23581 -0.19243,0.20341 -0.34987,1.20034 -0.34987,2.2154 0,1.01505 -0.17518,1.95382 -0.38928,2.08614 -0.21411,0.13235 -0.39372,0.79959 -0.39914,1.48278 -0.008,1.07175 -0.96058,3.26222 -3.58551,8.24925 -0.33808,0.64231 -0.82953,1.6381 -1.09211,2.21285 -0.8627,1.88834 -6.00672,3.39112 -7.76949,2.26979 -0.49318,-0.31374 -0.50412,-0.50019 -0.0704,-1.19978 0.28247,-0.45561 0.41385,-0.92809 0.29196,-1.04998 -0.12189,-0.12189 -0.22161,-0.0172 -0.22161,0.23254 0,0.24981 -0.17518,0.45418 -0.38928,0.45418 -0.21411,0 -0.38928,-0.30174 -0.38928,-0.67055 0,-0.54514 -0.11576,-0.50526 -0.61899,0.21319 -0.74762,1.06738 -1.38623,0.68751 -2.38597,-1.4193 -0.49674,-1.0468 -0.53809,-1.41905 -0.17121,-1.54135 0.94622,-0.3154 -0.34221,-1.26448 -1.36732,-1.00717 -0.82143,0.20615 -0.93962,0.1129 -0.86812,-0.685 0.1632,-1.82122 -0.0409,-2.67544 -0.6393,-2.67544 -0.33054,0 -0.57255,-0.21897 -0.5378,-0.48661 0.0348,-0.26761 0.0424,-0.98014 0.017,-1.58333 -0.0387,-0.9204 -0.17432,-1.05608 -0.84336,-0.84373 -0.9978,0.31669 -1.75774,-0.29947 -2.59405,-2.10328 -0.35858,-0.77338 -1.05436,-1.79039 -1.54618,-2.25998 -0.49183,-0.46962 -0.79817,-1.10416 -0.68077,-1.41011 0.14267,-0.37178 -0.1221,-0.62044 -0.79836,-0.74972 -1.89433,-0.36212 -2.54486,2.33863 -2.54611,10.57042 -1.1e-4,0.73057 -0.14947,1.51886 -0.3319,1.75176 -0.18244,0.23292 -0.43145,1.67637 -0.55335,3.2077 -0.22341,2.8063 -1.76549,6.75313 -2.63854,6.75313 -0.22314,0 -0.29743,-0.17517 -0.16511,-0.38927 z m 1.75176,-4.28209 c 0,-0.2141 -0.0772,-0.38927 -0.17167,-0.38927 -0.0944,0 -0.27993,0.17517 -0.41225,0.38927 -0.13232,0.21409 -0.0551,0.38927 0.17166,0.38927 0.22675,0 0.41226,-0.17518 0.41226,-0.38927 z m 16.73905,-1.96761 c 0,-0.17582 -0.35035,-0.2933 -0.77856,-0.26104 -0.42821,0.0323 -0.77856,0.26773 -0.77856,0.52328 0,0.27298 0.32114,0.38066 0.77856,0.26104 0.42821,-0.11197 0.77856,-0.34746 0.77856,-0.52328 z m 14.58139,-18.63734 c 0.12318,-0.19932 0.0459,-0.47242 -0.17167,-0.6069 -0.2176,-0.13447 -0.39563,0.0286 -0.39563,0.36239 0,0.68377 0.23359,0.78446 0.5673,0.24451 z m -4.58346,-23.84599 c -0.12427,-0.31053 -0.21651,-0.2183 -0.23519,0.2352 -0.0169,0.41035 0.0751,0.64027 0.20446,0.51093 0.12935,-0.12937 0.14318,-0.46512 0.0307,-0.74613 z m -0.26592,-3.43054 c 0,-0.21409 -0.18552,-0.38927 -0.41226,-0.38927 -0.22674,0 -0.30399,0.17518 -0.17166,0.38927 0.13232,0.2141 0.31784,0.38927 0.41225,0.38927 0.0944,0 0.17167,-0.17517 0.17167,-0.38927 z m -31.531704,51.35256 c 0,-0.44605 0.203665,-0.74312 0.452588,-0.66015 0.660666,0.22023 0.743046,1.47116 0.09689,1.47116 -0.302211,0 -0.549475,-0.36495 -0.549475,-0.81101 z m 56.493444,-5.2721 c -0.70023,-0.49046 -0.85514,-0.87737 -0.68731,-1.71655 0.13579,-0.67892 0.0362,-1.15263 -0.26681,-1.26892 -0.26592,-0.10204 -0.97613,-0.89637 -1.57824,-1.76522 -0.93281,-1.34605 -1.05529,-1.81327 -0.828,-3.15857 0.24201,-1.43241 0.37425,-1.57886 1.42596,-1.57886 0.63757,0 1.54185,0.20939 2.00951,0.4653 0.46765,0.2559 1.55099,0.56637 2.40741,0.68996 1.50191,0.21669 1.55317,0.27245 1.44587,1.5729 -0.0612,0.74152 -0.25414,1.49113 -0.42879,1.66575 -0.17464,0.17465 -0.2395,0.72576 -0.14412,1.22469 0.13139,0.68733 0.36393,0.85734 0.95971,0.70152 0.67738,-0.17713 0.74649,-0.0764 0.49897,0.72727 -0.38856,1.26159 -0.46988,1.31415 -1.1544,0.74605 -0.49157,-0.40799 -0.59332,-0.38019 -0.59332,0.16213 0,0.36001 0.13974,0.56818 0.31054,0.46264 0.17081,-0.10558 0.52114,-0.0618 0.77854,0.0973 0.3518,0.21742 0.31586,0.4768 -0.14478,1.0448 -0.33702,0.41561 -0.51319,0.55499 -0.39149,0.3098 0.1217,-0.24518 -0.0548,-0.55174 -0.39225,-0.68123 -0.99113,-0.38033 -1.31897,-0.27453 -1.0799,0.34849 0.3056,0.79638 -0.98196,0.76683 -2.1471,-0.0493 z M 162.1321,662.581 c -0.44374,-0.56413 -0.80681,-1.26483 -0.80681,-1.55712 0,-0.29228 -0.30656,-0.5363 -0.68124,-0.54222 -0.37468,-0.006 -1.19532,-0.53464 -1.82365,-1.17485 -0.96725,-0.98557 -1.16364,-1.53279 -1.28087,-3.56907 -0.0762,-1.32278 -0.32429,-2.62896 -0.55141,-2.90261 -0.43082,-0.51911 -0.18078,-4.19684 0.45864,-6.74603 0.18796,-0.74938 0.3718,-2.96027 0.40853,-4.91311 0.0581,-3.08786 0.92001,-15.27816 1.31786,-18.63836 0.0761,-0.64231 0.24449,-2.48166 0.37431,-4.08744 0.43271,-5.35225 0.95384,-8.91977 1.43405,-9.81702 0.26143,-0.48851 0.44574,-0.93199 0.40956,-0.98551 -0.36105,-0.53417 0.3346,-0.82806 2.5119,-1.06122 2.65377,-0.28419 3.58322,0.0579 3.78509,1.39309 0.0452,0.2992 0.24981,0.80677 0.45462,1.12793 0.2048,0.32116 0.38302,0.7591 0.39603,0.97319 0.013,0.21413 0.23466,0.34551 0.49256,0.29196 0.2666,-0.0553 0.4689,0.32259 0.4689,0.87588 0,0.89063 -0.38307,1.17765 -1.33105,0.99734 -0.19682,-0.0374 -0.15455,0.17693 0.0939,0.47633 0.24849,0.29941 0.34066,0.65551 0.20482,0.79136 -0.13584,0.13585 0.0409,0.35742 0.39266,0.49242 0.4399,0.16881 0.63963,0.71297 0.63963,1.74262 0,1.85567 -0.74145,3.57771 -1.42714,3.3146 -0.55314,-0.21226 -0.53999,0.59291 0.0163,0.99736 0.19318,0.14047 0.1385,2.21096 -0.12618,4.77817 -0.25689,2.49164 -0.36351,5.00776 -0.23694,5.59133 0.12657,0.58359 0.0395,3.33836 -0.19347,6.1217 -0.85492,10.21347 -1.15666,14.43802 -1.13772,15.92874 0.0106,0.83894 -0.20599,1.66835 -0.48145,1.84311 -0.38907,0.24685 -0.39225,0.31909 -0.0142,0.32373 0.31297,0.004 0.48448,0.59633 0.48064,1.6604 -0.007,1.95164 -0.46129,2.83038 -1.2973,2.50958 -0.38624,-0.1482 -0.68991,0.0415 -0.84408,0.52719 -0.13244,0.4173 -0.51117,0.75872 -0.84162,0.75872 -0.4337,0 -0.3452,0.21292 0.3182,0.7656 0.50545,0.4211 0.70003,0.77145 0.4324,0.77855 -0.26763,0.007 -0.4866,0.18814 -0.4866,0.40223 0,0.72324 0.64366,0.39552 1.1757,-0.59858 0.45023,-0.84128 0.58014,-0.89594 0.87539,-0.36836 0.50613,0.9044 -0.67277,2.52408 -1.83717,2.52408 -0.54749,0 -1.27085,-0.42574 -1.74279,-1.02571 z m 3.08599,-8.31702 c 0,-0.21412 -0.0772,-0.3893 -0.17166,-0.3893 -0.0944,0 -0.27994,0.17518 -0.41226,0.3893 -0.13232,0.2141 -0.0551,0.38927 0.17167,0.38927 0.22674,0 0.41225,-0.17517 0.41225,-0.38927 z m 0.38928,-5.10659 c 0,-0.21412 -0.17517,-0.28104 -0.38928,-0.14869 -0.2141,0.13232 -0.38928,0.41575 -0.38928,0.62987 0,0.2141 0.17518,0.28102 0.38928,0.14867 0.21411,-0.13232 0.38928,-0.41575 0.38928,-0.62985 z m -0.4226,-2.0951 c 0.0118,-0.2141 -0.14841,-0.12651 -0.35596,0.19465 -0.20754,0.32115 -0.36773,0.84668 -0.35596,1.16784 0.0226,0.61656 0.67138,-0.62512 0.71192,-1.36249 z m 0.61724,-1.36249 c 0.13233,-0.2141 0.0551,-0.38927 -0.17166,-0.38927 -0.22675,0 -0.41226,0.17517 -0.41226,0.38927 0,0.21412 0.0773,0.3893 0.17167,0.3893 0.0944,0 0.27993,-0.17518 0.41225,-0.3893 z M 87.030844,592.02326 c -0.291242,-0.18455 -0.55447,-1.09365 -0.590025,-2.03776 -0.03531,-0.93749 -0.261465,-2.05488 -0.502575,-2.4831 -0.39887,-0.70838 -1.170518,-5.10618 -1.229473,-7.00704 -0.410599,-13.23856 -0.04804,-11.9652 -3.231851,-11.35045 l -1.408399,0.27196 0.194729,-2.83029 c 0.187824,-2.72995 1.029122,-5.135 2.304641,-6.58838 0.781951,-0.89097 1.463272,-7.64781 1.361124,-13.49857 -0.09422,-5.39668 0.136672,-6.61883 2.163519,-11.45167 1.432257,-3.41512 2.31527,-4.31628 3.370902,-3.44017 0.368416,0.30574 0.819165,0.26492 1.649777,-0.14946 0.628573,-0.31356 2.450372,-0.767 4.048446,-1.00767 1.598073,-0.24063 3.518704,-0.58932 4.268067,-0.77486 0.749364,-0.18554 2.636264,-0.40933 4.193104,-0.49732 2.74416,-0.15512 2.84982,-0.1275 3.45897,0.9037 0.34559,0.58503 1.13012,1.3601 1.74342,1.72239 0.91247,0.53902 1.11272,0.91994 1.10214,2.09648 -0.0185,2.06197 -1.74454,4.41669 -3.70234,5.051 -0.847,0.27441 -2.76624,1.09999 -4.26497,1.83462 -1.49873,0.7346 -3.928723,1.77223 -5.399981,2.30581 -1.47126,0.53359 -2.715443,1.02183 -2.764851,1.08498 -0.354449,0.45307 -0.983255,4.12205 -0.983255,5.73714 0,1.84676 -0.210092,2.18135 -1.265163,2.01476 -0.160578,-0.0254 -0.29196,0.10864 -0.29196,0.2978 0,0.94259 5.162548,0.71188 11.34575,-0.50705 2.921,-0.57586 4.3492,-0.51928 10.10667,0.40037 1.01077,0.16142 1.86746,-0.012 3.05604,-0.61823 l 1.65156,-0.84257 -0.24922,-3.37833 c -0.17786,-2.41112 -0.0713,-4.26995 0.3721,-6.49258 0.34172,-1.71284 0.75287,-3.90254 0.91366,-4.86601 0.40651,-2.43583 0.7903,-3.00816 3.81682,-5.69221 3.1339,-2.77925 3.40676,-2.93653 7.6076,-4.38518 4.01423,-1.38427 7.59663,-2.12366 10.35444,-2.13709 1.83108,-0.009 2.24411,0.13398 3.03093,1.04872 0.73601,0.85565 0.84043,1.24454 0.54372,2.02495 -0.29027,0.76348 -0.24431,0.96592 0.21926,0.96592 0.32257,0 0.70153,0.30656 0.84212,0.68126 0.14059,0.37467 0.52924,0.88654 0.86366,1.13745 0.54367,0.40793 0.52265,0.5728 -0.19853,1.55714 -1.8076,2.46718 -4.44144,3.72929 -10.48255,5.02312 -3.63677,0.77889 -5.66501,1.70884 -7.68941,3.52553 -0.8035,0.72106 -1.61178,1.31105 -1.79617,1.31105 -0.18438,0 -0.4476,0.81977 -0.58493,1.82172 -0.21326,1.55582 -0.12156,1.95814 0.62832,2.75671 0.71523,0.76167 0.87802,1.38027 0.87802,3.33626 v 2.40123 l 2.31876,-0.12665 c 1.27532,-0.0697 2.62362,-0.2898 2.99623,-0.48924 0.37262,-0.19941 4.35943,-0.43085 8.8596,-0.51432 7.33675,-0.13611 8.20334,-0.0855 8.38761,0.48921 0.11303,0.35254 0.86358,0.99658 1.6679,1.43119 1.45176,0.78441 1.46167,0.80636 1.36154,3.01691 -0.0802,1.77033 0.0196,2.22675 0.4866,2.22675 0.89229,0 0.70167,1.07672 -0.28842,1.62917 -2.20551,1.23064 -3.53796,1.42255 -8.41465,1.21207 -6.96757,-0.30075 -10.96367,0.2705 -14.73397,2.10629 -1.66676,0.81159 -3.08261,1.7588 -3.14634,2.10492 -0.0637,0.34612 0.34599,1.1782 0.91048,1.84907 0.98175,1.16676 1.15297,1.21975 3.9399,1.21975 2.56858,0 2.89697,0.0807 2.77361,0.68126 -0.11767,0.57286 -0.50921,0.66339 -2.46155,0.56903 -1.27688,-0.0617 -2.71363,-0.0152 -3.19276,0.10353 -1.5282,0.3785 -3.07422,4.41353 -2.09892,5.47805 0.5462,0.59618 0.84215,3.89916 0.38989,4.3514 -0.78996,0.78996 0.38585,0.90537 4.60272,0.45178 2.31327,-0.24884 5.08182,-0.4876 6.15234,-0.53064 2.20619,-0.0887 4.35252,-1.06898 6.77897,-3.0962 0.91532,-0.76474 1.82716,-1.39044 2.0263,-1.39044 0.19915,0 0.52859,-0.43794 0.7321,-0.97319 0.41606,-1.09432 1.35208,-1.29046 1.70979,-0.35829 0.17687,0.46092 0.53217,0.54988 1.41862,0.35517 1.15667,-0.25403 1.1806,-0.22916 1.08884,1.13324 -0.0603,0.89574 0.12617,1.568 0.52241,1.88321 0.33891,0.26959 0.71867,1.30082 0.84389,2.29159 0.27686,2.19046 -0.11989,2.63716 -3.44251,3.87609 -1.28462,0.47902 -2.77945,1.19797 -3.32183,1.59767 -0.54238,0.39969 -2.5746,1.32453 -4.51604,2.05519 -1.94145,0.73066 -4.56326,1.95155 -5.82626,2.71313 -1.263,0.76158 -2.6082,1.38515 -2.98933,1.38567 -0.38113,0 -1.73347,0.43897 -3.00519,0.97422 -1.73442,0.73001 -3.00383,0.97319 -5.07985,0.97319 h -2.76762 l 0.2565,-1.16784 c 0.14108,-0.64232 0.10954,-1.16784 -0.0701,-1.16784 -1.01213,0 -1.82713,-3.81654 -2.28603,-10.70519 -0.0571,-0.85644 -0.33856,-3.48408 -0.62557,-5.83921 -0.28702,-2.35515 -0.52185,-5.6835 -0.52185,-7.39634 v -3.11422 l -2.14104,-0.0395 c -1.17757,-0.0219 -3.45486,-0.26136 -5.06064,-0.5325 -5.60356,-0.94622 -11.921678,-0.1348 -15.084617,1.93724 -1.148466,0.75238 -1.106646,1.06776 0.141595,1.06776 1.417566,0 2.019845,1.02819 0.700544,1.19595 -0.542597,0.069 -1.204032,-0.055 -1.469856,-0.27566 -0.678496,-0.56308 -2.194563,-0.0844 -2.194563,0.69293 0,0.35561 -0.248289,1.00102 -0.551755,1.43429 -0.303464,0.43324 -0.678571,1.46374 -0.833573,2.28996 -0.223744,1.19266 -0.143595,1.60333 0.388926,1.99271 0.435062,0.31812 0.823077,1.47458 1.104267,3.29121 l 0.433517,2.80078 2.027821,-0.23833 c 1.115303,-0.13109 2.964222,-0.57207 4.108712,-0.97996 5.684312,-2.02592 7.700762,-2.3692 8.470222,-1.44208 0.24794,0.29876 1.04231,0.65416 1.76526,0.78981 0.9778,0.18341 1.41112,0.52389 1.69192,1.32941 0.20762,0.59557 0.67862,1.38398 1.04668,1.75205 1.39872,1.39873 -0.44077,4.14969 -2.77477,4.14969 -0.967,0 -1.8533,0.36805 -2.91906,1.21213 -0.84175,0.66669 -2.09319,1.35397 -2.78098,1.52733 -0.6878,0.17334 -3.35265,1.0437 -5.921903,1.93415 -3.354162,1.1625 -4.971677,1.93926 -5.736397,2.75479 -0.89028,0.94943 -1.369337,1.1348 -2.919602,1.1298 -1.020012,-0.003 -2.091194,-0.1559 -2.380404,-0.33917 z m 3.834716,-20.45838 c 0,-0.0944 -0.175176,-0.27993 -0.389279,-0.41225 -0.214106,-0.13231 -0.389282,-0.0551 -0.389282,0.17168 0,0.22673 0.175176,0.41224 0.389282,0.41224 0.214103,0 0.389279,-0.0772 0.389279,-0.17167 z m -49.294038,19.14909 c -0.163455,-0.48174 -0.255169,-1.09485 -0.203808,-1.36249 0.05136,-0.26761 -0.09981,-0.48658 -0.335936,-0.48658 -0.236126,0 -0.322685,0.17251 -0.192354,0.3834 0.198553,0.32127 -2.024299,0.14011 -2.449177,-0.19962 -0.285135,-0.22796 -0.24094,-7.68115 0.06259,-10.55544 0.324291,-3.07086 0.210198,-4.40582 -0.963424,-11.27252 -0.303421,-1.77527 -0.28358,-2.80714 0.07859,-4.08745 0.65196,-2.3047 0.675725,-12.04052 0.04124,-16.89457 -0.279861,-2.14106 -0.522475,-6.52046 -0.539141,-9.73202 -0.03074,-5.92317 0.150487,-6.88632 2.014289,-10.70519 0.641028,-1.31347 3.150032,-0.90595 3.847532,0.62488 0.258826,0.56807 0.572477,0.93095 0.697001,0.80642 0.533522,-0.53352 1.284902,0.89037 1.060893,2.01041 -0.161935,0.80967 0.04837,1.7459 0.684716,3.04818 0.50514,1.03381 1.049818,1.93801 1.210396,2.00939 0.444637,0.1976 0.348193,3.74573 -0.114389,4.20832 -0.598537,0.59854 -0.01773,5.59965 0.681477,5.86796 0.336015,0.12893 1.536779,-0.80546 3.087281,-2.4024 1.395567,-1.43737 3.18067,-2.87899 3.966895,-3.20359 2.023173,-0.83524 2.791983,-1.63422 2.791983,-2.90156 0,-1.09917 2.189874,-3.83954 3.068242,-3.83954 0.770627,0 3.160242,-2.41649 3.160242,-3.19579 0,-0.975 4.964343,-5.71752 6.009356,-5.74085 0.66084,-0.0149 0.615437,0.12788 -0.367251,1.1536 -1.408869,1.47054 -0.874199,2.39772 0.678407,1.17645 1.26566,-0.99558 1.578559,-0.98799 3.553133,0.0862 2.078669,1.13076 2.296436,1.47764 1.493108,2.37851 -0.630915,0.70751 -0.622506,0.72973 0.181576,0.47966 1.159952,-0.36074 1.332842,0.0997 1.05077,2.79841 l -0.243585,2.33049 -2.534098,1.3104 c -2.794547,1.44509 -8.236752,6.05616 -8.848216,7.4969 -0.445981,1.05085 -5.467049,6.29568 -9.432015,9.85234 -3.083024,2.76557 -5.949687,7.54154 -5.123869,8.53657 0.243367,0.29324 0.65665,0.53318 0.918407,0.53318 0.261757,0 0.792986,0.35035 1.180509,0.77857 0.387523,0.42818 0.85637,0.77854 1.041881,0.77854 0.6504,0 3.434842,2.05484 3.434842,2.53482 0,0.26674 0.569322,0.70015 1.26516,0.96312 2.371797,0.89641 3.748223,1.71352 3.516885,2.08784 -0.127037,0.20554 -0.04398,0.25815 0.184569,0.1169 0.467425,-0.28889 3.301579,2.285 3.713813,3.37275 0.147136,0.38828 0.431587,0.60454 0.632111,0.4806 0.477431,-0.29506 5.21843,3.56323 6.647952,5.4102 0.346939,0.44824 0.386435,0.6358 0.09732,0.46211 -0.267631,-0.16081 -0.486602,-0.18548 -0.486602,-0.0549 0,0.47599 2.625181,1.31882 3.442185,1.10516 0.597336,-0.1562 0.839899,-0.0429 0.839899,0.3924 0,0.55084 1.312367,2.82413 2.330199,4.03637 0.513579,0.61169 0.518346,2.57177 0.0055,2.25481 -0.227507,-0.1406 -0.370515,0.21383 -0.344125,0.85291 0.02944,0.71279 0.109109,0.84607 0.228842,0.38287 0.174434,-0.67483 0.221183,-0.6767 0.928045,-0.037 1.032304,0.93422 0.943017,1.4116 -0.585252,3.12903 l -1.329613,1.49419 -1.881949,-0.67457 c -1.035075,-0.37103 -2.248853,-0.6737 -2.697284,-0.67265 -0.840287,0.003 -3.039746,-1.63906 -3.126131,-2.33244 -0.02677,-0.21483 -0.07056,-0.54451 -0.09732,-0.73265 -0.02677,-0.18814 -0.578735,-0.56161 -1.2266,-0.82998 -0.647869,-0.26834 -1.535679,-0.9903 -1.97291,-1.60435 -0.524769,-0.73697 -1.137594,-1.11643 -1.803023,-1.11643 -0.571276,0 -1.86699,-0.65513 -2.990415,-1.51197 -1.090296,-0.83162 -2.361131,-1.62683 -2.824078,-1.76718 -0.76281,-0.23123 -1.702508,-0.8727 -4.88429,-3.33418 -0.580055,-0.44875 -1.908481,-0.91702 -2.952058,-1.04064 -1.711217,-0.20265 -1.975109,-0.12592 -2.689158,0.78184 -0.43546,0.55359 -0.940608,0.88108 -1.122551,0.72777 -0.181943,-0.15331 -0.106604,0.0152 0.167419,0.37453 0.409945,0.53753 0.386819,0.8687 -0.130518,1.86913 -0.357249,0.69083 -0.727276,2.678 -0.856934,4.60199 -0.221754,3.29065 -0.750715,5.00175 -1.979398,6.4031 -0.85876,0.97941 -2.305211,0.87389 -2.66777,-0.19465 z M 170.06949,583.123 c -0.12324,-0.58879 -0.41063,-1.77123 -0.63864,-2.62764 -0.22801,-0.85641 -0.44211,-3.04611 -0.47578,-4.86601 -0.041,-2.21779 -0.27003,-3.69397 -0.69449,-4.47672 -0.3483,-0.64231 -0.83,-2.35387 -1.07045,-3.80345 -0.24045,-1.44961 -0.7958,-3.27413 -1.23411,-4.05448 -0.73502,-1.30865 -0.76365,-1.66336 -0.36862,-4.56608 0.42159,-3.09785 0.41351,-3.15939 -0.51495,-3.92576 -0.77153,-0.63682 -1.01458,-1.34553 -1.33507,-3.89279 -0.2155,-1.71285 -0.57459,-3.81496 -0.79798,-4.67137 -0.22339,-0.85643 -0.51072,-2.21405 -0.6385,-3.01694 -0.14711,-0.92437 -0.44357,-1.4598 -0.80825,-1.4598 -0.71421,0 -1.2893,-1.43849 -1.78973,-4.47671 -0.21159,-1.28463 -0.55827,-2.9488 -0.77041,-3.69817 -0.32656,-1.15354 -0.22851,-1.70459 0.63939,-3.59339 0.5638,-1.22702 1.19228,-2.33425 1.39664,-2.46056 0.20435,-0.1263 0.82502,-1.13692 1.37925,-2.24581 0.55423,-1.1089 1.49142,-2.40505 2.08264,-2.88034 0.59122,-0.47531 1.1724,-1.35119 1.29152,-1.94641 0.19759,-0.98738 0.50059,-1.15677 3.4572,-1.93289 1.78234,-0.46784 4.16696,-0.94213 5.29915,-1.05392 1.13219,-0.11179 2.72751,-0.57928 3.54515,-1.03879 1.4228,-0.79968 1.66751,-0.81606 5.7002,-0.38189 2.31746,0.24951 4.57602,0.65049 5.01901,0.89104 0.443,0.24054 1.41856,0.53896 2.16793,0.66313 1.08065,0.17908 1.443,0.46921 1.75176,1.40257 0.2141,0.64725 0.78993,1.68374 1.27961,2.30334 0.48969,0.61959 0.80174,1.35741 0.69346,1.63959 -0.10828,0.28218 -0.04,0.51306 0.15168,0.51306 0.1917,0 0.63729,0.56932 0.9902,1.26515 0.81571,1.60832 1.21773,10.90962 0.54498,12.6088 -0.24244,0.61232 -0.57437,2.16439 -0.73763,3.44901 -0.16326,1.28463 -0.78709,3.70795 -1.38631,5.38518 -0.88717,2.48324 -1.54685,3.54136 -3.55261,5.69824 -2.94071,3.16234 -4.15547,3.79662 -8.25571,4.31074 -1.71199,0.21468 -3.84559,0.64888 -4.74133,0.96493 -0.89575,0.31601 -2.26352,0.58018 -3.0395,0.58698 -2.36413,0.0207 -3.43472,1.33654 -2.19871,2.7023 0.31604,0.34924 0.63268,1.01541 0.70365,1.48044 0.071,0.46501 0.25032,0.96677 0.39858,1.11503 0.41504,0.41502 0.31913,3.17743 -0.11973,3.44866 -0.55055,0.34025 -0.48501,2.43352 0.0821,2.62256 0.28979,0.0966 0.4918,1.04642 0.52438,2.46546 0.0291,1.26956 0.19211,3.009 0.36216,3.86544 l 0.30918,1.55711 -0.83594,-0.74374 c -1.06561,-0.94806 -1.36728,-0.6464 -0.78714,0.78706 0.2503,0.61849 0.41695,1.69384 0.37034,2.38967 -0.0466,0.69586 0.0851,1.26518 0.29271,1.26518 0.61501,0 0.87824,1.16632 0.44567,1.97458 -0.41321,0.77209 -1.93131,1.05594 -1.93131,0.3611 0,-0.21412 -0.17518,-0.3893 -0.38928,-0.3893 -0.21411,0 -0.36854,0.13138 -0.34319,0.29196 0.24735,1.56654 -1.09752,1.75048 -1.42318,0.19465 z m 2.47468,-3.14473 c 0.13535,-0.91988 -0.29879,-1.0992 -0.98932,-0.40869 -0.52389,0.5239 -0.19502,1.60269 0.42629,1.39835 0.24125,-0.0794 0.49461,-0.52469 0.56303,-0.98966 z m -1.87615,-1.64692 c 0,-0.84379 0.15877,-1.53416 0.35283,-1.53416 0.19406,0 0.256,-0.37033 0.13763,-0.82292 -0.17797,-0.68059 -0.27235,-0.72085 -0.54553,-0.23269 -0.4473,0.7993 -0.68667,4.58231 -0.27379,4.32714 0.18087,-0.11176 0.32886,-0.8936 0.32886,-1.73737 z m 1.43376,-15.62124 c -0.12427,-0.31053 -0.21651,-0.2183 -0.23519,0.2352 -0.0169,0.41035 0.0751,0.64027 0.20446,0.51093 0.12935,-0.12937 0.14318,-0.46512 0.0307,-0.74613 z m 3.36577,-16.26978 c 4.70664,-0.501 7.38602,-1.6795 10.06698,-4.42787 2.59633,-2.66159 3.47487,-4.84008 3.1422,-7.79154 -0.17762,-1.57585 -0.31927,-1.81704 -1.01015,-1.71997 -0.62063,0.0872 -0.85991,-0.15821 -1.05115,-1.07823 -0.13619,-0.65516 -0.75828,-2.14045 -1.38243,-3.3007 -1.04369,-1.94014 -1.27548,-2.13508 -2.88658,-2.42774 -2.04302,-0.37111 -4.33574,-0.14011 -7.36886,0.7424 -5.27644,1.53524 -6.25503,2.33089 -6.25787,5.0881 -0.001,1.02721 0.29816,2.7049 0.66494,3.72819 0.50779,1.41674 0.5719,2.11318 0.26878,2.9196 -0.36989,0.98403 -0.25933,2.7152 0.48641,7.61643 0.21138,1.38923 0.3014,1.47799 1.25384,1.23622 0.56436,-0.14327 2.39761,-0.40647 4.07389,-0.58489 z M 108.2424,527.55325 c -0.15296,-0.39861 -0.77662,-0.58392 -1.96508,-0.58392 -1.87656,0 -2.77652,-0.64041 -1.31627,-0.93667 3.32521,-0.6746 5.75781,-0.59662 5.75781,0.18458 0,0.38927 -1.57707,1.91993 -1.97816,1.91993 -0.15083,0 -0.37506,-0.26276 -0.4983,-0.58392 z m 12.73762,-34.15934 c 0.19757,-1.10347 0.0616,-1.3876 -1.0641,-2.2229 -1.10968,-0.82348 -1.29808,-1.20551 -1.34381,-2.72498 -0.047,-1.56106 0.91284,-6.55343 1.91673,-9.96974 0.19322,-0.65753 0.35338,-1.88376 0.35592,-2.72496 0.003,-0.84122 0.27366,-2.49296 0.60249,-3.67052 1.1739,-4.20391 1.63055,-6.06909 2.09672,-8.56419 0.26001,-1.39168 0.6418,-2.95002 0.8484,-3.46299 0.20661,-0.51298 0.61927,-2.61509 0.91704,-4.67137 1.08039,-7.46069 1.77656,-10.82591 3.10885,-15.0278 0.74675,-2.35516 1.63859,-5.68351 1.98186,-7.39635 1.1246,-5.61133 2.46223,-11.244 3.27074,-13.77284 0.43675,-1.36603 0.79409,-3.06807 0.79409,-3.78226 0,-0.71422 0.24744,-1.87383 0.54987,-2.57693 0.30243,-0.7031 0.74751,-2.32943 0.98907,-3.61406 0.24156,-1.28462 0.6316,-3.12397 0.86678,-4.08744 0.23516,-0.96347 0.55696,-2.54005 0.71509,-3.50352 0.15813,-0.96347 0.55278,-2.54006 0.877,-3.50352 2.18031,-6.4791 3.60331,-12.0231 4.59623,-17.90689 0.23485,-1.39168 0.57926,-3.31862 0.76533,-4.28209 0.18608,-0.96347 0.54115,-2.80282 0.78904,-4.08744 0.67711,-3.509 1.07605,-6.53133 1.51282,-11.46119 0.21705,-2.44979 0.57247,-5.41616 0.78983,-6.59195 0.21735,-1.17578 0.39519,-3.24102 0.39519,-4.58941 0,-2.14915 -0.15609,-2.66651 -1.26516,-4.19329 -0.87642,-1.2065 -1.70374,-1.86852 -2.69248,-2.1545 -1.74391,-0.50441 -9.25259,-7.53451 -10.71777,-10.03465 -0.98937,-1.68824 -3.83737,-3.99049 -4.93644,-3.99049 -0.61265,0 -4.16304,-2.41785 -5.26096,-3.58278 -0.34378,-0.36476 -1.66486,-1.67858 -2.93574,-2.91961 -1.27087,-1.24103 -2.9719,-2.91332 -3.78006,-3.71621 -0.80816,-0.8029 -1.64271,-1.45981 -1.85456,-1.45981 -0.57242,0 -3.92774,-2.33588 -3.92774,-2.73438 0,-0.18896 -1.59687,-1.92831 -3.5486,-3.86523 -2.67803,-2.65771 -3.80173,-3.52167 -4.5804,-3.52167 -1.05531,0 -5.106525,-3.28904 -5.106525,-4.14581 0,-0.78185 -2.027571,-2.45205 -4.1642,-3.43023 -1.502698,-0.68795 -3.868832,-2.60462 -8.059153,-6.52825 -3.262547,-3.0549 -6.357754,-5.89309 -6.878241,-6.30709 -2.93321,-2.33306 -7.391647,-6.72728 -7.700535,-7.58961 -0.197091,-0.55022 -1.253207,-1.96386 -2.346925,-3.14144 -1.093721,-1.17757 -1.989659,-2.36001 -1.990973,-2.62764 -0.0032,-0.65896 -1.235818,-1.84624 -2.589243,-2.49409 -1.322198,-0.63291 -2.031276,-2.41874 -2.062393,-5.19419 -0.02044,-1.82237 0.109891,-2.08905 2.045068,-4.18477 2.033473,-2.20217 2.101445,-2.23836 4.204078,-2.23836 1.175452,0 2.30942,-0.17224 2.519932,-0.38274 0.210509,-0.21051 2.47904,-0.48487 5.041178,-0.60968 2.56214,-0.12482 5.446728,-0.38581 6.410196,-0.57998 2.961805,-0.5969 17.951597,-1.66246 22.102436,-1.57117 1.12998,0.0248 2.4438,-0.16611 2.9196,-0.42436 0.51337,-0.27863 2.76438,-0.49856 5.53646,-0.54092 2.56925,-0.0393 5.14986,-0.2017 5.7347,-0.36096 1.47815,-0.40253 2.89241,0.0314 3.13579,0.96203 0.11382,0.43523 0.52338,0.77666 0.9224,0.76895 1.55495,-0.03 5.39884,-1.1587 6.35581,-1.86622 0.5561,-0.41114 1.70472,-0.8461 2.55249,-0.96658 5.39184,-0.76622 5.63688,-0.77024 6.37241,-0.10459 0.94019,0.85085 2.75994,0.4589 2.75994,-0.59447 0,-0.58091 0.30818,-0.7488 1.45981,-0.79528 4.09054,-0.1651 5.89844,-0.28279 7.49364,-0.48781 8.24502,-1.05969 10.12451,-1.12718 11.69309,-0.41985 1.38295,0.62363 1.61528,0.63488 2.22457,0.10777 1.51061,-1.30686 4.23495,-1.55363 13.97277,-1.26566 10.88958,0.32203 9.84945,0.74292 10.62317,-4.29865 0.26287,-1.71283 0.71586,-4.25289 1.00665,-5.64457 0.29078,-1.39167 0.7251,-4.72002 0.96513,-7.39632 0.24004,-2.6763 0.67459,-5.57556 0.96567,-6.44279 0.29109,-0.86723 0.9758,-3.25508 1.52159,-5.30634 0.54579,-2.05127 1.33169,-4.67006 1.74646,-5.81955 0.41476,-1.14948 0.86981,-2.79068 1.01121,-3.6471 0.14142,-0.85641 0.69526,-2.22838 1.23077,-3.04882 0.99362,-1.52228 2.87219,-6.75077 2.86012,-7.96037 -0.004,-0.36807 0.42776,-2.07062 0.95874,-3.78346 0.53098,-1.71283 1.2234,-3.99012 1.53871,-5.06064 0.57111,-1.93896 1.56739,-7.51277 2.17959,-12.19394 0.17709,-1.35407 0.57658,-2.75548 0.88776,-3.11424 0.66736,-0.76941 0.90894,-1.69651 1.44895,-5.56057 0.22116,-1.58254 0.76912,-4.016 1.21769,-5.40767 2.13824,-6.6339 2.22597,-7.04013 3.06882,-14.20873 0.20139,-1.71284 0.62217,-4.25289 0.93508,-5.64457 0.31291,-1.39168 0.65471,-3.76977 0.75955,-5.28466 0.23841,-3.44478 2.71997,-11.33605 3.9081,-12.42759 0.4661,-0.42821 1.33101,-1.43547 1.92203,-2.23836 1.13537,-1.5424 2.07192,-1.86452 2.46241,-0.84693 0.16498,0.42994 0.52063,0.54124 1.19149,0.37287 0.75625,-0.18981 1.22332,0.0431 2.23265,1.11329 1.47834,1.56751 1.8507,2.94777 1.23515,4.57854 -0.37962,1.00571 -0.33092,1.24246 0.37306,1.81361 1.07029,0.86835 2.88292,4.46894 2.88292,5.72661 0,0.54813 0.54377,2.17174 1.20837,3.60801 0.66461,1.43628 1.49089,3.21872 1.83617,3.96098 0.34529,0.74227 1.28644,2.00822 2.09145,2.81322 0.95686,0.95687 2.14457,2.98315 3.43024,5.85212 1.08162,2.41365 2.13676,4.69264 2.34474,5.06442 0.20798,0.37178 0.37815,1.04545 0.37815,1.49706 0,1.04567 1.19007,3.08227 1.80109,3.08227 0.99963,0 2.481,2.35744 2.481,3.94826 0,0.85406 0.1756,1.88096 0.39022,2.28198 0.21462,0.40103 0.7416,2.51186 1.17106,4.69073 0.5879,2.98272 1.03526,4.26308 1.81053,5.18179 1.0542,1.24925 3.63523,6.28892 3.63523,7.09809 0,0.24745 0.26276,0.66799 0.58392,0.93452 0.32115,0.26654 0.58392,0.87396 0.58392,1.34982 0,0.47586 0.35035,1.18226 0.77856,1.56979 0.42821,0.38752 0.77856,0.86439 0.77856,1.05971 0,0.19532 0.55762,1.01931 1.23915,1.83109 0.68152,0.81178 1.54169,2.33279 1.91147,3.38002 1.72851,4.89521 2.67882,7.28111 3.24309,8.14228 0.33733,0.51484 0.61334,1.18535 0.61334,1.49001 0,0.30467 0.58509,1.40568 1.30021,2.4467 0.71512,1.04102 1.61086,2.85623 1.99053,4.0338 0.37968,1.17758 1.10841,2.90761 1.61939,3.84452 0.51099,0.93691 0.92907,1.9219 0.92907,2.18888 0,0.54295 1.29558,3.72978 2.16109,5.3158 0.31013,0.56829 0.56387,1.34529 0.56387,1.72667 0,0.38137 0.32322,1.05505 0.71826,1.49706 0.39504,0.442 1.29371,2.29264 1.99704,4.11253 0.70334,1.81989 1.60937,3.60217 2.01341,3.96063 0.40404,0.35846 1.45123,2.11022 2.3271,3.8928 2.25729,4.5941 3.53103,6.52217 4.42796,6.70262 0.42821,0.0861 2.06525,0.3521 3.63788,0.591 1.57263,0.23892 3.71082,0.80069 4.75154,1.2484 1.36074,0.58537 2.4164,0.76391 3.75844,0.63565 2.99215,-0.28597 8.26879,0.48837 10.32013,1.51446 2.16008,1.08049 3.03531,1.13694 4.65349,0.30015 1.42604,-0.73744 3.98132,-0.57689 6.55126,0.41162 2.13025,0.81938 5.81613,0.64122 7.78365,-0.37623 1.18831,-0.61449 2.11797,-0.65863 8.9901,-0.42689 6.59304,0.22233 8.00114,0.16494 10.07061,-0.41042 2.05438,-0.57117 2.81423,-0.60406 5.20104,-0.22515 1.53734,0.24406 4.1966,0.55995 5.90942,0.70197 1.71284,0.14202 3.81495,0.48116 4.67136,0.75365 0.85644,0.27249 2.72031,0.60473 4.14198,0.73833 2.06588,0.19413 2.82241,0.10655 3.76822,-0.43626 1.14635,-0.65792 1.2481,-0.65088 3.25436,0.22521 2.35612,1.02889 3.14184,1.14723 9.07803,1.36729 3.44376,0.12766 4.5869,0.3234 5.83921,0.99984 1.38859,0.75007 2.06267,0.82969 6.22847,0.73574 4.49704,-0.10142 4.72947,-0.0666 6.22848,0.93294 1.35945,0.90648 1.92775,1.0336 4.47674,1.00142 1.60578,-0.0203 4.37628,0.2693 6.15671,0.64351 1.7804,0.3742 3.79493,0.59712 4.47672,0.49537 1.54429,-0.23048 2.93291,0.26705 3.26224,1.16881 0.13801,0.37789 0.66643,1.19105 1.1743,1.80701 0.78368,0.95045 0.8872,1.39227 0.68418,2.9196 -0.20286,1.52624 -0.55651,2.10414 -2.32751,3.80359 -2.22103,2.1313 -5.80324,4.02993 -7.60335,4.02993 -0.82636,0 -1.544,0.50746 -2.96987,2.10008 -1.88528,2.10571 -4.06012,3.34984 -5.85579,3.34984 -0.56404,0 -1.79045,0.69547 -2.96938,1.68391 -3.21834,2.69822 -7.83283,5.32314 -9.35785,5.32314 -0.57841,0 -1.91228,0.80216 -3.39842,2.04372 -2.33262,1.94872 -2.55118,2.04372 -4.70141,2.04372 -2.14491,0 -2.32149,0.0761 -3.61408,1.55712 -0.74748,0.85642 -1.36238,1.68631 -1.36649,1.8442 -0.004,0.15789 -0.66439,0.70312 -1.46728,1.21162 -0.80289,0.5085 -2.33568,1.71354 -3.40618,2.67787 -1.13996,1.02687 -2.51092,1.86744 -3.30891,2.02875 -0.74934,0.15149 -2.81884,1.00697 -4.59884,1.90106 -3.0492,1.53162 -3.22429,1.68738 -3.02724,2.69327 0.18875,0.96351 -0.0272,1.21897 -2.21353,2.61946 -1.33251,0.85351 -2.78901,1.55552 -3.23673,1.56001 -1.52421,0.0153 -4.3806,1.07993 -6.20999,2.31456 -1.00373,0.67742 -2.72437,1.43199 -3.8236,1.67684 -1.09926,0.24484 -2.41641,0.7626 -2.92702,1.15057 -0.51061,0.38798 -1.28655,0.70541 -1.72432,0.70541 -0.86674,0 -4.87564,1.21487 -7.66322,2.32229 -2.70668,1.07528 -5.31683,1.85295 -9.25206,2.75656 -2.92654,0.67199 -4.02875,1.14167 -5.8392,2.48823 -2.1868,1.62647 -6.13725,3.00209 -10.33156,3.59764 -0.89779,0.12747 -2.70376,1.03757 -4.58085,2.30846 -1.70432,1.15392 -3.40226,2.09999 -3.7732,2.10238 -0.37094,0.002 -2.3386,0.83448 -4.37259,1.84908 l -3.69817,1.84474 0.0837,4.08744 c 0.046,2.24809 0.19326,5.53401 0.32716,7.30203 0.16034,2.11716 0.0723,3.8825 -0.25796,5.17102 -0.40594,1.58391 -0.40759,2.26895 -0.009,3.59781 0.27102,0.90277 0.64601,3.65592 0.83332,6.11812 0.61639,8.10223 1.02506,10.07536 2.36946,11.44003 1.17152,1.18917 1.18884,1.26322 0.93661,4.00389 -0.24403,2.65145 -0.21128,2.81678 0.64929,3.27734 0.49845,0.26677 0.95253,0.41164 1.00905,0.32193 0.2742,-0.43522 1.25971,2.2303 1.25971,3.40718 0,1.89678 0.77506,4.81875 1.5883,5.98787 0.38027,0.5467 0.8171,2.10501 0.97073,3.46292 0.18745,1.65681 0.53131,2.72086 1.04538,3.23494 0.63828,0.63829 0.79568,1.45668 0.94371,4.90663 0.13548,3.15755 0.36431,4.49134 0.96385,5.61804 0.46226,0.86873 0.92404,2.79342 1.12075,4.67137 0.5661,5.40421 0.85134,6.64227 1.89477,8.22396 0.55387,0.83962 1.20837,2.24103 1.45445,3.11425 0.24607,0.87323 0.90362,2.8745 1.46122,4.44726 0.5576,1.57276 1.01751,3.23693 1.02202,3.69817 0.005,0.46124 0.43369,2.04436 0.95371,3.51809 0.77098,2.18489 0.90328,3.13171 0.71673,5.12936 -0.21144,2.26433 -0.11844,2.68058 1.2278,5.4954 0.80112,1.67503 1.67898,3.30828 1.95081,3.62944 0.27183,0.32116 0.70987,1.28463 0.97343,2.14103 0.26355,0.85641 0.86729,2.17023 1.34163,2.9196 1.23726,1.95465 1.50934,2.78206 3.39222,10.31592 0.47603,1.90475 -0.038,3.71715 -1.5955,5.62546 -0.95352,1.16831 -1.32439,1.34007 -2.98519,1.38243 -1.04302,0.0266 -2.26638,0.24951 -2.71857,0.49534 -0.69028,0.37523 -0.95567,0.30481 -1.65444,-0.43899 -0.45775,-0.48725 -0.83228,-1.2043 -0.83228,-1.59343 0,-0.38915 -0.35174,-1.27668 -0.78165,-1.97228 -0.76737,-1.24162 -1.28598,-3.1327 -1.92027,-7.00205 -0.17548,-1.0705 -1.02857,-4.0485 -1.89575,-6.61775 -0.86718,-2.56925 -1.94675,-6.24794 -2.39903,-8.17488 -0.45229,-1.92694 -1.25276,-4.60021 -1.77882,-5.94063 -0.52607,-1.34039 -0.95648,-2.97954 -0.95648,-3.6425 0,-0.66298 -0.50716,-2.28152 -1.12701,-3.59674 -2.0047,-4.25369 -3.82497,-8.96175 -4.23573,-10.95552 -0.22054,-1.07053 -0.6932,-2.99747 -1.05034,-4.28209 -1.06759,-3.84007 -2.58826,-10.45498 -2.5952,-11.28911 -0.004,-0.42822 0.1173,-1.60721 0.26859,-2.62002 0.20036,-1.3413 0.1197,-2.08145 -0.29696,-2.72496 -0.31462,-0.48593 -0.96758,-2.63529 -1.45103,-4.77632 -0.9086,-4.02385 -1.38243,-5.70852 -3.55846,-12.6516 -1.71833,-5.48271 -2.0214,-7.24068 -2.09928,-12.17731 -0.0604,-3.82996 -0.14036,-4.24899 -0.91384,-4.79076 -0.46619,-0.32653 -0.84762,-0.81962 -0.84762,-1.09574 0,-0.27612 -0.26354,-1.03032 -0.58565,-1.67599 -0.32211,-0.64568 -0.74714,-1.94262 -0.94452,-2.88209 -0.19737,-0.93948 -0.64803,-2.84678 -1.00145,-4.23846 -0.35343,-1.39167 -0.70312,-3.75655 -0.7771,-5.25528 -0.18621,-3.77251 -0.5989,-8.78011 -0.80956,-9.8234 -0.10438,-0.51691 -0.561,-0.96666 -1.1252,-1.10827 -1.25721,-0.31554 -1.82446,-2.1049 -1.73999,-5.48862 0.0364,-1.45995 0.0253,-2.82962 -0.0248,-3.04373 -0.0501,-0.2141 -0.0703,-0.57225 -0.0449,-0.79588 0.0491,-0.43298 2.94582,-2.73408 4.95071,-3.93274 0.66356,-0.39671 1.65368,-1.03678 2.20028,-1.42236 0.5466,-0.38557 2.41255,-1.20275 4.14656,-1.81594 1.73401,-0.61319 4.94811,-1.99355 7.14245,-3.06747 2.19434,-1.07391 4.60283,-2.0656 5.35219,-2.20374 1.33634,-0.24634 6.8516,-2.57191 9.92665,-4.18568 6.92137,-3.63229 13.34678,-6.12764 15.77843,-6.12764 1.08086,0 4.17322,-1.12984 7.57838,-2.76886 1.63991,-0.78935 2.92976,-1.1242 4.32994,-1.1241 1.15482,9e-5 2.74239,-0.33079 3.77166,-0.78609 0.9776,-0.43244 2.981,-0.93737 4.45202,-1.12208 2.9276,-0.3676 5.93721,-1.67134 5.93721,-2.57196 0,-0.73133 5.02362,-5.54583 7.05779,-6.76401 1.2554,-0.7518 1.72149,-0.85036 2.45048,-0.5182 1.13246,0.51598 3.02348,-0.52666 3.87601,-2.13706 0.67968,-1.28396 2.70857,-2.94415 4.56252,-3.73339 0.72742,-0.30967 2.14789,-1.23892 3.15658,-2.065 1.81022,-1.48246 7.59503,-4.13229 10.62295,-4.86602 2.78273,-0.67431 4.22454,-1.58521 7.74412,-4.89261 1.90414,-1.78932 4.34516,-3.73272 5.42454,-4.31866 1.07937,-0.58595 2.02684,-1.26794 2.1055,-1.51555 0.13845,-0.43578 -2.43515,-1.20943 -7.2939,-2.19262 -1.17759,-0.23828 -2.35118,-0.63945 -2.60799,-0.89148 -0.25684,-0.25203 -1.65825,-0.57922 -3.11425,-0.72708 -1.45601,-0.14786 -3.348,-0.45372 -4.20441,-0.67969 -1.36342,-0.35974 -16.79682,-0.80969 -21.60505,-0.62988 -2.00542,0.075 -2.46943,0.0611 -8.56419,-0.25581 -2.46219,-0.12805 -5.08983,-0.40122 -5.8392,-0.60706 -0.74935,-0.20583 -2.6672,-0.37522 -4.26186,-0.37642 -1.59469,-10e-4 -4.3352,-0.20976 -6.09006,-0.46349 -2.57999,-0.37303 -3.61175,-0.3603 -5.39093,0.0665 -1.21017,0.29031 -2.29007,0.67308 -2.39979,0.8506 -0.28306,0.45798 -7.31464,0.40225 -7.77854,-0.0616 -0.25302,-0.25302 -1.23099,-0.23528 -2.86129,0.0519 -1.88159,0.33144 -3.11866,0.32161 -5.1471,-0.0409 -1.46861,-0.26246 -3.50062,-0.36347 -4.51557,-0.22448 -1.25864,0.17236 -2.28392,0.0691 -3.22472,-0.32488 -0.75864,-0.31767 -3.20497,-0.77847 -5.43628,-1.024 -2.23132,-0.24552 -4.21422,-0.54362 -4.40644,-0.66242 -0.19223,-0.1188 -1.59978,-0.54101 -3.12788,-0.93823 -2.43486,-0.63292 -3.17808,-0.6672 -6.01119,-0.2772 -3.31672,0.45657 -3.92012,0.33932 -6.30455,-1.22505 -0.32116,-0.2107 -1.29215,-0.55912 -2.15777,-0.77426 -1.92446,-0.47831 -3.29216,-1.68408 -3.29216,-2.90238 0,-0.50071 -0.26276,-1.12845 -0.58391,-1.39499 -0.8222,-0.68236 -0.72546,-1.84326 0.19463,-2.33568 1.10154,-0.58952 0.97464,-1.47195 -0.58392,-4.06018 -0.74936,-1.24445 -1.36247,-2.42461 -1.36247,-2.62259 0,-0.19797 -0.7883,-1.98039 -1.75177,-3.96091 -0.96346,-1.98053 -1.75176,-3.86046 -1.75176,-4.17763 0,-0.31716 -0.26801,-0.95931 -0.59559,-1.42699 -0.69137,-0.98707 -4.46505,-9.42166 -4.46505,-9.97988 0,-0.20692 -0.29668,-0.70404 -0.65928,-1.10471 -0.7155,-0.79061 -1.66113,-3.21265 -1.67054,-4.27873 -0.006,-0.69796 -3.22598,-8.50971 -4.05859,-9.84673 -0.26666,-0.42821 -1.06333,-2.17997 -1.77038,-3.8928 -2.1931,-5.31282 -3.17153,-7.30358 -4.93258,-10.03611 -0.9976,-1.54791 -1.70128,-3.10057 -1.70128,-3.75383 0,-0.63607 -0.25304,-1.21116 -0.58976,-1.34037 -0.32438,-0.12447 -0.76042,-0.67516 -0.96899,-1.22376 -0.20858,-0.54859 -1.21159,-2.26104 -2.22891,-3.80545 -1.51449,-2.29917 -1.93605,-3.33709 -2.32626,-5.72762 -0.76396,-4.68018 -1.13117,-6.13434 -1.81116,-7.17212 -0.35149,-0.53646 -0.63909,-1.33875 -0.63909,-1.78288 0,-0.45403 -0.85201,-1.64617 -1.9464,-2.72341 -1.07052,-1.05375 -1.9464,-2.13589 -1.9464,-2.40474 0,-0.75021 -1.23947,-3.94581 -1.78508,-4.60231 -0.26691,-0.32115 -0.79593,-1.37221 -1.1756,-2.33568 -0.91369,-2.31863 -1.69907,-3.59029 -3.30559,-5.35228 -0.73221,-0.80307 -1.54501,-1.94186 -1.80624,-2.53065 -0.52296,-1.17868 -1.66885,-1.41343 -2.42894,-0.49759 -0.38252,0.46092 -0.31299,0.83584 0.35561,1.91767 l 0.8311,1.34475 -1.0273,0.95257 c -0.81101,0.752 -0.94738,1.1064 -0.64768,1.68317 0.2088,0.40183 0.50268,1.57825 0.65307,2.61426 0.31195,2.14895 -0.39992,3.37162 -1.96304,3.37162 -1.11176,0 -1.51352,0.62432 -1.38226,2.14795 0.11637,1.35071 -1.07913,4.41449 -2.03071,5.20424 -0.35041,0.29081 -0.63711,0.94762 -0.63711,1.45957 0,0.51195 -0.21499,1.27507 -0.47775,1.69582 -0.38041,0.60913 -0.37237,1.02446 0.0394,2.03843 0.91339,2.24893 0.91512,2.88519 0.0126,4.62622 -0.48694,0.93933 -1.02663,2.67134 -1.1993,3.84891 -0.58163,3.96641 -1.00185,5.63691 -1.83139,7.2802 -0.58305,1.15501 -0.82567,2.36223 -0.82567,4.10833 0,1.81914 -0.24764,2.98163 -0.93692,4.39821 -1.01471,2.08538 -2.17732,5.86788 -2.17732,7.08383 0,0.41602 -0.36507,1.17733 -0.81126,1.69179 -0.68614,0.79113 -0.77252,1.24553 -0.56003,2.94617 0.28864,2.31021 -0.23337,4.65157 -1.35499,6.07748 -0.8249,1.04869 -1.03713,2.79977 -0.38796,3.20098 0.55703,0.34426 0.48167,3.13854 -0.0973,3.60861 -0.26763,0.21728 -0.81818,0.4577 -1.22344,0.53426 -0.40526,0.0766 -0.86511,0.40197 -1.02188,0.72313 -0.15677,0.32116 -0.65842,1.3105 -1.11477,2.19853 -0.45635,0.88804 -1.00523,2.54004 -1.21973,3.6711 -0.2145,1.13107 -0.6513,2.34523 -0.97067,2.69813 -0.67327,0.74395 -0.78101,3.33017 -0.15485,3.71716 0.24609,0.15209 0.3421,0.86008 0.22745,1.67741 -0.1091,0.77783 -0.5551,4.04188 -0.99112,7.25345 -0.83185,6.12716 -1.95634,10.1787 -3.05223,10.99717 -0.35835,0.26763 -1.10855,0.4866 -1.66712,0.4866 -1.23081,0 -1.94985,0.64967 -1.94985,1.76176 0,1.14174 -1.44741,2.39497 -3.93569,3.4077 -1.88991,0.76919 -2.83226,0.85792 -9.49448,0.8939 -8.70388,0.047 -22.71664,0.77776 -24.86127,1.2965 -0.82745,0.20014 -4.41856,0.57006 -7.98025,0.82204 -3.56168,0.25199 -7.8772,0.79648 -9.59003,1.20999 -3.40041,0.82092 -15.23276,2.01722 -26.86034,2.7157 -4.06798,0.24436 -9.235672,0.55594 -11.483766,0.69238 -2.505763,0.15208 -4.414144,0.46359 -4.931713,0.805 -0.610775,0.40289 -0.987591,0.44189 -1.362482,0.141 -0.359768,-0.28876 -1.92459,-0.30542 -5.117999,-0.0545 -4.613336,0.36251 -6.494698,0.77779 -6.494698,1.43361 0,0.19345 0.87588,1.27008 1.946402,2.39251 1.805803,1.89337 2.432259,3.11424 1.59798,3.11424 -0.191634,0 -0.760956,-0.43491 -1.265163,-0.96647 -0.971932,-1.02467 -2.668499,-1.32499 -2.668499,-0.47237 0,0.725 2.309727,2.78661 3.760722,3.35674 1.193099,0.46879 4.074314,3.12077 8.890887,8.18352 2.177258,2.28854 7.60236,6.64157 8.268441,6.63449 0.162649,-0.002 1.192646,0.91795 2.288888,2.04372 1.09623,1.12578 2.74476,2.65998 3.66339,3.40935 0.91862,0.74936 2.91211,2.65465 4.42996,4.23398 2.77748,2.88995 7.68391,7.05515 8.31069,7.05515 0.42129,0 2.07308,1.79498 2.94118,3.19615 0.43898,0.70852 1.27831,1.24059 2.55526,1.61981 2.482,0.73707 8.55186,5.37151 14.41394,11.00527 8.71133,8.37204 16.32757,14.42659 17.52372,13.93052 1.93907,-0.80418 2.09883,-0.74425 1.8304,0.6866 -0.19576,1.04348 -0.0725,1.59418 0.52737,2.35684 1.23754,1.57327 1.77482,4.56443 1.25698,6.99791 -0.24046,1.12999 -0.55731,2.92152 -0.70411,3.98117 -0.14681,1.05965 -0.77239,2.78392 -1.39019,3.8317 -1.04616,1.77428 -1.149,2.32345 -1.49814,8.00001 -0.20619,3.35222 -0.46441,6.97083 -0.57383,8.04135 -0.10943,1.07052 -0.28549,3.36933 -0.39125,5.10847 -0.12203,2.00663 -0.54436,4.09743 -1.15579,5.72184 -2.59789,6.902 -2.74654,7.48475 -3.54258,13.88898 -0.14637,1.17757 -0.42925,2.34634 -0.62863,2.59728 -0.55619,0.70001 -1.87083,4.33833 -2.50697,6.93817 -0.31408,1.28358 -0.82583,2.72262 -1.13723,3.19787 -0.3114,0.47526 -0.56618,1.57536 -0.56618,2.44465 0,0.86931 -0.35036,2.57736 -0.77856,3.79568 -0.42821,1.21832 -0.7777,2.83432 -0.77664,3.59111 0.001,0.75679 -0.25047,2.16427 -0.55895,3.12774 -0.30848,0.96347 -0.73477,2.978 -0.94731,4.47672 -0.58192,4.10335 -1.0916,6.38444 -1.97661,8.84642 -0.44063,1.22574 -0.80114,2.67658 -0.80114,3.22406 0,0.54748 -0.26498,1.6296 -0.58884,2.40473 -1.11488,2.66828 -3.30256,12.07048 -3.3035,14.19779 -2.9e-4,0.84251 0.14377,0.99634 0.7781,0.83045 0.96741,-0.25295 0.96976,-0.046 0.02,1.75649 -1.33297,2.52961 -3.07933,8.82593 -2.58506,9.32019 0.33473,0.33473 3.24305,-2.21846 7.23647,-6.35282 2.03399,-2.10576 4.14271,-4.27444 4.68605,-4.81927 1.91258,-1.91774 5.64717,-6.165 7.18699,-8.17354 0.85642,-1.1171 2.27061,-2.84834 3.14264,-3.84719 0.87203,-0.99886 1.99901,-2.51679 2.5044,-3.37322 0.50538,-0.85641 1.36848,-2.12127 1.918,-2.81079 5.45902,-6.84983 8.5478,-10.51959 11.53611,-13.70599 1.94146,-2.07014 4.21875,-4.63416 5.06064,-5.69777 3.70532,-4.68124 4.8033,-5.7896 7.36992,-7.43968 1.49872,-0.96352 2.94393,-2.03257 3.21156,-2.37568 0.71201,-0.91275 0.63944,-3.58924 -0.0973,-3.58924 -0.32116,0 -0.58392,-0.16995 -0.58392,-0.37768 0,-0.57694 3.79957,-6.0495 5.63056,-8.10975 0.89378,-1.00566 2.18283,-2.81432 2.86456,-4.01921 0.68173,-1.20489 2.18346,-3.24861 3.33719,-4.54162 1.31463,-1.47334 2.34245,-3.08788 2.75341,-4.32515 0.36065,-1.08583 0.81752,-2.07423 1.01525,-2.19642 0.19773,-0.12221 0.35952,-1.0663 0.35952,-2.09797 0,-1.163 0.21431,-2.05362 0.564,-2.34384 0.31021,-0.25745 0.77044,-1.11098 1.02274,-1.89675 0.9713,-3.02509 3.45948,-7.75721 4.17751,-7.94498 0.4003,-0.10468 1.58819,-1.35277 2.63975,-2.77352 1.50901,-2.03881 2.12646,-2.5832 2.92995,-2.5832 1.85449,-1e-5 2.91914,1.29887 4.06939,4.96467 0.90043,2.86962 1.38469,3.74141 3.08062,5.54589 1.10673,1.17757 2.32937,2.97324 2.71697,3.99037 0.60529,1.58839 0.91731,1.91302 2.21139,2.30074 1.00117,0.29995 2.17589,1.18145 3.50135,2.62739 1.09708,1.1968 2.52196,2.7453 3.16639,3.44116 0.64444,0.69582 1.52748,1.26515 1.96232,1.26515 1.15382,0 4.04966,3.20268 4.539,5.01996 0.23398,0.86893 0.91903,1.96513 1.5708,2.51354 2.53428,2.13248 4.27937,4.53602 4.27937,5.89413 0,0.95018 0.20533,1.37773 0.74373,1.54861 0.89754,0.28487 1.63859,1.37735 3.62141,5.3389 1.40579,2.80869 2.94087,4.59321 3.95956,4.60296 0.23876,0.003 1.57275,1.34261 2.96443,2.97852 3.10789,3.6533 5.19285,5.80469 7.10603,7.33246 0.80381,0.64188 1.65894,1.7654 1.9003,2.49673 0.82386,2.49632 4.97657,7.42493 6.25922,7.42872 0.36715,0 0.87511,0.39614 1.1288,0.87787 0.25369,0.48173 0.58138,0.96347 0.7282,1.0705 0.14682,0.10706 0.42751,0.48939 0.62374,0.84964 0.19623,0.36022 0.94635,1.06092 1.66692,1.55711 0.88464,0.60917 1.51652,1.50371 1.94563,2.75447 0.47945,1.39752 1.59133,2.83788 4.52829,5.86609 4.09974,4.22715 4.3189,4.47774 6.66786,7.62407 0.81321,1.08928 1.74774,1.98603 2.07672,1.99278 0.65597,0.0134 2.42094,1.44278 2.9737,2.40814 1.08777,1.8997 4.05956,5.0635 8.26111,8.79487 1.98861,1.76609 2.08034,1.93479 2.26661,4.16875 0.16014,1.9206 0.0358,2.63488 -0.71001,4.07997 -0.73467,1.42342 -1.12303,1.77051 -2.07198,1.85176 -0.64231,0.055 -1.83751,0.28483 -2.656,0.51072 -1.7458,0.48183 -2.20787,0.20934 -3.66629,-2.16214 -0.52862,-0.85956 -1.77482,-2.3661 -2.76934,-3.34787 -3.88339,-3.83362 -5.44135,-5.67536 -6.06504,-7.16985 -0.35708,-0.85562 -1.05561,-1.90603 -1.5523,-2.33425 -0.49669,-0.42819 -2.03016,-2.09236 -3.40771,-3.69814 -1.37756,-1.60578 -3.02048,-3.45369 -3.65095,-4.10642 -5.72904,-5.93158 -11.22649,-12.1649 -13.01935,-14.76206 -0.53526,-0.77539 -1.76149,-2.43399 -2.72496,-3.68574 -0.96347,-1.25178 -2.71523,-3.54702 -3.89281,-5.1006 -1.17757,-1.55355 -4.25979,-5.03214 -6.84937,-7.73018 -6.08064,-6.3353 -8.59677,-9.2003 -10.27896,-11.70421 -0.74936,-1.11541 -1.97559,-2.7903 -2.72496,-3.72194 -1.68274,-2.09207 -3.43894,-4.53753 -4.51106,-6.2815 -0.44709,-0.72727 -1.66028,-2.11145 -2.69598,-3.07594 -1.0357,-0.96449 -2.1763,-2.40453 -2.53467,-3.20009 -0.7255,-1.61063 -2.04843,-3.02296 -5.00129,-5.33931 -1.17404,-0.92096 -1.99228,-1.87517 -2.00282,-2.33568 -0.0198,-0.86263 -0.88005,-1.90837 -3.60278,-4.37941 -1.55432,-1.4106 -2.07121,-1.65442 -3.50736,-1.65442 -1.37126,0 -1.95183,0.24496 -3.12294,1.31765 -0.97315,0.89138 -1.43856,1.6553 -1.43856,2.36128 0,1.35934 -0.55466,2.37773 -2.39094,4.38992 -0.82602,0.90516 -1.50186,1.97885 -1.50186,2.38598 0,0.9967 -1.61646,4.32537 -3.71336,7.64671 -0.94621,1.49871 -2.05945,3.44916 -2.47387,4.33429 -0.41441,0.88511 -1.37487,2.08328 -2.13437,2.66259 -0.88094,0.67192 -2.11213,2.41474 -3.40059,4.81378 -1.11083,2.06831 -2.65026,4.71256 -3.42096,5.87614 -0.77069,1.16358 -1.75161,2.67955 -2.17982,3.36881 -0.42821,0.68923 -1.69824,1.97479 -2.82228,2.85677 -1.12405,0.88196 -2.04373,1.7696 -2.04373,1.97255 0,0.20291 -2.1459,2.52531 -4.76868,5.16083 -5.27897,5.30465 -8.40645,8.83585 -10.42877,11.77505 -0.73658,1.07053 -1.9027,2.59544 -2.59139,3.38866 -0.68869,0.79326 -1.5973,2.11879 -2.01914,2.94565 -0.42183,0.82686 -1.04253,1.73208 -1.37934,2.0116 -0.3368,0.27953 -0.61237,0.91045 -0.61237,1.40203 0,0.58879 -0.43252,1.16109 -1.26756,1.67719 -0.69716,0.43085 -1.79201,1.51965 -2.433,2.41953 -0.641,0.89988 -2.24024,2.81065 -3.55388,4.24616 -1.31364,1.43548 -2.82398,3.29518 -3.35631,4.13263 -0.53233,0.83746 -2.08042,2.57372 -3.4402,3.85835 -3.19744,3.0207 -9.69515,10.20322 -9.69515,10.71695 0,0.21845 -1.00726,1.53162 -2.23836,2.91817 -5.52329,6.22071 -6.81709,7.94018 -7.2388,9.62044 -0.14004,0.55794 -0.70818,1.55346 -1.26253,2.2123 -0.80431,0.95585 -1.31085,1.19783 -2.50747,1.19783 -0.82474,0 -1.6078,0.17517 -1.74013,0.3893 -0.13232,0.21409 -0.51251,0.38927 -0.84485,0.38927 -0.46869,0 -0.55345,-0.28388 -0.37775,-1.26515 z m 100.68371,-365.4369 c 0,-0.2141 -0.26276,-0.38928 -0.58392,-0.38928 -0.32116,0 -0.58392,0.17518 -0.58392,0.38928 0,0.2141 0.26276,0.38928 0.58392,0.38928 0.32116,0 0.58392,-0.17518 0.58392,-0.38928 z m -1.9464,-2.18269 c 0,-0.0842 -0.26277,-0.15299 -0.58392,-0.15299 -0.32116,0 -0.58392,0.16968 -0.58392,0.37706 0,0.20738 0.26276,0.27623 0.58392,0.15299 0.32115,-0.12324 0.58392,-0.29292 0.58392,-0.37706 z m -37.76019,222.81254 c -0.53526,-0.22027 -1.58631,-0.51262 -2.33568,-0.64967 l -1.36248,-0.24918 0.12553,-3.30002 c 0.13346,-3.50857 0.80563,-5.11556 2.25141,-5.3826 0.40551,-0.0749 1.12857,-0.49688 1.60679,-0.93773 0.47821,-0.44085 1.78079,-1.12248 2.89461,-1.51472 1.11381,-0.39224 2.4743,-1.13219 3.02331,-1.64434 1.4002,-1.30617 4.11629,-2.40506 7.39096,-2.99028 l 2.79675,-0.4998 2.41229,1.30227 c 1.70301,0.91938 3.32796,2.31451 5.52653,4.7449 3.22501,3.56507 3.87918,4.78481 4.31067,8.0375 0.21807,1.6439 0.13482,2.03914 -0.58007,2.75403 -0.72346,0.72346 -1.10541,0.79993 -2.86656,0.57388 -1.11753,-0.14343 -3.03415,-0.76187 -4.25914,-1.37431 -1.22499,-0.61244 -2.43994,-1.11353 -2.69987,-1.11353 -0.25994,0 -0.8666,-0.37013 -1.34814,-0.82252 -0.74579,-0.70062 -1.39325,-0.83042 -4.36916,-0.87588 -3.07017,-0.0469 -3.60408,0.0477 -4.40485,0.78006 -1.41854,1.29745 -4.68127,3.13209 -5.97185,3.358 -0.64232,0.11243 -1.60579,0.0242 -2.14105,-0.19606 z m -1.36248,-69.6387 c -0.42821,-0.2559 -0.91921,-0.70079 -1.09112,-0.98864 -0.19751,-0.33073 -0.66319,-0.43537 -1.26516,-0.28428 -1.1339,0.28459 -1.22749,-0.23174 -0.29889,-1.64896 0.52322,-0.79853 0.56207,-1.14443 0.19464,-1.73278 -0.73406,-1.17542 -0.54091,-2.07871 0.69838,-3.26603 1.02724,-0.98416 1.43069,-1.10634 3.58613,-1.08603 2.18827,0.0206 2.51743,0.1328 3.32535,1.13339 1.36724,1.69331 1.81691,3.57027 1.30807,5.45997 -0.23603,0.87654 -0.67855,1.8007 -0.98338,2.05369 -0.80754,0.6702 -4.54362,0.91567 -5.47402,0.35967 z m 39.51195,-3.32825 c -0.53526,-0.10816 -1.23597,-0.41058 -1.55712,-0.67204 -0.32116,-0.26146 -1.32842,-0.79763 -2.23837,-1.19147 -1.82975,-0.79196 -1.92279,-0.99424 -1.06174,-2.30835 0.53073,-0.81001 0.53073,-0.95598 0,-1.39645 -1.48701,-1.23411 -0.39999,-2.42183 4.45335,-4.86594 3.68332,-1.85488 4.6499,-1.70883 6.95696,1.05124 1.85247,2.21621 1.88213,2.51442 0.58788,5.90995 -0.39997,1.04935 -1.18684,2.25105 -1.74858,2.67045 -1.03751,0.77461 -3.62502,1.15975 -5.39238,0.80261 z"
       id="path1" />
  </g>
</svg>
