<?xml version="1.0" encoding="UTF-8" standalone="no"?>
<!-- Created with Inkscape (http://www.inkscape.org/) -->

<svg
   version="1.1"
   id="svg1"
   width="2497.6521"
   height="3014.7214"
   viewBox="0 0 2497.6521 3014.7214"
   sodipodi:docname="lapin.svg"
   inkscape:version="1.4.3 (0d15f75, 2025-12-25)"
   xmlns:inkscape="http://www.inkscape.org/namespaces/inkscape"
   xmlns:sodipodi="http://sodipodi.sourceforge.net/DTD/sodipodi-0.dtd"
   xmlns="http://www.w3.org/2000/svg"
   xmlns:svg="http://www.w3.org/2000/svg">
  <defs
     id="defs1" />
  <sodipodi:namedview
     id="namedview1"
     pagecolor="#ffffff"
     bordercolor="#000000"
     borderopacity="0.25"
     inkscape:showpageshadow="2"
     inkscape:pageopacity="0.0"
     inkscape:pagecheckerboard="0"
     inkscape:deskcolor="#d1d1d1"
     inkscape:zoom="0.16139706"
     inkscape:cx="1074.9886"
     inkscape:cy="1257.7677"
     inkscape:window-width="1920"
     inkscape:window-height="1122"
     inkscape:window-x="-8"
     inkscape:window-y="-8"
     inkscape:window-maximized="1"
     inkscape:current-layer="g1" />
  <g
     inkscape:groupmode="layer"
     inkscape:label="Image"
     id="g1"
     transform="translate(-963.68119,-1462.4889)">
    <path
       style="fill:#000000"
       d="m 1483.6644,4474.5115 c -2.4827,-1.8522 -3.9389,-4.4252 -4.5038,-7.9577 -0.9887,-6.1831 -2.0255,-6.4699 -5.6167,-1.5538 l -2.6785,3.6667 -1.3997,-3.6667 c -1.6901,-4.4275 -2.6787,-4.5272 -7.4749,-0.7546 l -3.7021,2.9121 -2.5215,-3.1139 c -2.1215,-2.6199 -2.9905,-2.8824 -5.4777,-1.6544 -1.6259,0.8028 -5.6562,1.8615 -8.9562,2.3526 -3.3,0.4912 -6.7645,1.5107 -7.6989,2.2656 -2.7157,2.1942 -3.4384,0.2187 -3.2984,-9.0162 0.1505,-9.926 -0.6624,-10.4459 -8.2661,-5.2859 -3.8713,2.6271 -5.9534,3.1873 -9.4263,2.5357 -3.6208,-0.6792 -4.7854,-0.3111 -6.2046,1.9614 -2.0231,3.2394 -5.1057,3.721 -5.1057,0.7976 0,-2.3355 -2.1022,-2.6586 -3.4204,-0.5257 -0.5859,0.948 -2.0894,0.2035 -4.2122,-2.0859 -3.145,-3.3917 -3.4209,-3.4516 -5.8342,-1.2676 -1.3933,1.2609 -2.5424,1.7495 -2.5536,1.0859 -0.011,-0.6637 -0.5308,-2.012 -1.1546,-2.9963 -0.9376,-1.4793 -1.6177,-1.4876 -3.9231,-0.048 -2.4069,1.5031 -3.2076,1.371 -5.8454,-0.9643 -4.2175,-3.7339 -9.9669,-7.1983 -11.9461,-7.1983 -0.9075,0 -3.4786,-1.7274 -5.7136,-3.8386 -2.2349,-2.1112 -7.0634,-5.4685 -10.7301,-7.4606 -3.6667,-1.9921 -7.8667,-4.646 -9.3333,-5.8975 -1.4667,-1.2515 -4.9707,-3.4442 -7.7866,-4.8727 -2.816,-1.4285 -6.0504,-4.3973 -7.1876,-6.5973 -1.1372,-2.2 -3.4833,-5.696 -5.2134,-7.7689 -1.7302,-2.073 -3.1458,-5.2635 -3.1458,-7.09 0,-3.0793 -0.4077,-3.2902 -5.601,-2.8977 l -5.6009,0.4233 -5.0657,-8.6607 c -2.7861,-4.7634 -5.0657,-10.0134 -5.0657,-11.6667 0,-3.3164 -1.3087,-3.8306 -3.6896,-1.4496 -1.1862,1.1861 -1.7822,0.9483 -2.5059,-1 -0.5223,-1.406 -5.2539,-7.6563 -10.5145,-13.8897 -9.8101,-11.6238 -18.3491,-23.0735 -26.8482,-36 -6.4723,-9.8438 -16.1523,-21.0617 -18.9369,-21.9455 -1.2437,-0.3947 -3.33,-2.527 -4.6363,-4.7383 -1.3063,-2.2114 -4.6905,-6.696 -7.5206,-9.9659 -2.83,-3.2698 -5.569,-7.3113 -6.0866,-8.9811 -1.5381,-4.9618 -19.3333,-34.6548 -23.799,-39.7108 -4.2652,-4.829 -6.7247,-9.9407 -14.1098,-29.325 -5.2356,-13.7422 -9.9057,-21.3334 -13.1246,-21.3334 -3.1371,0 -6.8544,-7.8519 -7.8441,-16.5687 -0.4224,-3.7206 -2.6966,-10.6646 -5.0537,-15.4313 -3.3414,-6.7569 -11.3302,-30.7721 -11.3302,-34.0595 0,-0.3339 0.9642,-0.6071 2.1427,-0.6071 1.5321,0 1.8581,-0.6649 1.144,-2.3334 -3.5258,-8.2381 -5.9159,-17.6452 -7.2306,-28.4573 -0.8301,-6.8277 -2.0184,-13.0429 -2.6406,-13.8116 -3.5724,-4.4138 -9.8416,-18.2545 -12.2581,-27.0626 -2.2042,-8.0343 -2.6641,-12.7236 -2.183,-22.257 0.7715,-15.2869 -1.3587,-24.1211 -9.0859,-37.6806 -5.7369,-10.067 -7.3401,-16.6763 -4.4747,-18.4472 0.937,-0.5792 1.0951,-4.5261 0.4689,-11.7051 -0.7702,-8.8299 -1.9131,-12.7457 -6.1851,-21.1922 l -5.2403,-10.361 1.438,-9.2681 c 2.0775,-13.3897 1.8948,-14.594 -2.8926,-19.0661 l -4.3306,-4.0454 0.6622,-14.8229 c 1.1264,-25.212 0.5984,-32.205 -2.8534,-37.7901 -2.8346,-4.5865 -3.1282,-6.8886 -3.7835,-29.6692 -0.694,-24.1266 -0.7978,-24.8458 -4.4951,-31.1468 -3.3843,-5.7676 -3.7719,-7.6332 -3.6637,-17.6364 0.096,-8.8572 -0.619,-13.3444 -3.4327,-21.5501 -2.9721,-8.6677 -3.6806,-13.5459 -4.3298,-29.8108 l -0.7761,-19.4471 -4.2703,-4.8608 c -2.791,-3.1769 -4.5992,-4.3287 -5.2196,-3.3249 -1.3316,2.1546 -2.8371,-2.4146 -3.8977,-11.8295 -0.6827,-6.0615 -0.2623,-9.5696 1.9236,-16.0484 1.5385,-4.5602 2.7973,-10.3058 2.7973,-12.7679 0,-6.7116 -3.8275,-33.0344 -5.4684,-37.6075 -0.7894,-2.2 -1.945,-21.7 -2.5682,-43.3334 -1.0862,-37.7127 -3.9156,-70.8604 -6.6657,-78.0938 -0.7137,-1.8772 -1.3029,-10.424 -1.3093,-18.993 -0.011,-14.699 -4.4301,-61.7251 -6.046,-64.3398 -0.9626,-1.5575 -5.6893,-28.2825 -7.294,-41.24 -0.6811,-5.5 -2.4187,-16.3 -3.8613,-24 -2.2066,-11.7781 -4.6416,-32.6158 -8.8809,-76 -0.3942,-4.0334 -1.2397,-28.9334 -1.879,-55.3334 -1.7854,-73.726 -2.5316,-92.6498 -3.996,-101.3333 -0.742,-4.4 -1.3546,-12.5 -1.3613,-18 -0.01,-5.5 -0.5889,-16.6 -1.2937,-24.6667 -0.7048,-8.0666 -1.9073,-28.7666 -2.6723,-46 -1.65453,-37.2716 -3.22391,-57.5731 -7.42118,-96 -1.72215,-15.7666 -3.77814,-43.0666 -4.56887,-60.6666 -0.79073,-17.6 -2.34234,-48.2 -3.44801,-68 -1.10568,-19.8 -1.8981,-52.2 -1.76094,-72 0.73515,-106.1214 0.44211,-123.0921 -2.55557,-148 -4.22382,-35.0961 -4.91127,-48.2686 -3.03735,-58.2 1.33899,-7.0964 1.27406,-10.0233 -0.38104,-17.177 -1.09727,-4.7427 -2.63427,-15.823 -3.41555,-24.623 -1.89556,-21.3509 -5.2152,-49.1543 -6.81776,-57.1018 -1.56162,-7.7444 -1.63887,-14.2964 -0.19536,-16.57 0.58378,-0.9194 0.20712,-6.0194 -0.837,-11.3333 -1.04413,-5.3139 -1.90612,-11.4616 -1.91553,-13.6616 -0.068,-15.8986 1.75434,-45.0845 3.57995,-57.3333 2.51226,-16.856 5.16604,-49.7892 4.56624,-56.6667 -0.47797,-5.4806 -0.38197,-17.6203 0.51206,-64.753 0.48827,-25.7412 1.19541,-36.6322 2.72701,-42 1.13728,-3.9858 2.74049,-16.0915 3.56268,-26.9015 0.89732,-11.7976 2.34491,-21.658 3.62128,-24.6666 2.87453,-6.7757 4.19776,-21.2601 5.69559,-62.3456 0.78603,-21.5606 1.99922,-37.6911 3.209,-42.6666 4.6872,-19.2773 12.33405,-46.8336 13.50495,-48.6667 2.1281,-3.3316 5.915,-15.1227 5.9613,-18.5617 0.024,-1.7756 0.9225,-4.1995 1.9967,-5.3865 3.4033,-3.7606 16.2218,-36.3482 17.9898,-45.7344 0.9341,-4.9588 2.7466,-10.3588 4.0278,-12 1.2812,-1.6412 3.6869,-5.6573 5.3462,-8.9246 1.6592,-3.2673 6.1213,-9.2673 9.9158,-13.3333 3.7945,-4.0661 9.4135,-10.4691 12.4868,-14.229 4.6358,-5.6715 7.5405,-7.6751 17.0493,-11.76 12.5601,-5.3958 17.3746,-5.9116 40.4728,-4.3362 8.2947,0.5658 13.1677,0.3659 14.3161,-0.5872 4.547,-3.7737 18.8584,5.1493 23.7541,14.8105 3.0973,6.1121 7.7343,10.5423 13.0383,12.4567 8.36,3.0174 26.3888,17.4259 41.7438,33.3614 9.3048,9.6567 17.863,19.0576 19.0181,20.891 1.1551,1.8333 4.3533,6.0878 7.1072,9.4544 5.3605,6.5533 19.7184,32.921 23.0168,42.2698 1.0993,3.1158 2.9139,7.6025 4.0325,9.9705 4.5892,9.7154 11.3986,32.5404 11.4063,38.2339 0,3.3393 0.9566,7.8714 2.1156,10.0714 2.2266,4.2264 3.7967,11.3515 5.8762,26.6666 1.1859,8.7337 2.414,15.4226 5.5081,30 0.7005,3.3 1.8513,11.4 2.5574,18 0.7061,6.6 1.8056,16.8 2.4434,22.6667 0.6379,5.8667 2.1343,13.2921 3.3254,16.501 1.5779,4.2508 2.1657,10.4208 2.1657,22.7333 0,9.2945 0.5348,17.469 1.1884,18.1657 0.6536,0.6967 1.5541,4.8667 2.0011,9.2667 0.447,4.4 1.4174,12.2 2.1564,17.3333 2.7596,19.1695 4.3199,37.8155 4.4845,53.5897 0.115,11.0196 0.7065,16.7967 1.8363,17.9334 0.9167,0.9223 1.6667,3.2815 1.6667,5.2426 0,1.9611 0.9745,6.1911 2.1657,9.4 2.1019,5.6624 3.104,12.6568 5.8026,40.501 0.7108,7.3333 1.925,16.9333 2.6983,21.3333 0.7733,4.4 1.8584,14 2.4114,21.3333 0.5529,7.3334 1.4042,13.9738 1.8918,14.7565 3.1081,4.9894 6.3675,23.0711 6.4087,35.5524 0.035,10.7347 0.6016,14.8428 2.6215,19.0245 1.4169,2.9333 2.5965,7.7498 2.6214,10.7033 0.025,2.9535 1.0708,6.8341 2.3242,8.6236 1.2534,1.7895 2.7477,6.573 3.3206,10.63 0.5729,4.057 1.6629,10.3764 2.4221,14.0431 4.2138,20.3513 5.3663,40.4059 7.6626,133.3333 0.7796,31.553 1.4757,42.2798 2.9416,45.3333 1.3228,2.7553 2.262,12.0906 3.0182,30 0.6038,14.3 1.6614,36.2 2.3504,48.6667 2.8425,51.4367 4.1066,73.0245 5.387,92 3.7157,55.0673 6.9237,292.2521 4.1117,304 -0.7021,2.9333 -1.9585,8.9333 -2.7919,13.3333 -0.8334,4.4 -2.6822,11.9426 -4.1083,16.7613 -1.9301,6.5214 -2.593,12.8034 -2.593,24.5721 0,12.5231 -0.5953,17.6591 -2.8628,24.6996 -3.4778,10.7981 -2.7406,15.6071 2.5498,16.6346 2.0055,0.3896 6.205,1.2987 9.3322,2.0203 3.1272,0.7217 10.1476,1.3121 15.601,1.3121 14.0455,0 23.3798,2.1735 23.3798,5.4439 0,3.1563 4.3521,3.3992 9.8191,0.5479 2.1005,-1.0955 4.8005,-1.9847 6,-1.976 3.9228,0.028 22.9735,5.0956 24.7736,6.5895 2.0037,1.6629 15.5243,5.3947 19.5455,5.3947 1.4712,0 5.4919,1.3274 8.935,2.9498 3.9563,1.8642 9.2044,3.0371 14.2602,3.1871 8.9106,0.2643 28.9569,4.7827 34.8464,7.8543 2.1011,1.0958 5.0202,1.9998 6.4869,2.0088 1.4667,0.01 4.4667,0.9742 6.6667,2.1447 2.2,1.1706 7.6,2.6644 12,3.3196 15.8847,2.3655 20.2254,3.4088 23.3825,5.6201 1.766,1.2369 4.2383,2.249 5.494,2.249 1.2558,0 3.9723,0.7033 6.0367,1.563 2.0644,0.8596 6.1534,1.672 9.0868,1.8054 6.2055,0.282 17.9328,2.9431 19.9454,4.5259 0.7634,0.6003 3.7879,1.865 6.7212,2.8104 2.9334,0.9454 7.1334,2.7283 9.3334,3.9619 2.2,1.2337 6.4,3.0331 9.3333,3.9988 2.9333,0.9657 7.7333,3.1827 10.6667,4.9266 2.9333,1.7439 7.4333,4.0866 10,5.206 10.8266,4.7218 13.0643,5.9462 17.9236,9.808 5.6939,4.5249 11.3693,5.2439 14.7452,1.868 1.8994,-1.8994 2.0917,-4.6192 1.4379,-20.3334 -1.7734,-42.6274 -4.2961,-71.72 -7.4692,-86.1406 -0.8068,-3.6667 -2.0594,-13.5667 -2.7835,-22 -0.7241,-8.4334 -1.8831,-21.6334 -2.5754,-29.3334 -0.6924,-7.7 -1.8513,-22.4 -2.5753,-32.6666 -2.1796,-30.9067 -3.5638,-42.3725 -5.8552,-48.501 -1.6332,-4.368 -2.1815,-10.4674 -2.1815,-24.2683 0,-12.4543 -0.6715,-20.942 -2.0701,-26.1657 -1.1385,-4.2524 -2.694,-11.0317 -3.4567,-15.065 -0.7626,-4.0334 -1.9336,-10.0334 -2.6021,-13.3334 -1.4694,-7.2537 -3.6624,-20.2606 -5.3951,-32 -0.7036,-4.7666 -1.7268,-18.8666 -2.2739,-31.3333 -0.7669,-17.4747 -1.5129,-23.5829 -3.2569,-26.6667 -1.8795,-3.3236 -2.2648,-7.8329 -2.2785,-26.6666 -0.014,-18.7698 -0.403,-23.3544 -2.2649,-26.6667 -1.6754,-2.9807 -2.4934,-9.0966 -3.21,-24 -0.5288,-11 -1.6681,-23 -2.5316,-26.6667 -0.8635,-3.6666 -2.0199,-16.2666 -2.5697,-28 -0.6061,-12.9339 -1.8706,-24.3774 -3.2117,-29.065 -1.2167,-4.2525 -2.2121,-12.4085 -2.2121,-18.1246 0,-6.9204 -0.891,-12.9826 -2.6667,-18.1437 -1.7756,-5.1611 -2.6666,-11.2233 -2.6666,-18.1437 0,-5.7161 -0.9938,-13.8721 -2.2084,-18.1246 -2.1,-7.3527 -2.7354,-14.8506 -5.7395,-67.7317 -0.7083,-12.4667 -1.9262,-27.4667 -2.7065,-33.3333 -0.7804,-5.8667 -1.9659,-19.6667 -2.6345,-30.6667 -0.6687,-11 -1.9062,-23.6 -2.7501,-28 -0.844,-4.4 -1.9579,-21.8 -2.4755,-38.6667 -0.7372,-24.0239 -1.4333,-31.9304 -3.2133,-36.5009 -1.8609,-4.7781 -2.2722,-10.4953 -2.2722,-31.5799 0,-15.1308 -0.5905,-27.2931 -1.4323,-29.499 -4.6178,-12.1017 -5.7499,-19.6925 -6.7247,-45.0868 -0.9797,-25.5255 -2.1789,-38.4989 -5.1764,-56 -3.2502,-18.9768 -4.2613,-30.9789 -4.8302,-57.3334 l -0.6043,-28 4.0506,-11.9168 c 3.8387,-11.2934 4.0506,-13.0196 4.0506,-33 0,-12.3145 0.5228,-21.0832 1.2571,-21.0832 0.6915,0 1.5718,-7.35 1.9563,-16.3333 0.3845,-8.9833 1.3594,-28.3333 2.1664,-43 0.807,-14.6667 1.5767,-33.9181 1.7104,-42.7809 l 0.2431,-16.1141 -5.5253,-7.2192 c -5.2597,-6.872 -11.2191,-21.5859 -9.4565,-23.3484 0.4556,-0.4556 2.6055,0.4371 4.7776,1.9838 2.1721,1.5467 4.3716,2.8121 4.8879,2.8121 1.8196,0 -0.9117,-7.3742 -3.9506,-10.6666 -3.4899,-3.781 -4.4068,-7.8568 -5.4295,-24.1354 -0.5842,-9.2983 -0.3341,-11.7894 1.3213,-13.1633 1.1953,-0.992 2.0786,-3.9762 2.1305,-7.1979 0.1678,-10.42 6.2061,-45.5604 9.1936,-53.5034 0.8274,-2.2 2.2865,-4.6 3.2424,-5.3334 2.8937,-2.22 10.142,-18.0126 10.142,-22.0973 0,-2.103 1.557,-7.2278 3.4601,-11.3883 1.9031,-4.1606 4.284,-9.8997 5.2909,-12.7536 1.0069,-2.8538 2.7499,-6.501 3.8732,-8.1048 1.1233,-1.6038 2.0424,-4.1979 2.0424,-5.7647 0,-1.5669 1.7924,-6.3834 3.9831,-10.7034 2.1908,-4.32 3.9938,-8.7545 4.0069,-9.8545 0.013,-1.1 1.5019,-4.4 3.3086,-7.3334 1.8067,-2.9333 3.3076,-6.5333 3.3353,-8 0.028,-1.4666 1.2425,-4.4666 2.6995,-6.6666 1.457,-2.2 2.653,-5.23 2.6578,-6.7334 0,-1.5033 0.5349,-3.3033 1.1778,-4 0.6429,-0.6966 2.4661,-5.0859 4.0514,-9.7539 3.5503,-10.4534 6.4979,-16.2328 12.6699,-24.8418 2.627,-3.6643 4.7764,-7.2978 4.7764,-8.0743 0,-0.7765 1.5,-3.445 3.3333,-5.93 1.8334,-2.4849 3.3334,-6.2782 3.3334,-8.4295 0,-4.716 15.9014,-24.3693 24.1149,-29.8048 2.8701,-1.8993 5.2184,-3.9865 5.2184,-4.6381 0,-0.6516 1.65,-1.8874 3.6667,-2.7463 2.0166,-0.8588 4.5964,-2.682 5.7328,-4.0515 1.1365,-1.3696 4.1365,-3.0157 6.6667,-3.6581 2.5303,-0.6424 9.1005,-2.4603 14.6005,-4.0397 17.0523,-4.8968 16.8167,-4.904 18.6238,0.5715 1.1256,3.4108 2.3647,4.7965 4.2889,4.7965 2.0541,0 2.4745,-0.562 1.7453,-2.3333 -2.6836,-6.5187 -2.5245,-7.181 1.5018,-6.2487 2.1121,0.4891 5.9672,2.3165 8.567,4.061 6.2186,4.1728 20.5227,9.7606 27.4903,10.7389 5.7587,0.8086 13.7829,6.7042 13.7829,10.1267 0,1.0055 2.1743,2.8651 4.8318,4.1323 4.465,2.1293 5.0137,2.1396 7.2272,0.1364 2.2239,-2.0126 2.4985,-1.9752 3.8349,0.5218 0.7916,1.4793 1.4394,3.6291 1.4394,4.7773 0,1.1482 1.0782,2.0876 2.3961,2.0876 2.7242,0 9.5694,6.867 16.6135,16.6667 2.6357,3.6667 7.5937,9.3667 11.0179,12.6667 3.4241,3.3 8.6529,9.6 11.6194,14 2.9664,4.4 6.7646,9.5 8.4404,11.3333 1.6757,1.8333 5.2754,8.4333 7.9993,14.6667 2.724,6.2333 6.972,14.5 9.4401,18.3703 6.1811,9.6927 15.4989,29.9504 18.8856,41.0588 1.549,5.0806 6.1399,17.2927 10.202,27.1379 4.0621,9.8451 7.3857,19.6556 7.3857,21.801 0,2.1454 1.7714,9.9902 3.9363,17.433 2.165,7.4428 4.2913,16.2323 4.7252,19.5323 0.8496,6.4618 5.298,28.0065 7.5605,36.6171 0.7637,2.9061 2.2073,10.7061 3.208,17.3333 1.0008,6.6273 3.0323,17.7496 4.5144,24.7163 1.4822,6.9666 2.701,14.3349 2.7085,16.3739 0.01,2.039 1.4567,9.839 3.2204,17.3333 1.7636,7.4944 3.8284,17.5261 4.5885,22.2928 0.76,4.7666 2.9359,15.8666 4.8354,24.6666 1.8995,8.8 4.3231,23.2984 5.3858,32.2186 1.0626,8.9202 3.1698,19.3587 4.6826,23.1968 1.5129,3.838 3.8904,12.761 5.2835,19.829 1.3931,7.0679 3.0928,14.3294 3.777,16.1366 0.6842,1.8071 1.9564,8.6548 2.8272,15.217 0.8707,6.5622 1.8433,12.3524 2.1614,12.867 1.1672,1.8886 7.2251,43.4007 7.2383,49.6012 0.01,3.5198 0.8335,8.0198 1.8354,10 1.002,1.9803 2.5522,8.1005 3.4449,13.6005 0.8927,5.5 2.0573,12.7 2.588,16 0.5307,3.3 1.737,7.416 2.6805,9.1466 0.9436,1.7306 1.9476,8.788 2.2312,15.6831 0.3299,8.0233 1.29,14.0342 2.6668,16.6967 2.878,5.5653 5.1488,19.6782 5.0106,31.1403 -0.062,5.1333 -0.1658,13.3683 -0.2308,18.3 -0.065,4.9317 0.7605,11.4572 1.8345,14.501 1.0739,3.0438 1.9526,9.6114 1.9526,14.5947 0,4.9832 1.2429,14.294 2.7621,20.6906 2.1094,8.8813 2.5926,14.185 2.0446,22.4386 -0.3947,5.9446 -0.7722,12.0084 -0.8389,13.4751 -0.2048,4.5039 1.2463,22.9855 3.5071,44.6666 1.1852,11.3667 2.3983,26.3667 2.6958,33.3334 0.298,6.9801 1.4298,14.7617 2.5212,17.3333 1.2619,2.9738 2.1777,10.7125 2.5246,21.3333 0.6231,19.0842 2.4948,36.8097 5.2092,49.3334 1.1507,5.3092 1.6991,13.7261 1.4157,21.7269 -0.3605,10.1754 0.094,14.7406 2.0585,20.6667 3.8365,11.5744 4.085,13.6134 2.7822,22.8302 -1.0571,7.4785 -0.8943,8.9333 1.3131,11.7396 3.6814,4.6802 5.0032,9.9421 6.6969,26.6596 1.4928,14.7345 1.2584,18.093 -1.6794,24.065 -1.152,2.3419 -0.9832,4.6173 0.7505,10.1172 1.2302,3.9027 2.2368,8.8193 2.2368,10.9258 0,2.1064 1.4796,8.3537 3.288,13.8828 3.8942,11.9059 5.7435,23.852 7.3353,47.3862 1.2828,18.9639 2.2317,24.1276 7.4979,40.798 2.6977,8.5398 3.352,12.7948 2.7958,18.1833 -0.5213,5.0516 0.1562,10.3213 2.4036,18.6933 3.3262,12.391 5.2521,25.8631 4.8392,33.8511 -0.1382,2.6724 0.9516,9.5724 2.4216,15.3333 2.6888,10.5365 4.7338,45.9307 4.1649,72.0818 -0.1309,6.0175 0.4048,15.5623 1.1904,21.2108 1.2461,8.9595 1.1491,10.5786 -0.7607,12.6888 -3.1443,3.4744 -1.8643,14.3143 2.4623,20.8522 5.3617,8.102 7.1879,30.9304 3.1058,38.8242 -1.5268,2.9525 -2.0775,8.0708 -2.0775,19.3093 0,14.7308 1.1034,21.7966 6.2025,39.7203 1.3544,4.7605 1.773,8.9446 1.1339,11.3334 -0.5571,2.0827 -1.1808,17.8868 -1.386,35.1202 -0.228,19.1488 -0.9575,32.8417 -1.8761,35.2122 -0.8501,2.194 -1.7944,15.9713 -2.1738,31.7163 -0.369,15.3105 -1.2726,29.4201 -2.0081,31.3547 -0.9062,2.3833 -0.8708,6.5956 0.1097,13.064 1.5949,10.5216 1.1529,63.0387 -0.5538,65.8002 -0.5807,0.9395 -0.6326,7.6203 -0.1154,14.8464 1.0357,14.4706 -0.458,22.0039 -4.6254,23.3266 -3.3509,1.0635 -4.2178,3.7574 -4.724,14.6796 -0.5162,11.1398 1.1229,15.3633 10.265,26.4499 3.53,4.2808 6.4182,8.2499 6.4182,8.8202 0,0.5703 -1.2642,2.6441 -2.8094,4.6085 -2.1637,2.7507 -2.5948,4.5541 -1.8757,7.8465 0.5136,2.3512 1.1285,26.1749 1.3664,52.9415 0.371,41.7413 0.1488,48.9826 -1.5618,50.8867 -1.4146,1.5747 -2.2144,6.6903 -2.7517,17.5994 -0.692,14.0512 -0.9875,15.4141 -3.4214,15.7801 -2.7821,0.4183 -8.4131,10.0377 -11.6925,19.9744 -1.3721,4.1577 -1.4082,5.8149 -0.1643,7.5438 0.8767,1.2186 1.7993,2.8156 2.0501,3.549 0.2508,0.7333 1.2279,3.4333 2.1713,6 4.6706,12.7065 2.8126,21.3068 -6.8239,31.5868 -8.2134,8.7617 -8.5668,12.6258 -1.4871,16.2563 2.75,1.4102 6.4738,4.1429 8.2751,6.0726 3.0324,3.2485 3.1435,3.8265 1.4986,7.7964 -0.9772,2.3583 -2.2956,9.6879 -2.9299,16.2879 -1.325,13.7884 -3.1759,23.0612 -6.121,30.6666 -2.142,5.5314 -2.6357,27.334 -0.9401,41.5092 0.5902,4.934 0.2626,7.7231 -1.1749,10 -2.2192,3.5152 -4.9411,17.8462 -4.9411,26.0156 0,2.9185 -1.2479,10.0693 -2.7731,15.8908 -2.4426,9.3235 -2.6623,12.7336 -1.8441,28.6252 0.8098,15.728 0.6525,18.2701 -1.227,19.8299 -1.1857,0.9841 -2.1558,3.3676 -2.1558,5.2968 0,1.9292 -1.2,7.7039 -2.6667,12.8325 -1.4667,5.1287 -2.6785,11.4268 -2.6929,13.9958 -0.014,2.569 -0.9684,9.4709 -2.1199,15.3376 -3.5538,18.1054 -3.6613,20.5135 -1.1627,26.0542 2.7986,6.2063 2.1693,17.3817 -1.1878,21.0913 -1.4507,1.6029 -2.4165,5.5901 -2.7898,11.5167 -1.0362,16.454 -2.3012,23.2229 -4.8996,26.2189 -1.4043,1.6192 -2.8908,4.4833 -3.3034,6.3647 -0.4125,1.8815 -1.2763,5.2208 -1.9195,7.4208 -0.6432,2.2 -1.7883,7.9714 -2.5446,12.8253 -0.7563,4.8539 -2.6478,11.7024 -4.2034,15.2189 -2.5702,5.8104 -2.692,7.2183 -1.3356,15.4316 2.1215,12.8465 1.9398,15.5359 -1.1151,16.5055 -4.4169,1.4019 -10.0102,23.4988 -14.0705,55.5861 -0.4338,3.4287 -3.3864,11.5711 -6.5613,18.0942 -3.1748,6.523 -7.5998,17.2177 -9.8332,23.7659 -4.2697,12.5185 -9.2268,23.4997 -17.1114,37.9059 -2.6089,4.7666 -5.867,10.7666 -7.2404,13.3333 -5.0807,9.495 -7.0883,11.1488 -12.4731,10.2749 -5.6975,-0.9246 -9.5175,1.9068 -10.8264,8.0245 -0.4355,2.0353 -1.9507,6.1663 -3.3673,9.18 -1.4165,3.0136 -2.5754,6.1066 -2.5754,6.8733 0,0.7666 -2.7,2.9762 -6,4.9101 -5.5871,3.2743 -6.0028,3.9024 -6.0398,9.1267 -0.033,4.5791 -0.9517,6.6133 -5,11.0654 -8.9721,9.8669 -27.645,25.6648 -31.47,26.6249 -2.5068,0.6291 -4.2,2.2251 -5.1001,4.807 -1.0802,3.0987 -1.7152,3.56 -3.2021,2.3259 -1.0201,-0.8466 -1.8547,-2.6016 -1.8547,-3.9 0,-2.394 -3.4508,-4.6491 -4.4702,-2.9211 -0.3055,0.5179 -0.9845,3.5335 -1.5089,6.7012 -0.5243,3.1678 -1.6435,5.9591 -2.4871,6.2031 -0.8436,0.2439 -4.3303,1.1652 -7.7482,2.0471 -4.221,1.0892 -6.4329,2.4388 -6.8953,4.207 -0.5973,2.2842 -1.0226,2.3899 -3.4687,0.8624 -2.3282,-1.454 -3.3138,-1.4117 -5.9778,0.2566 -14.7652,9.2466 -15.3101,9.4964 -17.8045,8.1614 -3.2642,-1.7469 -9.6393,3.8603 -9.6393,8.4782 0,4.3126 -2.6415,5.6836 -4.9356,2.5618 -1.82,-2.4766 -1.9184,-2.469 -4.1311,0.319 -2.9187,3.6776 -9.841,7.1439 -14.2666,7.1439 -1.9062,0 -5.3489,0.9738 -7.6505,2.164 -3.14,1.6238 -4.7595,1.8051 -6.4868,0.7264 -2.7326,-1.7065 -4.844,0.2642 -6.3613,5.9375 -1.2742,4.7643 -3.3376,5.336 -6.7919,1.8816 -2.4705,-2.4704 -3.3975,-2.627 -8.0834,-1.3652 -3.814,1.027 -5.2928,2.1339 -5.2928,3.9618 0,3.2473 -2.1516,4.626 -3.1518,2.0196 -1.0005,-2.6074 -7.4451,-2.5595 -11.2182,0.083 -2.2103,1.5481 -2.9633,3.4116 -2.9633,7.3333 0,5.9609 -1.1968,6.4243 -6.4878,2.5125 -3.8816,-2.8698 -8.6527,-3.44 -19.0447,-2.276 -6.0967,0.6828 -10.4887,2.9446 -16.4985,8.4961 -2.6663,2.463 -4.244,2.735 -12.8378,2.2128 -8.9993,-0.5468 -10.4207,-0.2595 -17.4394,3.5252 -4.2028,2.2662 -8.8716,4.1205 -10.3752,4.1205 -1.5035,0 -3.089,0.9259 -3.5232,2.0575 -0.6968,1.8159 -1.0447,1.8267 -2.9615,0.092 -1.897,-1.7168 -3.4139,-1.7288 -11.9862,-0.096 -5.3979,1.0286 -10.4965,2.4297 -11.3301,3.1136 -0.8336,0.6839 -3.0036,1.451 -4.8221,1.7046 -2.296,0.3202 -3.7059,1.6836 -4.6132,4.4611 -1.7622,5.3947 -1.7408,5.3799 -4.4055,3.0291 -3.1548,-2.7831 -10.4967,-4.2688 -11.6748,-2.3624 -0.549,0.8882 -2.484,1.146 -4.7936,0.6388 -4.2553,-0.9346 -4.5059,-0.3719 -3.9586,8.8868 0.3099,5.2424 -0.019,5.6525 -5.6104,6.9894 -2.6979,0.6451 -3.8681,0.3348 -4.3334,-1.1489 -0.3505,-1.1181 -0.9147,-2.9227 -1.2536,-4.0103 -1.1563,-3.7111 -4.7171,-0.6261 -4.7171,4.0868 0,4.2875 -0.1826,4.4542 -4.0362,3.6835 -2.8567,-0.5714 -4.801,-0.1151 -6.6534,1.5613 -2.5418,2.3003 -2.6752,2.2297 -4.6304,-2.45 -1.1074,-2.6501 -2.0133,-5.4377 -2.0133,-6.1946 0,-1.7637 -3.5828,-1.7966 -4.6667,-0.043 -1.3523,2.1881 -2.973,1.5219 -3.777,-1.5526 -0.6374,-2.4376 -1.0759,-2.6194 -2.8222,-1.1701 -1.1371,0.9437 -2.0675,3.1572 -2.0675,4.9189 0,4.6729 -6.0094,6.8046 -11.0982,3.9368 -4.4343,-2.499 -8.9018,-0.9088 -8.9018,3.1685 0,3.6099 -1.4148,4.0506 -6.3465,1.977 -2.874,-1.2084 -4.3201,-2.7307 -4.3201,-4.5475 0,-2.2475 -0.8512,-2.731 -4.8076,-2.731 -3.1827,0 -6.1463,-1.1266 -8.7689,-3.3334 -2.1788,-1.8333 -4.5303,-3.3333 -5.2255,-3.3333 -0.6952,0 -1.8343,1.5 -2.5314,3.3333 -0.697,1.8334 -2.2128,3.3334 -3.3683,3.3334 -1.1556,0 -2.9439,2.0172 -3.974,4.4826 -1.5312,3.6647 -2.7961,4.6352 -6.932,5.3187 -8.2197,1.3583 -11.5126,0.9398 -15.3946,-1.9565 z m 145.4499,-48.485 c 2.6871,-1.0233 9.3857,-2.8559 14.8857,-4.0726 5.5,-1.2167 13.6,-3.3972 18,-4.8455 10.598,-3.4884 28.0343,-6.3305 30.2435,-4.9297 3.2149,2.0386 6.4232,1.2833 6.4232,-1.512 0,-2.778 4.3517,-8 6.6666,-8 0.7334,0 1.3334,1.7358 1.3334,3.8573 0,4.0992 3.2125,6.4554 5.8356,4.28 0.8237,-0.6832 5.8477,-2.2918 11.1644,-3.5747 8.9022,-2.1481 9.6673,-2.6053 9.6754,-5.7809 0,-1.8966 1.2009,-5.2484 2.6579,-7.4484 1.457,-2.2 2.653,-5.35 2.6579,-7 0.01,-2.7214 -0.6248,-3 -6.8134,-3 -6.4142,0 -6.7761,-0.1794 -6.052,-3 0.563,-2.193 -0.7401,-1.3087 -4.8445,3.2877 -5.1878,5.8097 -6.4762,6.4908 -16.948,8.9598 -6.2333,1.4697 -14.4261,4.2154 -18.2063,6.1016 -5.1414,2.5655 -9.844,3.6362 -18.6666,4.2501 -10.8712,0.7564 -15.2101,2.0303 -25.0752,7.3618 -2.2166,1.1979 -27.0864,4.8008 -34.3852,4.9813 -4.9632,0.1227 -2.4149,-5.748 6.1021,-14.0582 6.877,-6.71 9.6534,-8.4918 15.0273,-9.6443 3.6255,-0.7776 8.3795,-2.3459 10.5645,-3.4852 2.185,-1.1393 5.5473,-2.0752 7.4718,-2.0797 1.9244,0 6.1244,-0.9784 9.3333,-2.1641 3.2089,-1.1858 10.6343,-2.577 16.501,-3.0917 8.116,-0.7121 11.9419,-1.7568 16,-4.369 2.9333,-1.8882 8.6333,-4.4873 12.6666,-5.7758 4.0334,-1.2884 9.4226,-3.7523 11.9762,-5.4751 2.5536,-1.7229 6.2645,-3.1325 8.2465,-3.1325 1.9821,0 5.2488,-0.6255 7.2594,-1.3899 2.0106,-0.7645 8.1979,-2.6071 13.7496,-4.0949 5.5516,-1.4877 11.9664,-3.8622 14.2551,-5.2767 2.2887,-1.4145 6.507,-2.5719 9.3739,-2.5719 2.867,0 6.6962,-1.0449 8.5093,-2.3221 1.8132,-1.2772 6.8967,-2.7395 11.2967,-3.2494 4.4,-0.51 11.15,-1.3414 15,-1.8475 6.5391,-0.8596 7,-0.7335 7,1.9161 0,3.6624 4.6996,3.8451 6.6198,0.2573 0.7591,-1.4185 1.3802,-5.8694 1.3802,-9.891 0,-9.7952 0.7868,-11.3608 7.1925,-14.3113 11.9639,-5.5108 27.1725,-15.3223 31.2356,-20.151 1.8961,-2.2533 5.5709,-4.9843 8.1664,-6.0687 8.2799,-3.4596 45.1584,-38.3639 55.9967,-52.999 3.2585,-4.4 7.5814,-9.8007 9.6065,-12.0014 2.0251,-2.2008 6.6164,-9.7008 10.2029,-16.6667 3.5865,-6.9659 7.4809,-14.4653 8.6542,-16.6653 7.0417,-13.2031 12.0198,-25.393 14.4293,-35.3333 1.511,-6.2333 3.2218,-11.9333 3.8017,-12.6667 0.58,-0.7333 1.4994,-2.8333 2.0432,-4.6666 0.5438,-1.8334 2.1537,-5.9305 3.5776,-9.1049 5.736,-12.7873 14.9255,-53.7024 18.2397,-81.2095 0.6394,-5.3063 1.7846,-10.4063 2.545,-11.3334 0.7604,-0.9271 3.8403,-11.6288 6.8443,-23.7816 3.004,-12.1528 6.9624,-26.5078 8.7964,-31.9002 2.0498,-6.0266 3.3347,-12.7892 3.3347,-17.5515 0,-8.1617 1.2397,-14.816 5.4425,-29.2135 1.4066,-4.8187 2.5575,-10.5167 2.5575,-12.6622 0,-3.8097 6.0572,-23.9282 8.0015,-26.5766 0.5384,-0.7333 2.0163,-4.5126 3.2842,-8.3985 2.2965,-7.0384 2.2937,-7.0752 -0.7253,-9.6936 l -3.0305,-2.6283 2.4542,-7.6398 c 1.3498,-4.2019 2.9001,-10.0398 3.445,-12.9731 0.5449,-2.9333 1.7107,-8.9333 2.5906,-13.3333 2.6171,-13.0864 3.9584,-21.9766 5.2302,-34.6667 0.6614,-6.6 1.899,-14.4 2.7501,-17.3333 0.8511,-2.9334 2.0998,-10.7334 2.775,-17.3334 0.6752,-6.6 1.8198,-16.2 2.5437,-21.3333 0.7239,-5.1333 1.8752,-14.1333 2.5585,-20 0.6832,-5.8667 1.6541,-11.9927 2.1575,-13.6135 0.6106,-1.9661 -0.051,-4.5096 -1.9868,-7.6423 -1.6514,-2.6719 -2.4629,-5.4061 -1.8832,-6.3441 1.0399,-1.6826 2.5937,-14.7084 4.0135,-33.6478 0.7912,-10.5525 1.7398,-12.7798 6.1551,-14.4517 2.0921,-0.7922 2.3333,-3.1556 2.3333,-22.8604 0,-15.8472 0.5862,-24.1332 2.1015,-29.7085 2.9874,-10.9914 4.6313,-21.8681 5.4462,-36.0344 0.6386,-11.102 0.4176,-12.7721 -2.2643,-17.1115 -2.6197,-4.2388 -2.7929,-5.4066 -1.461,-9.852 0.831,-2.7737 1.511,-6.4911 1.511,-8.2608 0,-1.7697 1.2,-4.0826 2.6666,-5.1397 3.7077,-2.6723 3.4793,-9.4878 -0.4769,-14.231 -3.0569,-3.665 -3.1213,-4.2541 -2.3333,-21.3621 0.7476,-16.2333 1.0535,-17.8195 3.9572,-20.5221 3.5432,-3.298 6.853,-10.3688 6.853,-14.6404 0,-3.2955 -3.2913,-10.862 -7.1787,-16.5034 -2.5554,-3.7085 -5.1986,-16.0895 -4.9971,-23.4076 0.1709,-6.2086 2.7441,-33.9673 3.6461,-39.3334 0.4932,-2.9333 2.0141,-6.3037 3.3798,-7.4897 3.4351,-2.983 3.5511,-19.0603 0.1723,-23.8803 -3.9797,-5.6771 -5.1556,-20.9392 -4.2089,-54.63 0.1546,-5.5 0.1475,-11.5 -0.016,-13.3333 -0.487,-5.4728 1.1838,-17.2886 4.1193,-29.1319 2.3049,-9.2992 2.5067,-11.9747 1.2256,-16.2506 -1.2826,-4.281 -1.0924,-6.7649 1.1618,-15.1769 3.5638,-13.2987 3.5334,-25.7474 -0.082,-33.6841 -1.791,-3.9316 -2.429,-7.1023 -1.7962,-8.9269 0.5398,-1.5563 1.4906,-14.2296 2.1128,-28.1629 0.6223,-13.9334 1.4845,-30.7334 1.9161,-37.3334 0.4986,-7.6254 0.1841,-14.5232 -0.8627,-18.9217 -1.3129,-5.5165 -1.3088,-7.7393 0.021,-10.9486 1.4727,-3.5553 1.3184,-4.5926 -1.3168,-8.8565 -2.6328,-4.2599 -2.8066,-5.4242 -1.4738,-9.8727 2.483,-8.2874 1.8865,-26.5582 -1.1557,-35.4005 -2.187,-6.3565 -2.6667,-11.2233 -2.6667,-27.054 0,-10.6168 0.6759,-21.559 1.5019,-24.3159 1.2675,-4.2306 1.1218,-5.711 -0.9339,-9.4881 -1.9812,-3.6402 -2.6342,-9.2026 -3.4995,-29.8086 -1.7723,-42.2063 -4.3452,-71.8933 -7.5689,-87.3334 -0.689,-3.3 -1.8871,-9.5129 -2.6624,-13.8066 -1.4554,-8.0606 -2.5593,-10.1051 -8.0711,-14.9492 l -3.2339,-2.8422 3.013,-4.2314 c 2.6013,-3.6531 2.9151,-5.3659 2.2962,-12.5343 -2.7453,-31.8015 -3.5717,-39.8822 -4.8029,-46.9696 -0.7644,-4.4 -1.8858,-12.918 -2.4919,-18.9289 -0.6062,-6.011 -1.8922,-11.881 -2.8578,-13.0445 -2.5233,-3.0403 -4.0673,-17.3977 -5.3082,-49.3599 -0.598,-15.4 -1.779,-31 -2.6247,-34.6667 -0.8456,-3.6667 -2.1459,-12.3667 -2.8895,-19.3333 -0.7436,-6.9667 -1.8907,-17.4667 -2.5491,-23.3334 -0.6585,-5.8666 -1.8221,-16.9666 -2.5859,-24.6666 -1.5318,-15.444 -3.3577,-30.4204 -5.4456,-44.6667 -1.8612,-12.6993 -5.4702,-60.7264 -7.9153,-105.3333 -1.3133,-23.9594 -2.8534,-42.6662 -5.3789,-65.3334 -0.7354,-6.6 -1.8293,-19.8 -2.431,-29.3333 -0.6017,-9.5333 -1.8689,-19.1333 -2.816,-21.3333 -0.9471,-2.2 -2.2557,-8.2 -2.908,-13.3334 -0.6523,-5.1333 -1.793,-12.9333 -2.5349,-17.3333 -0.7419,-4.4 -1.9389,-13.4 -2.6599,-20 -2.3659,-21.6556 -3.4927,-29.2007 -5.8742,-39.3333 -6.0832,-25.8818 -7.3251,-31.7956 -7.9798,-38 -1.166,-11.0485 -3.1038,-19.7731 -5.3307,-24 -1.1895,-2.258 -2.1109,-7.2523 -2.1155,-11.4677 0,-4.1073 -0.5343,-9.2073 -1.1772,-11.3334 -2.7483,-9.0884 -6.7133,-24.3562 -7.929,-30.5323 -0.7218,-3.6666 -2.0122,-10.2666 -2.8677,-14.6666 -0.8555,-4.4 -2.1132,-10.1696 -2.7949,-12.8214 -0.6817,-2.6517 -1.2431,-8.6517 -1.2476,-13.3333 0,-4.7928 -0.8457,-10.1174 -1.9249,-12.1862 -2.9398,-5.6356 -6.0669,-19.153 -6.0669,-26.2248 0,-3.4926 -1.2,-9.8381 -2.6667,-14.101 -1.4667,-4.2629 -2.6667,-10.6483 -2.6667,-14.1896 0,-6.5053 -0.4416,-8.9054 -5.3073,-28.8452 -1.4809,-6.0692 -2.6927,-13.0707 -2.6927,-15.559 0,-5.0313 -3.6858,-20.661 -5.3625,-22.7395 -0.5916,-0.7334 -2.0705,-5.8334 -3.2866,-11.3334 -1.2161,-5.5 -2.7676,-12.1696 -3.4477,-14.8213 -0.6801,-2.6518 -1.2365,-7.1967 -1.2365,-10.0998 0,-5.8151 -4.8674,-21.2992 -10.021,-31.8784 -1.8218,-3.7398 -3.3123,-7.6393 -3.3123,-8.6656 0,-4.2697 -15.3402,-47.6225 -18.5892,-52.5349 -1.9401,-2.9333 -5.5772,-9.5333 -8.0824,-14.6666 -5.2597,-10.7777 -11.4626,-20.4589 -23.9198,-37.3334 -4.8723,-6.6 -9.6734,-13.6303 -10.669,-15.6229 -2.0177,-4.0383 -20.808,-22.4226 -32.4973,-31.795 -8.009,-6.4216 -17.4433,-9.9017 -43.0134,-15.8665 -9.3136,-2.1727 -12.9457,-2.5038 -15.7534,-1.4363 -2.007,0.7631 -5.7694,1.3874 -8.3608,1.3874 -2.5915,0 -6.6746,0.9314 -9.0736,2.0699 -5.6492,2.6807 -26.3282,23.884 -29.1901,29.9301 -1.2149,2.5667 -4.9373,8.2667 -8.272,12.6667 -6.4875,8.56 -11.2402,17.6787 -11.2545,21.5935 0,1.3235 -1.2236,4.2065 -2.7083,6.4065 -1.4847,2.2 -3.6624,6.1 -4.8392,8.6666 -1.1769,2.5667 -3.7966,8.2667 -5.8216,12.6667 -2.025,4.4 -4.4049,10.4 -5.2888,13.3333 -0.8838,2.9334 -3.2637,8.9334 -5.2888,13.3334 -6.631,14.4081 -8.0444,17.7209 -8.0501,18.8681 0,0.6225 -1.4658,4.0099 -3.2505,7.5276 -1.7847,3.5177 -3.976,8.6177 -4.8694,11.3333 -0.8934,2.7157 -3.0074,7.0376 -4.6978,9.6043 -1.6903,2.5667 -4.0612,8.5667 -5.2685,13.3333 -1.2074,4.7667 -2.6524,9.2667 -3.2113,10 -0.5588,0.7334 -1.7599,3.6414 -2.6691,6.4623 -0.9091,2.8209 -2.4836,6.7209 -3.4989,8.6666 -1.0152,1.9458 -1.8535,6.5378 -1.8628,10.2045 -0.011,4.3978 -0.9185,8.0279 -2.6661,10.6666 -2.4321,3.6723 -2.6498,6.3017 -2.6579,32.0958 -0.01,22.5125 0.4262,29.4017 2.1802,34.6667 1.2039,3.614 2.7251,7.2579 3.3805,8.0976 1.0741,1.3764 1.7936,4.6384 4.9565,22.4733 0.5202,2.9333 0.4324,17.6333 -0.1951,32.6666 -0.6275,15.0334 -1.4446,34.7941 -1.8157,43.9128 -0.5935,14.5828 -1.0047,16.8657 -3.4146,18.9558 -2.4841,2.1544 -2.6502,3.2827 -1.7796,12.0872 1.0943,11.0677 1.0855,24.5947 -0.039,59.6299 -0.7087,22.0798 -1.0521,24.8138 -3.3688,26.8231 -3.4148,2.9616 -3.5601,13.9461 -0.2464,18.6279 1.922,2.7155 2.4981,7.645 3.2679,27.9633 1.1402,30.0927 2.7336,46.2116 5.5753,56.3984 1.4435,5.1747 2.1595,13.1119 2.165,24 0.01,12.3558 0.522,17.2303 2.1443,20.2683 3.2295,6.0473 4.642,17.3201 5.8475,46.6667 0.6025,14.6666 1.86,30.5666 2.7944,35.3333 1.8999,9.6916 2.383,50.022 0.688,57.4382 -0.8442,3.6938 -0.4571,6.162 1.7135,10.9269 1.9757,4.3368 2.8041,8.8466 2.8041,15.2651 0,6.5312 0.6605,10.0429 2.3333,12.4065 1.7413,2.4601 2.5752,7.3567 3.2863,19.2966 0.524,8.8 1.6094,25 2.4118,36 0.8024,11 1.8737,31.4 2.3805,45.3334 0.7628,20.9731 1.323,25.9007 3.2548,28.63 2.6993,3.8137 2.9621,8.9617 0.8223,16.1038 -1.334,4.4527 -1.1594,5.6121 1.4918,9.9018 3.0855,4.9924 3.1506,7.8693 0.5385,23.8136 -0.6636,4.0504 -0.063,6.6471 2.882,12.4684 2.6125,5.1635 4.0434,10.5873 4.8064,18.2175 0.5974,5.9757 1.7822,14.7649 2.6328,19.5315 1.4308,8.0185 1.6537,13.5571 1.1807,29.3334 -0.099,3.3 0.2185,10.9308 0.7054,16.9574 0.7618,9.4299 1.377,11.4489 4.4126,14.4833 4.0146,4.0128 4.7057,8.5578 6.8764,45.2259 0.6946,11.7334 1.8741,26.7334 2.621,33.3334 0.7469,6.6 1.9534,19.2 2.6811,28 0.7277,8.8 1.9196,20.8 2.6487,26.6666 0.7291,5.8667 1.8604,16.0667 2.5141,22.6667 1.1462,11.5729 2.6888,17.4982 6.4136,24.6351 0.9755,1.8692 1.7598,7.6327 1.7644,12.9665 0,5.2809 0.98,13.0809 2.1679,17.3333 1.1878,4.2525 2.6715,13.7318 3.297,21.0651 0.6255,7.3333 1.775,16.9333 2.5544,21.3333 0.7794,4.4 1.8557,14.6698 2.3917,22.8217 0.6402,9.7368 1.6371,15.6199 2.9057,17.1484 1.2171,1.4666 2.3046,7.3244 2.9416,15.845 0.5558,7.4351 1.6271,17.1183 2.3807,21.5183 3.0496,17.8046 4.217,27.5235 5.4454,45.3333 1.8038,26.1541 3.7126,50.8205 5.262,68 0.7276,8.0667 1.7777,23.6667 2.3337,34.6667 0.9614,19.0221 1.1982,20.2769 4.8444,25.6633 3.3166,4.8996 3.6848,6.3382 2.7297,10.6667 -0.6072,2.7518 -1.1359,9.2033 -1.175,14.3366 -0.059,7.7242 0.5898,10.6375 3.7618,16.8975 3.3722,6.655 3.6526,8.0812 2.3333,11.8657 -0.8247,2.3658 -1.4995,8.7307 -1.4995,14.1443 0,11.3321 -1.546,13.0215 -7.8251,8.5504 -2.1559,-1.5352 -4.8772,-2.7912 -6.0474,-2.7912 -1.4276,0 -2.1335,-1.2062 -2.1457,-3.6667 -0.03,-6.1241 -1.4907,-9.6666 -3.9849,-9.6666 -1.2973,0 -4.0773,-0.8923 -6.1778,-1.9828 -2.1005,-1.0906 -4.8691,-1.6501 -6.1524,-1.2435 -1.9395,0.6145 -2.3405,-0.1197 -2.3757,-4.3505 -0.056,-6.7153 -2.5526,-9.7192 -8.8158,-10.607 -6.347,-0.8996 -25.2216,-6.7307 -30.0142,-9.2726 -1.9465,-1.0323 -4.714,-1.877 -6.15,-1.877 -1.436,0 -4.876,-1.8 -7.6443,-4 -2.7683,-2.2 -6.233,-4 -7.6992,-4 -1.4662,0 -7.5337,-2.3615 -13.4833,-5.2479 -11.049,-5.3602 -28.5,-10.7212 -35.1263,-10.7909 -2.0302,-0.021 -7.8912,-1.2039 -13.0245,-2.6278 -5.1334,-1.424 -12.3765,-2.6065 -16.0958,-2.6279 -6.2421,-0.036 -18.0967,-3.0599 -21.2376,-5.4176 -1.7574,-1.3192 -17.4152,-5.2754 -21.1077,-5.3331 -1.5907,-0.025 -5.2923,-1.2045 -8.2256,-2.6214 -2.9333,-1.4169 -6.2782,-2.5966 -7.4331,-2.6215 -1.1549,-0.025 -6.5549,-1.5927 -12,-3.484 -5.4451,-1.8914 -13.5002,-3.9889 -17.9002,-4.6612 -4.4,-0.6722 -11,-1.8273 -14.6667,-2.5667 -3.6667,-0.7394 -10.2667,-1.8814 -14.6667,-2.5377 -4.4,-0.6563 -9.8,-1.9362 -12,-2.8442 -3.9709,-1.6389 -11.2017,-2.6117 -40.6666,-5.471 -17.4233,-1.6908 -95.1213,-2.0762 -107.5173,-0.5334 -8.9711,1.1165 -7.2717,2.0056 -17.7395,-9.2803 -4.6965,-5.0635 -6.7432,-11.1651 -6.7432,-20.1021 0,-5.4486 -1.0536,-9.0589 -4.6667,-15.9906 -2.5667,-4.9242 -4.6667,-9.4397 -4.6667,-10.0345 0,-2.0391 12.6655,-6.9567 18.6667,-7.2476 3.3,-0.16 7.6891,-0.9661 9.7535,-1.7914 4.9782,-1.9901 11.4709,-1.887 15.5798,0.2475 1.8334,0.9523 5.1334,1.626 7.3334,1.497 2.2,-0.1289 7.9255,-0.3118 12.7234,-0.4064 l 8.7235,-0.1719 1.6099,-6.0192 c 0.8854,-3.3105 1.6098,-8.5905 1.6098,-11.7333 0,-3.1428 0.5547,-6.2842 1.2326,-6.9809 0.678,-0.6966 1.5182,-11.4666 1.8673,-23.9333 0.349,-12.4667 1.3059,-25.6667 2.1264,-29.3333 4.3291,-19.3462 4.6142,-27.3488 4.4401,-124.6667 -0.2153,-120.3868 -2.229,-185.1369 -7.0282,-226 -0.7752,-6.6 -1.9869,-24.6 -2.6927,-40 -0.7059,-15.4 -1.8752,-37 -2.5985,-48 -1.1769,-17.8984 -1.9263,-30.8692 -4.7763,-82.6667 -0.6019,-10.9379 -1.3702,-15.2944 -3.0222,-17.1359 -1.8148,-2.0231 -2.3356,-6.5225 -2.8818,-24.898 -0.6436,-21.6523 -0.7821,-22.5513 -4,-25.9702 -4.1019,-4.3581 -5.0124,-11.7289 -6.5878,-53.3292 -1.1871,-31.3451 -2.2672,-39.6293 -5.8299,-44.7159 -1.9146,-2.7334 -2.249,-6.9085 -2.249,-28.0798 0,-19.4255 -0.4651,-26.1461 -2.1248,-30.7033 -3.1569,-8.6682 -4.7002,-19.8158 -5.4227,-39.1677 -0.3558,-9.5333 -1.2032,-17.9033 -1.8831,-18.6 -0.6798,-0.6966 -1.236,-3.2174 -1.236,-5.6016 0,-2.3842 -0.9336,-7.8142 -2.0747,-12.0666 -3.772,-14.0574 -4.8101,-20.8737 -6.0505,-39.7318 -0.6754,-10.2666 -1.8235,-25.2666 -2.5513,-33.3333 -0.7279,-8.0667 -1.8862,-22.7667 -2.5739,-32.6667 -3.3299,-47.9361 -3.5965,-50.3923 -5.8416,-53.8188 -1.2328,-1.8814 -2.2414,-4.6332 -2.2414,-6.1151 0,-1.482 -0.7188,-5.382 -1.5973,-8.6669 -1.2391,-4.6327 -1.2403,-7.4035 -0.01,-12.3524 2.8435,-11.3966 2.3555,-25.1719 -1.388,-39.18 -1.8813,-7.04 -3.8596,-16.94 -4.396,-22 -0.6057,-5.7126 -1.9176,-10.4055 -3.4609,-12.3799 -1.5044,-1.9246 -2.4875,-5.3457 -2.4905,-8.6667 0,-3.1287 -1.1489,-7.3631 -2.6667,-9.8524 -1.4639,-2.4011 -2.6616,-6.7156 -2.6616,-9.588 0,-2.8723 -0.6,-5.5932 -1.3334,-6.0464 -0.7333,-0.4533 -1.3333,-2.5132 -1.3333,-4.5778 0,-2.0645 -0.9439,-6.3791 -2.0975,-9.5879 -2.0181,-5.6137 -2.6267,-8.337 -5.7567,-25.7605 -0.7831,-4.3594 -2.8896,-10.9594 -4.6812,-14.6667 -1.7916,-3.7073 -3.5636,-8.9735 -3.9378,-11.7029 -0.3741,-2.7293 -2.5207,-7.6374 -4.7702,-10.9069 -2.2495,-3.2694 -4.0899,-6.3283 -4.0899,-6.7973 0,-0.4691 -1.6763,-3.361 -3.725,-6.4265 -2.0488,-3.0654 -5.7385,-9.6235 -8.1995,-14.5735 -2.461,-4.95 -5.013,-9 -5.6713,-9 -0.6582,0 -8.3033,-6.75 -16.9892,-15 -24.1409,-22.9297 -34.9095,-31.9004 -40.6892,-33.8959 -2.9007,-1.0016 -6.5178,-2.9894 -8.0379,-4.4175 -3.6731,-3.4507 -13.1208,-6.6866 -19.5222,-6.6866 h -5.1657 V 1844 c 0,-5.7778 -0.3556,-6.6667 -2.6667,-6.6667 -2.2112,0 -2.6667,0.8889 -2.6667,5.2047 v 5.2046 l -12.3333,0.462 c -12.2439,0.4587 -12.3693,0.4983 -17.2889,5.4621 -2.7255,2.75 -6.0255,5.019 -7.3333,5.0424 -2.9047,0.052 -4.9243,1.6424 -11.3778,8.9614 -2.75,3.1188 -5,6.9281 -5,8.4652 0,3.3992 -3.4726,11.1121 -7.4429,16.531 -3.4076,4.6509 -7.2856,13.1374 -10.4511,22.8708 -1.2289,3.7789 -4.3037,10.9789 -6.8328,16 -2.5291,5.021 -4.6002,10.2385 -4.6024,11.5943 0,1.3559 -0.8948,4.3559 -1.9834,6.6667 -3.5521,7.5402 -8.6874,23.9163 -8.6874,27.7033 0,2.0358 -0.9336,7.1807 -2.0747,11.4331 -3.7902,14.1253 -4.8126,20.9044 -5.9917,39.7318 -0.643,10.2666 -1.7905,22.8666 -2.5501,28 -0.7595,5.1333 -1.8966,14.7333 -2.527,21.3333 -0.6303,6.6 -1.9538,13.8 -2.9411,16 -1.146,2.5537 -2.1823,13.1597 -2.8662,29.3333 -0.5892,13.9334 -1.6654,34.3334 -2.3915,45.3334 -1.7617,26.6878 -3.70065,63.9441 -5.27368,101.3333 -0.70961,16.8667 -1.9588,36.6667 -2.77596,44 -0.81717,7.3333 -1.75938,38.2333 -2.09379,68.6667 -0.57099,51.9623 -0.44626,55.9831 2.0474,66 3.63583,14.6048 4.09859,19.3069 5.51123,56 1.4032,36.4454 3.27,67.9911 5.2867,89.3333 1.4976,15.8489 4.1202,75.3774 3.8476,87.3333 -0.7782,34.1268 0.054,104.4285 1.3725,116 0.8777,7.7 2.0896,34.4 2.6932,59.3334 0.6036,24.9333 1.7855,48.9333 2.6264,53.3333 0.8409,4.4 2.1132,14.6 2.8274,22.6667 3.0348,34.2809 3.8624,41.682 5.3673,48 0.8786,3.6887 2.0758,24.5342 2.6803,46.6666 0.6008,22 1.749,46 2.5516,53.3334 0.8026,7.3333 2.0435,29.8333 2.7575,50 0.7141,20.1666 1.8752,50.4666 2.5802,67.3333 0.7051,16.8667 1.8171,46.5667 2.4712,66 1.1597,34.4554 2.2318,44.4828 5.631,52.6667 0.9138,2.2 2.1552,10.6 2.7587,18.6666 1.7542,23.4494 4.8738,43.3715 7.9338,50.6667 0.9228,2.2 2.1691,11.2 2.7696,20 0.6005,8.8 1.6616,24.4 2.358,34.6667 0.6964,10.2666 1.9328,22.2666 2.7474,26.6666 0.8147,4.4 2.0147,16.4 2.6667,26.6667 0.652,10.2667 1.852,22.2667 2.6667,26.6667 0.8146,4.4 2.0358,16.4 2.7138,26.6666 0.6779,10.2667 1.9124,24.3667 2.7433,31.3334 1.756,14.7225 2.0002,34.7143 0.5577,45.6507 -0.8313,6.3028 -0.5826,8.2995 1.4113,11.3333 3.4042,5.1794 6.0071,20.7251 10.9975,65.6826 0.8604,7.7509 2.3603,13.4407 4.745,18 3.2042,6.1263 3.4873,7.9853 3.4925,22.935 0,10.849 0.7207,18.8439 2.1523,24 1.1807,4.2524 2.6653,13.1317 3.299,19.7317 2.3552,24.527 4.8882,35.9184 9.3908,42.2313 2.8542,4.0018 3.2591,6.3905 4.1425,24.4354 1.5528,31.7232 2.7839,42.2947 5.3697,46.1114 1.952,2.8812 2.0851,4.1586 0.8132,7.8069 -1.5042,4.3152 -0.8954,9.3482 2.9319,24.2364 0.6817,2.6517 1.2395,6.4821 1.2395,8.5119 0,2.0299 0.5577,5.8603 1.2394,8.512 0.6817,2.6518 1.9365,8.4214 2.7885,12.8214 0.852,4.4 2.6341,12.8 3.9601,18.6666 1.3261,5.8667 3.7287,16.6667 5.3391,24 1.6105,7.3334 4.0707,17.999 5.4672,23.7015 1.3964,5.7025 2.539,12.64 2.539,15.4166 0,2.7766 1.8,10.3735 4,16.8819 2.2,6.5085 4.004,13.971 4.0088,16.5835 0,2.6124 1.2009,6.5499 2.6579,8.7499 1.457,2.2 2.653,5.3414 2.6578,6.9808 0.011,3.6489 2.0511,12.799 5.4513,24.4471 1.4067,4.8187 2.5779,10.2187 2.6028,12 0.025,1.7813 1.2045,5.6387 2.6214,8.5721 1.4228,2.9456 2.6167,8.318 2.6667,12 0.05,3.6819 1.2438,9.0544 2.6666,12 1.4169,2.9333 2.5991,7.1333 2.627,9.3333 0.028,2.2 1.5764,7 3.441,10.6667 1.8645,3.6666 3.9765,9.2697 4.6931,12.4512 0.7167,3.1816 2.7887,7.9709 4.6043,10.6429 1.8157,2.672 3.3013,5.5364 3.3013,6.3654 0,0.8289 1.8,3.7721 4,6.5405 2.2,2.7683 4,5.7523 4,6.6312 0,0.8788 2.0282,4.2463 4.5072,7.4833 2.4789,3.237 5.2657,8.2855 6.1927,11.2188 0.9271,2.9333 3.3989,7.8414 5.4928,10.9069 2.094,3.0655 3.8073,5.9426 3.8073,6.3935 0,2.6884 33.9534,48.9841 45.495,62.0329 16.1395,18.2469 19.7512,22.7468 21.9115,27.2993 1.2694,2.675 4.3156,6.2278 6.7694,7.8952 2.4538,1.6674 6.167,5.3808 8.2516,8.2519 2.0845,2.8712 7.3411,8.3661 11.6813,12.211 18.4452,16.3403 23.3438,20.3431 24.9053,20.3508 0.9089,0 3.3505,0.8939 5.4258,1.9762 2.0752,1.0824 11.3752,3.8214 20.6666,6.0866 9.2914,2.2652 20.7935,6.0259 25.5602,8.3571 l 8.6666,4.2386 40.6667,0.964 c 22.3667,0.5302 42.7667,1.0706 45.3333,1.2011 2.5667,0.1304 7.9667,-0.4826 12,-1.3621 4.0334,-0.8796 12.7334,-2.0687 19.3334,-2.6425 8.6606,-0.7529 13.4841,-1.8948 17.3333,-4.1031 6.0917,-3.495 21.3222,-6.1104 51.6667,-8.8725 l 9,-0.8192 v 5.4838 c 0,5.3603 0.1033,5.4838 4.5876,5.4838 4.5794,0 4.5842,0.01 2.6748,3.6667 -1.0519,2.0167 -1.9164,5.7028 -1.9209,8.1913 l -0.01,4.5246 12.1143,-0.9145 c 6.6629,-0.5029 14.3129,-1.7517 17,-2.7749 z m -20.4476,-24.6932 c 1.3273,-1.4666 2.7133,-2.6666 3.0799,-2.6666 0.3667,0 -0.4193,1.2 -1.7466,2.6666 -1.3273,1.4667 -2.7133,2.6667 -3.08,2.6667 -0.3666,0 0.4194,-1.2 1.7467,-2.6667 z m 173.6122,-583.9339 c -3.1284,-2.7468 -5.5402,-6.5806 -7.0009,-11.1282 -1.2256,-3.8158 -3.5624,-9.0379 -5.1929,-11.6045 -3.9638,-6.2396 -6.0612,-12.3718 -7.5247,-22 -0.6688,-4.4 -1.8342,-11 -2.5897,-14.6667 -0.7555,-3.6667 -1.738,-9.5552 -2.1834,-13.0856 -0.8053,-6.3838 -0.7702,-6.4572 6.41,-13.4118 5.0737,-4.9143 9.1,-7.5193 13.5456,-8.7639 3.4792,-0.9742 6.6457,-2.2889 7.0368,-2.9216 1.063,-1.72 6.7345,-1.3892 11.6913,0.6819 3.2565,1.3606 5.2564,3.6773 7.7692,9 5.6807,12.0329 6.6805,19.6381 6.201,47.1677 -0.4956,28.4555 -1.5559,32.4696 -10.4466,39.5487 -7.3824,5.8781 -12.0166,6.1878 -17.7157,1.184 z M 1350,3779.5073 c -5.7467,-2.6853 -11.1991,-7.6337 -20.8652,-18.9365 -1.2091,-1.414 -3.7591,-3.8754 -5.6666,-5.4699 -2.4312,-2.0323 -3.4817,-4.225 -3.5134,-7.3333 -0.025,-2.4389 -1.2046,-6.8343 -2.6215,-9.7676 -5.1432,-10.6477 -2.0428,-22.6056 8.4063,-32.422 4.1463,-3.8953 16.2164,-6.9113 27.6588,-6.9113 10.8278,0 14.5717,2.4709 14.6468,9.6666 0.025,2.3834 1.2046,6.7334 2.6215,9.6667 2.8632,5.9275 3.6273,22.6203 1.4272,31.1786 -0.6817,2.6518 -1.9341,8.4214 -2.7831,12.8214 -0.8491,4.4 -1.7895,9.2 -2.09,10.6667 -0.7501,3.6619 -4.6715,8.2206 -7.8875,9.1692 -1.5156,0.4471 -5.5442,-0.558 -9.3333,-2.3286 z m 413.21,607.3589 c 0.3854,-0.6236 6.5708,-2.759 13.7454,-4.7453 7.1745,-1.9864 16.9446,-4.7658 21.7113,-6.1765 4.7666,-1.4108 10.8111,-3.1871 13.4321,-3.9474 6.8581,-1.9894 12.2278,-13.5987 7.1849,-15.5339 -1.1273,-0.4326 -3.0773,0.089 -4.3334,1.1586 -1.256,1.0698 -5.8537,2.7125 -10.2171,3.6504 -4.3634,0.9379 -8.8634,2.2143 -10,2.8365 -3.1932,1.7479 -14.4884,6.5581 -15.3999,6.5581 -0.4471,0 -3.4125,1.1842 -6.5898,2.6316 -3.1773,1.4475 -8.5444,3.3719 -11.9269,4.2766 -5.4,1.4443 -6.1499,2.087 -6.1499,5.2705 0,2.3319 0.8326,3.8433 2.3333,4.2355 3.9175,1.0238 5.478,0.9698 6.21,-0.2147 z M 1846.7845,4350 c 4.5202,-4.0333 8.7188,-7.3333 9.3302,-7.3333 1.3844,0 4.5977,-10.3988 3.5401,-11.4564 -1.7921,-1.792 -19.9003,3.9491 -23.7251,7.522 -3.4457,3.2188 -3.9297,4.5904 -3.9297,11.136 0,7.0433 0.1855,7.465 3.2829,7.465 2.0943,0 6.2588,-2.6553 11.5016,-7.3333 z m 28.7581,-16.762 c 3.3346,-1.5191 9.809,-6.247 14.3876,-10.5064 4.5786,-4.2594 10.5285,-8.7902 13.2222,-10.0684 2.6936,-1.2782 7.7363,-5.6225 11.2059,-9.6539 3.4696,-4.0314 11.7385,-13.1077 18.3753,-20.1695 12.0523,-12.8241 21.204,-24.4179 24.4584,-30.9848 0.948,-1.9131 4.1334,-6.6621 7.0786,-10.5534 2.9452,-3.8912 5.9882,-8.926 6.7623,-11.1883 0.7741,-2.2623 3.7653,-8.0133 6.6471,-12.78 6.1947,-10.2465 10.4392,-20.8047 9.4255,-23.4462 -1.0227,-2.6651 -5.7071,-2.3487 -6.6077,0.4462 -1.4436,4.4799 -9.0754,19.7089 -12.5285,25 -1.9143,2.9334 -4.5768,7.7058 -5.9166,10.6054 -1.3398,2.8997 -6.3998,9.5657 -11.2444,14.8134 -12.3036,13.3276 -17.7139,20.2141 -20.8083,26.4864 -1.4667,2.9729 -5.4751,7.5104 -8.9076,10.0834 -3.4325,2.5729 -7.991,7.0965 -10.1299,10.0524 -6.5277,9.0208 -16.0594,16.557 -22.17,17.5285 -4.259,0.6771 -7.2912,2.6251 -13.7925,8.8606 -7.389,7.0868 -8.3333,8.5731 -8.3333,13.1146 0,5.9155 0.6763,6.0954 8.8759,2.36 z m 834.9729,-567.8552 c -1.9165,-0.5801 -7.2089,-3.5286 -11.761,-6.5521 -4.552,-3.0236 -8.7827,-5.4974 -9.4015,-5.4974 -3.0841,0 -8.4402,-13.4355 -10.7561,-26.9814 -1.9134,-11.191 -3.4678,-16.0558 -7.1231,-22.2927 -7.2131,-12.3072 -7.702,-15.3046 -7.0776,-43.3925 0.5512,-24.7971 2.5434,-42.7395 5.0261,-45.2667 0.6844,-0.6967 1.2444,-2.6306 1.2444,-4.2977 0,-1.667 1.1398,-5.597 2.5328,-8.7333 1.3931,-3.1363 3.1802,-7.3523 3.9714,-9.369 1.1315,-2.8838 2.3699,-3.7088 5.8005,-3.8641 7.7045,-0.3487 8.3316,-0.4497 10.1755,-1.6387 1.2074,-0.7786 1.571,-2.6647 1.0878,-5.6423 -0.8714,-5.3698 1.2662,-7.3413 3.0039,-2.7706 1.286,3.3823 8.9687,8.9157 12.3788,8.9157 1.0831,0 3.0166,1.1572 4.2966,2.5717 1.9939,2.2032 2.0984,3.2059 0.7292,7 -3.0597,8.478 2.4762,19.7616 9.6953,19.7616 3.0278,0 4.454,3.4386 2.4351,5.8712 -1.6994,2.0477 -1.9466,6.8069 -0.7683,14.7955 0.4327,2.9333 1.7081,11.5641 2.8344,19.1796 1.1263,7.6154 2.6971,15.2713 3.4907,17.0132 1.2092,2.6538 0.9409,3.7013 -1.6559,6.4656 -3.7206,3.9603 -3.7998,10.3045 -0.3732,29.8884 2.5634,14.6507 2.6689,20.988 0.4899,29.4532 -0.8494,3.3 -1.8602,8.7 -2.2461,12 -1.1942,10.2103 -1.7078,11.4942 -5.2425,13.1047 -3.8468,1.7527 -7.6424,1.8353 -12.7871,0.2781 z m -7.5491,-72.803 c 1.2899,-4.5399 0.1547,-14.8083 -1.7685,-15.9968 -2.7896,-1.7241 -5.1979,2.4464 -5.1979,9.0012 0,11.0263 4.529,15.5742 6.9664,6.9956 z m 623.9916,53.4484 c -4.6065,-4.7288 -9.1956,-10.8696 -10.1981,-13.6463 -1.0025,-2.7767 -5.544,-12.8486 -10.0922,-22.3819 -4.5481,-9.5333 -12.109,-28.5272 -16.8018,-42.2086 -8.1149,-23.6576 -8.5319,-25.485 -8.5197,-37.3333 0.027,-26.0715 5.7654,-63.4722 10.884,-70.9359 6.3023,-9.1896 7.6978,-10.2508 20.1659,-15.3348 5.436,-2.2166 10.5041,-1.7929 14.0674,1.1761 3.0817,2.5677 3.0972,2.705 1,8.8598 -2.4331,7.1408 -2.718,12.8536 -0.8181,16.4035 1.7732,3.3134 14.3758,10.9569 15.3818,9.3292 1.3442,-2.1749 3.3061,-1.4325 3.3061,1.2512 0,1.3973 2.1475,5.1108 4.7721,8.2523 2.6246,3.1414 6.1564,8.4482 7.8484,11.7928 4.167,8.2371 15.8373,37.8449 18.1634,46.081 2.6611,9.4225 2.4742,31.0197 -0.3057,35.3334 -1.9594,3.0404 -3.518,11.0961 -5.8812,30.3977 -0.6396,5.2243 -1.892,8.1763 -4.8079,11.3333 -3.4157,3.6981 -3.84,4.9821 -3.1734,9.6023 0.7676,5.3192 0.7479,5.3474 -7.4458,10.6667 -4.5186,2.9333 -9.7803,6.3801 -11.6927,7.6596 -1.9124,1.2795 -4.3772,2.3203 -5.4772,2.313 -1.1,-0.01 -5.7689,-3.8823 -10.3753,-8.6111 z m -638.752,-161.2784 c 0.2534,-1.2232 1.0607,-2.1923 1.794,-2.1536 1.9791,0.1046 1.6155,3.0875 -0.4607,3.7796 -1.1215,0.3738 -1.6213,-0.2357 -1.3333,-1.626 z m -69.5393,-118.5123 c 0,-4.266 3.357,-16.1537 5.3384,-18.9042 0.5283,-0.7333 1.3654,-3.0259 1.8602,-5.0947 0.4994,-2.0879 1.6193,-3.5245 2.5172,-3.2289 2.9322,0.9653 2.4545,5.7006 -1.1043,10.9447 -2.3737,3.4978 -3.2877,6.2717 -2.8349,8.6038 0.576,2.9672 -3.3638,12.1085 -5.2187,12.1085 -0.3069,0 -0.5579,-1.9932 -0.5579,-4.4292 z m 42.1585,-169.8567 c -0.3675,-0.3676 0.037,-1.7983 0.9,-3.1795 1.3229,-2.1182 1.054,-2.8782 -1.718,-4.8562 -1.8075,-1.2898 -4.4985,-2.6856 -5.9801,-3.1018 -2.3194,-0.6516 -2.6432,-1.7041 -2.3297,-7.5725 0.2358,-4.4135 -0.6714,-9.7858 -2.5741,-15.2432 -1.616,-4.6352 -3.0791,-12.3276 -3.2514,-17.0943 -0.1722,-4.7666 -0.9377,-11.3666 -1.7011,-14.6666 -0.7634,-3.3 -1.4141,-11.1768 -1.4461,-17.5039 -0.038,-7.5093 -0.812,-13.2965 -2.2295,-16.6666 -1.7029,-4.0488 -2.4033,-12.6434 -3.246,-39.8295 -0.5911,-19.0667 -1.6953,-37.0667 -2.4539,-40 -0.8461,-3.2716 -1.141,-16.6729 -0.7629,-34.6667 0.4882,-23.2371 0.2058,-30.8574 -1.3589,-36.6667 -1.1912,-4.4227 -1.9815,-13.3377 -1.991,-22.4614 -0.01,-9.7539 -0.7592,-17.6853 -2.1084,-22.3263 -2.6923,-9.2611 -2.1622,-52.85 0.6973,-57.3397 1.5494,-2.4327 1.4095,-3.295 -1.0813,-6.6667 -4.1063,-5.5585 -6.1087,-16.7861 -4.9347,-27.6702 0.886,-8.2144 1.3735,-9.352 4.8563,-11.3333 3.5631,-2.027 3.8721,-2.8097 3.8799,-9.8292 0.01,-5.9224 -0.927,-9.4676 -4.1777,-15.8644 -5.0771,-9.9911 -5.8343,-15.9069 -3.82,-29.8421 0.848,-5.8667 1.7008,-30.1667 1.895,-54 0.3507,-43.019 0.5647,-45.6916 5.9765,-74.6667 0.6164,-3.3 2.1242,-11.4 3.3508,-18 3.3696,-18.1318 4.8522,-24.2807 8.8411,-36.6666 2.0075,-6.2334 4.3585,-14.7841 5.2245,-19.0016 1.474,-7.1786 1.7814,-7.6164 4.8131,-6.8555 3.1053,0.7794 3.2384,0.539 3.2384,-5.8468 0,-6.156 0.5043,-7.1968 6.6667,-13.7606 3.6667,-3.9055 6.6667,-7.6658 6.6667,-8.3562 0,-2.7504 7.204,-16.2877 9.5444,-17.9352 1.3719,-0.9657 3.3735,-3.6657 4.4481,-6 2.7962,-6.0739 4.9223,-9.1237 8.3244,-11.9411 1.641,-1.3589 3.4765,-4.3831 4.0788,-6.7203 0.7285,-2.8266 2.0239,-4.3856 3.8691,-4.6562 2.4919,-0.3654 2.6371,-0.8524 1.428,-4.7918 -1.1011,-3.5877 -0.731,-6.1808 2.0352,-14.2599 1.8595,-5.4312 3.766,-11.6748 4.2367,-13.8748 0.4707,-2.2 2.3212,-7.7024 4.1122,-12.2274 1.791,-4.5251 3.2564,-9.4751 3.2564,-11 0,-1.8837 0.8549,-2.7726 2.6667,-2.7726 3.171,0 3.1868,-0.1906 0.6952,-8.4025 -1.7934,-5.9107 -1.6983,-7.7029 1.2378,-23.3333 8.3181,-44.2811 9.166,-61.5935 4.7511,-97.0113 -1.4571,-11.6891 -3.0191,-27.8529 -3.4712,-35.9196 -0.4522,-8.0667 -1.6831,-18.1425 -2.7355,-22.3907 -1.0524,-4.2482 -2.4676,-15.3482 -3.1448,-24.6667 -0.6773,-9.3184 -2.4173,-25.0426 -3.8667,-34.9426 -1.4495,-9.9 -3.0047,-22.2 -3.4561,-27.3333 -1.2214,-13.8913 -4.4404,-36.4698 -7.9839,-56 -1.7296,-9.5334 -3.8309,-27.5706 -4.6693,-40.0829 -0.8385,-12.5122 -2.0985,-25.1122 -2.8,-28 -0.7016,-2.8877 -1.8356,-10.9505 -2.5201,-17.9171 -0.6846,-6.9667 -1.7962,-15.0667 -2.4704,-18 -0.6742,-2.9334 -2.8073,-12.0611 -4.7401,-20.2838 -1.9328,-8.2228 -5.0146,-24.7228 -6.8484,-36.6667 -1.8338,-11.9439 -4.7915,-28.3162 -6.5728,-36.3829 -1.7813,-8.0666 -4.5309,-24.8666 -6.1102,-37.3333 -6.2583,-49.4012 -9.3117,-68.3652 -12.5144,-77.7249 -1.8302,-5.3487 -3.698,-13.4487 -4.1506,-18 -1.3845,-13.9214 -4.7421,-29.0716 -8.9248,-40.2711 -5.0372,-13.4872 -5.7646,-15.7563 -10.2594,-32.004 -2.0287,-7.3333 -5.8838,-20.4182 -8.567,-29.0774 -2.6831,-8.6593 -4.8784,-17.7133 -4.8784,-20.1201 0,-12.3416 -18.2686,-59.3765 -26.3577,-67.8613 -6.7311,-7.0603 -20.7691,-15.2968 -32.309,-18.9565 -6.2333,-1.9768 -14.0333,-4.6637 -17.3333,-5.9708 -3.3,-1.3071 -10.1705,-2.8056 -15.2678,-3.33 -5.0972,-0.5244 -10.4972,-1.4207 -12,-1.9916 -3.5818,-1.3609 -33.0653,0.5477 -40.7423,2.6375 -15.1828,4.1329 -27.3416,10.8214 -39.5685,21.7665 -9.9978,8.9496 -19.0759,19.7892 -19.0992,22.8051 -0.01,0.7875 -4.4971,7.4319 -9.9801,14.7653 -11.4337,15.2923 -17.3897,28.6264 -16.3266,36.5521 0.3868,2.8841 -0.1496,6.9157 -1.271,9.5524 -1.0671,2.5092 -2.4386,8.4621 -3.0477,13.2288 -0.6091,4.7667 -1.7212,12.5667 -2.4713,17.3333 -4.3873,27.8798 -5.0669,74.7073 -1.5867,109.3334 3.3646,33.4762 10.515,79.902 18.7673,121.8523 1.4266,7.2521 2.5939,18.5482 2.5939,25.1024 0,12.1561 3.2778,37.785 7.8927,61.7119 1.4144,7.3334 3.2234,17.5334 4.0201,22.6667 0.7967,5.1333 3.3008,19.8333 5.5648,32.6667 2.2639,12.8333 4.6391,29.6333 5.2781,37.3333 2.3755,28.6249 3.7724,40.7905 5.2055,45.3333 0.8097,2.5667 2.6935,10.6563 4.1861,17.977 1.4927,7.3206 3.8777,16.6206 5.2999,20.6666 1.4222,4.046 3.483,12.5263 4.5794,18.845 1.0965,6.3188 4.4295,18.9188 7.4067,28 2.9773,9.0813 7.4456,25.5114 9.9297,36.5114 2.4841,11 5.1436,22.0961 5.9101,24.6579 0.7664,2.5618 1.3935,4.8118 1.3935,5 0,0.1882 -1.2,0.3421 -2.6666,0.3421 -2.1751,0 -2.6667,0.8889 -2.6667,4.8222 0,4.3105 -0.311,4.7409 -2.9306,4.0558 -1.6119,-0.4215 -3.6395,-0.1781 -4.5059,0.5409 -3.1904,2.6479 -10.2838,-16.7779 -22.0547,-60.3987 -9.2339,-34.219 -19.6963,-75.2595 -21.1641,-83.0202 -0.5548,-2.9333 -2.0081,-8.9333 -3.2296,-13.3333 -1.2215,-4.4 -2.7957,-17 -3.4982,-28 -1.9771,-30.9595 -3.9022,-47.2759 -6.6074,-56 -8.3322,-26.8714 -15.6729,-71.3789 -17.3728,-105.3333 -1.0311,-20.5952 -3.9109,-40.3847 -7.257,-49.8687 -3.4922,-9.898 -5.9013,-21.9563 -8.0175,-40.1313 -1.1527,-9.9 -2.9982,-24.5287 -4.1012,-32.5082 -1.8396,-13.3095 -4.826,-46.145 -6.7446,-74.1585 -0.4674,-6.8249 -0.1217,-14.7809 0.869,-20 0.9048,-4.7667 2.0228,-13.4667 2.4845,-19.3333 0.4616,-5.8667 1.6564,-12.1205 2.6551,-13.8973 1.5127,-2.6917 1.5286,-4.7521 0.095,-12.3492 -1.4061,-7.4517 -1.4056,-9.7071 0,-12.3386 1.0832,-2.024 1.493,-5.9978 1.1033,-10.6978 -0.4275,-5.1546 -0.1913,-7.0488 0.7601,-6.0974 2.1538,2.1538 4.8478,1.6232 4.8387,-0.9531 0,-1.2833 -0.9355,-4.1117 -2.069,-6.2853 -2.2194,-4.2563 -1.9845,-7.7192 1.6312,-24.048 3.999,-18.0602 7.0234,-26.6063 14.3914,-40.6667 0.9607,-1.8333 2.1961,-5.4309 2.7453,-7.9946 1.9701,-9.1962 4.797,-13.0988 12.2016,-16.8452 6.6364,-3.3578 7.1077,-3.9195 7.1077,-8.4714 0,-5.6484 6.5044,-14.2147 9.8255,-12.9402 2.3908,0.9174 8.8412,-4.3736 8.8412,-7.2522 0,-1.5961 1.3815,-2.0554 5.8883,-1.9576 3.2386,0.07 6.2573,-0.2407 6.7081,-0.6913 0.4509,-0.4505 1.1788,-3.8509 1.6177,-7.5563 0.5334,-4.504 1.5141,-6.9844 2.9586,-7.4832 1.1883,-0.4103 5.0338,-2.8811 8.5454,-5.4906 3.5116,-2.6095 6.9845,-4.3739 7.7176,-3.9208 1.5754,0.9737 13.3804,-1.5565 19.6095,-4.203 2.4082,-1.0231 5.5403,-1.8602 6.9601,-1.8602 1.4199,0 3.8913,-1.7716 5.4922,-3.9369 5.3264,-7.2044 18.2881,-9.956 31.1692,-6.617 2.9333,0.7604 9.2027,2.1744 13.9319,3.1424 6.6418,1.3594 9.3076,2.6306 11.7137,5.5857 3.0457,3.7406 3.1591,3.7674 5.0934,1.2029 1.8635,-2.4706 2.2285,-2.5008 6.2863,-0.5204 2.3694,1.1564 8.508,3.1321 13.6413,4.3905 5.1334,1.2584 9.9034,2.8426 10.6,3.5204 0.6967,0.6778 2.4967,1.2346 4,1.2374 1.5034,0 8.0733,3.1322 14.6,6.9542 14.9204,8.7376 19.4667,14.4301 19.4667,24.3752 0,3.8139 0.6587,8.8238 1.4638,11.1333 1.4804,4.2467 4.4598,5.5932 5.6032,2.5323 0.3932,-1.0527 0.9866,-0.6844 1.6108,1 0.5436,1.4666 3.3637,7.9309 6.267,14.3649 2.9033,6.434 6.7629,18.134 8.5769,26 1.814,7.866 4.4725,18.5017 5.9078,23.6351 9.1579,32.7533 12.4818,43.8575 15.9563,53.3058 2.1519,5.8516 5.7903,20.2516 8.0854,32 4.3857,22.4499 7.0672,33.3342 9.8806,40.1049 0.9319,2.2426 2.0968,10.0426 2.5887,17.3333 0.4919,7.2908 1.7331,18.056 2.7582,23.9226 1.0251,5.8667 2.4494,17.5667 3.1653,26 0.7158,8.4334 2.9013,21.3334 4.8566,28.6667 1.9553,7.3333 3.7307,17.5333 3.9453,22.6667 0.409,9.7847 4.3187,33.4481 8.7018,52.6666 1.4216,6.2334 3.2045,15.3682 3.9621,20.2997 0.7575,4.9315 1.9833,10.5602 2.7239,12.5082 0.7406,1.9481 2.2396,11.7132 3.331,21.7003 1.0915,9.9872 2.2682,18.9362 2.615,19.8867 0.5609,1.5374 1.9395,14.1235 5.9446,54.2718 0.6584,6.6 2.1576,16.0679 3.3314,21.0397 3.1851,13.4905 6.0056,35.0218 6.0332,46.0571 0.013,5.3699 1.5177,18.8699 3.3427,30 1.8251,11.1301 3.9034,28.9365 4.6184,39.5699 1.5059,22.3927 4.4128,45.3423 7.3447,57.9842 1.1286,4.8664 2.052,14.1038 2.052,20.5277 0,7.2654 0.8157,14.0739 2.1584,18.0144 2.4724,7.2561 2.0719,21.139 -1.2157,42.1403 -1.0906,6.9667 -2.3689,16.5667 -2.8408,21.3334 -0.4718,4.7666 -1.6884,12.8666 -2.7034,18 -1.0151,5.1333 -2.5313,15.1397 -3.3694,22.2364 -0.8382,7.0968 -4.5336,27.4968 -8.2121,45.3334 -3.6784,17.8366 -7.1799,34.8302 -7.7809,37.7635 -1.7237,8.4126 -8.6408,27.1085 -13.896,37.5586 -2.6437,5.2573 -4.8068,11.0338 -4.8068,12.8368 0,1.8029 -0.8614,3.993 -1.9143,4.8668 -1.0529,0.8738 -2.2943,3.3191 -2.7588,5.434 -0.4646,2.1149 -1.9155,5.2234 -3.2243,6.9079 -1.3088,1.6844 -5.3173,8.7598 -8.9078,15.7231 -3.5905,6.9632 -8.4781,15.5735 -10.8615,19.1339 -2.3833,3.5605 -4.3333,7.1843 -4.3333,8.053 0,0.8688 -1.5189,6.0585 -3.3753,11.5327 -3.7808,11.149 -7.1048,23.455 -10.6116,39.2865 -1.2995,5.8667 -3.7286,16.3667 -5.398,23.3334 -3.3131,13.8263 -4.3662,28.8671 -5.2837,75.4622 -0.3191,16.2042 -1.5111,38.7804 -2.6489,50.1693 -1.9815,19.8346 -1.9519,21.6523 0.7024,43.1336 1.7697,14.3219 2.4632,25.343 1.919,30.4973 -0.5398,5.1123 -0.268,9.5372 0.7416,12.0709 0.9286,2.3306 2.0719,16.7985 2.7395,34.6667 0.6302,16.8666 1.7709,38.1666 2.5349,47.3333 3.3033,39.6299 3.3131,41.1536 0.2856,44.3845 l -2.7632,2.9488 2.6864,7.3334 c 3.8898,10.6186 5.463,26.5536 9.1484,92.6666 1.6058,28.8058 7.469,78.1644 10.0575,84.6667 1.8749,4.71 2.0159,21.6939 0.1952,23.5146 -0.5114,0.5114 -0.9298,3.2413 -0.9298,6.0664 0,4.8131 -0.2098,5.0838 -3.3333,4.2999 -3.0072,-0.7548 -3.3334,-0.4407 -3.3334,3.2102 0,3.1459 -0.8727,4.4823 -3.9199,6.0024 -2.1559,1.0756 -4.2206,1.6548 -4.5882,1.2873 z M 2413.3333,2196.7454 c 0,-1.0568 -0.6,-2.2922 -1.3333,-2.7454 -0.7333,-0.4532 -1.3333,0.4114 -1.3333,1.9213 0,1.51 0.6,2.7454 1.3333,2.7454 0.7333,0 1.3333,-0.8646 1.3333,-1.9213 z m 229.49,-481.1221 c -2.2216,-2.2216 -3.4373,2.6944 -1.3058,5.2804 1.6519,2.0042 1.8561,1.9286 2.2621,-0.8375 0.2454,-1.6722 -0.185,-3.6716 -0.9563,-4.4429 z m -5.49,-34.0233 c 0,-2.4731 -2.3824,-5.6 -4.2666,-5.6 -1.6453,0 -1.2616,4.6051 0.5333,6.4 2.2869,2.2869 3.7333,1.9769 3.7333,-0.8 z m -246.6666,-28.188 c 0,-0.69 -0.6,-1.6254 -1.3334,-2.0787 -0.7333,-0.4532 -1.3333,0.1114 -1.3333,1.2547 0,1.1433 0.6,2.0787 1.3333,2.0787 0.7334,0 1.3334,-0.5646 1.3334,-1.2547 z m 912.1052,1565.8102 c 0.064,-1.5532 0.38,-1.8692 0.8056,-0.8055 0.3851,0.9625 0.3378,2.1125 -0.1053,2.5555 -0.443,0.4431 -0.7582,-0.3444 -0.7003,-1.75 z m -9.3887,-3.1291 c -0.7576,-1.4154 -2.6287,-2.7654 -4.1581,-3 -2.0248,-0.3105 -3.4755,-2.4061 -5.3363,-7.7086 -1.4055,-4.0052 -2.5555,-8.563 -2.5555,-10.1285 0,-1.5654 -0.913,-4.6764 -2.0288,-6.9132 -1.1944,-2.3943 -2.808,-12.5584 -3.9231,-24.7121 -1.0418,-11.3549 -3.1103,-25.9669 -4.5966,-32.4713 -2.8467,-12.4576 -6.1428,-43.6308 -7.4534,-70.4927 -0.4293,-8.8 -1.3436,-20.8 -2.0316,-26.6667 -0.688,-5.8667 -1.9137,-18.4667 -2.7238,-28 -0.8101,-9.5333 -2.0665,-20.0333 -2.7921,-23.3333 -2.0112,-9.1476 -6.3388,-52.5942 -7.7693,-78 -1.6619,-29.5144 -4.1329,-61.0759 -4.8777,-62.3016 -0.648,-1.0664 -3.3248,-70.0245 -3.8073,-98.0806 -0.3624,-21.0735 2.4822,-64.7079 4.5695,-70.0932 0.8119,-2.0948 1.3645,-8.1366 1.2279,-13.4262 -0.1365,-5.2897 0.1418,-10.2486 0.6185,-11.0199 0.4767,-0.7714 1.4584,-6.1296 2.1815,-11.9072 0.7232,-5.7776 2.5292,-16.2047 4.0135,-23.1713 1.4843,-6.9667 2.7049,-14.0116 2.7124,-15.6554 0.01,-1.6438 1.1748,-3.7138 2.5938,-4.5999 1.9451,-1.2148 2.3911,-2.556 1.8123,-5.4499 -1.1903,-5.9516 2.199,-18.2948 5.0235,-18.2948 1.9954,0 2.3112,-1.3156 2.2379,-9.3232 -0.063,-6.9099 0.4881,-9.957 2.1304,-11.7717 1.2187,-1.3466 2.2159,-3.0002 2.2159,-3.6745 0,-1.7162 10.7392,-26.286 12.1645,-27.8306 0.6428,-0.6967 1.1688,-2.3051 1.1688,-3.5742 0,-2.6591 3.1557,-7.8347 13,-21.321 3.85,-5.2743 7,-10.0532 7,-10.6197 0,-1.9914 10.8796,-17.3839 12.811,-18.125 3.122,-1.198 5.9997,-8.0029 5.1094,-12.082 -0.4776,-2.1884 -0.3407,-3.033 0.3381,-2.0854 0.6275,0.8761 2.326,1.372 3.7745,1.102 1.4485,-0.2699 3.0039,-0.5366 3.4565,-0.5927 1.4573,-0.1807 7.3809,-9.9847 8.319,-13.7687 0.4999,-2.0167 1.505,-3.6667 2.2335,-3.6667 1.4745,0 9.2687,-11.2746 15.0739,-21.8051 4.9756,-9.0257 10.2174,-24.2312 10.2174,-29.6387 0,-2.3705 1.5497,-7.297 3.4438,-10.9477 1.894,-3.6507 3.9387,-10.4561 4.5438,-15.1231 0.605,-4.6669 2.0179,-10.2854 3.1396,-12.4854 4.942,-9.6924 7.8986,-25.0152 7.8467,-40.6666 -0.031,-9.3056 0.685,-17.9182 1.821,-21.9087 1.0295,-3.6164 1.8718,-9.7854 1.8718,-13.7087 0,-3.9234 1.2935,-10.8645 2.8743,-15.4247 3.7276,-10.7525 4.8845,-17.4015 7.8227,-44.9579 0.821,-7.7 2.0564,-16.4 2.7453,-19.3334 3.2278,-13.7445 9.0446,-70.9906 9.1524,-90.0744 0.052,-9.1519 0.8388,-15.0118 2.794,-20.8015 2.5794,-7.6381 2.6848,-10.2541 2.0116,-49.9256 -0.3908,-23.0258 -0.6656,-45.7651 -0.6107,-50.5318 0.4002,-34.7765 -0.022,-57.4877 -1.3127,-70.6667 -0.8261,-8.4333 -2.1025,-21.3333 -2.8363,-28.6666 -0.7339,-7.3334 -1.7783,-18.4334 -2.3208,-24.6667 -0.6367,-7.3143 -1.8139,-12.5024 -3.3198,-14.63 -1.2867,-1.8179 -2.3358,-5.7055 -2.3389,-8.6667 0,-3.07 -1.4262,-8.17 -3.3223,-11.9075 -1.8242,-3.5956 -4.1852,-10.1956 -5.2467,-14.6667 -1.8294,-7.7057 -2.3138,-10.5726 -4.1894,-24.7958 -0.4351,-3.3 -2.5952,-11.5635 -4.8002,-18.3633 -3.3756,-10.41 -3.7806,-13.0188 -2.563,-16.5115 2.1089,-6.0499 0.3712,-22.2278 -2.8877,-26.8836 -2.5862,-3.6948 -4.3156,-12.133 -5.849,-28.5386 -0.4268,-4.5659 -1.6061,-8.9864 -2.6225,-9.83 -1.0158,-0.843 -1.847,-3.8411 -1.847,-6.6623 0,-2.8213 -1.1805,-7.2315 -2.6235,-9.8005 -1.4429,-2.569 -3.5864,-9.0372 -4.7634,-14.3739 -1.177,-5.3366 -2.6964,-11.8725 -3.3765,-14.5243 -0.6801,-2.6517 -1.2405,-6.2517 -1.2454,-8 0,-1.7482 -1.2008,-4.9786 -2.6578,-7.1786 -1.457,-2.2 -2.6568,-5.2 -2.6661,-6.6667 -0.01,-1.4667 -0.9575,-4.4667 -2.1069,-6.6667 -1.4305,-2.7381 -1.8315,-5.7296 -1.271,-9.4825 0.7729,-5.1751 0.5886,-5.5778 -3.2862,-7.1828 -4.649,-1.9257 -6.6698,-4.9294 -6.6698,-9.9137 0,-2.8773 0.6078,-3.421 3.8244,-3.421 3.3831,0 3.9201,-0.577 4.6536,-5 2.3902,-14.4144 3.5512,-19.4501 5.2864,-22.9283 1.6727,-3.353 1.6591,-4.0768 -0.11,-5.8458 -2.7789,-2.7789 -1.1072,-6.5228 2.6729,-5.986 2.2325,0.317 3.1176,1.4561 3.4398,4.4268 0.2386,2.2 2.2174,5.8583 4.3973,8.1295 2.8486,2.9679 4.6575,6.9744 6.4303,14.2424 1.6685,6.84 3.8416,11.8237 6.7148,15.399 3.3506,4.1694 4.48,7.1563 5.346,14.1391 0.6038,4.8692 1.6888,9.5813 2.411,10.4715 1.7833,2.198 5.6001,17.5499 5.6001,22.5247 0,2.2133 0.8907,5.9148 1.9793,8.2256 3.4344,7.2905 8.687,23.8617 8.6962,27.4351 0,1.8882 1.2009,5.2331 2.6579,7.4331 1.457,2.2 2.653,5.8675 2.6578,8.15 0.01,2.5939 1.5087,6.0373 4.0088,9.1833 2.2,2.7684 4,6.4509 4,8.1834 0,1.7325 1.2343,4.3842 2.7428,5.8927 2.6902,2.6902 2.7406,3.891 2.6312,62.6643 -0.091,48.6276 0.2372,60.6132 1.7388,63.5906 1.0177,2.018 2.2417,8.0599 2.7199,13.4264 0.9266,10.3983 3.9204,22.6927 9.4748,38.9093 2.9645,8.6553 4.678,11.2616 12.7426,19.3819 8.4833,8.5419 9.4958,10.1535 11.3094,18 1.0956,4.74 2.5879,11.1767 3.3163,14.3039 0.8001,3.4355 1.3242,37.8619 1.3242,86.9859 v 81.3001 l -6.6666,7.3615 -6.6667,7.3616 -0.01,24.3192 c -0.01,22.2478 -0.2398,24.6599 -2.7211,28.3192 -5.8787,8.6694 -7.9368,14.9992 -7.9368,24.4102 0,8.2405 -0.4261,9.7594 -4,14.2565 -2.2916,2.8837 -4,6.6263 -4,8.7632 0,2.0514 -0.6128,5.3418 -1.3618,7.3118 -0.7491,1.9701 -1.6778,9.0592 -2.0639,15.7535 -1.3743,23.828 -2.8879,37.5611 -4.5743,41.5048 -1.7326,4.0519 -3.4473,18.4129 -5.0945,42.6667 -0.6027,8.8748 -1.6413,14.448 -3.106,16.6667 -1.2103,1.8333 -3.1822,7.5333 -4.3821,12.6666 -3.6472,15.6036 -6.7714,26.514 -8.47,29.579 -0.8877,1.6018 -1.614,4.1392 -1.614,5.6387 0,1.4995 -1.2436,6.7889 -2.7636,11.7543 -1.52,4.9654 -3.3845,11.428 -4.1433,14.3614 -1.766,6.8265 -4.578,14.2594 -8.5825,22.6858 -1.7475,3.6772 -3.1773,7.1905 -3.1773,7.8075 0,0.6169 -1.5,2.9044 -3.3333,5.0832 -1.8334,2.1788 -3.3334,4.8728 -3.3334,5.9867 0,1.1139 -0.9,3.7679 -2,5.8977 -1.1,2.1298 -3.003,5.8224 -4.229,8.2057 -1.226,2.3834 -3.0291,4.8149 -4.0068,5.4034 -1.7434,1.0494 -9.7642,16.9677 -9.7642,19.3784 0,0.6745 -1.2759,2.0735 -2.8355,3.109 -2.0862,1.3852 -3.0094,3.6935 -3.4939,8.7352 -0.6292,6.5482 -0.7975,6.7997 -3.7897,5.6621 -2.514,-0.9559 -3.5337,-0.616 -5.1727,1.724 -1.1228,1.6031 -2.0415,3.6811 -2.0415,4.6179 0,0.9369 -0.8862,1.7034 -1.9693,1.7034 -1.0831,0 -3.0123,1.65 -4.2871,3.6666 -1.2748,2.0167 -4.2887,6.303 -6.6974,9.5251 -2.4087,3.2221 -4.3795,6.5975 -4.3795,7.5008 0,1.4696 -4.8985,12.7962 -7.7735,17.9741 -3.478,6.2643 -5.5599,11.137 -5.5599,13.0134 0,3.1462 -2.575,10.6417 -6.6539,19.3683 -3.0925,6.6163 -3.8481,7.4233 -5.306,5.6667 -2.7675,-3.3348 -3.7104,-2.3895 -3.609,3.6183 0.052,3.1167 -0.026,8.0667 -0.1738,11 -0.1482,2.9333 0.095,8.5434 0.541,12.4669 0.7817,6.8806 0.7071,7.1007 -2.103,6.2089 -2.4932,-0.7914 -2.8496,-0.4741 -2.471,2.1997 0.2813,1.987 -0.4488,3.6099 -2.0053,4.4578 -1.8509,1.0082 -2.5699,3.2842 -2.9485,9.3334 -0.2754,4.4 -1.143,13.7 -1.928,20.6666 -0.785,6.9667 -1.9975,23.7667 -2.6945,37.3334 -0.697,13.5666 -1.8447,27.3666 -2.5505,30.6666 -0.7059,3.3 -1.3152,9.6 -1.3541,14 -0.1376,15.5657 2.6475,93.6032 4.021,112.6667 1.6678,23.1486 2.2987,48.0097 1.2349,48.6671 -0.4217,0.2607 -1.5444,-1.2828 -2.4948,-3.4299 -0.9504,-2.1471 -2.4976,-3.9039 -3.4382,-3.9039 -2.0493,0 -1.2372,18.2741 0.9332,21 2.4006,3.015 3.6672,1.7486 3.6672,-3.6666 0,-2.9334 0.6,-5.3334 1.3333,-5.3334 0.7461,0 1.336,3.6707 1.3394,8.3334 0,4.5833 1.198,18.3852 2.6548,30.6709 1.4569,12.2857 2.5327,25.1857 2.3908,28.6667 -0.142,3.481 0.7303,11.429 1.9384,17.6624 1.2081,6.2333 2.8634,18.8333 3.6785,28 0.815,9.1666 2.6195,26.2666 4.0099,38 1.3903,11.7333 2.7065,28.6526 2.9247,37.5984 0.3554,14.5659 0.1531,16.3288 -1.9365,16.8752 -4.8804,1.276 -1.4806,18.3478 4.0003,20.0873 2.5819,0.8195 4.2922,8.7853 6.3205,29.4391 1.9324,19.6774 2.4884,22.8605 4.3649,24.9924 2.8404,3.2268 4.1825,22.9633 1.5008,22.0703 -1.0192,-0.3394 -1.965,-1.4673 -2.1017,-2.5066 -0.1368,-1.0392 -0.6252,-4.7507 -1.0855,-8.2478 -0.54,-4.1032 -2.0303,-7.6499 -4.2019,-10 -2.0385,-2.2061 -3.0869,-2.7592 -2.6594,-1.403 2.5046,7.9457 2.4153,11.5991 -0.3413,13.9594 -2.1156,1.8115 -2.7967,3.9459 -2.7967,8.7649 0,6.6486 -1.6006,8.1871 -3.9501,3.7968 z m -44.2905,-397.7461 c -0.2343,-1.6426 -1.476,-3.1865 -2.7594,-3.4311 -2.6746,-0.5098 -3.1219,2.4288 -0.7333,4.8174 2.4829,2.4829 3.9611,1.8962 3.4927,-1.3863 z m -3.7594,-75.6803 c 0,-2.9458 -2.1112,-4.6441 -3.3272,-2.6765 -1.1748,1.9008 0.5761,6.886 2.0899,5.9505 0.6805,-0.4206 1.2373,-1.8939 1.2373,-3.274 z m 52.7773,386.8456 c -0.5744,-0.9294 -0.6842,-2.0498 -0.2441,-2.4899 1.1933,-1.1933 2.4943,0.5617 1.8498,2.4953 -0.4516,1.3549 -0.7657,1.3538 -1.6057,-0.01 z m 75.2227,-808.179 c 0,-0.7333 0.6,-1.3333 1.3334,-1.3333 0.7333,0 1.3333,0.6 1.3333,1.3333 0,0.7334 -0.6,1.3334 -1.3333,1.3334 -0.7334,0 -1.3334,-0.6 -1.3334,-1.3334 z m -224,-117.2508 c 0,-0.8101 -1.3669,-2.0958 -3.0375,-2.857 -5.1074,-2.3271 -23.6604,-41.2667 -26.3206,-55.2426 -0.9753,-5.1239 -2.5269,-10.2173 -3.4481,-11.3187 -5.1959,-6.2123 -8.4852,-27.518 -8.6972,-56.3342 -0.1359,-18.4683 -0.6983,-24.9658 -2.8563,-32.9967 -1.4779,-5.5 -2.9743,-11.8 -3.3253,-14 -0.351,-2.2 -2.6873,-11.2 -5.1917,-20 -2.5045,-8.8 -5.1622,-20.8 -5.9062,-26.6666 -0.7439,-5.8667 -2.2548,-14.8667 -3.3576,-20 -3.6235,-16.8674 -8.2375,-46.4459 -9.1516,-58.6667 -0.4936,-6.6 -1.7609,-18.3 -2.8162,-26 -1.0552,-7.7 -2.2526,-26.9 -2.6609,-42.6667 -0.4082,-15.7666 -0.9769,-36.4666 -1.2636,-46 -1.3377,-44.4704 -1.2684,-68.5648 0.2015,-70.035 0.9694,-0.9696 1.1399,-3.2392 0.4808,-6.4003 -0.5617,-2.6939 -1.379,-10.4194 -1.8163,-17.1677 l -0.7951,-12.2697 3.6477,-1.757 c 3.3736,-1.625 3.6283,-2.3058 3.3905,-9.0636 -0.1415,-4.0187 -1.0003,-12.8891 -1.9085,-19.7121 -1.2773,-9.5953 -1.2945,-13.3921 -0.076,-16.7613 0.8663,-2.3958 1.6349,-7.6133 1.708,-11.5946 0.1871,-10.1913 1.4358,-13.8271 4.9218,-14.3314 3.5829,-0.5183 3.5804,-0.4678 0.2836,-5.875 -4.029,-6.6082 -3.4461,-14.1975 1.995,-25.9741 2.5667,-5.5552 4.6667,-11.1948 4.6667,-12.5324 0,-1.3376 1.2,-3.0742 2.6667,-3.8591 1.4666,-0.7849 2.6666,-2.5326 2.6666,-3.8837 0,-1.351 0.9,-3.2034 2,-4.1163 1.1,-0.9129 2,-2.6818 2,-3.9308 0,-1.2491 1.4644,-3.6468 3.2542,-5.3282 1.7899,-1.6814 4.8575,-6.3341 6.817,-10.3392 3.0771,-6.2892 3.9769,-7.1782 6.5996,-6.5199 2.6354,0.6614 3.1548,0.1327 3.9303,-4.001 0.6357,-3.3889 3.046,-6.848 8.3537,-11.9887 4.103,-3.9741 7.8791,-7.2255 8.3913,-7.2255 0.5122,0 2.3923,-1.3541 4.1781,-3.0092 4.2622,-3.95 46.4653,-24.9908 50.126,-24.9908 0.8865,0 4.3418,-1.3263 7.6783,-2.9474 5.2096,-2.531 6.6523,-2.7262 10.2133,-1.3821 3.3625,1.2692 4.6736,1.1962 6.9325,-0.386 1.5322,-1.0732 5.2022,-1.9616 8.1557,-1.9742 3.9034,-0.017 6.1909,-0.889 8.3757,-3.1939 1.6997,-1.793 5.1758,-3.4739 8,-3.8684 2.7469,-0.3836 7.3943,-1.2258 10.3277,-1.8715 5.9374,-1.3069 18.8762,-0.2662 34,2.7349 15.3207,3.0401 21.2979,4.9583 29.9618,9.6153 8.9194,4.7945 11.7978,8.0008 8.8391,9.8463 -1.4207,0.8861 -1.6564,2.9443 -0.9883,8.6287 0.9868,8.3965 -0.2378,9.4092 -5.4533,4.5096 -5.3986,-5.0718 -7.4054,-2.1924 -9.5922,13.7626 -1.0448,7.6227 -2.0435,14.0581 -2.2194,14.3009 -0.1758,0.2429 -3.6635,-2.282 -7.7504,-5.6108 -11.281,-9.1885 -11.8556,-9.3753 -28.1307,-9.1471 -8.0666,0.1132 -16.7666,0.2355 -19.3333,0.2719 -13.4131,0.1903 -26.6694,3.6369 -56,14.5598 -4.0333,1.502 -8.9816,2.7506 -10.9962,2.7745 -2.2706,0.027 -5.6261,1.8173 -8.8282,4.7102 -2.841,2.5667 -5.8599,4.6667 -6.7086,4.6667 -2.2224,0 -17.1092,7.6756 -18.1486,9.3575 -0.4817,0.7794 -3.2472,2.9141 -6.1455,4.7437 -2.8982,1.8296 -6.4263,5.2287 -7.8401,7.5535 -1.4138,2.3248 -6.342,8.361 -10.9517,13.4137 -6.8886,7.5509 -8.5457,10.2762 -9.3055,15.3037 -0.5085,3.3642 -2.7064,9.5161 -4.8842,13.6709 -5.3353,10.1782 -8.8532,32.6595 -12.0946,77.2903 -2.5851,35.5941 -1.6196,84.4412 2.6251,132.8072 0.7655,8.7227 1.93,30.8595 2.5879,49.1928 0.6578,18.3333 2.1572,40.2333 3.3321,48.6667 1.1749,8.4333 2.6804,19.5581 3.3458,24.7217 0.6653,5.1636 1.8069,12.0636 2.5369,15.3333 1.3351,5.9799 10.1665,53.9097 11.5367,62.6116 0.4041,2.5667 1.8746,8.2667 3.2677,12.6667 4.9904,15.7618 9.2202,40.8669 9.4351,56 0.3554,25.0313 3.6955,46.7507 10.4571,68 2.1001,6.6 4.1916,14.0606 4.6478,16.5792 0.4561,2.5185 1.6545,5.5185 2.6629,6.6666 1.0085,1.1482 2.8228,6.5002 4.0318,11.8935 1.7658,7.8771 1.8713,10.2 0.536,11.8089 -0.9142,1.1016 -2.2857,3.2415 -3.0476,4.7554 -1.5433,3.0661 -4.7188,4.6671 -4.7188,2.3789 z m -23.1144,-676.6595 c -0.441,-1.1493 -1.4207,-2.0897 -2.1771,-2.0897 -1.534,0 -1.8844,4.3797 -0.464,5.8 1.4637,1.4638 3.5187,-1.4232 2.6411,-3.7103 z m 69.0575,-31.3309 c 0.986,-1.5954 -1.5222,-3.1763 -3.2981,-2.0787 -1.4912,0.9216 -0.5123,3.3199 1.355,3.3199 0.6468,0 1.5212,-0.5585 1.9431,-1.2412 z"
       id="path1" />
  </g>
</svg>
